<svg id="Group_639" data-name="Group 639" xmlns="http://www.w3.org/2000/svg" xmlns:xlink="http://www.w3.org/1999/xlink" width="102.539" height="95.969" viewBox="0 0 102.539 95.969">
  <defs>
    <clipPath id="clip-path">
      <rect id="Rectangle_362" data-name="Rectangle 362" width="102.539" height="95.969" fill="#e869a4"/>
    </clipPath>
  </defs>
  <g id="Group_620" data-name="Group 620" clip-path="url(#clip-path)">
    <path id="Path_680" data-name="Path 680" d="M100.695,37.9A53.42,53.42,0,0,0,65.618,1.86l1.978.8A51.952,51.952,0,0,0,23.855,7.778,51.953,51.953,0,0,0,.283,44.977c-1.42,11.777,2.448,25.382,13.029,30.746,11.594,5.877,26.817-.044,38,6.583,6.371,3.776,10.513,11.2,17.651,13.178,7.487,2.069,15.179-2.808,20.349-8.6A53.423,53.423,0,0,0,100.695,37.9" transform="translate(0 0)" fill="#e869a4"/>
  </g>
</svg>
