<svg id="Group_631" data-name="Group 631" xmlns="http://www.w3.org/2000/svg" xmlns:xlink="http://www.w3.org/1999/xlink" width="102.705" height="101" viewBox="0 0 102.705 101">
  <defs>
    <clipPath id="clip-path">
      <rect id="Rectangle_365" data-name="Rectangle 365" width="102.705" height="101" fill="#e869a4"/>
    </clipPath>
  </defs>
  <g id="Group_626" data-name="Group 626" clip-path="url(#clip-path)">
    <path id="Path_683" data-name="Path 683" d="M87,39.213c-4.489-4.238-9.154-8.319-12.934-13.225C69.46,20.006,65.841,13.457,60.361,8.15c-9.917-9.6-26.417-10.536-38.448-3.769S2.331,24.415.468,38.093c-2.953,21.694,8.265,44.65,27.2,55.65,20.3,11.8,48.3,9.055,65.577-7.074,5.06-4.724,8.877-11.076,9.4-17.978.507-6.69-2.1-13.318-5.959-18.808A71.3,71.3,0,0,0,87,39.213" transform="translate(0 0)" fill="#e869a4"/>
  </g>
</svg>
