<svg id="Group_882" data-name="Group 882" xmlns="http://www.w3.org/2000/svg" xmlns:xlink="http://www.w3.org/1999/xlink" width="297.776" height="108.689" viewBox="0 0 297.776 108.689">
  <defs>
    <clipPath id="clip-path">
      <rect id="Rectangle_452" data-name="Rectangle 452" width="297.776" height="108.689" fill="none"/>
    </clipPath>
    <clipPath id="clip-path-5">
      <path id="Path_1409" data-name="Path 1409" d="M70.464,64.227l59,7.18,9.834-58.3L81,6.795Z" transform="translate(-70.464 -6.795)" fill="none"/>
    </clipPath>
    <clipPath id="clip-path-6">
      <rect id="Rectangle_424" data-name="Rectangle 424" width="60.323" height="8.041" fill="none"/>
    </clipPath>
    <clipPath id="clip-path-7">
      <rect id="Rectangle_425" data-name="Rectangle 425" width="60.322" height="8.041" fill="none"/>
    </clipPath>
    <clipPath id="clip-path-8">
      <rect id="Rectangle_426" data-name="Rectangle 426" width="60.322" height="8.04" fill="none"/>
    </clipPath>
    <clipPath id="clip-path-13">
      <rect id="Rectangle_431" data-name="Rectangle 431" width="60.323" height="8.04" fill="none"/>
    </clipPath>
    <clipPath id="clip-path-26">
      <rect id="Rectangle_444" data-name="Rectangle 444" width="60.321" height="8.041" fill="none"/>
    </clipPath>
    <clipPath id="clip-path-30">
      <path id="Path_1433" data-name="Path 1433" d="M18.263,12.83l.114,1.591.052.729.142,1.953.051.706.142,1.967.052.706.142,1.968.051.709.142,1.97.052.708.142,1.974.051.709.144,1.974.051.711.144,1.976.051.709.144,1.98.051.711.144,1.982.052.712.142,1.983.051.712.145,1.985.051.714.135,1.863.054.742.144,1.976.051.714.145,1.992.051.715.144,1.994.052.717.145,2,.052.717.144,2,.051.718.145,2,.052.72.145,2,.052.718.144,2,.052.72.145,2.006.052.721.064.875,59.235-2.18h0l-.072-.865-.06-.709-.166-1.979-.058-.709-.166-1.976-.058-.709-.166-1.973-.058-.709-.165-1.971-.06-.708-.163-1.97-.06-.706-.166-1.968-.057-.7-.165-1.965-.06-.706L79.964,48.1l-.06-.7-.163-1.949-.06-.732-.154-1.838-.06-.7L79.3,40.217l-.058-.7-.163-1.955-.06-.7L78.858,34.9l-.058-.7-.163-1.952-.058-.7-.163-1.95-.058-.7-.162-1.947-.06-.7-.163-1.946-.057-.7-.163-1.943-.058-.7-.162-1.943-.06-.7-.162-1.94-.057-.7-.162-1.926-.06-.72L76.9,11.48Z" transform="translate(-18.263 -11.48)" fill="none"/>
    </clipPath>
    <clipPath id="clip-path-31">
      <rect id="Rectangle_448" data-name="Rectangle 448" width="65.273" height="57.935" fill="none"/>
    </clipPath>
    <clipPath id="clip-path-33">
      <path id="Path_1463" data-name="Path 1463" d="M148.593,28.558,156.2,88.026l57.083-10.687-6.854-58.655Z" transform="translate(-148.593 -18.684)" fill="none"/>
    </clipPath>
    <clipPath id="clip-path-34">
      <rect id="Rectangle_450" data-name="Rectangle 450" width="69.445" height="66.063" fill="none"/>
    </clipPath>
  </defs>
  <g id="Group_881" data-name="Group 881" clip-path="url(#clip-path)">
    <path id="Path_1313" data-name="Path 1313" d="M11.414,6.576,17.022,85.97,95.694,82.9,89.026,4.962ZM80.447,16.2l.06.72.162,1.926.058.7.162,1.94.058.7.162,1.941.058.7.163,1.943.058.7.163,1.946.058.7.162,1.947.06.7L82,34.7l.06.7.163,1.952.058.7.163,1.953.058.7.163,1.955.06.7.163,1.958.058.7L83.1,47.87l.061.73.163,1.949.058.706.165,1.962.058.706.165,1.965.058.706.165,1.967.06.708.165,1.97.058.708.165,1.971.06.708.165,1.973.06.711.165,1.974.06.711.165,1.977.06.711.072.863L26.012,75.725l-.064-.877-.052-.721-.145-2L25.7,71.4l-.145-2-.052-.72-.145-2L25.3,65.96l-.144-2-.052-.718-.144-2-.052-.717-.145-2-.051-.717-.145-1.994-.051-.715-.144-1.991-.052-.715-.144-1.976-.054-.742-.135-1.863-.051-.714-.144-1.985-.052-.712L23.6,42.428l-.052-.712-.144-1.98-.051-.712-.144-1.979-.051-.711-.144-1.976-.051-.711-.142-1.974-.052-.709-.142-1.973-.052-.708-.142-1.971-.051-.708-.142-1.97-.051-.706-.142-1.967h0l-.051-.706h0l-.142-1.952-.052-.73-.115-1.589,58.634-1.351Z" transform="translate(5.696 2.476)" fill="#38a6e0"/>
    <path id="Path_1314" data-name="Path 1314" d="M21.1,60.025,3.247,75.81l72-3.063L99.77,56.95Z" transform="translate(1.62 28.422)" fill="#338ab8"/>
    <path id="Path_1315" data-name="Path 1315" d="M0,28.659l4.867,72.559L22.718,85.432,17.109,6.039Z" transform="translate(0 3.014)" fill="#3796c9"/>
    <g id="Group_788" data-name="Group 788" transform="translate(0 0)">
      <g id="Group_787" data-name="Group 787" clip-path="url(#clip-path)">
        <path id="Path_1316" data-name="Path 1316" d="M121.413,20.617" transform="translate(60.592 10.289)" fill="#5d6925"/>
      </g>
    </g>
    <path id="Path_1317" data-name="Path 1317" d="M116.205,12.166l.063-.378Z" transform="translate(57.993 5.883)" fill="#e7dfcc"/>
    <path id="Path_1318" data-name="Path 1318" d="M121.248,22.1l.247-1.483Z" transform="translate(60.51 10.289)" fill="#e7dfcc"/>
    <path id="Path_1319" data-name="Path 1319" d="M121.172,22.289l.114-.682Z" transform="translate(60.472 10.783)" fill="#c6bea3"/>
    <path id="Path_1320" data-name="Path 1320" d="M116.176,12.307l.045-.267Z" transform="translate(57.979 6.009)" fill="#c6bea3"/>
    <path id="Path_1321" data-name="Path 1321" d="M115.912,13.885l.051-.31Z" transform="translate(57.847 6.775)" fill="#e7dfcc"/>
    <path id="Path_1322" data-name="Path 1322" d="M120.971,23.879l.3-1.817Z" transform="translate(60.372 11.01)" fill="#e7dfcc"/>
    <path id="Path_1323" data-name="Path 1323" d="M120.9,23.932l.109-.658Z" transform="translate(60.335 11.615)" fill="#c6bea3"/>
    <path id="Path_1324" data-name="Path 1324" d="M115.892,13.951l.03-.169Z" transform="translate(57.837 6.878)" fill="#c6bea3"/>
    <path id="Path_1325" data-name="Path 1325" d="M120.695,25.548l.3-1.835Z" transform="translate(60.234 11.834)" fill="#e7dfcc"/>
    <path id="Path_1326" data-name="Path 1326" d="M115.619,15.663l.073-.439Z" transform="translate(57.701 7.598)" fill="#e7dfcc"/>
    <path id="Path_1327" data-name="Path 1327" d="M120.622,25.6l.109-.658Z" transform="translate(60.197 12.445)" fill="#c6bea3"/>
    <path id="Path_1328" data-name="Path 1328" d="M115.541,16.205l.117-.688Z" transform="translate(57.662 7.744)" fill="#c6bea3"/>
    <path id="Path_1329" data-name="Path 1329" d="M115.452,16.772l.133-.8Z" transform="translate(57.617 7.973)" fill="#e7dfcc"/>
    <path id="Path_1330" data-name="Path 1330" d="M120.418,27.213v0l.3-1.838Z" transform="translate(60.096 12.664)" fill="#e7dfcc"/>
    <path id="Path_1331" data-name="Path 1331" d="M120.344,27.262l.111-.66h0Z" transform="translate(60.059 13.276)" fill="#c6bea3"/>
    <path id="Path_1332" data-name="Path 1332" d="M120.141,28.881l.3-1.839Z" transform="translate(59.957 13.496)" fill="#e7dfcc"/>
    <path id="Path_1333" data-name="Path 1333" d="M120.067,28.929l.111-.66Z" transform="translate(59.92 14.108)" fill="#c6bea3"/>
    <path id="Path_1334" data-name="Path 1334" d="M119.863,30.553l.306-1.844Z" transform="translate(59.819 14.327)" fill="#e7dfcc"/>
    <path id="Path_1335" data-name="Path 1335" d="M119.79,30.6l.109-.66Z" transform="translate(59.782 14.941)" fill="#c6bea3"/>
    <path id="Path_1336" data-name="Path 1336" d="M119.586,32.225l.306-1.845Z" transform="translate(59.68 15.161)" fill="#e7dfcc"/>
    <path id="Path_1337" data-name="Path 1337" d="M119.512,32.27h0l.109-.66Z" transform="translate(59.643 15.776)" fill="#c6bea3"/>
    <path id="Path_1338" data-name="Path 1338" d="M119.614,32.051l-.306,1.848.307-1.848Z" transform="translate(59.542 15.995)" fill="#e7dfcc"/>
    <path id="Path_1339" data-name="Path 1339" d="M119.234,33.944l.111-.66Z" transform="translate(59.505 16.611)" fill="#c6bea3"/>
    <path id="Path_1340" data-name="Path 1340" d="M119.029,35.575l.307-1.851Z" transform="translate(59.402 16.83)" fill="#e7dfcc"/>
    <path id="Path_1341" data-name="Path 1341" d="M118.956,35.62l.109-.661Z" transform="translate(59.366 17.447)" fill="#c6bea3"/>
    <path id="Path_1342" data-name="Path 1342" d="M118.751,37.253l.306-1.854Z" transform="translate(59.264 17.666)" fill="#e7dfcc"/>
    <path id="Path_1343" data-name="Path 1343" d="M118.677,37.3l.111-.663Z" transform="translate(59.227 18.283)" fill="#c6bea3"/>
    <path id="Path_1344" data-name="Path 1344" d="M118.471,38.934l.309-1.856Z" transform="translate(59.124 18.504)" fill="#e7dfcc"/>
    <path id="Path_1345" data-name="Path 1345" d="M118.4,38.979l.109-.663Z" transform="translate(59.087 19.122)" fill="#c6bea3"/>
    <path id="Path_1346" data-name="Path 1346" d="M118.192,40.615l.309-1.857Z" transform="translate(58.985 19.342)" fill="#e7dfcc"/>
    <path id="Path_1347" data-name="Path 1347" d="M118.118,40.661l.111-.664Z" transform="translate(58.948 19.961)" fill="#c6bea3"/>
    <path id="Path_1348" data-name="Path 1348" d="M117.924,42.184l.289-1.745Z" transform="translate(58.851 20.181)" fill="#e7dfcc"/>
    <path id="Path_1349" data-name="Path 1349" d="M117.848,42.293l.114-.69Z" transform="translate(58.813 20.762)" fill="#c6bea3"/>
    <path id="Path_1350" data-name="Path 1350" d="M117.643,43.912h0l.306-1.848Z" transform="translate(58.71 20.992)" fill="#e7dfcc"/>
    <rect id="Rectangle_420" data-name="Rectangle 420" width="0.677" height="0.001" transform="matrix(0.164, -0.986, 0.986, 0.164, 176.242, 65.571)" fill="#c6bea3"/>
    <path id="Path_1351" data-name="Path 1351" d="M117.363,45.6l.309-1.86h0Z" transform="translate(58.571 21.83)" fill="#e7dfcc"/>
    <path id="Path_1352" data-name="Path 1352" d="M117.288,45.653l.112-.669Z" transform="translate(58.534 22.45)" fill="#c6bea3"/>
    <path id="Path_1353" data-name="Path 1353" d="M117.082,47.295l.309-1.865Z" transform="translate(58.431 22.672)" fill="#e7dfcc"/>
    <path id="Path_1354" data-name="Path 1354" d="M117.007,47.343l.112-.669Z" transform="translate(58.393 23.293)" fill="#c6bea3"/>
    <path id="Path_1355" data-name="Path 1355" d="M116.8,48.988l.31-1.868Z" transform="translate(58.29 23.516)" fill="#e7dfcc"/>
    <path id="Path_1356" data-name="Path 1356" d="M111.473,40.146l.028-.163h0Z" transform="translate(55.632 19.953)" fill="#c6bea3"/>
    <path id="Path_1357" data-name="Path 1357" d="M116.726,49.036l.111-.67Z" transform="translate(58.253 24.137)" fill="#c6bea3"/>
    <path id="Path_1358" data-name="Path 1358" d="M111.193,42.038l.142-.853Z" transform="translate(55.492 20.554)" fill="#e7dfcc"/>
    <path id="Path_1359" data-name="Path 1359" d="M116.519,50.685l.31-1.871Z" transform="translate(58.15 24.361)" fill="#e7dfcc"/>
    <path id="Path_1360" data-name="Path 1360" d="M116.445,50.731l.111-.669Z" transform="translate(58.113 24.984)" fill="#c6bea3"/>
    <path id="Path_1361" data-name="Path 1361" d="M111.166,42l.04-.241Z" transform="translate(55.478 20.838)" fill="#c6bea3"/>
    <path id="Path_1362" data-name="Path 1362" d="M116.237,52.378h0l.312-1.871Z" transform="translate(58.009 25.207)" fill="#e7dfcc"/>
    <path id="Path_1363" data-name="Path 1363" d="M110.894,43.745l.112-.663Z" transform="translate(55.343 21.5)" fill="#e7dfcc"/>
    <path id="Path_1364" data-name="Path 1364" d="M116.162,52.428l.112-.672h0Z" transform="translate(57.972 25.829)" fill="#c6bea3"/>
    <path id="Path_1365" data-name="Path 1365" d="M110.815,44.226l.118-.7Z" transform="translate(55.303 21.721)" fill="#c6bea3"/>
    <path id="Path_1366" data-name="Path 1366" d="M115.955,54.077l.31-1.872Z" transform="translate(57.868 26.053)" fill="#e7dfcc"/>
    <path id="Path_1367" data-name="Path 1367" d="M110.723,44.809l.138-.815v0Z" transform="translate(55.257 21.955)" fill="#e7dfcc"/>
    <path id="Path_1368" data-name="Path 1368" d="M115.88,54.129l.112-.675Z" transform="translate(57.831 26.677)" fill="#c6bea3"/>
    <g id="Group_790" data-name="Group 790" transform="translate(0 0)">
      <g id="Group_789" data-name="Group 789" clip-path="url(#clip-path)">
        <path id="Path_1369" data-name="Path 1369" d="M115.672,55.156Z" transform="translate(57.727 27.526)" fill="#898579"/>
        <path id="Path_1370" data-name="Path 1370" d="M110.295,47.077" transform="translate(55.044 23.494)" fill="#898579"/>
      </g>
    </g>
    <path id="Path_1371" data-name="Path 1371" d="M115.672,55.781l.313-1.878Z" transform="translate(57.727 26.901)" fill="#e7dfcc"/>
    <path id="Path_1372" data-name="Path 1372" d="M115.6,55.827l.111-.67Z" transform="translate(57.69 27.527)" fill="#c6bea3"/>
    <rect id="Rectangle_422" data-name="Rectangle 422" width="0.711" height="0.001" transform="translate(164.923 70.921)" fill="#c6bea3"/>
    <path id="Path_1373" data-name="Path 1373" d="M115.389,57.486,115.7,55.6Z" transform="translate(57.586 27.749)" fill="#e7dfcc"/>
    <path id="Path_1374" data-name="Path 1374" d="M109.994,49.51l.331-1.964h0Z" transform="translate(54.894 23.727)" fill="#e7dfcc"/>
    <path id="Path_1375" data-name="Path 1375" d="M109.92,49.524l.112-.669Z" transform="translate(54.856 24.381)" fill="#c6bea3"/>
    <path id="Path_1376" data-name="Path 1376" d="M115.406,57.311l-.2-.025.2.025.075-.451Z" transform="translate(57.493 28.376)" fill="#c6bea3"/>
    <g id="Group_792" data-name="Group 792" transform="translate(0 0)">
      <g id="Group_791" data-name="Group 791" clip-path="url(#clip-path)">
        <path id="Path_1377" data-name="Path 1377" d="M115.2,57.144" transform="translate(57.493 28.518)" fill="#777162"/>
      </g>
    </g>
    <path id="Path_1378" data-name="Path 1378" d="M115.457,57.175l-.759-.093Z" transform="translate(57.241 28.487)" fill="#e7dfcc"/>
    <path id="Path_1379" data-name="Path 1379" d="M115.553,57.188l-2.568-.318Z" transform="translate(56.386 28.381)" fill="#898479"/>
    <path id="Path_1380" data-name="Path 1380" d="M74.165,67.618l.154-.844.127-.693.355-1.937.127-.69.355-1.934.126-.694.354-1.928.127-.691.352-1.926.127-.688.354-1.926.126-.69.352-1.92.127-.69.351-1.919.127-.688.351-1.916.126-.688.349-1.9.132-.711.328-1.794.126-.682.351-1.911.124-.684.351-1.907.124-.682.349-1.905.124-.682.672-3.653.153-.832.123-.675,0-.009.346-1.893.124-.678L84.7,10.186,142.994,16.5l-.2,1.168-.064.378-.043.267-.076.445-.268,1.589-.051.31-.03.169-.085.517-.25,1.474-.073.441-.117.688-.133.8-.189,1.121-.117.69-.268,1.6-.054.321-.027.162-.091.529-.324,1.926-.115.687-.325,1.928-.1.58-.016.108L139.7,36.03l-.049.294-.117.69-.325,1.931-.117.691-.327,1.935-.115.691-.328,1.938-.066.4-.049.3-.093.549-.235,1.391-.115.693-.307,1.821-.121.721-.255,1.5-.072.429-.036.217-.081.48-.234,1.382-.094.564-.02.111-.1.586h0l-.33,1.947-.118.7-.246,1.465-.082.486-.028.163-.09.538-.186,1.1-.144.853-.04.241-.078.457-.217,1.292-.112.663-.118.7v0l-.138.815-.192,1.141-.118.7-.331,1.961h0l-.118.7-.333,1.965-.111.667-.006.034-.145.859ZM77.169,0,63.048,75.975l74.858,9.275,2.568.319.759.093.2.025.075-.453.313-1.881.111-.672.312-1.877.112-.675.31-1.874.112-.673.312-1.869.111-.669.31-1.872.111-.67.31-1.868.112-.669.309-1.865.112-.669.309-1.862.111-.669.307-1.848.114-.69.291-1.743.111-.664.309-1.857.109-.663.309-1.856.111-.663.307-1.853.109-.661.307-1.851.111-.66.306-1.848.111-.66.306-1.845.109-.661.306-1.844.111-.66.3-1.839.111-.661.306-1.836.109-.658.3-1.835.109-.658.3-1.817.114-.684.247-1.483L154.315,8.2Z" transform="translate(31.465)" fill="#e869a4"/>
    <path id="Path_1381" data-name="Path 1381" d="M84.731,73.435l71.739,9.216L141.435,60.395l-.2-.027-.759-.093-2.566-.318-74.86-9.275Z" transform="translate(31.464 25.293)" fill="#d2669a"/>
    <path id="Path_1382" data-name="Path 1382" d="M124.444,28.178l-.247,1.483-.112.682-.3,1.818-.109.658-.3,1.835-.109.658-.306,1.838-.109.66-.306,1.839-.111.66-.306,1.844-.109.66-.306,1.845-.109.661-.307,1.848-.111.66-.307,1.85-.109.663-.307,1.853-.111.663-.309,1.856-.109.661-.309,1.859-.111.663-.289,1.745-.115.69-.306,1.848-.112.669-.309,1.862-.112.669-.309,1.865-.112.669-.31,1.868-.109.67-.312,1.871-.111.67-.312,1.871-.112.672-.31,1.874-.111.673-.313,1.878-.111.672-.313,1.881-.075.453,15.036,22.257L141.863,34.14,128.219,5.466Z" transform="translate(57.561 2.728)" fill="#d5739e"/>
    <path id="Path_1383" data-name="Path 1383" d="M81,6.8l58.291,6.316-9.835,58.3-59-7.179Z" transform="translate(35.166 3.391)" fill="#fff"/>
    <path id="Path_1384" data-name="Path 1384" d="M18.263,12.765,22.593,72.5l59.237-2.18L76.9,11.416Z" transform="translate(9.114 5.697)" fill="#fff"/>
    <g id="Group_866" data-name="Group 866" transform="translate(105.63 10.186)">
      <g id="Group_865" data-name="Group 865" clip-path="url(#clip-path-5)">
        <g id="Group_795" data-name="Group 795" transform="translate(9.725 1.422)" opacity="0.17">
          <g id="Group_794" data-name="Group 794">
            <g id="Group_793" data-name="Group 793" clip-path="url(#clip-path-6)">
              <path id="Path_1385" data-name="Path 1385" d="M137.274,15.058,77.214,7.743l-.262.715,60.066,7.326.16-.454Z" transform="translate(-76.952 -7.743)" fill="#ef9bbe"/>
            </g>
          </g>
        </g>
        <g id="Group_798" data-name="Group 798" transform="translate(9.306 3.774)" opacity="0.17">
          <g id="Group_797" data-name="Group 797">
            <g id="Group_796" data-name="Group 796" clip-path="url(#clip-path-7)">
              <path id="Path_1386" data-name="Path 1386" d="M136.994,16.628,76.934,9.312l-.262.715,60.066,7.326.16-.454Z" transform="translate(-76.672 -9.312)" fill="#ef9bbe"/>
            </g>
          </g>
        </g>
        <g id="Group_801" data-name="Group 801" transform="translate(8.886 6.126)" opacity="0.17">
          <g id="Group_800" data-name="Group 800">
            <g id="Group_799" data-name="Group 799" clip-path="url(#clip-path-8)">
              <path id="Path_1387" data-name="Path 1387" d="M136.714,18.2l-60.06-7.315-.262.715,60.066,7.326.16-.454Z" transform="translate(-76.392 -10.882)" fill="#ef9bbe"/>
            </g>
          </g>
        </g>
        <g id="Group_804" data-name="Group 804" transform="translate(8.467 8.478)" opacity="0.17">
          <g id="Group_803" data-name="Group 803">
            <g id="Group_802" data-name="Group 802" clip-path="url(#clip-path-8)">
              <path id="Path_1388" data-name="Path 1388" d="M136.434,19.766,76.374,12.45l-.262.715,60.066,7.326.16-.454Z" transform="translate(-76.112 -12.451)" fill="#ef9bbe"/>
            </g>
          </g>
        </g>
        <g id="Group_807" data-name="Group 807" transform="translate(8.047 10.831)" opacity="0.17">
          <g id="Group_806" data-name="Group 806">
            <g id="Group_805" data-name="Group 805" clip-path="url(#clip-path-8)">
              <path id="Path_1389" data-name="Path 1389" d="M136.154,21.335,76.095,14.02l-.262.715L135.9,22.06l.16-.454Z" transform="translate(-75.832 -14.02)" fill="#ef9bbe"/>
            </g>
          </g>
        </g>
        <g id="Group_810" data-name="Group 810" transform="translate(7.628 13.183)" opacity="0.17">
          <g id="Group_809" data-name="Group 809">
            <g id="Group_808" data-name="Group 808" clip-path="url(#clip-path-8)">
              <path id="Path_1390" data-name="Path 1390" d="M135.874,22.9l-60.06-7.315-.262.715,60.066,7.326.16-.454Z" transform="translate(-75.552 -15.589)" fill="#ef9bbe"/>
            </g>
          </g>
        </g>
        <g id="Group_813" data-name="Group 813" transform="translate(7.208 15.535)" opacity="0.17">
          <g id="Group_812" data-name="Group 812">
            <g id="Group_811" data-name="Group 811" clip-path="url(#clip-path-6)">
              <path id="Path_1391" data-name="Path 1391" d="M135.595,24.473l-60.06-7.315-.262.715L135.338,25.2l.16-.454Z" transform="translate(-75.272 -17.158)" fill="#ef9bbe"/>
            </g>
          </g>
        </g>
        <g id="Group_816" data-name="Group 816" transform="translate(6.789 17.887)" opacity="0.17">
          <g id="Group_815" data-name="Group 815">
            <g id="Group_814" data-name="Group 814" clip-path="url(#clip-path-13)">
              <path id="Path_1392" data-name="Path 1392" d="M135.315,26.042l-60.06-7.315-.262.715,60.066,7.326.16-.454Z" transform="translate(-74.993 -18.727)" fill="#ef9bbe"/>
            </g>
          </g>
        </g>
        <g id="Group_819" data-name="Group 819" transform="translate(6.369 20.24)" opacity="0.17">
          <g id="Group_818" data-name="Group 818" transform="translate(0 0)">
            <g id="Group_817" data-name="Group 817" clip-path="url(#clip-path-13)">
              <path id="Path_1393" data-name="Path 1393" d="M135.035,27.612,74.975,20.3l-.262.715,60.066,7.326.16-.454Z" transform="translate(-74.713 -20.297)" fill="#ef9bbe"/>
            </g>
          </g>
        </g>
        <g id="Group_822" data-name="Group 822" transform="translate(5.95 22.592)" opacity="0.17">
          <g id="Group_821" data-name="Group 821">
            <g id="Group_820" data-name="Group 820" clip-path="url(#clip-path-7)">
              <path id="Path_1394" data-name="Path 1394" d="M134.755,29.181,74.7,21.865l-.262.715L134.5,29.906l.16-.454Z" transform="translate(-74.433 -21.866)" fill="#ef9bbe"/>
            </g>
          </g>
        </g>
        <g id="Group_825" data-name="Group 825" transform="translate(5.53 24.944)" opacity="0.17">
          <g id="Group_824" data-name="Group 824">
            <g id="Group_823" data-name="Group 823" clip-path="url(#clip-path-8)">
              <path id="Path_1395" data-name="Path 1395" d="M134.475,30.75l-60.06-7.315-.262.715,60.066,7.326.16-.454Z" transform="translate(-74.153 -23.435)" fill="#ef9bbe"/>
            </g>
          </g>
        </g>
        <g id="Group_828" data-name="Group 828" transform="translate(5.111 27.296)" opacity="0.17">
          <g id="Group_827" data-name="Group 827">
            <g id="Group_826" data-name="Group 826" clip-path="url(#clip-path-8)">
              <path id="Path_1396" data-name="Path 1396" d="M134.2,32.319,74.136,25l-.262.715,60.066,7.326.16-.454Z" transform="translate(-73.873 -25.004)" fill="#ef9bbe"/>
            </g>
          </g>
        </g>
        <g id="Group_831" data-name="Group 831" transform="translate(4.691 29.649)" opacity="0.17">
          <g id="Group_830" data-name="Group 830">
            <g id="Group_829" data-name="Group 829" clip-path="url(#clip-path-8)">
              <path id="Path_1397" data-name="Path 1397" d="M133.915,33.888l-60.06-7.315-.262.715,60.066,7.326.16-.454Z" transform="translate(-73.593 -26.573)" fill="#ef9bbe"/>
            </g>
          </g>
        </g>
        <g id="Group_834" data-name="Group 834" transform="translate(4.271 32.001)" opacity="0.17">
          <g id="Group_833" data-name="Group 833">
            <g id="Group_832" data-name="Group 832" clip-path="url(#clip-path-13)">
              <path id="Path_1398" data-name="Path 1398" d="M133.636,35.457l-60.06-7.315-.262.715,60.066,7.326.16-.454Z" transform="translate(-73.313 -28.142)" fill="#ef9bbe"/>
            </g>
          </g>
        </g>
        <g id="Group_837" data-name="Group 837" transform="translate(3.852 34.353)" opacity="0.17">
          <g id="Group_836" data-name="Group 836">
            <g id="Group_835" data-name="Group 835" clip-path="url(#clip-path-6)">
              <path id="Path_1399" data-name="Path 1399" d="M133.356,37.027,73.3,29.711l-.262.715L133.1,37.752l.16-.454Z" transform="translate(-73.034 -29.711)" fill="#ef9bbe"/>
            </g>
          </g>
        </g>
        <g id="Group_840" data-name="Group 840" transform="translate(3.432 36.705)" opacity="0.17">
          <g id="Group_839" data-name="Group 839">
            <g id="Group_838" data-name="Group 838" clip-path="url(#clip-path-13)">
              <path id="Path_1400" data-name="Path 1400" d="M133.076,38.6,73.016,31.28,72.754,32l60.066,7.326.16-.454Z" transform="translate(-72.754 -31.281)" fill="#ef9bbe"/>
            </g>
          </g>
        </g>
        <g id="Group_843" data-name="Group 843" transform="translate(3.013 39.058)" opacity="0.17">
          <g id="Group_842" data-name="Group 842">
            <g id="Group_841" data-name="Group 841" clip-path="url(#clip-path-8)">
              <path id="Path_1401" data-name="Path 1401" d="M132.8,40.165,72.736,32.85l-.262.715L132.54,40.89l.16-.454Z" transform="translate(-72.474 -32.85)" fill="#ef9bbe"/>
            </g>
          </g>
        </g>
        <g id="Group_846" data-name="Group 846" transform="translate(2.593 41.41)" opacity="0.17">
          <g id="Group_845" data-name="Group 845">
            <g id="Group_844" data-name="Group 844" clip-path="url(#clip-path-7)">
              <path id="Path_1402" data-name="Path 1402" d="M132.516,41.734l-60.06-7.315-.262.715L132.26,42.46l.16-.454Z" transform="translate(-72.194 -34.419)" fill="#ef9bbe"/>
            </g>
          </g>
        </g>
        <g id="Group_849" data-name="Group 849" transform="translate(2.174 43.762)" opacity="0.17">
          <g id="Group_848" data-name="Group 848">
            <g id="Group_847" data-name="Group 847" clip-path="url(#clip-path-8)">
              <path id="Path_1403" data-name="Path 1403" d="M132.236,43.3l-60.06-7.315-.262.715,60.066,7.326.16-.454Z" transform="translate(-71.914 -35.988)" fill="#ef9bbe"/>
            </g>
          </g>
        </g>
        <g id="Group_852" data-name="Group 852" transform="translate(1.754 46.115)" opacity="0.17">
          <g id="Group_851" data-name="Group 851">
            <g id="Group_850" data-name="Group 850" clip-path="url(#clip-path-8)">
              <path id="Path_1404" data-name="Path 1404" d="M131.956,44.872,71.9,37.557l-.262.715L131.7,45.6l.16-.454Z" transform="translate(-71.634 -37.557)" fill="#ef9bbe"/>
            </g>
          </g>
        </g>
        <g id="Group_855" data-name="Group 855" transform="translate(1.335 48.467)" opacity="0.17">
          <g id="Group_854" data-name="Group 854">
            <g id="Group_853" data-name="Group 853" clip-path="url(#clip-path-26)">
              <path id="Path_1405" data-name="Path 1405" d="M131.677,46.442l-60.06-7.315-.262.715,60.066,7.326.16-.454Z" transform="translate(-71.354 -39.126)" fill="#ef9bbe"/>
            </g>
          </g>
        </g>
        <g id="Group_858" data-name="Group 858" transform="translate(0.915 50.819)" opacity="0.17">
          <g id="Group_857" data-name="Group 857">
            <g id="Group_856" data-name="Group 856" clip-path="url(#clip-path-13)">
              <path id="Path_1406" data-name="Path 1406" d="M131.4,48.011,71.337,40.7l-.262.715,60.066,7.326.16-.454Z" transform="translate(-71.075 -40.696)" fill="#ef9bbe"/>
            </g>
          </g>
        </g>
        <g id="Group_861" data-name="Group 861" transform="translate(0.496 53.171)" opacity="0.17">
          <g id="Group_860" data-name="Group 860">
            <g id="Group_859" data-name="Group 859" clip-path="url(#clip-path-6)">
              <path id="Path_1407" data-name="Path 1407" d="M131.117,49.58l-60.06-7.315-.262.715,60.066,7.326.16-.454Z" transform="translate(-70.795 -42.265)" fill="#ef9bbe"/>
            </g>
          </g>
        </g>
        <g id="Group_864" data-name="Group 864" transform="translate(0.076 55.524)" opacity="0.17">
          <g id="Group_863" data-name="Group 863">
            <g id="Group_862" data-name="Group 862" clip-path="url(#clip-path-8)">
              <path id="Path_1408" data-name="Path 1408" d="M130.837,51.149l-60.06-7.315-.262.715,60.066,7.326.16-.454Z" transform="translate(-70.515 -43.834)" fill="#ef9bbe"/>
            </g>
          </g>
        </g>
      </g>
    </g>
    <g id="Group_871" data-name="Group 871" transform="translate(27.377 17.209)">
      <g id="Group_870" data-name="Group 870" clip-path="url(#clip-path-30)">
        <g id="Group_869" data-name="Group 869" transform="translate(-0.262 1.284)" opacity="0.11">
          <g id="Group_868" data-name="Group 868">
            <g id="Group_867" data-name="Group 867" clip-path="url(#clip-path-31)">
              <path id="Path_1410" data-name="Path 1410" d="M81.264,12.336,18.2,14.269l-.109.784,63.076-1.922.063-.5Z" transform="translate(-18.088 -12.336)" fill="#8fd8f9"/>
              <path id="Path_1411" data-name="Path 1411" d="M81.328,14.011,18.261,15.943l-.109.784,63.076-1.922.063-.5Z" transform="translate(-18.056 -11.501)" fill="#8fd8f9"/>
              <path id="Path_1412" data-name="Path 1412" d="M81.391,15.685,18.325,17.617l-.109.784,63.076-1.922.063-.5Z" transform="translate(-18.025 -10.665)" fill="#8fd8f9"/>
              <path id="Path_1413" data-name="Path 1413" d="M81.455,17.359,18.388,19.292l-.109.784,63.076-1.922.063-.5Z" transform="translate(-17.993 -9.83)" fill="#8fd8f9"/>
              <path id="Path_1414" data-name="Path 1414" d="M81.519,19.034,18.452,20.966l-.109.784,63.076-1.922.063-.5Z" transform="translate(-17.961 -8.994)" fill="#8fd8f9"/>
              <path id="Path_1415" data-name="Path 1415" d="M81.582,20.708,18.515,22.64l-.109.784L81.482,21.5l.063-.5Z" transform="translate(-17.93 -8.158)" fill="#8fd8f9"/>
              <path id="Path_1416" data-name="Path 1416" d="M81.646,22.382,18.579,24.315l-.109.784,63.076-1.922.063-.5Z" transform="translate(-17.898 -7.323)" fill="#8fd8f9"/>
              <path id="Path_1417" data-name="Path 1417" d="M81.709,24.057,18.642,25.989l-.109.784,63.076-1.922.063-.5Z" transform="translate(-17.866 -6.487)" fill="#8fd8f9"/>
              <path id="Path_1418" data-name="Path 1418" d="M81.773,25.731,18.706,27.663l-.109.784,63.076-1.922.063-.5Z" transform="translate(-17.834 -5.652)" fill="#8fd8f9"/>
              <path id="Path_1419" data-name="Path 1419" d="M81.836,27.405,18.77,29.338l-.109.784L81.736,28.2l.063-.5Z" transform="translate(-17.803 -4.816)" fill="#8fd8f9"/>
              <path id="Path_1420" data-name="Path 1420" d="M81.9,29.08,18.833,31.012l-.109.784L81.8,29.874l.063-.5Z" transform="translate(-17.771 -3.98)" fill="#8fd8f9"/>
              <path id="Path_1421" data-name="Path 1421" d="M81.964,30.754,18.9,32.686l-.109.784,63.076-1.922.063-.5Z" transform="translate(-17.739 -3.145)" fill="#8fd8f9"/>
              <path id="Path_1422" data-name="Path 1422" d="M82.027,32.428,18.96,34.361l-.109.784,63.076-1.922.063-.5Z" transform="translate(-17.707 -2.309)" fill="#8fd8f9"/>
              <path id="Path_1423" data-name="Path 1423" d="M82.091,34.1,19.024,36.035l-.109.784L81.99,34.9l.063-.5Z" transform="translate(-17.676 -1.474)" fill="#8fd8f9"/>
              <path id="Path_1424" data-name="Path 1424" d="M82.154,35.777,19.087,37.709l-.109.784,63.076-1.922.063-.5Z" transform="translate(-17.644 -0.638)" fill="#8fd8f9"/>
              <path id="Path_1425" data-name="Path 1425" d="M82.218,37.451,19.151,39.384l-.109.784,63.076-1.922.063-.5Z" transform="translate(-17.612 0.198)" fill="#8fd8f9"/>
              <path id="Path_1426" data-name="Path 1426" d="M82.281,39.126,19.215,41.058l-.109.784L82.181,39.92l.063-.5Z" transform="translate(-17.581 1.033)" fill="#8fd8f9"/>
              <path id="Path_1427" data-name="Path 1427" d="M82.345,40.8,19.278,42.732l-.109.784,63.076-1.922.063-.5Z" transform="translate(-17.549 1.869)" fill="#8fd8f9"/>
              <path id="Path_1428" data-name="Path 1428" d="M82.409,42.474,19.342,44.407l-.109.784,63.076-1.922.063-.5Z" transform="translate(-17.517 2.704)" fill="#8fd8f9"/>
              <path id="Path_1429" data-name="Path 1429" d="M82.472,44.149,19.405,46.081l-.109.784,63.076-1.922.063-.5Z" transform="translate(-17.485 3.54)" fill="#8fd8f9"/>
              <path id="Path_1430" data-name="Path 1430" d="M82.536,45.823,19.469,47.755l-.109.784,63.076-1.922.063-.5Z" transform="translate(-17.454 4.375)" fill="#8fd8f9"/>
              <path id="Path_1431" data-name="Path 1431" d="M82.6,47.5,19.532,49.43l-.109.784L82.5,48.292l.063-.5Z" transform="translate(-17.422 5.211)" fill="#8fd8f9"/>
              <path id="Path_1432" data-name="Path 1432" d="M82.663,49.172,19.6,51.1l-.109.784,63.076-1.922.063-.5Z" transform="translate(-17.39 6.047)" fill="#8fd8f9"/>
            </g>
          </g>
        </g>
      </g>
    </g>
    <g id="Group_873" data-name="Group 873" transform="translate(0 0)">
      <g id="Group_872" data-name="Group 872" clip-path="url(#clip-path)">
        <path id="Path_1434" data-name="Path 1434" d="M117.544,16.355a7.863,7.863,0,0,0-1.081-.592,8.335,8.335,0,0,0-1.183-.429A9.6,9.6,0,0,0,114,15.067L85.845,11.162l-.277,1.387-.132.655-.367,1.833-.13.657-.369,1.835-.13.657-.369,1.838-.132.657-.174.871,4.655.633-.193.967-.13.657-.366,1.839L87.6,26.3l-.367,1.841-.13.658-.367,1.844L86.6,31.3l-.367,1.845-.132.658-.369,1.847-.13.66-.346,1.734-.136.685-.366,1.836-.133.664-.369,1.853-.132.663L83.75,45.6l-.081.406-4.122-.534-.531-.069-.051.258-.372,1.857-.133.664-.373,1.86-.133.666-.373,1.862-.133.666L77.073,55.1l-.133.667-.034.172,29.38,3.712c.172.022.346.04.517.055s.345.024.514.031.342.009.51.009.339,0,.507-.012c.2-.01.4-.025.6-.046s.4-.046.6-.078.394-.067.591-.111.39-.088.583-.142c.177-.048.352-.109.528-.166h0c.075-.025.151-.046.226-.072.028-.01.057-.016.085-.027.045-.016.09-.037.135-.055.186-.069.372-.144.556-.225.045-.019.091-.034.136-.055l.076-.037c.247-.112.492-.232.736-.364h.006q.4-.218.8-.471l.21-.135.207-.141c.069-.046.138-.1.207-.144l.207-.15.069-.052c.022-.016.045-.034.069-.051s.045-.036.069-.052l.067-.052,0,0c.144-.112.286-.228.424-.345s.276-.235.408-.355.262-.243.39-.366.25-.249.372-.376c.04-.042.079-.084.118-.127l.021-.021c.046-.051.093-.1.138-.151s.09-.1.133-.151.088-.1.132-.154c.115-.136.228-.274.337-.415l.067-.091c.085-.111.169-.222.249-.336.1-.144.2-.291.3-.438s.189-.3.279-.45c.031-.051.061-.1.091-.154s.06-.1.088-.157.058-.1.087-.157l.045-.085c.013-.025.027-.049.039-.073.075-.142.147-.288.216-.433s.136-.292.2-.442.126-.3.184-.451.115-.306.168-.46c.02-.052.037-.106.055-.16l.008-.022c.015-.046.03-.091.043-.138h0l.009-.033c.013-.042.028-.085.04-.129l0-.013c.015-.049.03-.1.043-.145v0c.03-.1.06-.21.087-.315l0-.016.012-.043c.025-.1.049-.195.073-.292s.054-.226.078-.34.048-.229.07-.345l.022-.12c.007-.04.015-.081.021-.12v0l.006-.037.014-.076h0l0-.015c0-.033.01-.066.015-.1v-.007c.009-.055.016-.109.025-.163l.022-.166c.007-.055.015-.109.021-.165s.014-.109.02-.163c.018-.16.033-.318.045-.477s.021-.313.027-.471.009-.31.009-.465,0-.309-.008-.462c0-.057,0-.114-.007-.171l-.009-.171c0-.055-.008-.112-.012-.169l0-.031c0-.046-.007-.091-.012-.138-.015-.162-.034-.325-.055-.486s-.048-.322-.076-.481c-.009-.046-.019-.091-.028-.136-.021-.114-.043-.226-.069-.339-.036-.157-.075-.313-.117-.469-.017-.061-.034-.123-.051-.183s-.036-.121-.055-.183-.037-.121-.058-.181-.039-.12-.06-.18c-.057-.16-.117-.319-.18-.478s-.13-.315-.2-.472c-.025-.054-.052-.108-.078-.162-.048-.1-.1-.2-.147-.3-.078-.154-.16-.307-.246-.46l-.019-.031q-.04-.074-.085-.148l0,0-.012-.019-.1-.171c-.04-.064-.081-.13-.126-.2-.021-.031-.043-.067-.066-.1l-.034-.054c-.013-.019-.025-.039-.04-.06v0c-.115-.174-.234-.34-.354-.5-.015-.021-.028-.043-.045-.063-.135-.183-.276-.36-.418-.531-.069-.081-.141-.157-.211-.237s-.151-.175-.229-.258q-.227-.238-.463-.459c-.078-.072-.156-.144-.235-.213s-.16-.138-.241-.205-.163-.132-.246-.195-.168-.126-.252-.187q-.254-.182-.517-.346c-.174-.109-.351-.211-.531-.309a9.909,9.909,0,0,0-1.13-.52,10.508,10.508,0,0,0-1.214-.382c-.208-.052-.421-.1-.637-.139s-.436-.076-.658-.106l-.926-.123v0q.47.063.931.081c.153.006.3.007.457.006h0c.153,0,.306-.006.457-.015a8.986,8.986,0,0,0,.9-.1,8.867,8.867,0,0,0,.881-.189c.117-.031.232-.064.348-.1l.087-.03c.085-.027.172-.055.258-.085.115-.04.229-.084.343-.129s.226-.093.339-.144c.019-.007.037-.018.057-.027.081-.036.159-.076.238-.115v0c.079-.037.159-.073.238-.115.014-.006.028-.012.042-.019l.021-.012c.168-.088.336-.184.5-.283.015-.01.032-.018.046-.027l.037-.024c.166-.1.333-.21.5-.324l.027-.016.016-.012q.27-.187.537-.394h0c.012-.009.026-.018.037-.028l.018-.013c.018-.013.036-.028.055-.042s.036-.03.055-.043l.054-.043.175-.141.169-.144c.057-.049.112-.1.166-.147s.111-.1.163-.148c.141-.129.276-.261.408-.4s.258-.271.381-.411.243-.283.357-.427.225-.292.331-.442c.036-.049.07-.1.1-.151s.069-.1.1-.153.067-.1.1-.154.064-.1.1-.156c.084-.138.165-.279.243-.421.055-.1.106-.205.159-.309.021-.042.043-.082.064-.124q.106-.22.2-.445l.03-.076c.054-.126.1-.252.154-.381l.049-.135.007-.022.01-.03.045-.129.054-.16c.016-.054.034-.108.051-.162.031-.1.061-.2.09-.306s.055-.205.081-.31.051-.21.073-.315.045-.213.066-.321l.027-.141c.009-.048.016-.094.024-.142s.016-.093.024-.141.013-.091.019-.136v0c.006-.048.012-.1.019-.145l0-.019c.006-.055.013-.111.019-.165l.018-.163c0-.055.01-.109.015-.163.014-.16.024-.319.03-.477s.009-.315.009-.471c0-.033,0-.064,0-.1,0-.123,0-.246-.01-.369-.007-.154-.019-.307-.034-.459-.006-.057-.012-.114-.019-.171s-.014-.114-.021-.171-.016-.114-.025-.169l0-.021c-.007-.049-.015-.1-.024-.148-.028-.166-.063-.333-.1-.5s-.082-.327-.129-.49-.1-.322-.157-.483-.117-.318-.183-.475l-.076-.18c-.027-.06-.054-.118-.082-.178s-.055-.118-.085-.177-.058-.118-.088-.177c-.045-.085-.09-.169-.136-.253s-.1-.168-.145-.252-.1-.166-.153-.249-.106-.165-.16-.247-.109-.163-.166-.243l-.025-.037c-.064-.091-.129-.181-.2-.268s-.135-.175-.2-.261-.139-.166-.21-.249-.121-.136-.183-.2-.109-.117-.166-.174l-.021-.022q-.094-.1-.193-.189c-.064-.063-.129-.123-.2-.183a8.006,8.006,0,0,0-.982-.753M106.513,42.022a2.911,2.911,0,0,1,.471.535c.045.057.087.115.127.175s.078.124.112.189.069.132.1.2.06.139.085.213c.019.054.037.108.054.165s.033.112.048.171.027.118.039.178.022.121.031.184q.022.155.036.319c.009.109.013.223.015.337s0,.235,0,.355-.013.247-.025.375c-.006.042-.014.084-.021.126s-.015.082-.024.123-.016.082-.024.123l-.027.12c-.014.057-.027.112-.042.168s-.028.109-.045.163-.031.108-.048.162-.034.106-.052.157q-.085.247-.189.481c-.07.156-.145.307-.228.454s-.171.289-.265.427-.195.271-.3.4l-.039.046-.04.046c-.012.015-.025.03-.039.045l-.04.045c-.036.039-.072.075-.108.112l-.108.106c-.036.034-.072.067-.109.1s-.069.06-.1.09l-.007.006c-.1.082-.2.156-.3.226l-.027.018c-.033.022-.067.04-.1.061-.067.042-.135.087-.2.124a3.168,3.168,0,0,1-.33.159,3.5,3.5,0,0,1-.339.12,3.327,3.327,0,0,1-.712.126,3.642,3.642,0,0,1-.753-.024L94.1,48.592l.226-1.142.064-.331.064-.33.364-1.848.066-.331.064-.33.121-.615.243-1.232.087-.441.043-.22h0l.346-1.76,8.546,1.121a5.218,5.218,0,0,1,.85.178,3.949,3.949,0,0,1,.726.3c.076.042.145.088.217.133a3.127,3.127,0,0,1,.381.282m1.474-17.254a2.734,2.734,0,0,1,.363.519c.018.034.036.067.052.1s.031.07.046.1.03.072.043.108.027.072.039.109c.018.054.034.109.049.165s.028.112.04.169.022.115.031.175.018.12.024.18c0,.036,0,.072.006.108,0,.07.01.141.012.213,0,.109,0,.222-.007.337s-.018.231-.033.351-.036.243-.06.367c-.009.04-.016.081-.025.121s-.02.079-.03.12-.021.078-.033.117-.022.078-.036.115c-.018.055-.037.111-.058.165s-.043.108-.067.16-.048.1-.073.156l-.024.045-.057.108q-.07.121-.148.238c-.054.078-.109.154-.169.228s-.121.145-.187.217c-.031.033-.067.064-.1.1s-.07.072-.108.106c-.087.079-.175.151-.265.22-.012.007-.022.019-.034.028a3.087,3.087,0,0,1-.313.2,2.977,2.977,0,0,1-.327.159c-.067.027-.136.045-.2.067-.046.013-.09.033-.136.045-.073.018-.147.031-.22.045-.02,0-.037.009-.057.01-.094.015-.189.024-.285.03s-.195,0-.294,0-.2-.013-.3-.027l-7.192-.964.021-.1.021-.1.361-1.836.129-.655.361-1.833.1-.492.031-.163.07-.36.213-1.076,7.179.976a3.148,3.148,0,0,1,.648.154,2.542,2.542,0,0,1,.553.276,2.4,2.4,0,0,1,.457.4" transform="translate(38.38 5.571)" fill="#e869a4"/>
        <path id="Path_1435" data-name="Path 1435" d="M32.2,17.517l.036.355.1.991.1.992.07.709.2,1.98.01.1.06.606.2,1.98.07.706.156,1.544.019.193,3.862-.1-.027.076L37,27.823l-.243.714-.684,2-.244.714-.684,2-.244.712-.682,2-.177.514-.067.2-.163.477-.519,1.519-.244.712-.573,1.671-.109.322-.048.136-.2.574-.64,1.869-.253.739-.676,1.977-.244.715-.682,1.991-.243.711L28.7,52.064l-.033.1-.21.615-.079.229-.051.151L23.88,53.3l.163,1.587.072.7.1.98.1.982.072.7.2,1.961.072.7.2,1.959.072.7.061.6.031.3,20.748-.73-.088-.9-.069-.7L45.427,60.2l-.069-.7-.193-1.95-.067-.7-.193-1.95-.069-.7-.156-1.58-3.76.121.018-.07.078-.309.055-.219.121-.487.5-1.979.177-.706.418-1.664,10.793-.328,1.646-.051.633,1.625.268.69.751,1.932.268.688.144.37-3.8.121.153,1.576.067.7.189,1.946.067.694.189,1.944.067.694.189,1.943.067.694.087.893,20.314-.715-.082-.889-.064-.69-.18-1.932-.064-.69L73.8,56.6l-.064-.69-.18-1.935L73.5,53.28h0l-.145-1.567-3.866.124-.171-.367-.318-.685-.89-1.919-.111-.238-.208-.448-.361-.78-.531-1.142-.321-.69-.887-1.911-.331-.715-.841-1.808-.319-.69-.442-.952-.454-.979-.321-.69-.9-1.935-.261-.561-.061-.13-.208-.45-.691-1.487-.283-.612-.037-.081-.451-.97-.45-.971-.322-.693-.511-1.1-.391-.844-.162-.346-.16-.348-.393-.844-.511-1.1-.324-.7-.3-.651-.6-1.3-.322-.7-.673-1.448-.234-.5-.087-.186-.238-.513L53.86,18.2l-.367-.793-.325-.7-.123-.267-.232-.5-20.723.45.076.775ZM49.262,34.528l.219.493c.025.057.052.117.079.174.048.111.1.22.147.331.025.057.051.114.078.171s.051.115.078.174.052.115.078.174.054.117.079.175l.214.471c.072.159.145.318.219.48s.15.325.225.49l.231.5c.015.034.031.07.048.1l.049.106.049.106c.015.034.031.07.048.106l-6.906.193.027-.108.027-.109c.009-.036.018-.072.025-.108l.027-.108c.042-.172.084-.343.124-.511s.081-.336.121-.5.079-.33.118-.49.078-.322.115-.48c.013-.061.028-.12.043-.18s.025-.108.037-.16l0-.018.019-.081.022-.094c0-.016.007-.031.012-.048.009-.042.019-.085.03-.127.022-.1.046-.2.069-.294l.04-.169c0-.016.009-.034.012-.052s.007-.03.01-.045c.037-.154.073-.307.109-.459.025-.114.052-.225.078-.336.012-.051.024-.1.036-.153.037-.16.073-.319.111-.475l.04-.18c.015-.06.028-.118.042-.178l.04-.175c.013-.058.027-.117.039-.174.031-.132.06-.261.09-.39.009-.045.019-.091.03-.136.039-.172.076-.34.114-.505s.073-.328.108-.487.069-.313.1-.466c.013-.06.027-.12.039-.18h0v0l.007-.031.031-.144c.012-.058.024-.117.037-.175l.036-.172c.04-.189.078-.372.115-.549s.07-.349.1-.514.063-.324.093-.478.058-.3.084-.442l.009-.051v0l.01-.055c0-.018.006-.037.01-.055l.009-.054.018.054.019.054.019.054c.006.018.012.037.019.055.049.142.1.289.159.442s.115.31.178.474.126.33.195.5.138.351.211.535c.022.055.045.112.069.169s.046.114.069.172l.072.175c.024.06.048.118.073.178s.061.15.093.225.064.156.1.235c.066.157.132.316.2.478s.139.328.211.5.145.34.22.514c.024.057.049.114.073.172s.051.114.075.172l.076.175.076.175.205.468c.07.157.141.318.213.48" transform="translate(11.918 7.954)" fill="#38a6e0"/>
        <path id="Path_1436" data-name="Path 1436" d="M141.413,24.085l10.26,79.029L227.2,88.771l-8.928-77.6-26.692,4.484Zm74.972,52.848h0l.081.691.024.205.2,1.725.023.183.058.507.016.135.082.708L159.787,91.775l-.109-.854-.088-.7-.252-1.958-.088-.7L159,85.6l-.088-.7-.252-1.962-.09-.7-.252-1.964-.088-.7-.252-1.967-.091-.706-.25-1.965-.091-.706-.252-1.967-.09-.708-.252-1.97-.091-.708-.25-1.959-.093-.732-.238-1.854-.09-.706-.253-1.977-.09-.708-.253-1.98-.091-.708-.253-1.982-.09-.709L154.9,53.58l-.09-.709-.255-1.986-.091-.711-.253-1.988-.091-.711-.255-1.991-.091-.712-.255-1.992-.091-.711-.255-2-.091-.715-.255-1.994-.091-.717-.253-1.98-.1-.745-.207-1.617,57.84-9.874.187,1.595.025.223.06.511.228,1.952.082.708.159,1.352.072.613.082.706.229,1.967.082.7.229,1.964.081.7.231,1.964.081.7.13,1.12.1.841.025.214.057.486.228,1.959.082.7.228,1.958.076.652.006.046.019.166.208,1.788.082.7.228,1.953.081.7.228,1.952.082.7.207,1.776.006.052.085.723.162,1.384.063.549.082.7.226,1.943.081.7.036.3.192,1.644.081.7.195,1.664.031.274.081.7.228,1.94.079.693.228,1.937.079.693.228,1.935.033.288.046.4.192,1.644Z" transform="translate(70.573 5.576)" fill="#f4b400"/>
        <path id="Path_1437" data-name="Path 1437" d="M149.42,27.38l50.169-8.429,26.692-4.484-30.336-9.9L125.368,16.136Z" transform="translate(62.566 2.28)" fill="#eeba2d"/>
        <path id="Path_1438" data-name="Path 1438" d="M159.68,102.558h0L149.42,23.529,125.368,12.285,135.05,84.5Z" transform="translate(62.566 6.131)" fill="#ffc200"/>
        <path id="Path_1439" data-name="Path 1439" d="M148.593,28.559l57.841-9.874,6.854,58.654L156.2,88.025Z" transform="translate(74.156 9.325)" fill="#fff"/>
      </g>
    </g>
    <g id="Group_878" data-name="Group 878" transform="translate(222.75 28.008)">
      <g id="Group_877" data-name="Group 877" clip-path="url(#clip-path-33)">
        <path id="Path_1440" data-name="Path 1440" d="M148.593,28.559l57.841-9.874,6.854,58.654L156.2,88.025Z" transform="translate(-148.593 -18.684)" fill="#fff"/>
        <g id="Group_876" data-name="Group 876" transform="translate(-2.3 1.471)" opacity="0.09">
          <g id="Group_875" data-name="Group 875">
            <g id="Group_874" data-name="Group 874" clip-path="url(#clip-path-34)">
              <path id="Path_1441" data-name="Path 1441" d="M207.551,19.665,147.059,30.256l0,.832,60.5-10.582-.01-.526Z" transform="translate(-147.059 -19.665)" fill="#bca4ce"/>
              <path id="Path_1442" data-name="Path 1442" d="M207.848,21.4,147.356,31.991l0,.832,60.5-10.582-.01-.526Z" transform="translate(-146.911 -18.799)" fill="#bca4ce"/>
              <path id="Path_1443" data-name="Path 1443" d="M207.736,23.163l-60.084,10.55.006.832L207.753,24l-.01-.526Z" transform="translate(-146.763 -17.919)" fill="#bca4ce"/>
              <path id="Path_1444" data-name="Path 1444" d="M208.033,24.9l-60.084,10.55.006.832L208.05,25.74l-.01-.526Z" transform="translate(-146.615 -17.053)" fill="#bca4ce"/>
              <path id="Path_1445" data-name="Path 1445" d="M208.33,26.635l-60.084,10.55.006.832,60.094-10.541-.01-.526Z" transform="translate(-146.466 -16.187)" fill="#bca4ce"/>
              <path id="Path_1446" data-name="Path 1446" d="M208.627,28.37l-60.084,10.55.006.832,60.094-10.541-.01-.526Z" transform="translate(-146.318 -15.32)" fill="#bca4ce"/>
              <path id="Path_1447" data-name="Path 1447" d="M208.924,30.106,148.84,40.656l.006.832L208.94,30.947l-.01-.526Z" transform="translate(-146.17 -14.454)" fill="#bca4ce"/>
              <path id="Path_1448" data-name="Path 1448" d="M209.221,31.842l-60.084,10.55.006.832,60.094-10.541-.01-.526Z" transform="translate(-146.022 -13.588)" fill="#bca4ce"/>
              <path id="Path_1449" data-name="Path 1449" d="M209.518,33.577l-60.084,10.55.006.832,60.094-10.541-.01-.526Z" transform="translate(-145.874 -12.722)" fill="#bca4ce"/>
              <path id="Path_1450" data-name="Path 1450" d="M209.814,35.313l-60.084,10.55.006.832,60.094-10.541-.01-.526Z" transform="translate(-145.726 -11.855)" fill="#bca4ce"/>
              <path id="Path_1451" data-name="Path 1451" d="M210.111,37.049,150.027,47.6l.006.832L210.128,37.89l-.01-.526Z" transform="translate(-145.578 -10.989)" fill="#bca4ce"/>
              <path id="Path_1452" data-name="Path 1452" d="M210.408,38.785l-60.084,10.55.006.832,60.094-10.541-.01-.526Z" transform="translate(-145.429 -10.123)" fill="#bca4ce"/>
              <path id="Path_1453" data-name="Path 1453" d="M210.7,40.52l-60.084,10.55.006.832,60.094-10.541-.01-.526Z" transform="translate(-145.281 -9.257)" fill="#bca4ce"/>
              <path id="Path_1454" data-name="Path 1454" d="M211,42.256l-60.084,10.55.006.832L211.018,43.1l-.01-.526Z" transform="translate(-145.133 -8.391)" fill="#bca4ce"/>
              <path id="Path_1455" data-name="Path 1455" d="M211.3,43.992l-60.084,10.55.006.832,60.094-10.541-.01-.526Z" transform="translate(-144.985 -7.524)" fill="#bca4ce"/>
              <path id="Path_1456" data-name="Path 1456" d="M211.6,45.727l-60.084,10.55.006.832,60.094-10.541-.01-.526Z" transform="translate(-144.837 -6.658)" fill="#bca4ce"/>
              <path id="Path_1457" data-name="Path 1457" d="M211.892,47.463l-60.084,10.55.006.832L211.909,48.3l-.01-.526Z" transform="translate(-144.689 -5.792)" fill="#bca4ce"/>
              <path id="Path_1458" data-name="Path 1458" d="M212.189,49.2l-60.084,10.55.006.832L212.206,50.04l-.01-.526Z" transform="translate(-144.541 -4.926)" fill="#bca4ce"/>
              <path id="Path_1459" data-name="Path 1459" d="M212.486,50.935,152.4,61.485l.006.832L212.5,51.775l-.01-.526Z" transform="translate(-144.392 -4.059)" fill="#bca4ce"/>
              <path id="Path_1460" data-name="Path 1460" d="M212.783,52.67,152.7,63.221l.006.832L212.8,53.511l-.01-.526Z" transform="translate(-144.244 -3.193)" fill="#bca4ce"/>
              <path id="Path_1461" data-name="Path 1461" d="M213.08,54.406,153,64.956l.006.832L213.1,55.247l-.01-.526Z" transform="translate(-144.096 -2.327)" fill="#bca4ce"/>
              <path id="Path_1462" data-name="Path 1462" d="M213.377,56.142l-60.084,10.55.006.832,60.094-10.541-.01-.526Z" transform="translate(-143.948 -1.461)" fill="#bca4ce"/>
            </g>
          </g>
        </g>
      </g>
    </g>
    <g id="Group_880" data-name="Group 880" transform="translate(0 0)">
      <g id="Group_879" data-name="Group 879" clip-path="url(#clip-path)">
        <path id="Path_1464" data-name="Path 1464" d="M187.968,72.428a19.482,19.482,0,0,0,1.922-1.1c.106-.069.211-.138.318-.21s.208-.142.313-.216.207-.147.31-.223c.042-.03.084-.061.126-.093l.183-.136.223-.172.15-.118.072-.057.1-.081.12-.1c.018-.015.034-.03.052-.043l.123-.1.043-.036c.03-.025.06-.052.09-.079h0l.156-.135.138-.121.067-.057c.148-.133.3-.268.439-.4l.013-.012c.082-.076.162-.156.243-.235.043-.042.087-.082.13-.126l.042-.04c.018-.018.034-.036.052-.052.079-.079.157-.16.237-.241l.127-.13a.268.268,0,0,1,.028-.03l.016-.019c.048-.049.1-.1.142-.15l.12-.13c.021-.024.043-.048.066-.072l.076-.085c.036-.039.072-.078.106-.118.052-.058.1-.118.156-.178l.024-.027c.1-.111.187-.223.28-.336.055-.066.112-.132.166-.2l.022-.03c.139-.171.274-.343.408-.519.093-.123.183-.249.274-.373l.01-.013c.042-.06.087-.117.129-.175l.006-.01c.132-.186.262-.375.388-.565h0c.031-.049.063-.1.1-.147l.03-.046.021-.033c.024-.036.046-.073.07-.109l.017-.027.016-.024c.014-.021.025-.042.039-.061.028-.045.057-.09.084-.135s.073-.12.109-.178l.012-.018v0c.081-.133.159-.268.237-.4.022-.039.046-.076.069-.115a.324.324,0,0,1,.021-.039.406.406,0,0,1,.024-.043c.051-.091.1-.183.151-.274.033-.058.066-.117.1-.177.094-.175.187-.354.277-.532l.006-.009,0-.012.008-.015c.06-.118.117-.237.174-.357.027-.057.057-.112.082-.169s.06-.126.088-.187.058-.126.085-.19.058-.126.085-.189l.084-.192c.016-.037.031-.075.048-.112l.063-.148c.007-.019.015-.039.024-.058s.01-.025.016-.039l.058-.142,0-.012,0-.012.049-.124.049-.124.007-.016c.012-.031.024-.064.038-.1.021-.057.043-.112.064-.169l-1.622-.774h0L195.818,59l-3.245-1.547h0l-1.135-.54-.022-.012-.607-.289-1.9-.9c-.082.138-.165.274-.247.408l-.021.034-.035.055c-.078.124-.156.249-.234.372-.088.139-.178.277-.267.412s-.18.268-.27.4l-.139.2-.139.2-.027.037-.112.157c-.048.063-.094.127-.141.189h0q-.243.328-.489.633c-.147.184-.3.36-.442.532l-.016.019c-.01.01-.02.024-.03.034s-.027.03-.04.045l-.093.1c-.118.133-.237.267-.357.393-.162.171-.325.336-.489.492h0l-.015.015c-.07.067-.142.133-.213.2l-.016.015-.007.006c-.055.051-.111.1-.166.147-.024.021-.048.043-.072.063-.078.067-.157.133-.237.2l-.009.007,0,0-.016.012c-.075.06-.15.118-.223.175-.054.04-.108.079-.162.118-.027.021-.054.04-.081.06-.081.058-.16.112-.241.166-.06.04-.12.078-.178.115l-.064.04-.045.027-.2.117a8.662,8.662,0,0,1-.8.46c-.12.06-.24.115-.36.169-.018.007-.034.018-.052.025h-.006c-.136.06-.274.115-.414.168-.207.078-.417.142-.628.2-.076.021-.153.045-.231.064-.117.03-.235.054-.355.078l-.136.028c-.13.024-.261.046-.393.063-.225.03-.456.049-.688.06-.016,0-.033,0-.051,0H179.2c-.235.007-.474.007-.717,0-.07,0-.144-.015-.214-.021-.19-.015-.382-.028-.577-.055q-.4-.056-.818-.145L176.855,63c-.135-.027-.265-.055-.4-.087l-.022-.006c-.042-.009-.081-.021-.123-.033-.088-.022-.177-.046-.264-.07l-.042-.012c-.042-.012-.081-.027-.121-.04-.078-.024-.157-.048-.234-.075-.019-.007-.04-.013-.06-.019l-.109-.042c-.1-.036-.195-.072-.291-.111l0,0-.008,0c-.088-.036-.177-.075-.264-.114l-.017-.007-.016-.007-.234-.112-.03-.015-.022-.01c-.078-.04-.154-.081-.231-.123l-.019-.01-.03-.016c-.078-.045-.157-.09-.234-.136h0c-.169-.1-.333-.213-.495-.327-.014-.01-.03-.019-.043-.03l0,0-.009-.007c-.171-.123-.337-.255-.5-.393l-.006,0-.012-.013c-.157-.135-.312-.277-.46-.427l-.01-.009-.008-.009-.016-.018c-.147-.148-.288-.3-.426-.465h0c-.045-.052-.087-.1-.129-.154s-.084-.1-.124-.157-.082-.108-.123-.162-.081-.111-.12-.166c-.018-.024-.035-.048-.052-.073s-.033-.049-.051-.073-.033-.051-.051-.076-.033-.049-.049-.075c-.082-.121-.165-.244-.244-.367l-.015-.025c-.075-.115-.148-.232-.219-.351s-.151-.255-.225-.385-.145-.261-.216-.394l-.084-.162c-.028-.055-.055-.109-.082-.165-.016-.031-.031-.063-.048-.094s-.022-.048-.035-.07c-.027-.055-.052-.112-.079-.168-.069-.147-.138-.3-.2-.448s-.129-.3-.192-.457-.123-.312-.181-.469-.115-.318-.171-.48l-.009-.03c-.016-.048-.033-.1-.048-.144s-.039-.115-.057-.175-.038-.117-.055-.175-.036-.118-.054-.178c-.043-.142-.085-.288-.124-.433l-.006-.021c-.039-.139-.075-.279-.111-.421-.028-.108-.054-.219-.081-.33-.009-.04-.019-.079-.028-.118-.034-.151-.067-.3-.1-.457-.012-.057-.024-.114-.034-.171s-.022-.114-.034-.171-.021-.115-.033-.172l-.031-.174c-.009-.049-.018-.1-.025-.15l-.027-.15c-.008-.051-.016-.1-.024-.153s-.016-.1-.024-.151c-.018-.112-.035-.223-.049-.334l0-.031-.04-.3c-.013-.109-.027-.219-.039-.328s-.024-.213-.034-.319v-.007l0,0-.006-.075v0l-.009-.091c0-.058-.01-.117-.015-.174l-.013-.174c0-.058-.009-.117-.012-.174-.012-.166-.021-.333-.028-.5s-.013-.328-.016-.492-.006-.325,0-.486,0-.321.008-.48c0-.06,0-.118.006-.178l0-.109c0-.022,0-.045,0-.067v0l0-.042c0-.042,0-.085.006-.129v0c0-.06.006-.118.01-.177.012-.171.025-.342.043-.51,0-.022,0-.045.007-.067.015-.145.03-.292.049-.436q.031-.25.072-.495c.025-.163.054-.325.085-.487.012-.061.024-.123.038-.183s.025-.121.039-.183.027-.12.04-.18.028-.12.043-.18.034-.142.054-.213v-.01l.054-.2c.007-.022.014-.045.019-.067l.027-.09.014-.051.007-.022c.018-.061.036-.123.055-.184v-.007c.028-.094.058-.189.088-.282l.007-.027.006-.015c.03-.09.061-.18.094-.268l.009-.024.009-.027.027-.066c.025-.069.052-.139.081-.208l.04-.093c.028-.066.057-.133.087-.2l0,0c.028-.063.058-.126.088-.187l0-.006v0l.052-.1.034-.069.009-.016,0-.009c.028-.055.058-.109.09-.165l.008-.013.01-.019.015-.025.079-.139c.067-.111.142-.214.214-.321s.132-.211.207-.312c.13-.177.271-.345.417-.51.009-.01.018-.022.028-.033l.015-.019.018-.022.015-.015c.162-.177.331-.348.511-.511l.012-.012.021-.018c.051-.045.108-.087.16-.132.136-.115.271-.232.417-.342.087-.066.177-.129.268-.192l.02-.013c.1-.067.2-.132.3-.2s.207-.126.312-.187.214-.12.325-.177c.025-.012.051-.025.075-.039l.076-.037.03-.015.031-.015.015-.007.075-.036c.217-.1.433-.2.651-.282.033-.013.067-.022.1-.036.183-.069.367-.136.552-.193s.346-.1.52-.138c.045-.01.09-.025.135-.036.15-.033.3-.057.448-.082.069-.012.139-.028.21-.037.1-.015.2-.021.3-.031.121-.013.241-.028.363-.037h.009c.09-.006.181,0,.271-.006.135,0,.271-.012.408-.009.226,0,.453.018.679.039s.454.054.682.094c.073.013.147.027.22.042l.22.046c.073.018.147.034.219.054s.148.037.222.058l.2.06c.066.019.133.04.2.063s.132.045.2.069.13.046.2.072q.364.137.717.306c.235.111.468.234.7.364s.454.273.675.424.439.312.654.483c.052.042.1.085.157.129l.021.016.006,0,.169.145c.058.049.117.1.175.153s.115.1.172.159c.136.129.271.261.406.4s.265.277.4.424.259.294.387.448.253.313.378.477c.039.051.079.1.118.156s.079.108.12.165.082.114.124.174.067.1.1.147c.01.013.021.027.031.043l5.214-.756,5.233-.757-.112-.693-.235-1.454v0l-.076-.472-.021-.129-.09-.564-.01-.063-.144-.884-.157-.98-.112-.688-.141-.877-.148-.911-.021-.138-.082-.5-.03-.186-.31-1.923-.111-.687-.312-1.92-.111-.687-.31-1.917-.109-.685-.078-.477-5.884.85-.048.495-.069.709-.192,1.988-.066.693c-.085-.046-.171-.093-.258-.138s-.172-.091-.259-.135-.172-.088-.261-.132-.174-.087-.262-.129l-.226-.108-.226-.1-.229-.1c-.075-.034-.151-.067-.228-.1h0c-.235-.1-.472-.2-.708-.289s-.474-.18-.712-.264-.475-.162-.712-.237-.477-.144-.717-.21c-.135-.037-.27-.072-.406-.106l-.064-.016c-.093-.024-.184-.045-.277-.066l-.195-.046c-.157-.036-.316-.069-.474-.1s-.316-.061-.474-.09h0c-.534-.093-1.07-.166-1.61-.216s-1.079-.079-1.622-.087-1.087.007-1.634.043-1.1.094-1.646.174q-.429.063-.85.139l-.018,0c-.274.051-.544.1-.814.165q-.823.184-1.61.426t-1.543.543c-.343.138-.679.286-1.01.442-.156.072-.312.142-.463.219l-.133.069c-.1.049-.195.1-.291.15-.139.075-.279.15-.417.228s-.274.159-.411.24-.27.163-.4.249c-.241.153-.478.313-.714.477-.027.021-.057.037-.084.057l-.112.084q-.277.2-.547.408l-.114.084c-.016.012-.031.027-.046.039-.208.163-.411.333-.613.5-.025.022-.051.042-.076.064l-.013.01-.013.012q-.362.315-.711.648l-.091.088c-.037.036-.076.072-.114.109-.067.066-.135.133-.2.2-.04.04-.079.082-.12.123s-.054.054-.079.082c-.066.067-.132.138-.2.207-.1.109-.2.222-.3.333-.057.063-.115.124-.172.189q-.234.265-.462.543-.207.247-.406.507l-.008.009c-.012.016-.025.031-.037.046l0,.006-.042.057c-.132.171-.264.345-.393.522-.028.037-.055.076-.082.115l-.034.045-.016.024,0,.006-.018.025-.123.175c-.049.069-.1.141-.15.216-.022.034-.048.072-.073.108l-.039.058c-.016.024-.033.046-.049.072-.048.072-.094.144-.142.217-.033.051-.067.1-.1.154s-.061.091-.091.138c-.109.171-.216.342-.319.514s-.207.343-.306.517-.2.346-.292.522c-.033.058-.064.118-.1.177l0,.01-.011.018c-.025.046-.049.094-.073.141l-.016.028-.011.022-.081.157,0,.009h0l0,.007c-.027.051-.052.1-.078.154l-.014.025c-.085.171-.169.342-.25.514s-.159.345-.235.519-.151.348-.223.522-.142.351-.21.526c-.021.054-.042.108-.061.162l-.009.022c-.015.039-.029.076-.042.115-.009.022-.018.045-.026.067l-.067.184c-.021.061-.043.123-.064.184-.058.166-.114.336-.168.5s-.108.339-.157.508-.1.34-.145.511-.091.342-.133.514c-.015.06-.03.12-.043.181s-.028.12-.043.18l-.04.181c-.014.06-.027.121-.039.181-.036.165-.069.33-.1.495s-.061.333-.09.5-.054.333-.078.5-.048.336-.069.505c-.007.058-.015.117-.021.177s-.013.118-.021.177l-.018.18-.018.178c-.015.162-.03.324-.042.487s-.022.327-.031.49-.017.33-.022.495-.01.33-.012.5c0,.058,0,.117,0,.175V48.9c0,.058,0,.118,0,.177v.175c0,.16.006.321.01.481s.01.324.018.486.016.324.027.486.022.327.036.49c0,.057.01.115.015.172s.01.117.016.174.01.115.016.174l.018.174.036.327c.014.109.027.22.042.33s.028.219.043.33.031.22.048.331c.007.049.016.1.024.151s.016.1.024.15.016.1.024.151l.027.15c.009.057.02.115.028.172l.031.172c.01.057.021.114.033.171s.021.114.033.171h0c.03.151.061.3.093.451s.064.3.1.447.069.3.1.444.073.294.111.439c.016.06.031.118.048.178s.031.117.048.175l.049.175.049.175c.046.159.094.318.144.474s.1.315.151.469.1.31.159.465.109.306.166.457c.021.057.042.112.064.168s.042.112.064.168.043.111.064.166l.067.165q.1.238.2.472c.067.156.136.312.207.466s.142.307.216.46.148.3.225.454l.084.165c.028.055.057.111.085.165s.058.109.088.163.058.109.088.163c.084.156.171.31.259.465s.18.307.271.459.184.3.28.453.192.3.291.445c.036.054.072.108.109.162s.073.108.111.162.073.106.112.16l.112.159c.109.154.222.306.336.457s.229.3.346.45.237.3.357.442.244.291.37.435h0c.046.054.093.106.139.159s.093.106.141.159.094.1.141.156l.144.156c.139.15.282.3.426.447s.289.294.438.439.3.288.451.43.307.283.463.423l.177.156.039.033,0,0,.138.12h0l.009.007c.06.052.124.106.19.162l.142.12.018.015.049.04.01.009c.175.148.354.292.532.435s.357.28.537.415.36.268.541.4.363.255.546.379c.075.051.151.1.228.151s.151.1.228.147l.228.145c.076.048.153.1.231.142q.38.232.765.445t.773.411c.259.13.519.256.781.375s.525.232.79.34c.118.048.237.094.355.141s.238.09.358.133.24.085.36.126.24.081.36.118a19.509,19.509,0,0,0,2.049.534c.037.007.073.018.109.024.079.016.16.025.24.04.519.1,1.042.171,1.568.225.136.013.271.034.408.045s.277.015.415.024c.613.037,1.231.055,1.856.039a22.126,22.126,0,0,0,2.328-.187,20.809,20.809,0,0,0,2.213-.412q.542-.133,1.072-.292l.027-.009q.515-.157,1.019-.342t1.021-.406c.337-.145.67-.3,1-.465" transform="translate(77.716 12.017)" fill="#f4b400"/>
      </g>
    </g>
  </g>
</svg>
