<svg xmlns="http://www.w3.org/2000/svg" xmlns:xlink="http://www.w3.org/1999/xlink" width="58.076" height="24.306" viewBox="0 0 58.076 24.306">
  <defs>
    <clipPath id="clip-path">
      <rect id="Rectangle_466" data-name="Rectangle 466" width="58.076" height="24.306" fill="#38a6e0"/>
    </clipPath>
  </defs>
  <g id="Group_911" data-name="Group 911" clip-path="url(#clip-path)">
    <path id="Path_1636" data-name="Path 1636" d="M2.369,133.973a1.184,1.184,0,1,1-1.184-1.184,1.184,1.184,0,0,1,1.184,1.184" transform="translate(20.179 -121.878)" fill="#38a6e0"/>
    <path id="Path_1659" data-name="Path 1659" d="M2.369,133.973a1.184,1.184,0,1,1-1.184-1.184,1.184,1.184,0,0,1,1.184,1.184" transform="translate(2.421 -121.878)" fill="#38a6e0"/>
    <path id="Path_1637" data-name="Path 1637" d="M45.608,133.973a1.184,1.184,0,1,1-1.184-1.184,1.184,1.184,0,0,1,1.184,1.184" transform="translate(-19.507 -121.878)" fill="#38a6e0"/>
    <path id="Path_1658" data-name="Path 1658" d="M45.608,133.973a1.184,1.184,0,1,1-1.184-1.184,1.184,1.184,0,0,1,1.184,1.184" transform="translate(-37.265 -121.878)" fill="#38a6e0"/>
    <path id="Path_1638" data-name="Path 1638" d="M88.846,133.973a1.184,1.184,0,1,1-1.184-1.184,1.184,1.184,0,0,1,1.184,1.184" transform="translate(-59.193 -121.878)" fill="#38a6e0"/>
    <path id="Path_1657" data-name="Path 1657" d="M88.846,133.973a1.184,1.184,0,1,1-1.184-1.184,1.184,1.184,0,0,1,1.184,1.184" transform="translate(-76.95 -121.878)" fill="#38a6e0"/>
    <path id="Path_1639" data-name="Path 1639" d="M132.085,133.973a1.184,1.184,0,1,1-1.184-1.184,1.184,1.184,0,0,1,1.184,1.184" transform="translate(-98.879 -121.878)" fill="#38a6e0"/>
    <path id="Path_1656" data-name="Path 1656" d="M132.085,133.973a1.184,1.184,0,1,1-1.184-1.184,1.184,1.184,0,0,1,1.184,1.184" transform="translate(-116.636 -121.878)" fill="#38a6e0"/>
    <path id="Path_1640" data-name="Path 1640" d="M175.324,133.973a1.184,1.184,0,1,1-1.184-1.184,1.184,1.184,0,0,1,1.184,1.184" transform="translate(-138.565 -121.878)" fill="#38a6e0"/>
    <path id="Path_1655" data-name="Path 1655" d="M175.324,133.973a1.184,1.184,0,1,1-1.184-1.184,1.184,1.184,0,0,1,1.184,1.184" transform="translate(-156.322 -121.878)" fill="#38a6e0"/>
    <path id="Path_1641" data-name="Path 1641" d="M218.563,133.973a1.184,1.184,0,1,1-1.184-1.184,1.184,1.184,0,0,1,1.184,1.184" transform="translate(-178.251 -121.878)" fill="#38a6e0"/>
    <path id="Path_1642" data-name="Path 1642" d="M261.8,133.973a1.184,1.184,0,1,1-1.184-1.184,1.184,1.184,0,0,1,1.184,1.184" transform="translate(-217.936 -121.878)" fill="#38a6e0"/>
    <path id="Path_1643" data-name="Path 1643" d="M305.04,133.973a1.184,1.184,0,1,1-1.184-1.184,1.184,1.184,0,0,1,1.184,1.184" transform="translate(-257.622 -121.878)" fill="#38a6e0"/>
    <path id="Path_1644" data-name="Path 1644" d="M348.279,133.973a1.184,1.184,0,1,1-1.184-1.184,1.184,1.184,0,0,1,1.184,1.184" transform="translate(-297.308 -121.878)" fill="#38a6e0"/>
    <path id="Path_1645" data-name="Path 1645" d="M391.518,133.973a1.184,1.184,0,1,1-1.184-1.184,1.184,1.184,0,0,1,1.184,1.184" transform="translate(-336.994 -121.878)" fill="#38a6e0"/>
    <path id="Path_1646" data-name="Path 1646" d="M434.756,133.973a1.184,1.184,0,1,1-1.184-1.184,1.184,1.184,0,0,1,1.184,1.184" transform="translate(-376.679 -121.878)" fill="#38a6e0"/>
    <path id="Path_1647" data-name="Path 1647" d="M315.511,2.021a1.184,1.184,0,1,1,0-1.675,1.184,1.184,0,0,1,0,1.675" transform="translate(-267.551 0.001)" fill="#38a6e0"/>
    <path id="Path_1648" data-name="Path 1648" d="M346.086,32.6a1.184,1.184,0,1,1,0-1.675,1.184,1.184,0,0,1,0,1.675" transform="translate(-295.614 -28.063)" fill="#38a6e0"/>
    <path id="Path_1649" data-name="Path 1649" d="M376.66,63.17a1.184,1.184,0,1,1,0-1.675,1.184,1.184,0,0,1,0,1.675" transform="translate(-323.676 -56.124)" fill="#38a6e0"/>
    <path id="Path_1650" data-name="Path 1650" d="M407.235,93.745a1.184,1.184,0,1,1,0-1.675,1.184,1.184,0,0,1,0,1.675" transform="translate(-351.738 -84.186)" fill="#38a6e0"/>
    <path id="Path_1651" data-name="Path 1651" d="M315.511,267.327a1.184,1.184,0,1,0,0,1.675,1.184,1.184,0,0,0,0-1.675" transform="translate(-267.551 -245.043)" fill="#38a6e0"/>
    <path id="Path_1652" data-name="Path 1652" d="M346.086,236.752a1.184,1.184,0,1,0,0,1.675,1.184,1.184,0,0,0,0-1.675" transform="translate(-295.614 -216.98)" fill="#38a6e0"/>
    <path id="Path_1653" data-name="Path 1653" d="M376.66,206.178a1.184,1.184,0,1,0,0,1.675,1.184,1.184,0,0,0,0-1.675" transform="translate(-323.676 -188.918)" fill="#38a6e0"/>
    <path id="Path_1654" data-name="Path 1654" d="M407.235,175.6a1.184,1.184,0,1,0,0,1.675,1.184,1.184,0,0,0,0-1.675" transform="translate(-351.738 -160.856)" fill="#38a6e0"/>
  </g>
</svg>
