<svg xmlns="http://www.w3.org/2000/svg" xmlns:xlink="http://www.w3.org/1999/xlink" width="78.86" height="73.807" viewBox="0 0 78.86 73.807">
  <defs>
    <clipPath id="clip-path">
      <rect id="Rectangle_362" data-name="Rectangle 362" width="78.86" height="73.807" fill="#fff"/>
    </clipPath>
    <clipPath id="clip-path-2">
      <rect id="Rectangle_564" data-name="Rectangle 564" width="47.685" height="47.692" fill="#d5739e"/>
    </clipPath>
  </defs>
  <g id="Group_1406" data-name="Group 1406" transform="translate(-176.86 -535.257)">
    <g id="Group_639" data-name="Group 639" transform="translate(176.86 535.257)" opacity="0.612">
      <g id="Group_620" data-name="Group 620" transform="translate(0)" clip-path="url(#clip-path)">
        <path id="Path_680" data-name="Path 680" d="M1.418,44.661A41.084,41.084,0,0,0,28.394,72.375l-1.521-.617a39.955,39.955,0,0,0,33.641-3.933,39.956,39.956,0,0,0,18.129-28.61c1.092-9.057-1.883-19.52-10.021-23.646C59.7,11.049,48,15.6,39.4,10.506,34.5,7.6,31.312,1.889,25.822.371c-5.758-1.591-11.674,2.16-15.65,6.617A41.086,41.086,0,0,0,1.418,44.661" transform="translate(0 0.001)" fill="#fff"/>
      </g>
    </g>
    <g id="Group_1138" data-name="Group 1138" transform="translate(191.16 551.255)">
      <g id="Group_1137" data-name="Group 1137" clip-path="url(#clip-path-2)">
        <path id="Path_1864" data-name="Path 1864" d="M24.023,92.111A9.43,9.43,0,1,1,24.942,73.3a1.067,1.067,0,0,1-.215,2.123A7.213,7.213,0,0,0,18.847,77.5a7.312,7.312,0,1,0,12.416,4.5,1.067,1.067,0,0,1,.964-1.161,1.086,1.086,0,0,1,1.163.962,9.389,9.389,0,0,1-9.368,10.315" transform="translate(-9.79 -49.195)" fill="#d5739e"/>
        <path id="Path_1865" data-name="Path 1865" d="M14.233,87.608a14.21,14.21,0,0,1-2.816-28.145,1.066,1.066,0,1,1,.417,2.091A12.1,12.1,0,1,0,26.057,75.782a1.068,1.068,0,0,1,2.094.423,14.152,14.152,0,0,1-13.919,11.4" transform="translate(0 -39.916)" fill="#d5739e"/>
        <path id="Path_1866" data-name="Path 1866" d="M49.314,49.373h0a3.44,3.44,0,0,1-1.264-.231,57.968,57.968,0,0,1-16.06-9.257c-1.612.917-4.252.2-6.141-1.69A7.271,7.271,0,0,1,23.869,34.8a3.8,3.8,0,0,1,.292-2.749A58.206,58.206,0,0,1,14.9,15.99c-.73-1.9.391-4.436,2.5-5.664,2.152-1.238,4.67-.651,5.382,1.209A50.262,50.262,0,0,0,52.505,41.262a2.9,2.9,0,0,1,1.716,1.774,4.379,4.379,0,0,1-.5,3.612,5.38,5.38,0,0,1-4.407,2.726M32,37.451a1.024,1.024,0,0,1,.664.218A55.781,55.781,0,0,0,48.816,47.15a1.37,1.37,0,0,0,.5.087,3.277,3.277,0,0,0,2.561-1.665,2.311,2.311,0,0,0,.333-1.825.764.764,0,0,0-.467-.491A52.345,52.345,0,0,1,20.783,12.3a.943.943,0,0,0-.962-.536,2.751,2.751,0,0,0-1.354.411c-1.286.75-1.9,2.229-1.58,3.054a55.959,55.959,0,0,0,9.486,16.153,1.069,1.069,0,0,1-.131,1.511,1.374,1.374,0,0,0-.3,1.431,5.225,5.225,0,0,0,1.413,2.367c1.272,1.273,3.106,1.841,3.738,1.216a1.148,1.148,0,0,1,.749-.443,1.234,1.234,0,0,1,.152-.01" transform="translate(-9.854 -6.495)" fill="#d5739e"/>
        <path id="Path_1867" data-name="Path 1867" d="M67.567,28.572a2.788,2.788,0,0,1-.63-.074,1.067,1.067,0,0,1,.484-2.078c.181.042.362.093.933-.651l.354-.472c.858-1.171,2.147-2.922,4.84-2.729,3.515.9,6.725.18,8.79-1.892,3.6-3.6,2.887-10.174-1.591-14.652a12.911,12.911,0,0,0-7.76-3.836A8.315,8.315,0,0,0,66.1,4.43a8.716,8.716,0,0,0-1.963,8.465c.327,2.931-1.5,4.279-2.707,5.174l-.439.33c-.548.417-.664.61-.675.786a1,1,0,0,1-1.128,1,1.064,1.064,0,0,1-1-1.126,3.266,3.266,0,0,1,1.5-2.358l.475-.356c1.273-.94,2.037-1.617,1.876-3.085A10.7,10.7,0,0,1,64.59,2.919,10.481,10.481,0,0,1,73.2.061a15.069,15.069,0,0,1,9.062,4.455c5.31,5.308,6.024,13.234,1.591,17.667A10.9,10.9,0,0,1,73.2,24.665c-1.2-.074-1.864.661-2.768,1.9l-.388.52a3.218,3.218,0,0,1-2.474,1.491" transform="translate(-39.073 0)" fill="#d5739e"/>
      </g>
    </g>
  </g>
</svg>
