<svg xmlns="http://www.w3.org/2000/svg" xmlns:xlink="http://www.w3.org/1999/xlink" width="78.86" height="73.807" viewBox="0 0 78.86 73.807">
  <defs>
    <clipPath id="clip-path">
      <rect id="Rectangle_362" data-name="Rectangle 362" width="78.86" height="73.807" fill="#fff"/>
    </clipPath>
    <clipPath id="clip-path-2">
      <rect id="Rectangle_563" data-name="Rectangle 563" width="59.975" height="53.474" fill="#3796c9"/>
    </clipPath>
  </defs>
  <g id="Group_1407" data-name="Group 1407" transform="translate(-511.081 -532.089)">
    <g id="Group_639" data-name="Group 639" transform="translate(511.081 532.089)" opacity="0.612">
      <g id="Group_620" data-name="Group 620" transform="translate(0)" clip-path="url(#clip-path)">
        <path id="Path_680" data-name="Path 680" d="M1.418,44.661A41.084,41.084,0,0,0,28.394,72.375l-1.521-.617a39.955,39.955,0,0,0,33.641-3.933,39.956,39.956,0,0,0,18.129-28.61c1.092-9.057-1.883-19.52-10.021-23.646C59.7,11.049,48,15.6,39.4,10.506,34.5,7.6,31.312,1.889,25.822.371c-5.758-1.591-11.674,2.16-15.65,6.617A41.086,41.086,0,0,0,1.418,44.661" transform="translate(0 0.001)" fill="#fff"/>
      </g>
    </g>
    <g id="Group_1136" data-name="Group 1136" transform="translate(519.367 542.327)">
      <g id="Group_1135" data-name="Group 1135" transform="translate(0 0)" clip-path="url(#clip-path-2)">
        <path id="Path_1857" data-name="Path 1857" d="M106.475,11.2H80.151c-2.122,0-3.85-1.45-3.85-3.23V4.808c0-1.75,2.445-2.8,3.5-3.166a56.528,56.528,0,0,1,26.82-.059c1.291.34,3.707.978,3.707,3.225V7.971c0,1.78-1.728,3.23-3.85,3.23M93.666,2.138A58.387,58.387,0,0,0,80.4,3.691a4.757,4.757,0,0,0-1.97,1.2l.014,3.078c0,.516.732,1.092,1.711,1.092h26.324c1.008,0,1.711-.575,1.711-1.092V4.808c0-.18,0-.6-1.984-1.124A49.221,49.221,0,0,0,93.666,2.138" transform="translate(-51.213 0)" fill="#3796c9"/>
        <path id="Path_1858" data-name="Path 1858" d="M53.643,64.515H49.328a1.069,1.069,0,0,1,0-2.138h3.247V29.7H31.62V41.945a1.069,1.069,0,0,1-1.069,1.069h-26c-4.722,10.434-1.172,17.59-.1,19.362H6.262a1.069,1.069,0,1,1,0,2.138H3.873a1.069,1.069,0,0,1-.856-.428c-.271-.365-6.581-9.058-.109-22.6a1.073,1.073,0,0,1,.965-.608H29.481V28.632a1.069,1.069,0,0,1,1.069-1.069H53.643a1.069,1.069,0,0,1,1.069,1.069V63.446a1.069,1.069,0,0,1-1.069,1.069m-23.453,0h-4.5a1.069,1.069,0,1,1,0-2.138h4.5a1.069,1.069,0,1,1,0,2.138m15.6-18.277H38.411a1.069,1.069,0,0,1-1.069-1.069V33.943a1.069,1.069,0,0,1,1.069-1.069H45.79a1.069,1.069,0,0,1,1.069,1.069V45.169a1.069,1.069,0,0,1-1.069,1.069M39.48,44.1h5.24V35.012H39.48Z" transform="translate(0 -18.5)" fill="#3796c9"/>
        <path id="Path_1859" data-name="Path 1859" d="M32.278,52.257H26.37a1.069,1.069,0,0,1-1.031-.788l-2.376-8.727a1.069,1.069,0,0,1,1.031-1.35H34.647a1.069,1.069,0,0,1,1.031,1.349l-2.37,8.727a1.069,1.069,0,0,1-1.031.79m-5.091-2.139h4.274l1.79-6.589H25.392Z" transform="translate(-15.387 -27.781)" fill="#3796c9"/>
        <path id="Path_1860" data-name="Path 1860" d="M27.131,119.731a10.508,10.508,0,1,1,10.5-10.51,10.526,10.526,0,0,1-10.5,10.51m0-18.877a8.369,8.369,0,1,0,8.358,8.368,8.382,8.382,0,0,0-8.358-8.368" transform="translate(-11.152 -66.257)" fill="#3796c9"/>
        <path id="Path_1861" data-name="Path 1861" d="M45.9,125.431a2.559,2.559,0,1,1-2.55-2.566,2.555,2.555,0,0,1,2.55,2.566" transform="translate(-27.375 -82.467)" fill="#3796c9"/>
        <path id="Path_1862" data-name="Path 1862" d="M99.077,119.731a10.508,10.508,0,1,1,10.5-10.51,10.523,10.523,0,0,1-10.5,10.51m0-18.877a8.369,8.369,0,1,0,8.364,8.368,8.379,8.379,0,0,0-8.364-8.368" transform="translate(-59.446 -66.257)" fill="#3796c9"/>
        <path id="Path_1863" data-name="Path 1863" d="M117.856,125.431a2.559,2.559,0,1,1-2.556-2.566,2.556,2.556,0,0,1,2.556,2.566" transform="translate(-75.669 -82.467)" fill="#3796c9"/>
      </g>
    </g>
  </g>
</svg>
