<svg xmlns="http://www.w3.org/2000/svg" xmlns:xlink="http://www.w3.org/1999/xlink" width="78.86" height="73.807" viewBox="0 0 78.86 73.807">
  <defs>
    <clipPath id="clip-path">
      <rect id="Rectangle_362" data-name="Rectangle 362" width="78.86" height="73.807" fill="#fff"/>
    </clipPath>
    <clipPath id="clip-path-2">
      <rect id="Rectangle_565" data-name="Rectangle 565" width="49.715" height="53.612" fill="#eeba2d"/>
    </clipPath>
  </defs>
  <g id="Group_1408" data-name="Group 1408" transform="translate(-844.394 -532.646)">
    <g id="Group_1105" data-name="Group 1105" transform="translate(844.394 532.646)" opacity="0.612">
      <g id="Group_620" data-name="Group 620" transform="translate(0)" clip-path="url(#clip-path)">
        <path id="Path_680" data-name="Path 680" d="M1.418,44.661A41.084,41.084,0,0,0,28.394,72.375l-1.521-.617a39.955,39.955,0,0,0,33.641-3.933,39.956,39.956,0,0,0,18.129-28.61c1.092-9.057-1.883-19.52-10.021-23.646C59.7,11.049,48,15.6,39.4,10.506,34.5,7.6,31.312,1.889,25.822.371c-5.758-1.591-11.674,2.16-15.65,6.617A41.086,41.086,0,0,0,1.418,44.661" transform="translate(0 0.001)" fill="#fff"/>
      </g>
    </g>
    <g id="Group_1140" data-name="Group 1140" transform="translate(858.693 540.918)">
      <g id="Group_1139" data-name="Group 1139" clip-path="url(#clip-path-2)">
        <path id="Path_1868" data-name="Path 1868" d="M25.29,53.612h0c-.611,0-1.237-.015-1.873-.043C12.866,53.115,7.652,49.6,5.134,46.737a11.558,11.558,0,0,1-3-8.629A15.931,15.931,0,0,1,5.072,29.98a20.119,20.119,0,0,1,3.473-3.728c1.944-1.744,2.9-2.69,2.518-4.173a12.915,12.915,0,0,1-2.1-2.733c-.3.034-.614.074-.93.117a21.132,21.132,0,0,1-2.656.233c-1.928,0-3.191-.657-3.762-1.95-.927-2.113.731-3.344,1.621-4,.025-.018.052-.04.08-.058A6.465,6.465,0,0,1,.086,9.621,3.374,3.374,0,0,1,.6,6.786,2.452,2.452,0,0,1,2.576,5.96,9.464,9.464,0,0,1,6.792,7.419a1.832,1.832,0,0,0,.869.292c.234,0,.556-.086,1.007-.756a2.342,2.342,0,0,1,.193-.233A12.709,12.709,0,0,1,20.159,0,12.914,12.914,0,0,1,28.6,22.684a17.756,17.756,0,0,1,4.981,2.091c1.376.774,2.4,1.373,3.774,1.207a6.506,6.506,0,0,0,2.309-1.118c.249-.243.507-.507.774-.78,1.462-1.5,3.123-3.2,4.892-3.2,2.715,0,3.494,3.783,3.753,5.027,1.575,7.634.172,14.629-3.958,19.7C40.859,50.843,34,53.612,25.29,53.612M9.54,17.245a1.019,1.019,0,0,1,.909.559,10.947,10.947,0,0,0,2.22,2.982,1.1,1.1,0,0,1,.267.418c.992,2.963-1.05,4.8-3.025,6.568a18.374,18.374,0,0,0-3.166,3.375,13.951,13.951,0,0,0-2.573,7.136,9.5,9.5,0,0,0,2.5,7.1c2.254,2.567,7,5.718,16.831,6.145,9.031.363,15.9-2.128,20.043-7.216,3.734-4.581,4.99-10.972,3.541-17.995-.439-2.125-1.093-3.393-1.751-3.393-.909,0-2.364,1.492-3.43,2.583-.28.289-.55.565-.807.814a8.651,8.651,0,0,1-3.378,1.668,5.617,5.617,0,0,1-.8.061,8.613,8.613,0,0,1-4.333-1.5,14.627,14.627,0,0,0-6.716-2.229,1.021,1.021,0,0,1-.418-1.91,10.87,10.87,0,1,0-14.9-14.555,1.557,1.557,0,0,1-.224.292A3.151,3.151,0,0,1,5.766,9.188a7.476,7.476,0,0,0-3.19-1.182.617.617,0,0,0-.421.1c-.022.025-.206.273-.058,1.161.2,1.093,1.24,2.14,3.169,3.184a1.015,1.015,0,0,1,.5.645c.286,1.1-.639,1.784-1.314,2.284-1.087.808-1.182,1.053-.967,1.542.1.218.319.728,1.889.728a19.111,19.111,0,0,0,2.392-.215c.6-.08,1.179-.153,1.707-.187a.443.443,0,0,1,.064,0" transform="translate(0)" fill="#eeba2d"/>
        <path id="Path_1869" data-name="Path 1869" d="M45.443,22.845a1.41,1.41,0,0,0-.252,0,.972.972,0,0,1,.147.669,1.019,1.019,0,0,1-1.161.86.95.95,0,0,1-.547-.274,3.5,3.5,0,0,0-.215.74,2.06,2.06,0,0,0,1.357,2.5c.927.135,1.83-.762,2.014-2a2.039,2.039,0,0,0-1.345-2.494" transform="translate(-29.743 -15.657)" fill="#eeba2d"/>
      </g>
    </g>
  </g>
</svg>
