<svg xmlns="http://www.w3.org/2000/svg" xmlns:xlink="http://www.w3.org/1999/xlink" width="169.913" height="161.217" viewBox="0 0 169.913 161.217">
  <defs>
    <clipPath id="clip-path">
      <rect id="Rectangle_366" data-name="Rectangle 366" width="169.913" height="161.217" fill="#fff"/>
    </clipPath>
    <clipPath id="clip-path-2">
      <rect id="Rectangle_407" data-name="Rectangle 407" width="72.661" height="118.292" fill="#ffc200"/>
    </clipPath>
  </defs>
  <g id="Group_1405" data-name="Group 1405" transform="translate(-1226.77 -7527.542)">
    <g id="Group_775" data-name="Group 775" transform="translate(1226.77 7527.542)" opacity="0.61">
      <g id="Group_628" data-name="Group 628" clip-path="url(#clip-path)">
        <path id="Path_684" data-name="Path 684" d="M167.609,43.911C152.033-13.926,71.953-8.1,33.889,23.877A96.31,96.31,0,0,0,.1,91.809c-1.34,26.213,10.758,54.884,34.909,65.161,17.939,7.632,38.706,3.911,57.016-2.784,23.007-8.413,44.774-21.726,59.7-41.151s22.256-45.469,15.886-69.126" transform="translate(0 0)" fill="#fff"/>
      </g>
    </g>
    <g id="Group_774" data-name="Group 774" transform="translate(1274.727 7553.04)">
      <g id="Group_773" data-name="Group 773" clip-path="url(#clip-path-2)">
        <path id="Path_1305" data-name="Path 1305" d="M40.283,140.133c-16.415,0-23.4-12.182-24.464-23.581-1.464-15.628-2.917-31.1-4.368-46.309a19.5,19.5,0,0,1,.3-5.744,2.086,2.086,0,0,1,2.49-1.662,2.115,2.115,0,0,1,1.669,2.49,15.268,15.268,0,0,0-.24,4.5q2.183,22.858,4.372,46.335c.43,4.629,3.168,19.734,20.242,19.734s19.823-15.105,20.253-19.734l4.343-46.316a14.866,14.866,0,0,0-.041-3.394,2.119,2.119,0,1,1,4.2-.548,18.992,18.992,0,0,1,.057,4.343l-4.34,46.309c-1.063,11.4-8.053,23.581-24.475,23.581M29.266,108.509a2.291,2.291,0,0,1-.545-.07,2.126,2.126,0,0,1-1.566-1.853l-2.649-28.23a2.118,2.118,0,0,1,1.914-2.305,2.156,2.156,0,0,1,2.308,1.91l2.232,23.785c5.152-3.6,13.481-3.6,18.645,0l2.258-23.963a2.153,2.153,0,0,1,2.312-1.9,2.122,2.122,0,0,1,1.91,2.312L53.41,106.573a2.126,2.126,0,0,1-1.57,1.853,2.164,2.164,0,0,1-2.276-.834,10.9,10.9,0,0,0-9.281-4.394A10.9,10.9,0,0,0,31,107.6a2.12,2.12,0,0,1-1.735.9" transform="translate(-3.952 -21.841)" fill="#ffc200"/>
        <path id="Path_1306" data-name="Path 1306" d="M51.056,154.154a8.724,8.724,0,1,1,8.718-8.724,8.739,8.739,0,0,1-8.718,8.724m0-13.208a4.483,4.483,0,1,0,4.477,4.483,4.491,4.491,0,0,0-4.477-4.483" transform="translate(-14.725 -47.56)" fill="#ffc200"/>
        <path id="Path_1307" data-name="Path 1307" d="M36.343,66.206h-.408a2.217,2.217,0,0,1-.707-.121l-.7-.248C16.816,56.215,8.079,45.293,3.8,37.791a27.243,27.243,0,0,1-.321-27.179c6.6-11.348,20.62-14.156,32.869-5.675C48.526-3.538,62.574-.755,69.188,10.613a27.288,27.288,0,0,1-.309,27.179c-4.3,7.508-13.048,18.436-30.31,27.848l-.474.261a2,2,0,0,1-.914.261l-.726.038a.706.706,0,0,1-.112.006M21.519,4.053c-5.929,0-11.17,3.165-14.383,8.686a23.012,23.012,0,0,0,.338,22.945c4.015,7.03,12.242,17.289,28.663,26.237l.143.045.248-.038C52.929,52.98,61.173,42.721,65.2,35.69a23.051,23.051,0,0,0,.325-22.951c-5.594-9.628-17.439-11.456-27.9-3.5a2.126,2.126,0,0,1-2.563,0c-4.477-3.394-9.157-5.19-13.545-5.19" transform="translate(0 0)" fill="#ffc200"/>
        <path id="Path_1308" data-name="Path 1308" d="M20.93,22.476a1.7,1.7,0,0,1-.876-.242,1.747,1.747,0,0,1-.633-2.388c1.442-2.477,6.317-6.139,10.115-6.139h.025a1.745,1.745,0,1,1-.006,3.489h-.02c-2.34,0-6.126,2.745-7.091,4.407a1.747,1.747,0,0,1-1.515.873" transform="translate(-6.674 -4.769)" fill="#ffc200"/>
        <path id="Path_1309" data-name="Path 1309" d="M15.791,32.743a1.483,1.483,0,0,1-.818-.23,1.579,1.579,0,0,1-.653-2.235l.353-.529A1.746,1.746,0,1,1,17.5,31.8a2.1,2.1,0,0,1-1.71.942" transform="translate(-4.897 -10.101)" fill="#ffc200"/>
      </g>
    </g>
  </g>
</svg>
