<svg xmlns="http://www.w3.org/2000/svg" xmlns:xlink="http://www.w3.org/1999/xlink" width="182.385" height="170.699" viewBox="0 0 182.385 170.699">
  <defs>
    <clipPath id="clip-path">
      <rect id="Rectangle_362" data-name="Rectangle 362" width="182.385" height="170.699" fill="#fff"/>
    </clipPath>
    <clipPath id="clip-path-2">
      <rect id="Rectangle_533" data-name="Rectangle 533" width="128.5" height="116.604" fill="#e869a4"/>
    </clipPath>
  </defs>
  <g id="Group_1403" data-name="Group 1403" transform="translate(-534.727 -7516.4)">
    <g id="Group_639" data-name="Group 639" transform="translate(534.727 7516.4)" opacity="0.612">
      <g id="Group_620" data-name="Group 620" transform="translate(0)" clip-path="url(#clip-path)">
        <path id="Path_680" data-name="Path 680" d="M3.279,103.292c8.348,29.954,32.671,54.944,62.39,64.1l-3.518-1.428a92.406,92.406,0,0,0,77.8-9.1A92.409,92.409,0,0,0,181.881,90.7c2.526-20.948-4.355-45.146-23.175-54.687-20.623-10.453-47.7.078-67.59-11.709C79.783,17.583,72.416,4.37,59.719.86c-13.316-3.68-27,5-36.2,15.3C2.823,39.37-5.069,73.338,3.279,103.292" transform="translate(0.001 0.001)" fill="#fff"/>
      </g>
    </g>
    <g id="Group_1025" data-name="Group 1025" transform="translate(553.227 7544.795)">
      <g id="Group_1027" data-name="Group 1027" clip-path="url(#clip-path-2)">
        <path id="Path_1833" data-name="Path 1833" d="M30.8,88.354c-10.4,0-20.974-5.33-26.586-14.015C-2.956,63.247-.907,49.353,9.838,36.223A41.144,41.144,0,0,0,14.081,29.8l3.434,1.882A45.134,45.134,0,0,1,12.864,38.7C-.272,54.76,3.865,66.59,7.5,72.214c6.085,9.417,18.851,14.309,29.705,11.4,6.668-1.791,18.016-8.049,19.08-29.841a98.8,98.8,0,0,1,2.6-16.166c.456-2.073.888-4.036,1.211-5.827q.154-.843.273-1.614C62.44,16.476,59.247,9.176,49.354,5.086L48.72,4.86C38.471,1.911,31.4,5.606,24.477,17.6c-.532.92-1.052,1.943-1.585,3.025l-3.51-1.729c.573-1.164,1.135-2.27,1.708-3.257C26.379,6.477,34.437-3.428,50.007,1.159l.6.208c15.09,6.116,15.22,18.913,13.638,29.388q-.128.843-.294,1.729c-.329,1.826-.771,3.84-1.238,5.965a95.378,95.378,0,0,0-2.517,15.517c-.867,17.728-8.879,29.911-21.976,33.43a28.682,28.682,0,0,1-7.42.959" transform="translate(0 0)" fill="#e869a4"/>
        <path id="Path_1834" data-name="Path 1834" d="M52.178,76.294a16.845,16.845,0,0,1-4.913-.779l-.315-.1C39.477,73,35.934,67.269,36.7,58.828l3.9.353c-.6,6.6,1.741,10.566,7.368,12.454l.2.058c5.8,1.87,10.107,0,13.524-5.9l3.387,1.958c-3.272,5.653-7.67,8.543-12.9,8.543" transform="translate(-14.563 -23.408)" fill="#e869a4"/>
        <path id="Path_1835" data-name="Path 1835" d="M71.689,37.379l-3.81-.894c1.955-8.329,1.508-18.055-5.612-20.365-5.833-2.06-12.98,5.271-16.573,13.521l-3.587-1.564c4.357-10,13.13-18.575,21.412-15.664,8.026,2.6,11.174,12.178,8.17,24.966" transform="translate(-16.754 -4.71)" fill="#e869a4"/>
        <path id="Path_1836" data-name="Path 1836" d="M64.775,57.5A72.221,72.221,0,0,1,25.347,45.763c-1.288-.826-2.561-1.7-3.813-2.593a7.027,7.027,0,0,1-2.99-4.99,4.822,4.822,0,0,1,1.32-3.837l1.873-1.96c2.49-2.526,5.883-3.149,8.217-1.464.259.191.656.517,1.094.879.585.482,1.252,1.04,1.567,1.249a56.932,56.932,0,0,0,36.179,9.767l2.331-.145-.267,2.32a49.294,49.294,0,0,1-.979,5.033,50.462,50.462,0,0,0-1.088,5.7l-.182,1.7-1.708.048c-.709.02-1.42.032-2.126.032M26.929,33.854a3.841,3.841,0,0,0-2.393,1.264l-1.87,1.958a.964.964,0,0,0-.223.782A3.182,3.182,0,0,0,23.833,40c1.176.844,2.4,1.679,3.625,2.464A68.956,68.956,0,0,0,65.137,53.587c.247-1.484.591-2.981.926-4.439.185-.8.365-1.576.52-2.319A60.832,60.832,0,0,1,30.428,36.294c-.359-.238-1.167-.9-1.87-1.476-.385-.318-.732-.6-.923-.75a1.19,1.19,0,0,0-.706-.214" transform="translate(-7.371 -11.928)" fill="#e869a4"/>
        <path id="Path_1837" data-name="Path 1837" d="M15.623,103.595a1.622,1.622,0,0,1-1.414-.829c-1.3-2.343-1.923-8.043-.108-11.113a1.633,1.633,0,0,1,2.211-.57,1.616,1.616,0,0,1,.57,2.211c-1.129,1.908-.732,6.321.15,7.9a1.614,1.614,0,0,1-1.408,2.4" transform="translate(-5.161 -36.155)" fill="#e869a4"/>
        <path id="Path_1838" data-name="Path 1838" d="M20.423,118.212a1.61,1.61,0,0,1-1.464-.938l-.211-.458a1.613,1.613,0,1,1,2.928-1.353l.212.459a1.613,1.613,0,0,1-.788,2.14,1.579,1.579,0,0,1-.676.15" transform="translate(-7.4 -45.569)" fill="#e869a4"/>
        <path id="Path_1839" data-name="Path 1839" d="M141.447,134.836a29.022,29.022,0,0,1-9.267-1.479c-12.853-4.328-20.089-16.99-19.85-34.738a96.043,96.043,0,0,0-1.55-15.785c-.435-2.793-.835-5.389-1.029-7.635-.92-10.587.021-23.4,15.591-28.532l.406-.1c15.861-3.645,23.3,6.759,28.03,16.244.479.979.943,2.044,1.417,3.184l-3.61,1.505c-.444-1.058-.873-2.052-1.317-2.955C144.02,52,137.12,47.9,126.494,50.413l-.412.206-.035-.059c-9.993,3.49-13.591,10.578-12.4,24.3.188,2.169.579,4.677,1,7.373a98.982,98.982,0,0,1,1.6,16.44c-.3,21.818,10.64,28.771,17.184,30.976,10.654,3.578,23.7-.518,30.355-9.529,3.977-5.386,8.84-16.937-3.269-33.78a45.212,45.212,0,0,1-4.183-7.326l3.545-1.652a41.4,41.4,0,0,0,3.816,6.694c9.9,13.774,11.084,27.765,3.24,38.39-5.765,7.806-15.711,12.389-25.486,12.389" transform="translate(-43.572 -18.232)" fill="#e869a4"/>
        <path id="Path_1840" data-name="Path 1840" d="M126.68,84.174a1.958,1.958,0,0,1-1.926-1.623c-2.261-13.068,1.473-22.494,9.749-24.6,8.426-2.432,16.658,6.756,20.374,17.072a1.957,1.957,0,0,1-3.681,1.329c-3.07-8.52-9.793-16.319-15.673-14.623-7.359,1.879-8.388,11.642-6.912,20.156a1.957,1.957,0,0,1-1.593,2.264,2.247,2.247,0,0,1-.338.03" transform="translate(-49.381 -22.9)" fill="#e869a4"/>
        <path id="Path_1841" data-name="Path 1841" d="M144.237,122.009c-5.436,0-10-3.175-13.112-9.387a1.956,1.956,0,1,1,3.5-1.752c3.055,6.1,7.235,8.235,13.139,6.741a.976.976,0,0,1,.129-.027c5.754-1.52,8.358-5.318,8.194-11.944a1.953,1.953,0,0,1,1.905-2.006,1.779,1.779,0,0,1,2,1.905c.211,8.435-3.678,13.918-11.239,15.864a1.932,1.932,0,0,1-.488.062,16,16,0,0,1-4.03.544" transform="translate(-52.092 -41.228)" fill="#e869a4"/>
        <path id="Path_1842" data-name="Path 1842" d="M120.668,103.425h0q-3.3,0-6.647-.3l-1.482-.135-.267-1.461a95.739,95.739,0,0,1-1.429-11.1l-.123-2.334,2.32.285A56.971,56.971,0,0,0,149.744,80.9c.3-.176.9-.617,1.47-1.029.544-.394,1.064-.767,1.34-.943,2.42-1.544,5.765-.723,8.076,1.952l1.782,2.1a4.791,4.791,0,0,1,1.076,3.887,7.006,7.006,0,0,1-3.3,4.792c-1.311.832-2.643,1.626-4.01,2.37a72.482,72.482,0,0,1-35.515,9.393m-4.81-4.08A68.324,68.324,0,0,0,154.3,90.6c1.305-.712,2.561-1.458,3.8-2.24a3.18,3.18,0,0,0,1.523-2.052.928.928,0,0,0-.168-.771l-1.779-2.1c-.967-1.12-2.19-1.743-3.014-1.205-.244.153-.685.473-1.149.812-.691.5-1.429,1.026-1.779,1.229a60.323,60.323,0,0,1-36.8,8.246c.2,2.044.52,4.422.929,6.827" transform="translate(-44.054 -31.097)" fill="#e869a4"/>
        <path id="Path_1843" data-name="Path 1843" d="M194.367,152.61a1.614,1.614,0,0,1-1.358-2.481c.985-1.547,1.661-5.927.641-7.859a1.612,1.612,0,1,1,2.852-1.505c1.658,3.134.691,8.805-.77,11.1a1.617,1.617,0,0,1-1.364.747" transform="translate(-76.697 -55.665)" fill="#e869a4"/>
        <path id="Path_1844" data-name="Path 1844" d="M189.563,167.034a1.614,1.614,0,0,1-1.405-2.4c.006-.012.126-.218.132-.229a1.744,1.744,0,0,1,2.258-.706,1.494,1.494,0,0,1,.7,2.041c0,.008-.267.464-.27.47a1.613,1.613,0,0,1-1.411.826" transform="translate(-74.786 -65.062)" fill="#e869a4"/>
      </g>
    </g>
  </g>
</svg>
