<svg xmlns="http://www.w3.org/2000/svg" xmlns:xlink="http://www.w3.org/1999/xlink" width="151.033" height="150.163" viewBox="0 0 151.033 150.163">
  <defs>
    <clipPath id="clip-path">
      <rect id="Rectangle_364" data-name="Rectangle 364" width="142.507" height="150.162" fill="#fff"/>
    </clipPath>
    <clipPath id="clip-path-2">
      <rect id="Rectangle_406" data-name="Rectangle 406" width="110.065" height="113.493" fill="none"/>
    </clipPath>
  </defs>
  <g id="Group_1404" data-name="Group 1404" transform="translate(-912.693 -7538.597)">
    <g id="Group_637" data-name="Group 637" transform="translate(921.219 7538.597)" opacity="0.753">
      <g id="Group_624" data-name="Group 624" clip-path="url(#clip-path)">
        <path id="Path_682" data-name="Path 682" d="M109.356,9.44A40.811,40.811,0,0,0,93.807,1.474c-21.1-5.681-45.071,6.044-60.849,18.341C14.015,34.579,1.927,56.538.211,79.308-1.01,95.481,3.05,112.268,13.4,125.4c17.46,22.15,52.129,30.5,79.929,20.721s47.218-35.938,49.033-63.237c1.112-16.73-4.25-32.393-13.06-46.839-5.9-9.673-11.381-19.581-19.946-26.6" transform="translate(0 0)" fill="#fff"/>
      </g>
    </g>
    <g id="Group_772" data-name="Group 772" transform="translate(912.693 7559.992)">
      <g id="Group_771" data-name="Group 771" clip-path="url(#clip-path-2)">
        <path id="Path_1293" data-name="Path 1293" d="M145.405,158.105H106.6a6.769,6.769,0,0,1-6.76-6.761v-38.8a6.762,6.762,0,0,1,6.76-6.749h38.8a6.762,6.762,0,0,1,6.76,6.749v38.8a6.769,6.769,0,0,1-6.76,6.761m-38.8-48.544a3,3,0,0,0-3,2.988v38.8a3,3,0,0,0,3,3h38.8a3,3,0,0,0,3-3v-38.8a3.032,3.032,0,0,0-3-2.988Z" transform="translate(-42.1 -44.612)" fill="#499dd1"/>
        <path id="Path_1294" data-name="Path 1294" d="M143.85,156.172h-25.3a6.385,6.385,0,0,1-6.371-6.383v-25.3a6.385,6.385,0,0,1,6.371-6.388h25.3a6.391,6.391,0,0,1,6.382,6.388v25.3a6.39,6.39,0,0,1-6.382,6.383m-25.3-34.543a2.856,2.856,0,0,0-2.847,2.863v25.3a2.855,2.855,0,0,0,2.847,2.858h25.3a2.861,2.861,0,0,0,2.858-2.858v-25.3a2.862,2.862,0,0,0-2.858-2.863Z" transform="translate(-47.301 -49.8)" fill="#499dd1"/>
        <path id="Path_1295" data-name="Path 1295" d="M138.529,153.922c-2.107,0-8.969-.785-8.969-10.951,0-9.037,6.473-11.013,8.969-11.013a8.673,8.673,0,0,1,8.669,5.591,1.547,1.547,0,1,1-2.9,1.073c-1.429-3.841-5.665-3.564-5.654-3.57-.169,0-5.986.22-5.986,7.918,0,6.49,3.2,7.856,5.874,7.856a6.251,6.251,0,0,0,6.088-4.061,1.548,1.548,0,0,1,2.892,1.107,9.366,9.366,0,0,1-8.98,6.049" transform="translate(-54.63 -55.632)" fill="#499dd1"/>
        <path id="Path_1296" data-name="Path 1296" d="M45.573,146H6.783A6.781,6.781,0,0,1,0,139.235v-38.8a6.774,6.774,0,0,1,6.783-6.749H45.573a6.763,6.763,0,0,1,6.761,6.749v38.8A6.769,6.769,0,0,1,45.573,146M6.783,97.453a3.007,3.007,0,0,0-3.022,2.988v38.8a3.013,3.013,0,0,0,3.022,3H45.573a3,3,0,0,0,3-3v-38.8a3,3,0,0,0-3-2.988Z" transform="translate(0 -39.506)" fill="#499dd1"/>
        <path id="Path_1297" data-name="Path 1297" d="M44.007,144.077H18.739a6.408,6.408,0,0,1-6.4-6.393V112.393a6.4,6.4,0,0,1,6.4-6.388H44.007a6.4,6.4,0,0,1,6.394,6.388v25.291a6.4,6.4,0,0,1-6.394,6.393M18.739,109.529a2.874,2.874,0,0,0-2.88,2.863v25.291a2.916,2.916,0,0,0,2.88,2.869H44.007a2.873,2.873,0,0,0,2.869-2.869V112.393a2.868,2.868,0,0,0-2.869-2.863Z" transform="translate(-5.201 -44.698)" fill="#499dd1"/>
        <path id="Path_1298" data-name="Path 1298" d="M32.866,141.643a1.543,1.543,0,0,1-1.548-1.548V122.045a1.548,1.548,0,0,1,3.1,0V140.1a1.543,1.543,0,0,1-1.548,1.548" transform="translate(-13.206 -50.809)" fill="#499dd1"/>
        <path id="Path_1299" data-name="Path 1299" d="M36.44,132.8a19.61,19.61,0,0,1-3.9-.4,1.544,1.544,0,0,1-1.192-1.835,1.52,1.52,0,0,1,1.836-1.192c1.468.311,5.7.78,7.585-.757a3.217,3.217,0,0,0-.006-4.569c-1.886-1.53-6.111-1.062-7.579-.757a1.52,1.52,0,0,1-1.836-1.191,1.544,1.544,0,0,1,1.192-1.836c.689-.153,6.8-1.356,10.172,1.372a6.3,6.3,0,0,1,0,9.392A10.06,10.06,0,0,1,36.44,132.8" transform="translate(-13.205 -50.546)" fill="#499dd1"/>
        <path id="Path_1300" data-name="Path 1300" d="M36.948,149.76a25.806,25.806,0,0,1-4.366-.384,1.555,1.555,0,0,1-1.242-1.807,1.532,1.532,0,0,1,1.807-1.242c1.818.327,7.015.819,9.144-.949a2.854,2.854,0,0,0,0-4.157c-2.129-1.762-7.325-1.293-9.144-.948a1.551,1.551,0,0,1-.565-3.05c.8-.141,8.06-1.4,11.685,1.61a5.956,5.956,0,0,1,0,8.935c-1.92,1.593-4.863,1.994-7.319,1.994" transform="translate(-13.204 -57.7)" fill="#499dd1"/>
        <path id="Path_1301" data-name="Path 1301" d="M109.364,59.178A6.879,6.879,0,0,1,108,59.037L69.981,51.4A6.671,6.671,0,0,1,65.7,48.543,6.744,6.744,0,0,1,64.7,43.432L72.331,5.4A6.855,6.855,0,0,1,80.295.129l38.021,7.647a6.783,6.783,0,0,1,5.314,7.913l-7.664,38.066a6.779,6.779,0,0,1-6.6,5.422M78.933,3.75a3.019,3.019,0,0,0-2.92,2.389L68.378,44.177a3,3,0,0,0,.452,2.276,2.935,2.935,0,0,0,1.887,1.254l38.044,7.647A2.976,2.976,0,0,0,112.284,53l7.658-38.038a3,3,0,0,0-2.361-3.5L79.538,3.812a3.243,3.243,0,0,0-.6-.062" transform="translate(-27.222 0)" fill="#499dd1"/>
        <path id="Path_1302" data-name="Path 1302" d="M110.114,56.927a6.4,6.4,0,0,1-1.271-.13L84.055,51.8a6.406,6.406,0,0,1-5.015-7.517l4.982-24.805a6.473,6.473,0,0,1,7.546-4.987l24.782,4.981a6.337,6.337,0,0,1,4.066,2.745A6.248,6.248,0,0,1,121.337,27l-4.953,24.782a6.427,6.427,0,0,1-6.269,5.145M90.279,17.883a2.9,2.9,0,0,0-2.807,2.3L82.5,44.976a2.874,2.874,0,0,0,2.259,3.372l24.794,4.993a2.851,2.851,0,0,0,3.378-2.254l4.959-24.794a2.777,2.777,0,0,0-.407-2.129,2.834,2.834,0,0,0-1.824-1.231l-24.8-4.987a2.54,2.54,0,0,0-.576-.062" transform="translate(-33.276 -6.056)" fill="#499dd1"/>
        <path id="Path_1303" data-name="Path 1303" d="M112.687,56.272A1.553,1.553,0,0,1,111.161,55l-3.388-18.536L97.708,52.273a1.551,1.551,0,0,1-2.62-1.66l12.189-19.152a1.48,1.48,0,0,1,1.61-.689,1.548,1.548,0,0,1,1.225,1.243l4.1,22.427a1.568,1.568,0,0,1-1.525,1.83" transform="translate(-39.993 -12.959)" fill="#499dd1"/>
        <path id="Path_1304" data-name="Path 1304" d="M114.5,56.832a1.725,1.725,0,0,1-.333-.039l-10.245-2.237a1.55,1.55,0,0,1,.666-3.027l10.245,2.236a1.552,1.552,0,0,1-.333,3.067" transform="translate(-43.305 -21.714)" fill="#499dd1"/>
      </g>
    </g>
  </g>
</svg>
