<?xml version="1.0" encoding="UTF-8"?>
<svg width="700pt" height="700pt" version="1.1" viewBox="0 0 700 700" xmlns="http://www.w3.org/2000/svg" xmlns:xlink="http://www.w3.org/1999/xlink">
 <defs>
  <symbol id="t" overflow="visible">
   <path d="m18.766-1.125c-0.96875 0.5-1.9805 0.875-3.0312 1.125-1.043 0.25781-2.1367 0.39062-3.2812 0.39062-3.3984 0-6.0898-0.94531-8.0781-2.8438-1.9922-1.9062-2.9844-4.4844-2.9844-7.7344 0-3.2578 0.99219-5.8359 2.9844-7.7344 1.9883-1.9062 4.6797-2.8594 8.0781-2.8594 1.1445 0 2.2383 0.13281 3.2812 0.39062 1.0508 0.25 2.0625 0.625 3.0312 1.125v4.2188c-0.98047-0.65625-1.9453-1.1406-2.8906-1.4531-0.94922-0.3125-1.9492-0.46875-3-0.46875-1.875 0-3.3516 0.60547-4.4219 1.8125-1.0742 1.1992-1.6094 2.8555-1.6094 4.9688 0 2.1055 0.53516 3.7617 1.6094 4.9688 1.0703 1.1992 2.5469 1.7969 4.4219 1.7969 1.0508 0 2.0508-0.14844 3-0.45312 0.94531-0.3125 1.9102-0.80078 2.8906-1.4688z"/>
  </symbol>
  <symbol id="e" overflow="visible">
   <path d="m13.734-11.141c-0.4375-0.19531-0.87109-0.34375-1.2969-0.4375-0.41797-0.10156-0.83984-0.15625-1.2656-0.15625-1.2617 0-2.2305 0.40625-2.9062 1.2188-0.67969 0.80469-1.0156 1.9531-1.0156 3.4531v7.0625h-4.8906v-15.312h4.8906v2.5156c0.625-1 1.3438-1.7266 2.1562-2.1875 0.82031-0.46875 1.8008-0.70312 2.9375-0.70312 0.16406 0 0.34375 0.011719 0.53125 0.03125 0.19531 0.011719 0.47656 0.039062 0.84375 0.078125z"/>
  </symbol>
  <symbol id="a" overflow="visible">
   <path d="m17.641-7.7031v1.4062h-11.453c0.125 1.1484 0.53906 2.0078 1.25 2.5781 0.70703 0.57422 1.7031 0.85938 2.9844 0.85938 1.0312 0 2.082-0.14844 3.1562-0.45312 1.082-0.3125 2.1914-0.77344 3.3281-1.3906v3.7656c-1.1562 0.4375-2.3125 0.76562-3.4688 0.98438-1.1562 0.22656-2.3125 0.34375-3.4688 0.34375-2.7734 0-4.9297-0.70312-6.4688-2.1094-1.5312-1.4062-2.2969-3.3789-2.2969-5.9219 0-2.5 0.75391-4.4609 2.2656-5.8906 1.5078-1.4375 3.582-2.1562 6.2188-2.1562 2.4062 0 4.332 0.73047 5.7812 2.1875 1.4453 1.4492 2.1719 3.3828 2.1719 5.7969zm-5.0312-1.625c0-0.92578-0.27344-1.6719-0.8125-2.2344-0.54297-0.57031-1.25-0.85938-2.125-0.85938-0.94922 0-1.7188 0.26562-2.3125 0.79688s-0.96484 1.2969-1.1094 2.2969z"/>
  </symbol>
  <symbol id="d" overflow="visible">
   <path d="m9.2188-6.8906c-1.0234 0-1.793 0.17188-2.3125 0.51562-0.51172 0.34375-0.76562 0.85547-0.76562 1.5312 0 0.625 0.20703 1.1172 0.625 1.4688 0.41406 0.34375 0.98828 0.51562 1.7188 0.51562 0.92578 0 1.7031-0.32812 2.3281-0.98438 0.63281-0.66406 0.95312-1.4922 0.95312-2.4844v-0.5625zm7.4688-1.8438v8.7344h-4.9219v-2.2656c-0.65625 0.92969-1.3984 1.6055-2.2188 2.0312-0.82422 0.41406-1.8242 0.625-3 0.625-1.5859 0-2.8711-0.45703-3.8594-1.375-0.99219-0.92578-1.4844-2.1289-1.4844-3.6094 0-1.7891 0.61328-3.1016 1.8438-3.9375 1.2383-0.84375 3.1797-1.2656 5.8281-1.2656h2.8906v-0.39062c0-0.76953-0.30859-1.332-0.92188-1.6875-0.61719-0.36328-1.5703-0.54688-2.8594-0.54688-1.0547 0-2.0312 0.10547-2.9375 0.3125-0.89844 0.21094-1.7305 0.52344-2.5 0.9375v-3.7344c1.0391-0.25 2.0859-0.44141 3.1406-0.57812 1.0625-0.13281 2.125-0.20312 3.1875-0.20312 2.7578 0 4.75 0.54688 5.9688 1.6406 1.2266 1.0859 1.8438 2.8555 1.8438 5.3125z"/>
  </symbol>
  <symbol id="c" overflow="visible">
   <path d="m7.7031-19.656v4.3438h5.0469v3.5h-5.0469v6.5c0 0.71094 0.14062 1.1875 0.42188 1.4375s0.83594 0.375 1.6719 0.375h2.5156v3.5h-4.1875c-1.9375 0-3.3125-0.39844-4.125-1.2031-0.80469-0.8125-1.2031-2.1797-1.2031-4.1094v-6.5h-2.4219v-3.5h2.4219v-4.3438z"/>
  </symbol>
  <symbol id="b" overflow="visible">
   <path d="m12.766-13.078v-8.2031h4.9219v21.281h-4.9219v-2.2188c-0.66797 0.90625-1.4062 1.5703-2.2188 1.9844s-1.7578 0.625-2.8281 0.625c-1.8867 0-3.4336-0.75-4.6406-2.25-1.2109-1.5-1.8125-3.4258-1.8125-5.7812 0-2.3633 0.60156-4.2969 1.8125-5.7969 1.207-1.5 2.7539-2.25 4.6406-2.25 1.0625 0 2 0.21484 2.8125 0.64062 0.82031 0.42969 1.5664 1.0859 2.2344 1.9688zm-3.2188 9.9219c1.0391 0 1.8359-0.37891 2.3906-1.1406 0.55078-0.76953 0.82812-1.8828 0.82812-3.3438 0-1.457-0.27734-2.5664-0.82812-3.3281-0.55469-0.76953-1.3516-1.1562-2.3906-1.1562-1.043 0-1.8398 0.38672-2.3906 1.1562-0.55469 0.76172-0.82812 1.8711-0.82812 3.3281 0 1.4609 0.27344 2.5742 0.82812 3.3438 0.55078 0.76172 1.3477 1.1406 2.3906 1.1406z"/>
  </symbol>
  <symbol id="i" overflow="visible">
   <path d="m10.5-3.1562c1.0508 0 1.8516-0.37891 2.4062-1.1406 0.55078-0.76953 0.82812-1.8828 0.82812-3.3438 0-1.457-0.27734-2.5664-0.82812-3.3281-0.55469-0.76953-1.3555-1.1562-2.4062-1.1562-1.0547 0-1.8594 0.38672-2.4219 1.1562-0.55469 0.77344-0.82812 1.8828-0.82812 3.3281 0 1.4492 0.27344 2.5586 0.82812 3.3281 0.5625 0.77344 1.3672 1.1562 2.4219 1.1562zm-3.25-9.9219c0.67578-0.88281 1.4219-1.5391 2.2344-1.9688 0.82031-0.42578 1.7656-0.64062 2.8281-0.64062 1.8945 0 3.4453 0.75 4.6562 2.25 1.207 1.5 1.8125 3.4336 1.8125 5.7969 0 2.3555-0.60547 4.2812-1.8125 5.7812-1.2109 1.5-2.7617 2.25-4.6562 2.25-1.0625 0-2.0078-0.21094-2.8281-0.625-0.8125-0.42578-1.5586-1.0859-2.2344-1.9844v2.2188h-4.8906v-21.281h4.8906z"/>
  </symbol>
  <symbol id="h" overflow="visible">
   <path d="m0.34375-15.312h4.8906l4.125 10.391 3.5-10.391h4.8906l-6.4375 16.766c-0.64844 1.6953-1.4023 2.8828-2.2656 3.5625-0.86719 0.6875-2 1.0312-3.4062 1.0312h-2.8438v-3.2188h1.5312c0.83203 0 1.4375-0.13672 1.8125-0.40625 0.38281-0.26172 0.67969-0.73047 0.89062-1.4062l0.14062-0.42188z"/>
  </symbol>
  <symbol id="g" overflow="visible">
   <path d="m2.5781-20.406h6.6875l4.6562 10.922 4.6719-10.922h6.6875v20.406h-4.9844v-14.938l-4.7031 11.016h-3.3281l-4.7031-11.016v14.938h-4.9844z"/>
  </symbol>
  <symbol id="s" overflow="visible">
   <path d="m6.2188-7.8281-5.5156-7.4844h5.1719l3.1406 4.5312 3.1719-4.5312h5.1719l-5.5156 7.4531 5.7969 7.8594h-5.1875l-3.4375-4.8438-3.4062 4.8438h-5.1875z"/>
  </symbol>
  <symbol id="r" overflow="visible">
   <path d="m12.422-21.281v3.2188h-2.7031c-0.6875 0-1.1719 0.125-1.4531 0.375-0.27344 0.25-0.40625 0.6875-0.40625 1.3125v1.0625h4.1875v3.5h-4.1875v11.812h-4.8906v-11.812h-2.4375v-3.5h2.4375v-1.0625c0-1.6641 0.46094-2.8984 1.3906-3.7031 0.92578-0.80078 2.3672-1.2031 4.3281-1.2031z"/>
  </symbol>
  <symbol id="f" overflow="visible">
   <path d="m9.6406-12.188c-1.0859 0-1.9141 0.39062-2.4844 1.1719-0.57422 0.78125-0.85938 1.9062-0.85938 3.375s0.28516 2.5938 0.85938 3.375c0.57031 0.77344 1.3984 1.1562 2.4844 1.1562 1.0625 0 1.875-0.38281 2.4375-1.1562 0.57031-0.78125 0.85938-1.9062 0.85938-3.375s-0.28906-2.5938-0.85938-3.375c-0.5625-0.78125-1.375-1.1719-2.4375-1.1719zm0-3.5c2.6328 0 4.6914 0.71484 6.1719 2.1406 1.4766 1.418 2.2188 3.3867 2.2188 5.9062 0 2.5117-0.74219 4.4805-2.2188 5.9062-1.4805 1.418-3.5391 2.125-6.1719 2.125-2.6484 0-4.7148-0.70703-6.2031-2.125-1.4922-1.4258-2.2344-3.3945-2.2344-5.9062 0-2.5195 0.74219-4.4883 2.2344-5.9062 1.4883-1.4258 3.5547-2.1406 6.2031-2.1406z"/>
  </symbol>
  <symbol id="q" overflow="visible">
   <path d="m16.547-12.766c0.61328-0.94531 1.3477-1.6719 2.2031-2.1719 0.85156-0.5 1.7891-0.75 2.8125-0.75 1.7578 0 3.0977 0.54688 4.0156 1.6406 0.92578 1.0859 1.3906 2.6562 1.3906 4.7188v9.3281h-4.9219v-7.9844-0.35938c0.007813-0.13281 0.015625-0.32031 0.015625-0.5625 0-1.082-0.16406-1.8633-0.48438-2.3438-0.3125-0.48828-0.82422-0.73438-1.5312-0.73438-0.92969 0-1.6484 0.38672-2.1562 1.1562-0.51172 0.76172-0.77344 1.8672-0.78125 3.3125v7.5156h-4.9219v-7.9844c0-1.6953-0.14844-2.7852-0.4375-3.2656-0.29297-0.48828-0.8125-0.73438-1.5625-0.73438-0.9375 0-1.6641 0.38672-2.1719 1.1562-0.51172 0.76172-0.76562 1.8594-0.76562 3.2969v7.5312h-4.9219v-15.312h4.9219v2.2344c0.60156-0.86328 1.2891-1.5156 2.0625-1.9531 0.78125-0.4375 1.6406-0.65625 2.5781-0.65625 1.0625 0 2 0.25781 2.8125 0.76562 0.8125 0.51172 1.4258 1.2305 1.8438 2.1562z"/>
  </symbol>
  <symbol id="p" overflow="visible">
   <path d="m17.75-9.3281v9.3281h-4.9219v-7.1094c0-1.3438-0.03125-2.2656-0.09375-2.7656s-0.16797-0.86719-0.3125-1.1094c-0.1875-0.3125-0.44922-0.55469-0.78125-0.73438-0.32422-0.17578-0.69531-0.26562-1.1094-0.26562-1.0234 0-1.8242 0.39844-2.4062 1.1875-0.58594 0.78125-0.875 1.8711-0.875 3.2656v7.5312h-4.8906v-21.281h4.8906v8.2031c0.73828-0.88281 1.5195-1.5391 2.3438-1.9688 0.83203-0.42578 1.75-0.64062 2.75-0.64062 1.7695 0 3.1133 0.54688 4.0312 1.6406 0.91406 1.0859 1.375 2.6562 1.375 4.7188z"/>
  </symbol>
  <symbol id="o" overflow="visible">
   <path d="m2.5781-20.406h5.875l7.4219 14v-14h4.9844v20.406h-5.875l-7.4219-14v14h-4.9844z"/>
  </symbol>
  <symbol id="n" overflow="visible">
   <path d="m2.1875-5.9688v-9.3438h4.9219v1.5312c0 0.83594-0.007813 1.875-0.015625 3.125-0.011719 1.25-0.015625 2.0859-0.015625 2.5 0 1.2422 0.03125 2.1328 0.09375 2.6719 0.070313 0.54297 0.17969 0.93359 0.32812 1.1719 0.20703 0.32422 0.47266 0.57422 0.79688 0.75 0.32031 0.16797 0.69141 0.25 1.1094 0.25 1.0195 0 1.8203-0.39062 2.4062-1.1719 0.58203-0.78125 0.875-1.8672 0.875-3.2656v-7.5625h4.8906v15.312h-4.8906v-2.2188c-0.74219 0.89844-1.5234 1.5586-2.3438 1.9844-0.82422 0.41406-1.7344 0.625-2.7344 0.625-1.7617 0-3.1055-0.53906-4.0312-1.625-0.92969-1.082-1.3906-2.6602-1.3906-4.7344z"/>
  </symbol>
  <symbol id="m" overflow="visible">
   <path d="m17.75-9.3281v9.3281h-4.9219v-7.1406c0-1.3203-0.03125-2.2344-0.09375-2.7344s-0.16797-0.86719-0.3125-1.1094c-0.1875-0.3125-0.44922-0.55469-0.78125-0.73438-0.32422-0.17578-0.69531-0.26562-1.1094-0.26562-1.0234 0-1.8242 0.39844-2.4062 1.1875-0.58594 0.78125-0.875 1.8711-0.875 3.2656v7.5312h-4.8906v-15.312h4.8906v2.2344c0.73828-0.88281 1.5195-1.5391 2.3438-1.9688 0.83203-0.42578 1.75-0.64062 2.75-0.64062 1.7695 0 3.1133 0.54688 4.0312 1.6406 0.91406 1.0859 1.375 2.6562 1.375 4.7188z"/>
  </symbol>
  <symbol id="l" overflow="visible">
   <path d="m2.5781-20.406h8.7344c2.5938 0 4.582 0.57812 5.9688 1.7344 1.3945 1.1484 2.0938 2.7891 2.0938 4.9219 0 2.1367-0.69922 3.7812-2.0938 4.9375-1.3867 1.1562-3.375 1.7344-5.9688 1.7344h-3.4844v7.0781h-5.25zm5.25 3.8125v5.7031h2.9219c1.0195 0 1.8047-0.25 2.3594-0.75 0.5625-0.5 0.84375-1.2031 0.84375-2.1094 0-0.91406-0.28125-1.6172-0.84375-2.1094-0.55469-0.48828-1.3398-0.73438-2.3594-0.73438z"/>
  </symbol>
  <symbol id="k" overflow="visible">
   <path d="m2.3594-15.312h4.8906v15.031c0 2.0508-0.49609 3.6172-1.4844 4.7031-0.98047 1.082-2.4062 1.625-4.2812 1.625h-2.4219v-3.2188h0.85938c0.92578 0 1.5625-0.21094 1.9062-0.625 0.35156-0.41797 0.53125-1.2461 0.53125-2.4844zm0-5.9688h4.8906v4h-4.8906z"/>
  </symbol>
  <symbol id="j" overflow="visible">
   <path d="m14.719-14.828v3.9844c-0.65625-0.45703-1.3242-0.79688-2-1.0156-0.66797-0.21875-1.3594-0.32812-2.0781-0.32812-1.3672 0-2.4336 0.40234-3.2031 1.2031-0.76172 0.79297-1.1406 1.9062-1.1406 3.3438 0 1.4297 0.37891 2.543 1.1406 3.3438 0.76953 0.79297 1.8359 1.1875 3.2031 1.1875 0.75781 0 1.4844-0.10938 2.1719-0.32812 0.6875-0.22656 1.3203-0.56641 1.9062-1.0156v4c-0.76172 0.28125-1.5391 0.48828-2.3281 0.625-0.78125 0.14453-1.5742 0.21875-2.375 0.21875-2.7617 0-4.9219-0.70703-6.4844-2.125-1.5547-1.4141-2.3281-3.3828-2.3281-5.9062 0-2.5312 0.77344-4.5039 2.3281-5.9219 1.5625-1.4141 3.7227-2.125 6.4844-2.125 0.80078 0 1.5938 0.074219 2.375 0.21875 0.78125 0.13672 1.5547 0.35156 2.3281 0.64062z"/>
  </symbol>
 </defs>
 <g>
  <path d="m391.48 115.13c16.117 0 29.227-13.176 29.227-29.367 0-16.191-13.109-29.367-29.227-29.367-16.117 0.003907-29.23 13.176-29.23 29.367 0 16.195 13.113 29.367 29.23 29.367zm0-47.531c9.9375 0 18.023 8.1484 18.023 18.168s-8.0898 18.168-18.023 18.168c-9.9414 0-18.031-8.1484-18.031-18.168s8.0898-18.168 18.031-18.168z"/>
  <path d="m544.77 438.62c16.117 0 29.227-13.176 29.227-29.367s-13.109-29.367-29.227-29.367c-16.117 0-29.23 13.176-29.23 29.367s13.117 29.367 29.23 29.367zm0-47.535c9.9375 0 18.023 8.1484 18.023 18.168s-8.0898 18.168-18.023 18.168c-9.9414 0-18.031-8.1484-18.031-18.168 0.003906-10.02 8.0898-18.168 18.031-18.168z"/>
  <path d="m145.94 474.63c0 16.191 13.109 29.367 29.227 29.367 16.117 0 29.23-13.176 29.23-29.367 0-16.191-13.113-29.367-29.23-29.367-16.117 0-29.227 13.176-29.227 29.367zm47.258 0c0 10.02-8.0898 18.168-18.031 18.168-9.9375 0-18.023-8.1484-18.023-18.168 0-10.02 8.0898-18.168 18.023-18.168 9.9414 0 18.031 8.1484 18.031 18.168z"/>
  <path d="m477.72 137.95-15.453 30.965c-0.95312 1.9102-0.73828 4.1875 0.54688 5.8828 1.2891 1.6992 3.4297 2.5195 5.5195 2.1172l33.785-6.4883 24.473 24.328c1.0664 1.0625 2.4922 1.6289 3.9492 1.6289 0.61328 0 1.2266-0.10156 1.8281-0.30469 2.0195-0.69531 3.4609-2.4766 3.7305-4.5977l4.3086-34.367 30.582-15.902c1.8867-0.98047 3.0508-2.9492 3.0117-5.0742-0.039062-2.125-1.2812-4.043-3.2031-4.9531l-31.145-14.738-5.582-34.176c-0.34375-2.1094-1.8594-3.8359-3.9062-4.457-2.0469-0.625-4.2617-0.023437-5.7188 1.5352l-23.547 25.234-34.004-5.2109c-2.1328-0.33594-4.2109 0.57812-5.4375 2.3203-1.2188 1.7422-1.3438 4.0312-0.32813 5.8984zm24.395-21.852c1.8633 0.28516 3.6758-0.35937 4.9453-1.7109l17.789-19.059 4.2148 25.824c0.30078 1.8164 1.4727 3.3711 3.1328 4.1602l23.609 11.172-23.184 12.055c-1.6289 0.85156-2.7383 2.4453-2.9688 4.2695l-3.2578 25.965-18.484-18.375c-1.0625-1.0547-2.4844-1.6289-3.9492-1.6289-0.35156 0-0.70703 0.03125-1.0547 0.10156l-25.566 4.9062 11.703-23.445c0.82031-1.6406 0.78125-3.5781-0.09375-5.1875l-12.566-22.992z"/>
  <path d="m131.55 141.58 34.398 0.33203 19.234 28.707c1.0508 1.5625 2.8008 2.4844 4.6523 2.4844 0.24609 0 0.49609-0.015625 0.75-0.050781 2.1172-0.28516 3.8867-1.7539 4.5625-3.7773l10.953-32.828 33.082-9.5312c2.0469-0.58984 3.582-2.2852 3.9609-4.3789 0.38281-2.0938-0.45312-4.2227-2.1602-5.4922l-27.656-20.621 1.207-34.621c0.078125-2.1328-1.0664-4.125-2.9492-5.1328-1.8867-1.0117-4.1719-0.85938-5.9062 0.38281l-28.023 20.066-32.32-11.844c-1.9961-0.73047-4.25-0.26953-5.7852 1.2031-1.5469 1.4727-2.1211 3.6914-1.4805 5.7266l10.324 33.055-21.215 27.293c-1.3008 1.6836-1.543 3.957-0.61719 5.875 0.92188 1.9062 2.8594 3.1328 4.9883 3.1523zm27.484-31.766c1.1211-1.4492 1.4648-3.3594 0.91797-5.1094l-7.8164-25.016 24.445 8.957c1.7344 0.64062 3.6797 0.37891 5.1836-0.70703l21.176-15.164-0.91406 26.176c-0.066407 1.8359 0.77734 3.5859 2.2461 4.6875l20.961 15.633-25.07 7.2227c-1.7734 0.51172-3.1836 1.8594-3.7617 3.6094l-8.2734 24.797-14.523-21.68c-1.0273-1.5352-2.75-2.4648-4.5977-2.4844l-26.047-0.25z"/>
  <path d="m382.02 483.11c1.2891 1.6992 3.4297 2.5234 5.5195 2.1172l29.219-5.6094 21.16 21.035c1.0664 1.0625 2.4922 1.6289 3.9492 1.6289 0.61328 0 1.2266-0.10156 1.8281-0.30469 2.0195-0.69531 3.4609-2.4766 3.7305-4.5977l3.7305-29.719 26.441-13.75c1.8867-0.98047 3.0508-2.9492 3.0117-5.0703-0.039063-2.1289-1.2812-4.0469-3.2031-4.957l-26.93-12.746-4.8359-29.559c-0.34375-2.1055-1.8594-3.832-3.9062-4.4531-2.0508-0.61719-4.2617-0.027344-5.7188 1.5391l-20.367 21.816-29.398-4.5078c-2.1367-0.33203-4.2109 0.57812-5.4375 2.3203-1.2188 1.7422-1.3438 4.0312-0.32812 5.8984l14.355 26.258-13.367 26.777c-0.95312 1.9062-0.73828 4.1875 0.54688 5.8828zm34.855-51.113c1.8594 0.28516 3.6797-0.35938 4.9453-1.7148l14.602-15.645 3.4688 21.207c0.30078 1.8164 1.4727 3.3672 3.1328 4.1562l19.391 9.1797-19.043 9.9023c-1.6289 0.85156-2.7383 2.4453-2.9688 4.2695l-2.6758 21.324-15.176-15.082c-1.0586-1.0547-2.4805-1.6328-3.9453-1.6328-0.35156 0-0.70703 0.03125-1.0547 0.10156l-21 4.0312 9.6133-19.262c0.82031-1.6406 0.78125-3.5781-0.09375-5.1875l-10.324-18.891z"/>
  <path d="m268.99 386.6c3.1992 1.293 6.5586 1.9414 9.9102 1.9414 3.5156 0 7.0312-0.71094 10.367-2.1328 13.453-5.7383 19.766-21.41 14.066-34.934 0-0.003906 0-0.003906-0.003907-0.003906-2.7734-6.5742-7.9297-11.668-14.523-14.332-6.5586-2.6523-13.77-2.5859-20.277 0.19141-13.453 5.7383-19.766 21.41-14.059 34.934 2.7656 6.5781 7.9219 11.668 14.52 14.336zm3.9297-38.965c1.918-0.82031 3.9414-1.2305 5.9727-1.2305 1.9297 0 3.8672 0.375 5.7109 1.1211 3.8164 1.5391 6.7969 4.4883 8.4102 8.3008 3.3086 7.8555-0.34375 16.953-8.1445 20.277-3.75 1.5977-7.9023 1.6367-11.68 0.10938-3.8164-1.5391-6.7969-4.4883-8.4062-8.3008-3.3125-7.8555 0.33984-16.953 8.1367-20.277z"/>
  <path d="m340.66 356.03c3.2031 1.2969 6.5586 1.9453 9.9102 1.9453 3.5234 0 7.0312-0.71484 10.367-2.1367 13.453-5.7383 19.766-21.41 14.066-34.934-2.7734-6.5742-7.9297-11.668-14.523-14.332-6.5664-2.6562-13.766-2.5859-20.277 0.19141-13.453 5.7383-19.766 21.406-14.066 34.934 2.7695 6.5742 7.9258 11.664 14.523 14.332zm3.9375-38.965c1.918-0.82031 3.9414-1.2305 5.9727-1.2305 1.9297 0 3.8594 0.37109 5.7109 1.1172 3.8125 1.543 6.7969 4.4883 8.3984 8.3008 3.3125 7.8594-0.33984 16.957-8.1367 20.281-3.7461 1.5977-7.8984 1.6406-11.68 0.11328-3.8125-1.543-6.7969-4.4883-8.3984-8.3008-3.3203-7.8555 0.33203-16.953 8.1328-20.281z"/>
  <path d="m412.33 325.46c3.2031 1.2969 6.5586 1.9453 9.9141 1.9453 3.5156 0 7.0273-0.71094 10.363-2.1328 13.453-5.7383 19.766-21.41 14.066-34.934-2.7734-6.5742-7.9297-11.668-14.523-14.332-6.5586-2.6562-13.754-2.5938-20.277 0.1875-13.453 5.7383-19.766 21.41-14.066 34.934 2.7695 6.5742 7.9258 11.664 14.523 14.332zm3.9375-38.961c1.918-0.82031 3.9414-1.2305 5.9727-1.2305 1.9297 0 3.8672 0.375 5.7109 1.1211 3.8125 1.543 6.7969 4.4883 8.3984 8.3008 3.3125 7.8594-0.33984 16.957-8.1367 20.281-3.75 1.5977-7.9062 1.6367-11.68 0.10938-3.8125-1.543-6.7969-4.4883-8.3984-8.3008-3.3203-7.8594 0.33203-16.957 8.1328-20.281z"/>
  <path d="m198.5 318.74 5.8594 13.902-0.73438 0.3125c-28.344 12.094-41.633 45.121-29.617 73.621 5.8398 13.859 16.707 24.582 30.594 30.199 6.7422 2.7266 13.805 4.0898 20.859 4.0898 7.3984 0 14.797-1.5 21.816-4.4883l23.426-9.9922-9.0938 42.348c-0.65234 3.0234 1.2734 6 4.2969 6.6484 0.39453 0.085938 0.79297 0.125 1.1797 0.125 2.582 0 4.9062-1.7969 5.4688-4.4258l10.68-49.742c0.023437-0.10547-0.011719-0.19922 0.003906-0.30469l178.28-76.039c0.078125 0.054687 0.12109 0.14062 0.19922 0.19141l42.969 26.863c0.92578 0.57812 1.9531 0.85156 2.9648 0.85156 1.8633 0 3.6914-0.93359 4.7539-2.6289 1.6406-2.6211 0.84375-6.0781-1.7773-7.7188l-36.605-22.887 23.492-10.02c28.344-12.09 41.633-45.117 29.625-73.625-5.8398-13.852-16.707-24.578-30.598-30.191-13.797-5.582-28.953-5.4453-42.668 0.40234l-0.69141 0.29297-5.8398-13.859c-14.133-33.52-40.414-59.465-74.004-73.051-33.41-13.512-70.043-13.164-103.18 0.97266-68.582 29.246-100.73 109.17-71.656 178.15zm277.18-85.805c5.6328 0 11.27 1.0898 16.656 3.2656 11.102 4.4922 19.797 13.074 24.469 24.16 9.625 22.84-1.0078 49.297-23.695 58.973l-250.24 106.73c-10.938 4.668-23.047 4.7812-34.074 0.32422-11.102-4.4922-19.797-13.074-24.469-24.168-9.6289-22.836 1-49.285 23.691-58.969l250.25-106.73c5.5977-2.3867 11.504-3.5859 17.418-3.5859zm-201.13-82.051c30.383-12.957 63.969-13.273 94.582-0.89453 30.812 12.461 54.918 36.262 67.879 67.016l5.8594 13.906-228.21 97.336-5.8398-13.855c-26.688-63.32 2.8008-136.67 65.73-163.51z"/>
  <path d="m390.71 231.73c0.77734 2.3555 2.9688 3.8516 5.3203 3.8516 0.57812 0 1.1719-0.09375 1.75-0.28125 2.9375-0.96875 4.5352-4.1328 3.5703-7.0703-3.4141-10.379-8.9688-19.578-16.512-27.336-2.1445-2.2227-5.6992-2.2656-7.918-0.11328-2.2148 2.1562-2.2656 5.6992-0.10938 7.918 6.3477 6.5273 11.023 14.277 13.898 23.031z"/>
  <path d="m292.09 187.8c21.188-9.0273 44.75-7.543 64.668 4.0742 0.88672 0.51562 1.8594 0.76172 2.8164 0.76172 1.9258 0 3.8008-0.99609 4.8438-2.7773 1.5547-2.6719 0.65234-6.1016-2.0195-7.6602-23.012-13.422-50.23-15.129-74.707-4.7031-2.8438 1.2148-4.168 4.5039-2.9531 7.3477 1.2148 2.8516 4.5039 4.168 7.3516 2.957z"/>
  <use x="70" y="644" xlink:href="#t"/>
  <use x="90.550781" y="644" xlink:href="#e"/>
  <use x="104.359375" y="644" xlink:href="#a"/>
  <use x="123.347656" y="644" xlink:href="#d"/>
  <use x="142.242188" y="644" xlink:href="#c"/>
  <use x="155.628906" y="644" xlink:href="#a"/>
  <use x="174.617188" y="644" xlink:href="#b"/>
  <use x="204.410156" y="644" xlink:href="#i"/>
  <use x="224.453125" y="644" xlink:href="#h"/>
  <use x="252.453125" y="644" xlink:href="#g"/>
  <use x="280.3125" y="644" xlink:href="#d"/>
  <use x="299.210938" y="644" xlink:href="#b"/>
  <use x="319.25" y="644" xlink:href="#a"/>
  <use x="347.992188" y="644" xlink:href="#s"/>
  <use x="375.796875" y="644" xlink:href="#g"/>
  <use x="403.664062" y="644" xlink:href="#d"/>
  <use x="422.554688" y="644" xlink:href="#b"/>
  <use x="442.601562" y="644" xlink:href="#a"/>
  <use x="70" y="672" xlink:href="#r"/>
  <use x="82.183594" y="672" xlink:href="#e"/>
  <use x="95.992188" y="672" xlink:href="#f"/>
  <use x="115.226562" y="672" xlink:href="#q"/>
  <use x="154.152344" y="672" xlink:href="#c"/>
  <use x="167.535156" y="672" xlink:href="#p"/>
  <use x="187.46875" y="672" xlink:href="#a"/>
  <use x="216.207031" y="672" xlink:href="#o"/>
  <use x="239.640625" y="672" xlink:href="#f"/>
  <use x="258.878906" y="672" xlink:href="#n"/>
  <use x="278.8125" y="672" xlink:href="#m"/>
  <use x="308.492188" y="672" xlink:href="#l"/>
  <use x="329.015625" y="672" xlink:href="#e"/>
  <use x="342.820312" y="672" xlink:href="#f"/>
  <use x="362.058594" y="672" xlink:href="#k"/>
  <use x="371.65625" y="672" xlink:href="#a"/>
  <use x="390.648438" y="672" xlink:href="#j"/>
  <use x="407.242188" y="672" xlink:href="#c"/>
 </g>
</svg>
