<svg xmlns="http://www.w3.org/2000/svg" xmlns:xlink="http://www.w3.org/1999/xlink" width="442.935" height="409.913" viewBox="0 0 442.935 409.913">
  <defs>
    <clipPath id="clip-path">
      <rect id="Rectangle_373" data-name="Rectangle 373" width="366.369" height="316.632" fill="#e869a4"/>
    </clipPath>
  </defs>
  <g id="Group_648" data-name="Group 648" transform="translate(0 107.116) rotate(-17)">
    <g id="Group_647" data-name="Group 647" clip-path="url(#clip-path)">
      <path id="Path_688" data-name="Path 688" d="M339.494,131.709c-17.956-18.929-41.443-26.4-64.354-43.3-16.351-12.059-10.289-25.26-8.485-41.636,2.015-18.289-9.184-35.3-25.953-42.485-16.834-7.211-36.522-4.67-53.293,2.688-21.876,9.6-50.34,28.04-64.686,47.431-12.1,16.351-17.523,39.193-8.639,57.524,5.312,10.959,15.508,20.613,14.739,32.789-.782,12.346-13.064,21.021-25.1,23.37s-24.489.32-36.708,1.355C20.885,173.355-12.838,228.995,4.731,272.2s80.3,58.921,115.858,29.012c14.26-12,23.479-28.847,35.077-43.478s27.611-27.937,46.177-27.832c30.194.172,49.066,33.8,77.2,44.848,27.161,10.662,57.819-3.915,74.174-26.511,19.23-26.569,15.294-66.212,1.47-94.452a87.458,87.458,0,0,0-15.2-22.083" transform="translate(0 0)" fill="#e869a4"/>
    </g>
  </g>
</svg>
