<svg xmlns="http://www.w3.org/2000/svg" width="40.767" height="30.455" viewBox="0 0 40.767 30.455">
  <g id="Group_48" data-name="Group 48" transform="translate(-9.75 -13.656)">
    <path id="Path_8" data-name="Path 8" d="M34.259-36.717c5.273,0,7.533-3.767,7.533-7.031,0-.377-10.421.126-10.421-8.286,0-5.4,4.52-10.672,10.3-13.559l-.5-.5C30.116-62.2,24.215-54.922,24.215-47.64,24.215-41.111,28.484-36.717,34.259-36.717Zm-21.971,0c5.273,0,7.533-3.767,7.533-7.031,0-.377-10.421.126-10.421-8.286,0-5.4,4.52-10.672,10.3-13.559l-.5-.5C8.145-62.2,2.244-54.922,2.244-47.64,2.244-41.111,6.513-36.717,12.288-36.717Z" transform="translate(8.006 80.328)" fill="#e869a4" stroke="rgba(0,0,0,0)" stroke-width="1"/>
  </g>
</svg>
