<svg id="Group_938" data-name="Group 938" xmlns="http://www.w3.org/2000/svg" xmlns:xlink="http://www.w3.org/1999/xlink" width="256.496" height="253.719" viewBox="0 0 256.496 253.719">
  <defs>
    <clipPath id="clip-path">
      <rect id="Rectangle_488" data-name="Rectangle 488" width="256.496" height="253.719" fill="#ffc200"/>
    </clipPath>
  </defs>
  <g id="Group_937" data-name="Group 937" clip-path="url(#clip-path)">
    <path id="Path_1754" data-name="Path 1754" d="M72.116,46.88C94.974,45.723,95.065,48.1,91.741,28.407,90.5,21.05,88.508,9.693,84.8,3.192,82.413-.994,79.963.139,80.362.139c-2.9.5-3.4-.214-13.7,43.636-.589,2.447,2.184,3.27,5.455,3.1" fill="#ffc200"/>
    <path id="Path_1755" data-name="Path 1755" d="M50.314,125.741c-3.545-.226-3.355,3.279-3.909,5.78-9.413,34.732-16.5,45.555.856,44.315,14.526-.962,17.434,2.164,10.7-28.975-3.055-13.957-3.1-20.824-7.648-21.12" fill="#ffc200"/>
    <path id="Path_1756" data-name="Path 1756" d="M0,231.763c.072-.295.069-.281,0,0" fill="#ffc200"/>
    <path id="Path_1757" data-name="Path 1757" d="M.056,231.542c.3-1.233-.02,0,0,0" fill="#ffc200"/>
    <path id="Path_1758" data-name="Path 1758" d="M.254,230.721c.351-1.43-.017,0,0,0" fill="#ffc200"/>
    <path id="Path_1759" data-name="Path 1759" d="M.2,230.943c.069-.276.077-.315,0,0" fill="#ffc200"/>
    <path id="Path_1760" data-name="Path 1760" d="M2.27,222.451c.169-.677.144-.6,0,0" fill="#ffc200"/>
    <path id="Path_1761" data-name="Path 1761" d="M.49,229.758h0" fill="#ffc200"/>
    <path id="Path_1762" data-name="Path 1762" d="M1.23,226.711c.139-.563.119-.495,0,0" fill="#ffc200"/>
    <path id="Path_1763" data-name="Path 1763" d="M20.726,46.9a3.416,3.416,0,0,0-2.938,1.954c-.1.229-8.035,29.356-11.555,44.407-.33,1.477,1.779,5.617,5.231,4.922,22.08.3,19.688,2.351,15.941-19.623C23.924,57.791,26,46.9,20.726,46.9" fill="#ffc200"/>
    <path id="Path_1764" data-name="Path 1764" d="M92.4,161.065a3.438,3.438,0,0,0-3.626,1.052c-2.245,2.519-12.958,46.906-14.441,54.378-2.2,10.75,21.723,5.81,24.1,2.594,1.884-2.564,1.131-3.9-.125-18.661-2.118-25.556-1.015-38.006-5.908-39.363" fill="#ffc200"/>
    <path id="Path_1765" data-name="Path 1765" d="M87.028,77.5c-1.812.812-2.194,3.348-3.053,7.262-6.5,30.026-10.329,32.555-7.289,35.7,2.425,2.509,6.332,2.6,9.758,1.914,6.758-1.361,8.194-1.044,10.211-3.449,4.631-5.363-2.767-33.767-4.886-38.885C90.1,76.018,86.839,77.5,87.028,77.5" fill="#ffc200"/>
    <path id="Path_1766" data-name="Path 1766" d="M133.892,122.5c.246-1.013-.083.126-.033.126.106-.428.091-.379.033-.126" fill="#ffc200"/>
    <path id="Path_1767" data-name="Path 1767" d="M133.993,122.077c.081-.324.093-.383,0,0" fill="#ffc200"/>
    <path id="Path_1768" data-name="Path 1768" d="M144.768,121.791c-1.387-8.323-2.162-11.514-4.94-11.515-3.337,0-3.926,4.073-5.919,12.155-7.617,31.975-16.619,39.864.586,38.015,19.817-2.2,17.063,1.409,10.273-38.655" fill="#ffc200"/>
    <path id="Path_1769" data-name="Path 1769" d="M145.7,204c-11.786,41.564-14.693,38.806,8.336,37.907,9.514-.16,8.278-3.414,6.2-15.214-3.017-17.418-9.864-39.562-14.535-22.693" fill="#ffc200"/>
    <path id="Path_1770" data-name="Path 1770" d="M204.692,157.827c-6.235-31.4-4.517-36-8.992-36.925-2.739-.567-3.9.95-14.535,42.083-.891,3.344,1.945,3.22,4.351,3.392,2.513.18,14.964-.135,17.322-1.048,2.91-1.122,2.377-4.808,1.854-7.5" fill="#ffc200"/>
    <path id="Path_1771" data-name="Path 1771" d="M249.48,147.7c-1.908-7.858-6.19-3.605-5.908-3.605-2.336,3.316-10.235,43.006-11.1,47.439-.235,1.181,1.39,5.273,4.231,5.272.683,0,10-1.2,10.1-1.22,5.978-1.2,10.056-3.129,9.669-10.273-.512-10.752-4.225-27.153-6.99-37.613" fill="#ffc200"/>
    <path id="Path_1772" data-name="Path 1772" d="M240.646,51.449c-3.705,2.4-10.819,38.49-11.8,46.313-.75,5.78,7.525,2.387,16.378,1.959,10.026-.1,7.636-5.082,3.169-35.2-2.746-18.736-7.842-13.076-7.742-13.076" fill="#ffc200"/>
    <path id="Path_1773" data-name="Path 1773" d="M195.364,253.4c-.1.393-.11.45,0,0" fill="#ffc200"/>
    <path id="Path_1774" data-name="Path 1774" d="M153.286,73.333a3.031,3.031,0,0,0,2.111,3.2c-1.3,5.895,10.552,4.945,16.039,3.654,5.761-1.287,4.3-5.38,4.116-8.721-4.5-71.937-13.319-65.452-22.266,1.865" fill="#ffc200"/>
  </g>
</svg>
