<svg xmlns="http://www.w3.org/2000/svg" xmlns:xlink="http://www.w3.org/1999/xlink" width="314.582" height="298.525" viewBox="0 0 314.582 298.525">
  <defs>
    <clipPath id="clip-path">
      <rect id="Rectangle_485" data-name="Rectangle 485" width="160.5" height="211.303" fill="#ffc200"/>
    </clipPath>
  </defs>
  <g id="Group_1402" data-name="Group 1402" transform="translate(-1242.379 -7041.37)">
    <g id="Group_939" data-name="Group 939" transform="matrix(0.966, 0.259, -0.259, 0.966, 1401.93, 7041.37)">
      <g id="Group_931" data-name="Group 931" clip-path="url(#clip-path)">
        <path id="Path_1701" data-name="Path 1701" d="M138.093,115.939c-4.357-.478-3.773.3-4.624,4.443-4.111,20.379-6.691,25.46-4.087,26.638,14.941,6.756,6.5,6.245,18.058-26.362,1.151-3.148.106-3.68-9.348-4.719" transform="translate(-58.959 -53.207)" fill="#ffc200"/>
        <path id="Path_1702" data-name="Path 1702" d="M193.562,176.955c-1.028-1.1-4.832-1.668-4.873-1.676-2.689-.536-3.385-2.848-11.161,31.236-.17.747-.634,2.244.924,2.554s2.89,2.405,4.641,1.38c.985-.563,1.851-3.641,2.663-6.452,8.251-28.6,8.91-25.862,7.806-27.041" transform="translate(-81.469 -80.416)" fill="#ffc200"/>
        <path id="Path_1703" data-name="Path 1703" d="M183.543.5c-7.865.135-7.625-3.315-9.667,6.182-4.907,22.69-1.732,19.118,2.719,20.525,6.4,2.6,3.467,2.056,9.6-22.477C187.555-.648,183.2.465,183.543.5" transform="translate(-78.745 0)" fill="#ffc200"/>
        <path id="Path_1704" data-name="Path 1704" d="M197.467,339.124c-7.865.135-7.625-3.315-9.667,6.182-4.907,22.69-1.732,19.118,2.719,20.525,6.4,2.6,3.467,2.056,9.6-22.477,1.364-5.38-2.992-4.267-2.648-4.229" transform="translate(-85.142 -155.569)" fill="#ffc200"/>
        <path id="Path_1705" data-name="Path 1705" d="M85.575,43.592c-3.979-.437-1.522,2.68-6.829,28.244-.227,1.091-1.081,2.763,1.163,4.014.35.194,3.977,1.353,5.218,1.128,1.774-.186,1.91-3.132,2.16-4.9C91.662,42,97.427,44.894,85.575,43.592" transform="translate(-36.018 -20.01)" fill="#ffc200"/>
        <path id="Path_1706" data-name="Path 1706" d="M233.944,57.313c-5.925-.582-4.092-4.062-7.872,12.013-3.593,15.062-3.555,14.075.913,15.16,5.8,1.448,4.37-4.267,6.3-11.91,2.684-10.677,6.1-14.665.658-15.263" transform="translate(-102.678 -26.002)" fill="#ffc200"/>
        <path id="Path_1707" data-name="Path 1707" d="M282.667,326.675c-5.925-.582-4.092-4.062-7.872,12.013-3.593,15.062-3.555,14.076.913,15.16,5.8,1.448,4.37-4.267,6.3-11.91,2.684-10.677,6.1-14.665.658-15.263" transform="translate(-125.062 -149.752)" fill="#ffc200"/>
        <path id="Path_1708" data-name="Path 1708" d="M7.948,95.856c5.822-25.917,6.178-24.706.6-23.446-3.34.475-2.117-.15-6.781,18.073C.531,95.313.022,97.175,0,102.152c0,1.125,2.275,1.644,4.588,1.841,2.051.175,2.052-2.339,3.36-8.137" transform="translate(0 -33.02)" fill="#ffc200"/>
        <path id="Path_1709" data-name="Path 1709" d="M231.755,237.679a27.464,27.464,0,0,1-2.833-.94,1.354,1.354,0,0,0-1.3.671c-.611,1.131-6.484,27.461-6.1,28.552.947,2.686,5.916,1.709,7.623,2.223,3.545,1.483,2.551.938,7.769-27.53.743-4.094-3.789-2.928-5.164-2.978" transform="translate(-101.766 -108.759)" fill="#ffc200"/>
        <path id="Path_1710" data-name="Path 1710" d="M37.578,152.8c-3.116-.727-2.671.882-3.378,3.926-6.779,29.294-7.88,30.534-4.053,30.561,7.313.053,7.836,3.061,8.691-1.486,1.761-9.361,6.182-27.521,6.556-30.451.53-3.875-2.282-1.259-7.816-2.55" transform="translate(-12.846 -70.118)" fill="#ffc200"/>
        <path id="Path_1711" data-name="Path 1711" d="M83.445,220.27c3.953-18.121,8.14-22.613,3.251-21.867-12.367,1.8-6.659-3.691-12.273,17.65-.444,1.7-4.27,17.264-3.965,18.981-.449.777-.561,3.01,3.574,2.6,8.059-.742,5.862-1.1,9.414-17.365" transform="translate(-32.272 -91.115)" fill="#ffc200"/>
        <path id="Path_1712" data-name="Path 1712" d="M270.924,134.986c-.043,0-7.1.91-7.18.929-2.76.628-1.441,1.367-8.394,26.111-.177.627.076,2.175.658,2.407a10.888,10.888,0,0,0,4.025.721c3.784-.068,5.9,1.046,7.32-1.093.567-1.532.038-.1.893-5.781,1.795-11.958,4.933-19.352,4.406-21.841a1.686,1.686,0,0,0-1.729-1.453" transform="translate(-117.288 -62.011)" fill="#ffc200"/>
        <path id="Path_1713" data-name="Path 1713" d="M120,289.058c-5.743.547-2.34-.454-10.806,36.634-.262,1.149.721,1.733,2.056,1.935,11.075,1.674,7.689,3.038,10.614-15.4,3.7-23.15,8.293-24.153-1.864-23.173" transform="translate(-50.148 -132.689)" fill="#ffc200"/>
      </g>
    </g>
    <g id="Group_940" data-name="Group 940" transform="matrix(0.966, 0.259, -0.259, 0.966, 1297.068, 7094.252)">
      <g id="Group_931-2" data-name="Group 931" clip-path="url(#clip-path)">
        <path id="Path_1701-2" data-name="Path 1701" d="M138.093,115.939c-4.357-.478-3.773.3-4.624,4.443-4.111,20.379-6.691,25.46-4.087,26.638,14.941,6.756,6.5,6.245,18.058-26.362,1.151-3.148.106-3.68-9.348-4.719" transform="translate(-58.959 -53.207)" fill="#ffc200"/>
        <path id="Path_1702-2" data-name="Path 1702" d="M193.562,176.955c-1.028-1.1-4.832-1.668-4.873-1.676-2.689-.536-3.385-2.848-11.161,31.236-.17.747-.634,2.244.924,2.554s2.89,2.405,4.641,1.38c.985-.563,1.851-3.641,2.663-6.452,8.251-28.6,8.91-25.862,7.806-27.041" transform="translate(-81.469 -80.416)" fill="#ffc200"/>
        <path id="Path_1704-2" data-name="Path 1704" d="M197.467,339.124c-7.865.135-7.625-3.315-9.667,6.182-4.907,22.69-1.732,19.118,2.719,20.525,6.4,2.6,3.467,2.056,9.6-22.477,1.364-5.38-2.992-4.267-2.648-4.229" transform="translate(-85.142 -155.569)" fill="#ffc200"/>
        <path id="Path_1705-2" data-name="Path 1705" d="M85.575,43.592c-3.979-.437-1.522,2.68-6.829,28.244-.227,1.091-1.081,2.763,1.163,4.014.35.194,3.977,1.353,5.218,1.128,1.774-.186,1.91-3.132,2.16-4.9C91.662,42,97.427,44.894,85.575,43.592" transform="translate(-36.018 -20.01)" fill="#ffc200"/>
        <path id="Path_1707-2" data-name="Path 1707" d="M282.667,326.675c-5.925-.582-4.092-4.062-7.872,12.013-3.593,15.062-3.555,14.076.913,15.16,5.8,1.448,4.37-4.267,6.3-11.91,2.684-10.677,6.1-14.665.658-15.263" transform="translate(-125.062 -149.752)" fill="#ffc200"/>
        <path id="Path_1708-2" data-name="Path 1708" d="M7.948,95.856c5.822-25.917,6.178-24.706.6-23.446-3.34.475-2.117-.15-6.781,18.073C.531,95.313.022,97.175,0,102.152c0,1.125,2.275,1.644,4.588,1.841,2.051.175,2.052-2.339,3.36-8.137" transform="translate(0 -33.02)" fill="#ffc200"/>
        <path id="Path_1709-2" data-name="Path 1709" d="M231.755,237.679a27.464,27.464,0,0,1-2.833-.94,1.354,1.354,0,0,0-1.3.671c-.611,1.131-6.484,27.461-6.1,28.552.947,2.686,5.916,1.709,7.623,2.223,3.545,1.483,2.551.938,7.769-27.53.743-4.094-3.789-2.928-5.164-2.978" transform="translate(-101.766 -108.759)" fill="#ffc200"/>
        <path id="Path_1710-2" data-name="Path 1710" d="M37.578,152.8c-3.116-.727-2.671.882-3.378,3.926-6.779,29.294-7.88,30.534-4.053,30.561,7.313.053,7.836,3.061,8.691-1.486,1.761-9.361,6.182-27.521,6.556-30.451.53-3.875-2.282-1.259-7.816-2.55" transform="translate(-12.846 -70.118)" fill="#ffc200"/>
        <path id="Path_1711-2" data-name="Path 1711" d="M83.445,220.27c3.953-18.121,8.14-22.613,3.251-21.867-12.367,1.8-6.659-3.691-12.273,17.65-.444,1.7-4.27,17.264-3.965,18.981-.449.777-.561,3.01,3.574,2.6,8.059-.742,5.862-1.1,9.414-17.365" transform="translate(-32.272 -91.115)" fill="#ffc200"/>
        <path id="Path_1713-2" data-name="Path 1713" d="M120,289.058c-5.743.547-2.34-.454-10.806,36.634-.262,1.149.721,1.733,2.056,1.935,11.075,1.674,7.689,3.038,10.614-15.4,3.7-23.15,8.293-24.153-1.864-23.173" transform="translate(-50.148 -132.689)" fill="#ffc200"/>
      </g>
    </g>
  </g>
</svg>
