<svg xmlns="http://www.w3.org/2000/svg" xmlns:xlink="http://www.w3.org/1999/xlink" width="105.747" height="123.861" viewBox="0 0 105.747 123.861">
  <defs>
    <clipPath id="clip-path">
      <rect id="Rectangle_485" data-name="Rectangle 485" width="80.929" height="106.545" transform="translate(0 0)" fill="#ffc200"/>
    </clipPath>
  </defs>
  <g id="Group_1038" data-name="Group 1038" transform="matrix(-0.966, -0.259, 0.259, -0.966, 78.171, 123.861)">
    <g id="Group_931" data-name="Group 931" transform="translate(0)" clip-path="url(#clip-path)">
      <path id="Path_1701" data-name="Path 1701" d="M4.921.063c-2.2-.241-1.9.149-2.331,2.24C.517,12.579-.785,15.141.529,15.735c7.534,3.407,3.28,3.149,9.105-13.292C10.214.855,9.688.587,4.921.063" transform="translate(34.981 31.568)" fill="#ffc200"/>
      <path id="Path_1702" data-name="Path 1702" d="M8.185.966A6.1,6.1,0,0,0,5.727.121C4.372-.149,4.021-1.315.1,15.871.014,16.248-.22,17,.566,17.159s1.457,1.213,2.34.7c.5-.284.933-1.836,1.343-3.253C8.409.178,8.741,1.561,8.185.966" transform="translate(48.336 47.712)" fill="#ffc200"/>
      <path id="Path_1703" data-name="Path 1703" d="M6.122.253C2.157.322,2.278-1.418,1.248,3.37-1.226,14.812.375,13.01,2.619,13.72,5.848,15.03,4.367,14.756,7.457,2.386,8.145-.327,5.949.234,6.122.253" transform="translate(46.72 0)" fill="#ffc200"/>
      <path id="Path_1704" data-name="Path 1704" d="M6.122.253C2.157.322,2.278-1.418,1.248,3.37-1.226,14.812.375,13.01,2.619,13.72,5.848,15.03,4.367,14.756,7.457,2.386,8.145-.327,5.949.234,6.122.253" transform="translate(50.515 92.3)" fill="#ffc200"/>
      <path id="Path_1705" data-name="Path 1705" d="M3.619.019C1.612-.2,2.852,1.37.176,14.26c-.114.55-.545,1.393.587,2.024a7.979,7.979,0,0,0,2.631.569c.895-.094.963-1.579,1.089-2.47C6.688-.783,9.595.675,3.619.019" transform="translate(21.37 11.872)" fill="#ffc200"/>
      <path id="Path_1706" data-name="Path 1706" d="M5.269.361C2.281.068,3.206-1.687,1.3,6.419c-1.812,7.595-1.793,7.1.46,7.644,2.925.73,2.2-2.151,3.177-6.005C6.29,2.673,8.013.663,5.269.361" transform="translate(60.919 15.427)" fill="#ffc200"/>
      <path id="Path_1707" data-name="Path 1707" d="M5.269.361C2.281.068,3.206-1.687,1.3,6.419c-1.812,7.595-1.793,7.1.46,7.644,2.925.73,2.2-2.151,3.177-6.005C6.29,2.673,8.013.663,5.269.361" transform="translate(74.2 88.849)" fill="#ffc200"/>
      <path id="Path_1708" data-name="Path 1708" d="M4.008,12.093C6.943-.975,7.123-.365,4.312.271,2.628.51,3.244.195.893,9.383A19.2,19.2,0,0,0,0,15.268c0,.568,1.147.829,2.314.928,1.034.088,1.034-1.179,1.694-4.1" transform="translate(0 19.591)" fill="#ffc200"/>
      <path id="Path_1709" data-name="Path 1709" d="M5.166.478A13.85,13.85,0,0,1,3.738,0a.683.683,0,0,0-.653.339c-.308.57-3.27,13.847-3.076,14.4.478,1.354,2.983.862,3.844,1.121,1.787.748,1.286.473,3.917-13.881C8.144-.085,5.859.5,5.166.478" transform="translate(60.378 64.527)" fill="#ffc200"/>
      <path id="Path_1710" data-name="Path 1710" d="M4.849.087C3.278-.279,3.5.532,3.146,2.067-.272,16.838-.827,17.463,1.1,17.477c3.687.027,3.951,1.543,4.382-.749C6.373,12.008,8.6,2.851,8.79,1.373,9.058-.581,7.64.738,4.849.087" transform="translate(7.621 41.601)" fill="#ffc200"/>
      <path id="Path_1711" data-name="Path 1711" d="M6.656,11.065C8.649,1.927,10.761-.337,8.3.039c-6.236.908-3.358-1.861-6.189,8.9-.224.859-2.153,8.7-2,9.571-.227.392-.283,1.518,1.8,1.311,4.064-.374,2.956-.554,4.747-8.756" transform="translate(19.147 54.059)" fill="#ffc200"/>
      <path id="Path_1712" data-name="Path 1712" d="M7.881,0C7.859.006,4.3.464,4.26.473,2.869.79,3.534,1.162.028,13.639c-.089.316.038,1.1.332,1.214a5.49,5.49,0,0,0,2.03.364c1.908-.034,2.972.527,3.691-.551.286-.772.019-.053.45-2.915.9-6.03,2.487-9.758,2.222-11.013A.85.85,0,0,0,7.881,0" transform="translate(69.588 36.791)" fill="#ffc200"/>
      <path id="Path_1713" data-name="Path 1713" d="M5.47.121C2.574.4,4.29-.108.021,18.593c-.132.58.363.874,1.037.976,5.584.844,3.877,1.532,5.352-7.764C8.273.132,10.591-.373,5.47.121" transform="translate(29.753 78.725)" fill="#ffc200"/>
    </g>
  </g>
</svg>
