<svg xmlns="http://www.w3.org/2000/svg" xmlns:xlink="http://www.w3.org/1999/xlink" width="263.175" height="249.743" viewBox="0 0 263.175 249.743">
  <defs>
    <clipPath id="clip-path">
      <rect id="Rectangle_485" data-name="Rectangle 485" width="134.273" height="176.773" transform="translate(0 0)" fill="#ffc200"/>
    </clipPath>
  </defs>
  <g id="Group_1019" data-name="Group 1019" transform="translate(-1028.825 -316.481)">
    <g id="Group_979" data-name="Group 979" transform="matrix(0.966, -0.259, 0.259, 0.966, 1116.55, 395.474)">
      <g id="Group_931" data-name="Group 931" transform="translate(0 0)" clip-path="url(#clip-path)">
        <path id="Path_1701" data-name="Path 1701" d="M8.164,28.887c-3.645.4-3.156-.247-3.868-3.717C.857,8.121-1.3,3.871.877,2.886c12.5-5.652,5.441-5.225,15.107,22.054.963,2.634.089,3.078-7.82,3.948" transform="translate(58.038 95.405)" fill="#ffc200"/>
        <path id="Path_1702" data-name="Path 1702" d="M13.58,28.254c-.86.923-4.043,1.4-4.077,1.4C7.253,30.106,6.671,32.04.166,3.525.024,2.9-.364,1.648.939,1.389S3.357-.623,4.821.234c.824.471,1.548,3.046,2.228,5.4,6.9,23.93,7.454,21.636,6.53,22.622" transform="translate(80.196 67.756)" fill="#ffc200"/>
        <path id="Path_1703" data-name="Path 1703" d="M10.158,23.214c-6.58-.113-6.379,2.774-8.087-5.171C-2.035-.94.622,2.048,4.345.871c5.357-2.174,2.9-1.72,8.027,18.8,1.141,4.5-2.5,3.57-2.215,3.538" transform="translate(77.515 153.139)" fill="#ffc200"/>
        <path id="Path_1704" data-name="Path 1704" d="M10.158,23.214c-6.58-.113-6.379,2.774-8.087-5.171C-2.035-.94.622,2.048,4.345.871c5.357-2.174,2.9-1.72,8.027,18.8,1.141,4.5-2.5,3.57-2.215,3.538" transform="translate(83.812 0)" fill="#ffc200"/>
        <path id="Path_1705" data-name="Path 1705" d="M6,27.955C2.675,28.32,4.731,25.712.292,4.326.1,3.413-.612,2.014,1.265.968,1.557.805,4.591-.164,5.63.024c1.484.156,1.6,2.62,1.807,4.1C11.1,29.284,15.919,26.865,6,27.955" transform="translate(35.455 129.091)" fill="#ffc200"/>
        <path id="Path_1706" data-name="Path 1706" d="M8.742,22.921c-4.957.487-3.423,3.4-6.586-10.05C-.85.27-.819,1.1,2.92.189c4.853-1.212,3.656,3.57,5.271,9.964,2.245,8.932,5.1,12.268.551,12.769" transform="translate(101.074 127.658)" fill="#ffc200"/>
        <path id="Path_1707" data-name="Path 1707" d="M8.742,22.921c-4.957.487-3.423,3.4-6.586-10.05C-.85.27-.819,1.1,2.92.189c4.853-1.212,3.656,3.57,5.271,9.964,2.245,8.932,5.1,12.268.551,12.769" transform="translate(123.109 5.84)" fill="#ffc200"/>
        <path id="Path_1708" data-name="Path 1708" d="M6.649,6.815c4.87,21.682,5.169,20.669.505,19.615-2.794-.4-1.771.126-5.672-15.119A31.864,31.864,0,0,1,0,1.547C0,.606,1.9.172,3.839.007,5.554-.139,5.555,1.964,6.649,6.815" transform="translate(0 117.391)" fill="#ffc200"/>
        <path id="Path_1709" data-name="Path 1709" d="M8.572,25.9a22.979,22.979,0,0,0-2.37.786,1.133,1.133,0,0,1-1.084-.562C4.607,25.18-.306,3.152.015,2.24.807-.007,4.964.81,6.392.379c2.965-1.241,2.134-.785,6.5,23.031.621,3.425-3.17,2.45-4.32,2.491" transform="translate(100.176 43.019)" fill="#ffc200"/>
        <path id="Path_1710" data-name="Path 1710" d="M8.046,29.708c-2.607.608-2.235-.738-2.826-3.285C-.451,1.917-1.372.88,1.829.857,7.947.813,8.385-1.7,9.1,2.1c1.473,7.831,5.171,23.024,5.484,25.475.444,3.242-1.909,1.053-6.539,2.133" transform="translate(12.645 77.898)" fill="#ffc200"/>
        <path id="Path_1711" data-name="Path 1711" d="M11.044,14.569c3.307,15.16,6.81,18.918,2.719,18.294C3.416,31.355,8.192,35.951,3.5,18.1,3.123,16.672-.077,3.654.178,2.217-.2,1.567-.291-.3,3.168.042c6.742.621,4.9.919,7.875,14.527" transform="translate(31.768 54.155)" fill="#ffc200"/>
        <path id="Path_1712" data-name="Path 1712" d="M13.075,25.431c-.036,0-5.941-.762-6.006-.777C4.76,24.128,5.864,23.51.046,2.81-.1,2.285.11.99.6.8a9.108,9.108,0,0,1,3.367-.6c3.165.057,4.932-.875,6.124.914.474,1.282.032.087.747,4.837,1.5,10,4.127,16.19,3.686,18.272a1.411,1.411,0,0,1-1.446,1.216" transform="translate(115.456 90.293)" fill="#ffc200"/>
        <path id="Path_1713" data-name="Path 1713" d="M9.075,33.024c-4.8-.458-1.957.379-9.04-30.648-.219-.961.6-1.45,1.72-1.619,9.265-1.4,6.432-2.542,8.879,12.881,3.092,19.367,6.937,20.206-1.56,19.386" transform="translate(49.364 12.932)" fill="#ffc200"/>
      </g>
    </g>
    <g id="Group_980" data-name="Group 980" transform="matrix(0.966, -0.259, 0.259, 0.966, 1028.825, 351.233)">
      <g id="Group_931-2" data-name="Group 931" transform="translate(0 0)" clip-path="url(#clip-path)">
        <path id="Path_1701-2" data-name="Path 1701" d="M8.164,28.887c-3.645.4-3.156-.247-3.868-3.717C.857,8.121-1.3,3.871.877,2.886c12.5-5.652,5.441-5.225,15.107,22.054.963,2.634.089,3.078-7.82,3.948" transform="translate(58.038 95.405)" fill="#ffc200"/>
        <path id="Path_1702-2" data-name="Path 1702" d="M13.58,28.254c-.86.923-4.043,1.4-4.077,1.4C7.253,30.106,6.671,32.04.166,3.525.024,2.9-.364,1.648.939,1.389S3.357-.623,4.821.234c.824.471,1.548,3.046,2.228,5.4,6.9,23.93,7.454,21.636,6.53,22.622" transform="translate(80.196 67.756)" fill="#ffc200"/>
        <path id="Path_1704-2" data-name="Path 1704" d="M10.158,23.214c-6.58-.113-6.379,2.774-8.087-5.171C-2.035-.94.622,2.048,4.345.871c5.357-2.174,2.9-1.72,8.027,18.8,1.141,4.5-2.5,3.57-2.215,3.538" transform="translate(83.812 0)" fill="#ffc200"/>
        <path id="Path_1705-2" data-name="Path 1705" d="M6,27.955C2.675,28.32,4.731,25.712.292,4.326.1,3.413-.612,2.014,1.265.968,1.557.805,4.591-.164,5.63.024c1.484.156,1.6,2.62,1.807,4.1C11.1,29.284,15.919,26.865,6,27.955" transform="translate(35.455 129.091)" fill="#ffc200"/>
        <path id="Path_1707-2" data-name="Path 1707" d="M8.742,22.921c-4.957.487-3.423,3.4-6.586-10.05C-.85.27-.819,1.1,2.92.189c4.853-1.212,3.656,3.57,5.271,9.964,2.245,8.932,5.1,12.268.551,12.769" transform="translate(123.109 5.84)" fill="#ffc200"/>
        <path id="Path_1708-2" data-name="Path 1708" d="M6.649,6.815c4.87,21.682,5.169,20.669.505,19.615-2.794-.4-1.771.126-5.672-15.119A31.864,31.864,0,0,1,0,1.547C0,.606,1.9.172,3.839.007,5.554-.139,5.555,1.964,6.649,6.815" transform="translate(0 117.391)" fill="#ffc200"/>
        <path id="Path_1709-2" data-name="Path 1709" d="M8.572,25.9a22.979,22.979,0,0,0-2.37.786,1.133,1.133,0,0,1-1.084-.562C4.607,25.18-.306,3.152.015,2.24.807-.007,4.964.81,6.392.379c2.965-1.241,2.134-.785,6.5,23.031.621,3.425-3.17,2.45-4.32,2.491" transform="translate(100.176 43.019)" fill="#ffc200"/>
        <path id="Path_1710-2" data-name="Path 1710" d="M8.046,29.708c-2.607.608-2.235-.738-2.826-3.285C-.451,1.917-1.372.88,1.829.857,7.947.813,8.385-1.7,9.1,2.1c1.473,7.831,5.171,23.024,5.484,25.475.444,3.242-1.909,1.053-6.539,2.133" transform="translate(12.645 77.898)" fill="#ffc200"/>
        <path id="Path_1711-2" data-name="Path 1711" d="M11.044,14.569c3.307,15.16,6.81,18.918,2.719,18.294C3.416,31.355,8.192,35.951,3.5,18.1,3.123,16.672-.077,3.654.178,2.217-.2,1.567-.291-.3,3.168.042c6.742.621,4.9.919,7.875,14.527" transform="translate(31.768 54.155)" fill="#ffc200"/>
        <path id="Path_1713-2" data-name="Path 1713" d="M9.075,33.024c-4.8-.458-1.957.379-9.04-30.648-.219-.961.6-1.45,1.72-1.619,9.265-1.4,6.432-2.542,8.879,12.881,3.092,19.367,6.937,20.206-1.56,19.386" transform="translate(49.364 12.932)" fill="#ffc200"/>
      </g>
    </g>
  </g>
</svg>
