<svg id="Group_934" data-name="Group 934" xmlns="http://www.w3.org/2000/svg" xmlns:xlink="http://www.w3.org/1999/xlink" width="204.74" height="202.47" viewBox="0 0 204.74 202.47">
  <defs>
    <clipPath id="clip-path">
      <rect id="Rectangle_486" data-name="Rectangle 486" width="204.74" height="202.47" fill="#ffc200"/>
    </clipPath>
  </defs>
  <g id="Group_933" data-name="Group 933" clip-path="url(#clip-path)">
    <path id="Path_1714" data-name="Path 1714" d="M83.128,24.325c6.1.932-4.122,10.267,2.217,16.042-1.16-.277,2.945,1.877,8.135-7.247a2.341,2.341,0,0,1,4.268.542c.47,1.624-3.756,11.51-11.691,12.138-11.339,1.024-8.486-22.323-2.929-21.475m2.738,16.124c-.4-.046-.278-.022,0,0m-.286.044c.247.115.331.137,0,0m-.549-.336c.114.09.149.109,0,0" transform="translate(-28.007 -8.698)" fill="#ffc200"/>
    <path id="Path_1715" data-name="Path 1715" d="M92.757,48.327c-.218.088-.213.09,0,0" transform="translate(-33.139 -17.296)" fill="#ffc200"/>
    <path id="Path_1716" data-name="Path 1716" d="M140.81,15.236a3.236,3.236,0,0,1,2.441-.333c3.259.862,2.12,4.4,2.157,5.215.65,2.963,3.759,1.512,6.1-.2,1.547-1.3,3.719-4.355,6.139-1.951a2.881,2.881,0,0,1,.449,3.476c-12.941,16.993-24.355-2.023-17.291-6.2m4.642,5.3c-.031-.216-.028-.168,0,0h0m0,.028v0" transform="translate(-49.621 -5.299)" fill="#ffc200"/>
    <path id="Path_1717" data-name="Path 1717" d="M167.613,94.037c-4.365-.15-8.112-1.306-8.955-6.02-.735-3.882-.534-10.269,3.364-9.675,4.269.652,1.4,5.43,2.532,9.05a4.627,4.627,0,0,0,3.949.582c5.871-3.193,5.315-7.851,8.719-5.88,4.426,2.532-4.05,12.138-9.609,11.943m-3.264-7.057c.064.156.09.2,0,0" transform="translate(-56.662 -28.024)" fill="#ffc200"/>
    <path id="Path_1718" data-name="Path 1718" d="M227.952,18.169c1.325-4.278-3.217-4.3-3.587-2.123,1.128.172-7.2,12.332-10.787,10.065-1.363-1.311.543-9.075-1.007-10.629-5.149-5.195-6.715,10.7-2.513,14.483,6.084,5.5,15.567-4.153,17.895-11.8" transform="translate(-74.314 -5.171)" fill="#ffc200"/>
    <path id="Path_1719" data-name="Path 1719" d="M223.384,30.627c-.355.272-.414.334,0,0" transform="translate(-79.844 -10.961)" fill="#ffc200"/>
    <path id="Path_1720" data-name="Path 1720" d="M240.565,67.647c.347-4.231,5.855-3.263,5.581-.073-.634,7.706,5.173,4.212,8.435.232,1.082-1.514,2.22-2.764,3.977-1.735,5.07,2.95-8.15,15.464-14.284,10.827-2.678-2.021-4.154-4.433-3.708-9.25m14.3-.2c-.151.191-.123.159,0,0m-8.108,4.332c-.087-.013.236.218.162.123l-.162-.123" transform="translate(-86.069 -23.198)" fill="#ffc200"/>
    <path id="Path_1721" data-name="Path 1721" d="M214.286,140.944c9.263-6.244,5.228-9.528,2.924-9.492-2.724.019-7.3,8.475-10.947,4.438-2.012-3.013.249-4.318-1.714-6.28a2.936,2.936,0,0,0-2.165-.88c-7.243.085-1.442,21.212,11.9,12.214" transform="translate(-71.306 -46.068)" fill="#ffc200"/>
    <path id="Path_1722" data-name="Path 1722" d="M188.486,305.035c9.263-6.244,5.228-9.528,2.924-9.492-2.724.019-7.3,8.475-10.947,4.438-2.012-3.013.249-4.318-1.714-6.28a2.935,2.935,0,0,0-2.165-.88c-7.243.085-1.442,21.212,11.9,12.214" transform="translate(-62.072 -104.795)" fill="#ffc200"/>
    <path id="Path_1723" data-name="Path 1723" d="M85.557,123.537c-12.439,5.994-11.109-16.787-5-15.2a2.7,2.7,0,0,1,1.925,3.29c-1,2.678-1.181,3.7-.935,5.841.249,1.388.109,2.509,2.654.725,4.06-3.433,4.614-6.537,7.166-5.063,3.838,2.238-3.69,9.408-5.812,10.407m-3.4-3.962c.141.193.187.246,0,0" transform="translate(-27.212 -38.745)" fill="#ffc200"/>
    <path id="Path_1724" data-name="Path 1724" d="M124.079,158.421c-1.057-3.835-1.007-9.985,2.94-9.382,4.044.617,1.316,4.326,2.952,8.715,2.235,4.59,6.922-.15,9.831-4.343a2.417,2.417,0,1,1,4.183,2.425c-7.158,13.216-17.542,11.348-19.905,2.585m6.937.976c.182.153.236.185,0,0" transform="translate(-44.198 -53.325)" fill="#ffc200"/>
    <path id="Path_1725" data-name="Path 1725" d="M287,9.423C285.947,5.588,286-.562,289.944.041c4.044.617,1.316,4.326,2.952,8.715,2.235,4.59,6.922-.15,9.831-4.343a2.417,2.417,0,1,1,4.183,2.425C299.752,20.054,289.367,18.186,287,9.423m6.937.976c.182.153.236.185,0,0" transform="translate(-102.508 0)" fill="#ffc200"/>
    <path id="Path_1726" data-name="Path 1726" d="M217.886,187.76c-18.048,20.027-23.721-5.377-17.792-8.853a2.8,2.8,0,0,1,3.795,1c1.528,2.623-1.784,2.662.231,8.144,1.964,4.059,7-.669,10.213-3.838a2.51,2.51,0,0,1,3.553,3.546m-13,1.622h0c-.125-.1-.1-.074,0,0" transform="translate(-70.803 -63.897)" fill="#ffc200"/>
    <path id="Path_1727" data-name="Path 1727" d="M3.918,71.1c-.379-2.2-1.61-12.919,2.619-12.273,4.578.7.15,11.042,2.793,11.589,3.794.228,7.338-3.221,9.833-6.121,1.615-1.9,4.878.609,3.437,2.631C14.359,78.349,4.863,76.777,3.918,71.1m5.115-.6c.073.1.1.13,0,0m.086-.008c.164.134.286.218,0,0" transform="translate(-1.237 -21.042)" fill="#ffc200"/>
    <path id="Path_1728" data-name="Path 1728" d="M3.792,155.463c-6.462-5.895-3.3-9.585-.518-14.249,1.733-2.969,6.153-.315,4.443,2.574a44.124,44.124,0,0,0-2.557,4.656,5.692,5.692,0,0,0,2.308,3.182c.711.2,2.025-.649,2.624-1.078,6.858-5.812,5.3-11.035,8.909-10.484,7.124,1.1-7.018,22.759-15.209,15.4m1.336-7.069c-.042.092-.116.993,0,0m.115-.331c-.073.152-.13.32,0,0m.318,1.634c.128.168.154.2,0,0m1.419,1.747c-.118-.019.833.332,0,0m8.99-8.906c-.236.575-.291.731,0,0" transform="translate(0 -50.074)" fill="#ffc200"/>
    <path id="Path_1729" data-name="Path 1729" d="M54.594,199.233c-.691-3.22,1.365-12.585,5.132-11.6,4.774,1.269-1,7.337.119,10.55.491.98.641,1.2.92,1.272,7.014.2,9.126-9.287,12.7-5.667,4.591,4.632-16.171,18.8-18.868,5.446m6.058.218c-.04-.031-.039-.03,0,0h0m.022.017h-.006c.21.173.409.308.006,0" transform="translate(-19.491 -67.127)" fill="#ffc200"/>
    <path id="Path_1730" data-name="Path 1730" d="M141.839,222.769c-3.824-2.215-3.584,4.541-7.357,6.52-4.431,1.392-7.244-2.314-7.018-6.093.216-1.2,1.266-4.243-1.512-4.968-2.2-.58-3.453,1.827-3.189,1.867-2.622,12.732,9.05,18.839,15.835,12.8,1.325-1.151,6.71-8.111,3.24-10.122" transform="translate(-43.801 -78.07)" fill="#ffc200"/>
    <path id="Path_1731" data-name="Path 1731" d="M232.148,252.35c-14.736,10.5-15.965-15.714-8.673-13.809,4,1.052.451,5.169,2.193,10.113.077.159-.07.381,1.782-.353,2.3-1.087,3.878-2.728,6.17-5.3,2.279-2.541,9.8,1.257-1.473,9.348m-6.52-3.478c-.051-.066-.055-.073-.005,0h.005m.055.071,0-.006h-.01l0,.005.01,0m.447-.132c-.412.057-.3.055,0,0m-.311.151c.228.026.286.026-.005-.009l.005.009m.12.241c.051.1.393.3,0,0" transform="translate(-78.424 -85.336)" fill="#ffc200"/>
  </g>
</svg>
