<svg xmlns="http://www.w3.org/2000/svg" xmlns:xlink="http://www.w3.org/1999/xlink" width="265.905" height="70.835" viewBox="0 0 265.905 70.835">
  <defs>
    <clipPath id="clip-path">
      <rect id="Rectangle_584" data-name="Rectangle 584" width="263.275" height="57.134" fill="#ffc200"/>
    </clipPath>
  </defs>
  <g id="Group_1196" data-name="Group 1196" transform="translate(0 13.779) rotate(-3)" clip-path="url(#clip-path)">
    <path id="Path_2050" data-name="Path 2050" d="M.029.012.01.014C-.011-.009,0,0,.029.012" transform="translate(96.628 48.108)" fill="#ffc200"/>
    <path id="Path_2051" data-name="Path 2051" d="M.084.03C.1.066.107.1.079.123A.087.087,0,0,1,0,.136C0,.093,0,.049,0,0,.028.013.056.02.084.03" transform="translate(199.448 54.941)" fill="#ffc200"/>
    <path id="Path_2052" data-name="Path 2052" d="M0,.01.1,0C.073.035.03.022,0,.01" transform="translate(96.658 48.111)" fill="#ffc200"/>
    <path id="Path_2053" data-name="Path 2053" d="M0,0,.038,0A.03.03,0,0,1,0,0" transform="translate(53.978 46.733)" fill="#ffc200"/>
    <path id="Path_2054" data-name="Path 2054" d="M.275,38.978a1.181,1.181,0,0,1,.278-.73c.536-.733,1.526-.8,2.112-1.45.2-.219.612.034.883-.286.17-.2.655.053.851-.312.306-.055.673.059.873-.294a4.032,4.032,0,0,0,1.874-.315c.529.007,1.138.26,1.592-.251a4.749,4.749,0,0,1,.853.01c.333.062.43-.328.74-.294.731-.046,1.531.217,2.176-.257.091-.081.37-.02.53.048.144.061.221.289.411.051.635-.779,1.925-.213,2.825-.4.27-.009.594.143.806-.1.473-.361,1.084-.1,1.636-.189,1.006-.779,2.424.257,3.478-.54.609.005,5.373.032,2.573-.3-.887-.52-1.922-.156-2.894-.257-.863-.8-2.653.235-3.479-.55a.294.294,0,0,0-.264.008c-.229.383-.441-.009-.629.012a1.032,1.032,0,0,1-.956-.461c-.153-.175-.208-.007-.307.051-.51.375-.9-.106-1.275-.423-.233.583-1.128-.589-1.652-.3-.266-.353-.658-.258-1.022-.281-.314-.02-.507-.405-.883-.283-.466-.171-.949-.474-1.41-.692-.02-.01,0-.088,0-.134.3.041.312-.257,0-.278-.221-.511-.438-1.092-1.09-1.2-.142-.276-.529-.12-.694-.388s-.519-.374-.52-.771c-.351-.719-1.3-.192-1.123-1.457.017-.187.039-.529-.145-.62-.629.145-.293-.62-.688-.684.436-.323.16-.494-.24-.437-.631.043-.206-.78-.366-1.123-.1-.375.227-.565.319-.853.162-.456.67-.714,1.091-.925.468-.278.689-.989,1.29-.991.188-.47.749-.1.968-.384.269-.348.787.046.986-.382.359-.087.925,0,1.225-.11a.817.817,0,0,1,.9-.219c.437.114.661-.292,1.026-.294.475,0,.95,0,1.425,0,.43-.5,1.063-.123,1.557-.355.143-.215.816-.523.465-.75-.689-.2-.655,1.049-1.448.326-.194.437-.749.027-.972.392-.3.309-.787-.984-1.452-.728-.229.032-.512-.047-.684.059-.2.125-.384.3-.618.214-.433-.16-.653.3-1.025.288-.437.055-1.021-.171-1.353.163-.194.21-.451.124-.664.1s-.137-.292-.211-.442c-.314-.425.141-.526.306-.778-.153-.157-.369-.567-.575-.272a.983.983,0,0,1-1.35-.263,1.7,1.7,0,0,0,.16-.386c-.372,0-.591-.353-.992-.367a.627.627,0,0,1-.647-.7c-.029-.515-.037-.915.422-1.216.751.062.595-.959,1.212-1.094.338-.043.479-.277.66-.464.252-.261.67.06.883-.285.123-.2.353-.055.52-.113.426-.243.937-.32,1.34-.518.314-.07.591-.2.88-.277.307-.078.482-.433.873-.323.316.089.5-.391.878-.273.291.089.4-.339.737-.286a.808.808,0,0,0,.786-.157c.248-.244.628-.058.944-.112.244-.382.62-.159.855-.306.37-.416.892-.085,1.269-.381.268-.29.78.037.98-.385.328-.011.655-.031.983-.031s.5-.353.882-.3c.353.047.8.179,1.091-.071.348-.295.716-.117,1.066-.193.078-.017.148-.113.2-.186.205-.234.437.541.786.064.373-.618,1.117-.307,1.637-.5.409-.414.9-.127,1.345-.2.038-.006.1.1.139.166-.1.253-1.04-.1-.665.373.428.021,1.737.144,1.115-.574-.117-.121-.064-.253.071-.25.236.072,1.751-.14,1.419.226-.312.094-.819-.035-1.03.2a1.418,1.418,0,0,0,1.641-.226c.083-.1.159-.244.342-.137.392.6.923-.2,0-.062.021-.339.372-.181.773-.29.282-.112.366.434.667.145a1.073,1.073,0,0,1,1.324-.326c.262.157.326.242.387-.126.155-.678.651.27.9-.143.134-.184.346-.058.519-.031.145.348.388.058.125-.059a.093.093,0,0,0-.124.019c0-.509.907-.326,1.212-.276.351.151.611-.595.919-.032.71-.733,1.87.2,2.612-.547.41-.046.857.131,1.227-.127.392-.274.817-.092,1.222-.148.093-.013.219.036.28-.008.789-.542,1.759-.136,2.587-.282.53-.463,1.163-.192,1.744-.269.516,0,.614-.467,1.163-.263.344.066.455-.268.739-.3.535-.063,1.14.242,1.594-.268a4.456,4.456,0,0,1,1.135.019c.486.133.744-.3,1.171-.311.584-.011,1.223.213,1.736-.264a7.891,7.891,0,0,1,1.281.015c.8-.069,1.479-.482,2.308-.283a2.339,2.339,0,0,0,1.03-.269,9.9,9.9,0,0,1,1.843,0c.4.12.492-.382.888-.312a10.077,10.077,0,0,0,1.422.023.963.963,0,0,0,.889-.275.28.28,0,0,1,.263.016c.173.181.281.274.529.045.478-.286.929.315,1.411.218.582.18.739-.886,1.107-.366.335.148.471-.017.705-.187.4-.077.847.119,1.224-.144.484-.328,1.141,0,1.618-.2.6-.49,1.471-.111,2.2-.221.637.162,1.011-.2,1.594-.286.8.065,1.626-.062,2.422.021.8-.075,1.479-.542,2.3-.27a18.65,18.65,0,0,1,4.879-.3C83.9.914,84.3.416,85.148.622c.23.065.416.373.626-.012C86.428.533,87.107.795,87.7.425c2.548-.291,5.319,0,7.939-.1.464.211.733-.6,1.108-.148.24.306.386-.207.5-.06.187.249.53.142.707.38.194.261.252-.119.251-.235.052-.092.061-.311.248-.1.241.342.986.8,1.176.172a1.739,1.739,0,0,1,1.79-.071.252.252,0,0,0,.2-.063c.479-.425.108.525.5.338.649-.546.359-.6,1.019,0,.029.023.188-.039.187-.061-.015-.87,2.137-.234,2.8-.429.5.131.377.4.906.011.524-.1.172.67.45.82.176-.07.1-.338.144-.489.046-.88.9.3,1.3-.112.231-.151.35-.228.519.02a3.684,3.684,0,0,1,2.394-.16c.149.19.229.084.417.021a6.843,6.843,0,0,1,2.09-.092c.361.449.871.251,1.314.255,2.483.069,5.084-.082,7.528.051.367.37.8.216,1.194.227,1.21.106,2.509-.224,3.589.285.18.013.213-.34.414-.2.541.6,2.191-.31,2.368.539.026.483.55-.2.745-.3.65.569,2.182.069,3.032.252.222.058.412.4.628,0,.677.548,2.617.186,3.582.253.418-.085.63.344,1.026.3.746-.083,1.539.081,2.277-.025.428-.09.678.25,1.027.284.424.041.855.01,1.282.01a7.462,7.462,0,0,0,1.422-.02c.476-.094.743.3,1.169.311.679.013,1.4-.2,2.021.265a6.128,6.128,0,0,1,2.59.3c.627.045,1.327-.31,1.893.242.005.006.19-.163.291-.25.36.451.87.2,1.313.263.137.019.342-.033.4.039.622.5,1.454.141,2.186.24.661.7,1.723-.154,2.34.534a3.929,3.929,0,0,0,.844.01c.34-.068.46.287.74.289a4.224,4.224,0,0,1,2.024.262,6.616,6.616,0,0,1,2.308.274c.517.132,1.122-.153,1.587.3.5.027,1.032-.136,1.45.278.588.037,1.213-.146,1.735.278,1.173-.158,2.145.457,3.3.271.431-.033.7.488,1.168.29.079-.033.245-.038.272,0,.355.558,1.146-.025,1.485.546.5.028,1.033-.142,1.45.278.5.01,1.023-.094,1.45.278a5.625,5.625,0,0,0,1.137-.015c.3-.064.516.118.753.232a2.168,2.168,0,0,1,1.57.28s.187-.16.286-.246c.625.58,1.63.149,2.416.268.934.571,2.08.158,3.116.275.135,0,.338-.029.395.043.519.477,1.247.136,1.878.229.84.738,2.055-.2,2.865.534.209-.312.368-.132.616-.009.849.127,1.74-.158,2.541.318.666.031,1.39-.26,1.992.253.787.106,1.809-.306,2.345.435.181.234.264-.115.4-.157.263.025.544-.1.769.183s.486.613.879.14a2.353,2.353,0,0,1,1.821.219c.669.057,1.381-.185,1.992.274a4.119,4.119,0,0,1,1.994.26c.536.107,1.13-.15,1.636.122.611.32,1.283.059,1.885.186.515.56,1.41.056,1.973.3.569.578,1.411-.142,1.922.466a2.906,2.906,0,0,0,.824.019c.389-.1.513.355.873.3.32-.049.664.038.979-.023.372-.071.57.228.87.286.358.068.768-.155,1.078.1.417.337.9.074,1.326.187.259.392.679.3,1.013.241.419-.072.607.387,1.013.3a2.014,2.014,0,0,1,1.5.431c.1.062.144.125.2.032.234-.37.369.094.5.06.465-.122.746.276,1.141.319.655.875,1.189-.629,1.51.277.12.424.782.282,1-.018.031-.04.24.05.367.079-.567.7.393.366.788.465.251.042.481.192.73.258s.552-.1.783.145c.281.3.479.081.684-.112a2.369,2.369,0,0,0,1.44.533c.2-.038.475-.121.651.1.264.327.335-.132.518-.11.388-.113.582.632.858.469.132-.194.237-.192.4-.011.219.238.644-.074.872.285.06.094.337.063.516.076.6-.167.913.412,1.425.263.388-.113.531.375.87.283.5-.137.826.275,1.256.361.337.282.8.077,1.066.464a1.27,1.27,0,0,1,.881.253c.2.12.514-.016.753.227.121.124.507.005.625.129.2.216.515.156.705.363a.451.451,0,0,0,.362.113c.743-.14,1.175.645,1.88.565.365.011.483.635.885.527s.53.374.87.283.479.3.725.261a8.394,8.394,0,0,1,3.246,1.641c.4-.052.52.322.782.477.925.25,1.424.972,2.189,1.458.793.46,1.672,1.249,1.394,2.221-.1.371.326.53.291.847-.013.115-.07.2-.5-.134-.091-.17-.046-.409-.249-.533a5.473,5.473,0,0,1-.5-.458c-.056-.045-.172-.02.354.657h0c-.665-.63-.715-.576-.766-.522.337.424.558,1.19,1.189,1.217a1.415,1.415,0,0,1,.2.672c.252.237.481-.272.685-.4.274.2.1.494.149.742a2.016,2.016,0,0,1,.2,1.634c-.383.451.27.341-.013.588-.145.113-.33.232-.386.387-.022.5,1,.638.77,1.406.16.295.672.039.553.567.316.258.294.737.686.959.348.214-.271.358-.115.634.429.393.106.373.009.731.092.474-.5.773-.308,1.252a15.088,15.088,0,0,1-1.115,1.737c.065.5-1.927,1.456-.563,1.4-.111.493-.862.066-1.195.3-.633.256-1.418.847-2.048.8-.22.014-.481-.119-.655.1-.3.37-.653-.568-.884.165-.026.322-.324.269-.281-.014-.063-.486-.869-.18-1.224-.248-.08.024-.225.2-.054.25.221.037,1.207-.11.854.285-.46-.2-.73.28-1.149.294-.573.019-1.207-.228-1.71.258-.839,0-1.677.009-2.515-.031-.2-.415-.707-.092-.963-.383-.039-.045-.171-.085-.189-.066-.385.425-.885.119-1.321.206a.83.83,0,0,0-.866-.271c-.568.089-1.2-.252-1.716.248a3.082,3.082,0,0,1-.287-.224c-.261.39-.668.236-1.019.24-.978.011-.746-.039-.786.829-.01.221.282.278.25.422-.928.788,1.028,2.518.4,2.578-.482-.023-.344.311-.363.557-.293-.04-.307.253,0,.274v-.274c.307.021.293.314,0,.274a2.246,2.246,0,0,1,.167,1.927c-.057.026-.1.07-.015.07-.173.263.053.134.126.04.024-.058.02-.089.005-.107.768-.4.313-.223.808.38-.181.388-.855-.039-1.083.293.108.185.418.069.538.289-.663.469.732.6-.063,1.156-.239.193-.217.262,0,.38.08.089.089.2-.029.188-.495-.039-.589.542-1.015.588q.011-.285-.281-.274c-.091-.47.908-.106.362-.625-.212-.319.525-.07.471-.392-.184-1.127-1.376.622-1.4,1.017-.282-.015-.389.388-.709.28-.326.535-.517-.249-.961.114.662.624-.254.184-.3.7-.17-.029-.391,0-.5-.1-.172-.153-.271-.186-.4.013-.182.28-.252-.385-.485-.079-.83.947-.241-.34-1.431.711-.517-.073-1.2.2-1.55-.271-.389.507-1.668.271-2.4.146-.04-.045-.088-.071-.074-.013l-.167-.027a.263.263,0,0,0,.191.17c.014.129-.007.212-.041.218-.658-.077-1.1.334-1.681.324-.57-.08-1.282.221-1.723-.24-.278-.142-.536.3-.839.247-.252-.007-.453-.009-.446-.34a.211.211,0,0,0-.274-.214c-.033-.078-.065-.223-.1-.223a8.11,8.11,0,0,1-1.436-.018,3.135,3.135,0,0,0-.248.24c.232-.021.479-.047.608.094-.04.212-.208.2-.384.181a3.373,3.373,0,0,1-.468,0,1.909,1.909,0,0,1-.991.719c.167.087.341.156.515-.072.1-.1.136-.121.206,0a1.9,1.9,0,0,0,1.687.055.5.5,0,0,1,.7.065c.728.736,1.515.561,2.4.622.455.113.7-.369,1.151-.3a9.532,9.532,0,0,0,1.4.015c.6-.127,3.332.4,2.965-.554-.405-.464.932-.035,1-.815.657.268.389,1.211,1.646.725.191-.291.5-.135.748-.185.354-.42-.759-.228-.988-.266.189-.969,1.356-.168,1.406-.822.258-.023.6.044.756-.091.54-.266,1.367-.155,1.213-1h.563q-.011.284.281.274l-.395.795c-.368-.017-.586.35-.994.327-.609.1-1.366.591-.145.544.223.507-.59.534-.9.571a.093.093,0,0,0,0,.185,2.868,2.868,0,0,0,2.281-.466c.357-.061.592-.443.993-.313.1-.282.284-.317.562-.274-.1.282-.284.317-.562.274.01.276-.237.426-.407.5-.422.094-.614.434-1,.614-.61.374-1.305.457-1.884.85a1.486,1.486,0,0,1-.871.582c-.248.385-.85.005-1.064.466a1.874,1.874,0,0,0-1.163.249c-.252.178-.737-.138-1.01.245-.815.173-1.879-.216-2.55.279-.006.008-.122-.072-.191-.1-.361-.16-.449.455-.883-.025-.372-.382-.568.414-.868-.038l-1.222-.03c-.263.385-.669.232-1.019.236-1.264-.147-3.541.347-4.529-.225-.4-.036-.807-.166-1.15.191a.382.382,0,0,1-.359-.036c-.144-.145.118-.176.135-.281.011-.287-.312-.174-.5-.191a.347.347,0,0,0-.009-.088.981.981,0,0,1-.5,0c-.516-.01-.755.617-1.192.012-.607.725-1.85-.127-2.509.483-.019.021-.135-.026-.194-.06a1.238,1.238,0,0,0-1.389.126c-1.094.008-2.187.012-3.281,0-.257-.015-.146-.378-.317-.531-.275.247-.338.848-.67.424-.3-.316-.782.048-1.007-.369-.038-.071-.253-.068-.387-.07-.811.095-1.773-.241-2.484.21-.115.1-.174-.09-.186-.223-.122-.589-.266.125-.5-.078-.316-.329-.8-.139-1.206-.19-.011-.328.024-.666-.287-.41-.413.274-1.838.792-1.933.132.466-.236-.141-.367-.064,0h.064c-.461.17-.831.535-1.293.077a.726.726,0,0,0-.76.054c.069.049.141.145.2.139.308-.008.479.249.617.45-.419.38-.571-.383-.9.027-.252.222-.861.139-.773-.29.09-.128.4-.19.545-.31-.069-.049-.153-.152-.2-.138-.464.124-.732-.328-1.139-.356-.019,0-.055-.07-.045-.092.11-.211.447.008.492-.3-.256-.211-.682-.05-1.092-.193-.031-.066-.1-.123-.084-.03h0c-.284-.189-.137.1,0,.136.038.7.521.639.9,1a.714.714,0,0,1-.773.018c-.062-.068-.134-.179-.2-.181-.662.053-1.533-.289-1.725.524a.808.808,0,0,1-.115-.23c-.026-1.242-1.556-.078-2.224-.858-.583.071-1.808-.185-2.109.185-.339.316-.07-.624-.683-.431-.219.107-.023.216.059.278.542.288-2.288.644-2.4.454-.221-.34-.336.014-.51.053-.541.1-1.533,0-.439-.38a.632.632,0,0,0-.931.073l-1.812-.006c-.182-.3-.566-.114-.743-.247a2.311,2.311,0,0,1-1.065-1.2c-.169-.416-.472.448-.867-.037a.9.9,0,0,0-.369-.129c-.359.076.3.477-.05.535-1.386.6-.449,0-1.614.014-2.228.267-1.713-.8-2.442-.484-.024.024-.054.083-.045.093,1.075.913-.053.617-.77.676-.557.087-.227-.513-.738-.553-.174-.071-1,.095-.716-.241.2-.176.355-.452.617-.064.361.035.9.137,1.15-.257a4.374,4.374,0,0,1,1.273.113c.067.176.549.182.449.059.636.077,1.144.1.875-.139a.756.756,0,0,1-.585-.3.714.714,0,0,1-.493.27c-.806-.573-1.264.023-2.071-.514-.266-.261-.438.226-.7.226-1.393-.655-1.474.018-2.741,0-.4-.493-.951-.215-1.438-.264-.03,0-.077.056-.1.095-.011.022.017.091.03.092.364.025.584.4.985.363.489.016,1.074-.14,1.5.12-.22.337-.785-.039-.844.428h-.991c-.211-.31-.639-.268-.887-.534-.234.532-.766-.429-1.27.122a.3.3,0,0,1-.474.065c-.427-.439-1.123.034-1.463-.571-.317-.4-.783-.185-1.073.076-.839-.084-1.88.252-2.576-.256-.337-.1-.753.138-1.041-.22-1.59-.135-3.189-.052-4.783-.072-.354-.769-.781.384-1.347-.08-.162-.086-.254-.249-.409-.018-.393.241-1.039.031-1.518.1-.2-.32-.382-.193-.627-.016-1.123.264-.355-.662-.86-.809-.284.03-.734-.1-.932.121.123.21.523.1.739.2.146.127.155.5-.126.5-.224.045-.314-.2-.465-.228-.125-.023-.28.167-.436.224-.842.033.509-1.017-.458-.808-.172.043-.108.423-.2.452-.333.089-.129-.217-.216-.307-.162-.185-.619-.253-.564.114a4.368,4.368,0,0,1-2.817.145,7.754,7.754,0,0,0-2.368-.145c-.97-.612-2.143-.1-3.153-.291-1.06-.653-2.274.118-3.306-.624-.053-.917-2.073-.318-2.769-.469-.423.012-.69-.424-1.171-.3-.779.1-1.624-.024-2.42.018-.279,0-.249-.2-.267-.379-.043-.452-.049-.455-.471-.452-1.3-.077-.084.44-.619.554-.871-.139-2.051.323-2.743-.26-.479.5-1.253.169-1.872.261-.8-.122-1.787.307-2.443-.263l-.3.231c-.381-.629-1.587.212-1.554-.671a.308.308,0,0,0-.186-.061c-.412.525-.564-.03-.939-.07a.984.984,0,0,1,.27-.432c-1-.472-3.288.327-4.1-.379l-1.238.048c-.289.359-.694.159-1.048.207-.521-.589-1.35-.122-2.01-.29-.343-.076-.443.314-.737.291a.967.967,0,0,0-.639.18,1.822,1.822,0,0,1-1.545-.16c-.475-.109-1.025.127-1.439-.3-.538.133-1.536-.242-1.787.278-.048,0-.118-.02-.139,0-.428.609-.744,0-1.279-.137-.946-.658-1.861.892-2.788.309-.388-.414-1.223.163-1.226-.535,0-.062-.123-.2-.156-.186-.542.16-.9-.4-1.458-.315-.421.061-.948.236-1.325-.2-.238.08-.414.3-.718.236-.35-.07-.77.134-1.028-.269-.716.56-1.541.167-2.459.25a.175.175,0,0,0,.008-.119c-.126-.241-.5-.121-.728-.121-.28.263.311.277.606.251.611.559-4.667.227-5.2.226-.115-.063-.1-.12.019-.2.8-.943-1.05-.3-1.2-.767.141-.323,2.009.219,1.5-.365-.952-.141-2.059.3-2.886-.275-.037-.038-.239.069-.361.117-2.314-.287-5.133-.061-7.654-.127-.237,0-.558.1-.7-.017-.5-.409-1.068-.248-1.607-.254-1.946-.011-3.9-.021-5.841,0-.456.214.12.618-.737.549-.847.06-1.025.576-2.21.277-.5-.044-1.045.156-1.449-.279-2.087.189-.523-.655-1.876-.555-.228-.065-.636.061-.761-.149.244-.3.889.105,1.091-.3-2.052-.266-4.366-.014-6.5-.113-.233,0-.3.205-.459.265a.686.686,0,0,1-.582-.249c-.215.4-.412.017-.624.006-.561.084-1.839-.255-2.077.261-.522.108-1.13-.253-1.576.272-.3-.413-.518-.2-.341.216.17.333.176.343-.147.343-.2-.007-.546.025-.442-.275.358-.142.059-.377-.061-.122a.091.091,0,0,0,.023.125c-.222.021-.4-.073-.56.09a.509.509,0,0,1-.344.174c-.313-.034-.505.2-.747.259A1.116,1.116,0,0,1,51.6,47c-.332-.222-.6.566-.917.025-.167.058-.249.392-.41.169-.55-.484-1.376.132-1.944-.457-.04-.039-.2-.015-.26.032-.432.449-1.182.16-1.754.24a4.988,4.988,0,0,0-1.136.017c-.475.114-.73-.385-1.171-.305-.092.017-.208-.1-.313-.15.273-.305,3.854.141,2.839-.391-.543-.141-5.308.314-4.7-.274.247-.081,1.934.185,1.379-.278-1.757-.024-3.517,0-5.275-.008-.166,0-.261-.087-.253-.248.17-.462-1.13-.348-.761-.077.138.05.657.1.36.3-.5.2-.838-.223-1.255-.342-.51-.282-.572.553-1.088.327-.236-.142.031-.209.092-.278.242-.279-.483-.327-.48-.049.255.992-5.425-.2-5.862.651a2.368,2.368,0,0,0-2.343-.021c-1.91.173-.416.3.393.351.364.386-1.571.1-1.825.155-.182-.047.15-.265.167-.384-.591-.429-1.048.54-1.647.069-.627-.486-.51.294-.889-.035-.6-.367-1.411.026-2.078-.15-.817-.131-1.279.641-2.048.576-.031,0-.1.069-.1.087.063.33.438.13.672.2.285.189-.271.344-.426.388.112.051.236.16.335.141.414-.078.62.365,1,.353.466.326-2.936.336-2.928-.045a.558.558,0,0,0-.533-.006c-1.206.641-2.816.092-4.176.264-.382.106-.825-.2-.656-.589.1-.1.133-.182,0-.194-.42-.037-.843-.033-1.265-.051C9.989,47,9.645,46.395,9.289,47c-.28-.471-.777-.071-1.092-.46-.059-.1-.341-.058-.52-.086-.268-.042-.577.119-.8-.122-.276-.3-.625-.092-.933-.159-.542-.325-1.069-.855-1.786-.839-.063.005-.14-.111-.2-.176-.162-.164-.448-.049-.6-.288a.828.828,0,0,0-.679-.408c-.038,0-.095-.145-.1-.226-.031-.442-.275-1.088-.791-1.19-.016,0-.042-.088-.038-.09.445-.231-.045-.419-.024-.618.062-.676-.661-1.08-1.088-1.5-.5-.312-.225-.947-.627-1.286-.063-.167.246-.425.267-.571M8.522,26.716c-.243-.014-.463-.332-.7-.233-.126.061-.114.109-.024.194C8.138,27,8.133,27,8.912,27c.04,0,.221-.014.4-.037.36-.307-.637-.159-.79-.25m4.95-9.071c-.062.149.14.129.272.207.415-.228-.043-.448-.272-.207m4.513-.506.1.1.184-.1c-.085-.147-.174-.053-.285,0m1.289.428c-.136-.105-.2-.323-.432-.29l-.007-.006c.057-.049-.058-.213-.159-.249a1.746,1.746,0,0,1,.072.166c-.228-.2-.167-.023-.031.086a.256.256,0,0,0,.062.009c.113.447-.5.073-.508.55h-.285c-.066-.54-.735-.041-.954-.512-.348.108-.122.52-.191.788-.051.368.631.4.575,0a2.89,2.89,0,0,0,.571-.278c-.042.29.264.3.285,0,.268-.068,1.284.207,1-.266m.193-.756c-.062.149.14.129.272.207.415-.228-.043-.448-.272-.207m1.23-6.758-.1.179.1.1c.054-.108.151-.195,0-.278m1.142,6.391-.1.1.1.179c.151-.083.055-.17,0-.278m.143-2.084c.111.053.2.147.285,0-.111-.053-.2-.147-.285,0M20.9,17.374a1.218,1.218,0,0,1-.091-.535c-.119-.21-.291.027-.251.16h.127c.074.149.136.27.189.37a.439.439,0,0,1-.223-.126c-.218-.628-.31.1-.822.057-.125.022-.136.123-.054.187.282.442.8.337,1.277.345-.05-.138-.09-.255-.122-.357.193.355.229.353.264.358a1.246,1.246,0,0,0,1.325-.731c-.547-.345-1.147.349-1.62.271m2.124-.88c-.238.016-.183.337-.074.45.086.071.253.05.338.063.983-.18-.092-.222-.264-.513m1.118.366c.357.095.459.228.7,0-.239-.228-.339-.1-.7,0m236,12.932c-.078-.161-.5-.145-.471.086.076.159.517.141.471-.086m-2.625-3.928.1-.176-.1-.1c-.056.108-.147.193,0,.274M255.5,37.873l.181-.1c-.083-.143-.17-.054-.281,0l.1.1m-7.257,1.546c.352.093.452.224.688,0-.235-.224-.336-.093-.688,0m1.391-.411-.1.176.1.1c.056-.108.147-.193,0-.274m.141-15.745.1.1.181-.1c-.083-.143-.17-.054-.281,0m.273,16.406c.061-.122-.116-.2-.251.046.088-.018.17-.033.251-.046m-.162.13a.431.431,0,0,0,.109-.067c-.132.052-.115.071-.109.067m1.176-.491c-.319.03-.776-.161-1,.119-.126.263.389.071.534.128-.112.028-.2.053-.284.075.629-.079.949-.048.75-.323m.172-.485c-.061.146.138.127.268.2.409-.225-.043-.442-.268-.2m.24.608c.5.57.324.344.7.174-.5-.28-.605-.229-.7-.174m.292-.168c.192.148.327.254.428.334a1.067,1.067,0,0,1,.112-.041c-.044-.312-.261-.252-.539-.293m.539.415-.032-.018c.144.115.181.144.194.137.285-.136-.25-.411-.162-.119m.159-.673a.237.237,0,0,0,.046.007c-.219-.325-.209-.14-.046-.007m-.041-.248c.054.1.1.185.139.251.087-.033-.032-.214-.139-.251m.287.254c-.071-.032-.112-.011-.124.037.1.167.147.21.163.2.169-.1.054-.175-.039-.238m-4.343,1.909c.489-.121.633.452,1.1.166-.034-.12-.406-.332-.164-.378.4.041,1-.145,1.3.087-.137.24-.63.022-.543.438.124.543.576-.029.839-.034-.064.393.638.359.563,0a2.677,2.677,0,0,1,.273.025.139.139,0,0,0,.011.111c.1.188.568.1.625.138l-.223-.167c.425.1.761.237.8.162a.229.229,0,0,0,.2-.286c.124-.614-.3-.529-.772-.463.018.064.016.148.058.189.3.3-.143.317-.421.3-.312-.232-.4-.286-.553-.281v-.274c.137,0,.336.056.4-.01.359-.431.916-.2,1.4-.271.077-.024.205-.209.042-.25-.579.127-1.866-.254-2.121.258-1.348-.838-.888.472-1.871-.22-.231.346-.6.152-.893.229-.844.234-1.3.645-.05.534m-1.171-.448c-.078-.161-.5-.145-.471.086.076.159.517.141.471-.086M244.57,38.46c.147-.08.055-.166,0-.274l-.1.1.1.176m-.985-.137-.181-.1-.1.1c.111.054.2.143.281,0m-1.976,7.391c.1-.282-.475-.968-.561-.4.006.207.388.628.561.4m-.7-7.221c.871-.188-.051-.464-.371-.215-.05.164.254.143.371.215m-1.406-.307c.148-.08.056-.166,0-.274l-.1.1.1.177m-.7-.137-.181-.1-.1.1c.111.054.2.143.281,0M236.132,36c-.056.108-.147.193,0,.274l.1-.176Zm0,13.965c.147-.08.055-.166,0-.274l-.1.1.1.176m-4.363.274c.2-.015.473.093.512-.184.006-.02-.059-.085-.093-.085-.276-.007-.552-.011-.827,0-.3.283.192.288.408.266m-.419,1.1c.055-.108.147-.193,0-.274l-.1.177.1.1m-.563,1.643c.055-.108.147-.193,0-.274l-.1.176.1.1m-.241-22.14-.181.1c.083.143.17.054.281,0l-.1-.1m-.141,19.421c.409-.225-.043-.442-.268-.2-.061.146.138.127.268.2m-.421,2.132.1-.1c-.111-.054-.2-.143-.281,0l.181.1m-1.166-10.092-.1.1.1.177c.147-.081.056-.166,0-.274m.844,9.036c.055-.108.147-.193,0-.274-.056.108-.147.193,0,.274m-1.057,1.643c.143.033.241-.067.354-.137a.652.652,0,0,0-.844,0,.56.56,0,0,0,.49.137m.213-2.738c.293-.066.835.177.929-.187-.477-.224-1.206-.025-1.763-.079-.344.428.592.223.834.266m-1.688,2.19c.147-.08.056-.166,0-.274l-.1.1.1.176m-.141-2.875c-.111-.054-.2-.143-.281,0,.111.054.2.143.281,0m8.579,4.518c.055-.108.147-.193,0-.274-.056.108-.147.193,0,.274m-.188,2.012c-.078-.161-.5-.145-.471.085.076.16.517.141.471-.085m-.195-.624c.409-.225-.043-.442-.268-.2-.061.146.138.127.268.2m-2.009.118-.213-.137c-.131.025-.273.014-.35.137.206.093.38.207.563,0m-2.206-.591c-.033.23.393.247.471.085.046-.226-.4-.245-.471-.085m.658.724c.256-.157-.1-.339-.288-.27-.789,0-.151.405.288.27m-2.25,0,.1-.177-.1-.1c-.055.108-.147.193,0,.274m-.571-.548c.194.017.9.04.571-.27-.369-.007-.739-.01-1.107,0-.352.338.317.267.536.266m-.835.548.1-.177-.1-.1c-.056.108-.148.193,0,.274m-1.04-.739-.235-.083c-.332-.012-.341.362-.132.548.143-.144.318-.26.366-.465m-.664,1.293c.1-.016.608-.017.352-.236-.331-.334-.352-.335-.675,0-.2.2.143.211.323.232m-.912-.281.178-.182c-.862-.371-1.7.3-.178.182M223.9,41.062l-.181-.1-.1.1c.111.054.2.143.281,0m-.7-.137c-.056.108-.147.193,0,.274l.1-.176-.1-.1M223.148,55.9a.569.569,0,0,0,.108.026c.1-.083,0-.152-.081-.208-.071-.033-.112-.011-.124.036a1.484,1.484,0,0,0,.1.145m-.122-.186.021,0a.119.119,0,0,0,.015-.037.287.287,0,0,0-.046.023l.01.017m-.021-35.69c.046-.227-.4-.245-.471-.085-.033.23.393.247.471.085m-1.869,32.553a1.1,1.1,0,0,1,.212.007c.149.033.138.1.082.188.208.111.333.187.033.523a.825.825,0,0,1-.049.069.414.414,0,0,0,.228.032c.146-.242.4-.248.646-.272a.476.476,0,0,1,.083-.166c.306-.336.075-.488-.272-.534-.118.079-.174.082-.352-.008l-.012-.005a1.427,1.427,0,0,0-.631.136c.01.011.022.021.032.031m1.015-23.611c-.145-.149-.965-.174-1.035.083.071.16.272.053.363.111.259.349.567.189.672-.195m-2.1.418c.4.185.554-.137.382-.45-.139.052-.646.327-.382.45m-.1-.641-.181-.1-.1.1c.111.054.2.143.282,0m-1.085.429c.409-.225-.043-.442-.268-.2-.061.146.138.127.268.2m.028-15.15c.925-.1,1.449.423,2.386.344,0-.025.846.053.551-.223-.178-.174-.337-.462-.6-.076a.274.274,0,0,1-.255.019c-.549-.642-1.485.137-2.012-.541-.248.062-1.537-.2-1.1.267.346.06.746-.142,1.031.21m-.959,15.036c.046-.226-.4-.245-.471-.085-.033.23.393.247.471.085m-.7-15.553.181-.1c-.083-.143-.17-.054-.281,0l.1.1m-.8-.234c.056-.108.147-.193,0-.274l-.1.176.1.1m-1.266,14.923.1.1.181-.1c-.083-.143-.17-.054-.281,0m0,.548c.111.054.2.143.281,0-.111-.054-.2-.143-.281,0m.576,26.721a3.689,3.689,0,0,0-1.375.076.381.381,0,0,1-.115.067c.519.013,1.347.179,1.49-.143M214.374,56.6l-.184-.1-.1.1c.111.053.2.147.285,0m-1.167-1.3-.037-.02c-.055.054-.092.03-.171-.01l-.035-.018a.205.205,0,0,0-.037.048c.111.054.2.143.281,0m-1.072-27.334c.225.238.677.021.268-.2-.13.077-.329.058-.268.2m-1.213-4.315-.247.159c.183.207.357.093.563,0l-.316-.159m-.247,4.266.181.1.1-.1c-.111-.054-.2-.143-.281,0m1.125,0-.181-.1-.1.1c.111.054.2.143.281,0m-1.263,27.976c.282-.034.738.124.932-.086-.069-.313-.435-.148-.669-.184s-.522.058-.263.27m-.425-32.358-.181-.1-.1.1c.111.054.2.143.281,0m-2.018,32.227c-.183-.2-.528-.092-.8-.152-.2.049-.493-.029-.63.152a2.1,2.1,0,0,0,1.427,0m-3.748-32.638c.056-.108.147-.193,0-.274-.056.108-.147.193,0,.274m-.563-2.191c.056-.108.147-.193,0-.274l-.1.176.1.1m-1.125.548c.056-.108.147-.193,0-.274l-.1.176Zm.141-.959-.181-.1-.1.1c.111.054.2.143.281,0m-.842,34.822c.054-.108.151-.195,0-.278-.055.108-.151.2,0,.278m-.428-.139a1.466,1.466,0,0,0-.355-.129c-.067-.007-.143.083-.216.129.185.209.362.095.571,0M200.8,53.12c-.03-.132-.065-.17-.275,0,.093,0,.185,0,.275,0m-.5,0c-.2-.18-.483-.116-.72-.116a1.539,1.539,0,0,0,.72.116m-1.625,2.085-.184-.1-.1.1c.111.053.2.147.285,0m-2.724.126c.138-.065.4-.52.45-.129.334.349.882-.288,1.337-.2.1-.035.03-.181-.037-.185-.531.14-.89-.476-1.423-.306-.544-.125-.571.514-.328.821m-1.909-.446c.246.228.5.158.768.18.879.083.279-1.034-.272-.279-.389-.5-.94-.207-1.418-.269-.027,0-.081.112-.1.178.229.267.772-.105,1.023.189m-2.405.136c.266-.179,1.082-.339.664-.741-.224.171-.753.215-.761.511.032.077.065.153.1.229m-.811-.234c.054-.108.151-.2,0-.278-.055.108-.151.195,0,.278m-.571-.278.1-.1-.1-.179c-.151.083-.055.17,0,.278m-1.427.278c.054-.108.151-.2,0-.278-.054.108-.151.195,0,.278m-.463-.438c-.1-.167-.182-.053-.248.038a.089.089,0,0,0,0,.1c.219-.084.257-.125.249-.139m-.254.289a.119.119,0,0,0,.016-.079c-.6.272-.154.3-.016.079m-.045-.131c-.143-.041-.484.072-.5.165.223-.068.381-.121.5-.165m-2.134.518.184-.1c-.085-.147-.175-.053-.285,0l.1.1m-.487-.523c.165-.042.654.042.966.029a3.582,3.582,0,0,0,.441.222c.29-.138-.253-.417-.164-.121-.081-.038-.16-.072-.237-.1.153-.011.254-.051.231-.151-.227-.265-.477-.111-.9-.147.176.081.321.151.443.21-.711-.264-1.156-.259-.783.061m-3.182-.549c.054-.108.151-.2,0-.278-.055.108-.151.195,0,.278M175.981,7c.151-.083.055-.17,0-.278l-.1.1.1.179m-3.215,44.465c-.046-.18.45-.132.632-.131a1.361,1.361,0,0,0,.38-.006c-.157-.305-.645-.054-.936-.151-.5-.062-.494-.077-.592.025-.215.276.2.274.515.263m-.822,1.623.184-.1c-.085-.147-.175-.053-.285,0l.1.1m-.532-1.905c.236.038.5-.038.289-.269a.47.47,0,0,1-.447-.165c-.063-.025-.125-.053-.186-.083a.24.24,0,0,0-.035.059.312.312,0,0,0,.379.457m-.187,1.763c-.079-.164-.511-.147-.478.087.077.162.525.143.478-.087m-.238-1.069-.1-.1-.184.1c.085.147.175.053.285,0m-.755,1.21.184-.1c-.085-.147-.174-.053-.285,0l.1.1m-1.345-.278.1-.1c-.111-.053-.2-.147-.285,0l.184.1M167.418,50.9c.054-.108.151-.195,0-.278l-.1.179.1.1m-3.185,1.068a.412.412,0,0,0,.473-.095.373.373,0,0,0-.571,0l.1.095m-1.1.044c.055-.108.151-.195,0-.278l-.1.179.1.1m-1.149,0c.451.043.921.008.6-.539-.573.614-.332-.239-.682.079a.491.491,0,0,1-.477.187c-.328.313.366.291.564.273m-1.134,0c.055-.108.151-.195,0-.278l-.1.179.1.1m-.945-.09c.229.241.687.021.272-.207-.132.078-.334.059-.272.207m-.672-.284c.047-.23-.4-.249-.478-.087-.033.234.4.251.478.087m-3.086.408c0,.076.077.151.119.227.7-1.294.642.249,1.554-.386.189-.18.451-.094.6-.285-.441-.319-1.1-.075-1.633-.146,0-.007,0-.014,0-.021-.459.09-1.126-.085-1.483.167.192.3.884-.092.848.445M155,51.6c-.111-.053-.2-.147-.285,0,.111.053.2.147.285,0m-2.566.295a.138.138,0,0,0-.01.039c.456-.056.151-.286.01-.039m-.008.15c-.994.217-.054.407,0,0m-.214-.1c-.133-.117-.2-.3-.352-.018.139.013.254.018.352.018m-.78.071c.055-.108.151-.195,0-.278l-.1.179.1.1m-5.953-.318.1-.1c-.111-.053-.2-.147-.285,0l.184.1M137.3,50.206l-.184-.1-.1.1c.111.053.2.147.285,0m-1-33.763-.1.1.1.179c.151-.083.055-.17,0-.278m-1.13,33.893c.469.012.939.01,1.408,0,.375-.4-.627-.252-.849-.274-.222,0-.892-.083-.559.27m-.3-33.615.1-.1-.1-.179c-.151.083-.055.17,0,.278m-1.142,0,.1-.1-.1-.179c-.151.083-.055.17,0,.278m-1.115-.715-.095.092a.164.164,0,0,0,.131-.029c-.012-.02-.025-.041-.036-.063m.141,1.232.085.046c.05,0,.1,0,.151,0l.045-.044c-.111-.054-.2-.143-.282,0m.422-1.232-.093.091a.148.148,0,0,0,.131-.024c-.012-.021-.026-.044-.038-.067m-.452,34.06c.214.007.685.054.437-.269-.161-.337-.489.051-.86,0-.295.231.195.321.423.273m-.764-32.8c.084-.055.118-.109.119-.155a.326.326,0,0,0-.116.078.089.089,0,0,0,0,.077m-.1,32.671a1.089,1.089,0,0,0-.463-.383l-.1.231c-.025.353.375.332.562.152m-.744-32.7.184-.1a.221.221,0,0,0-.028-.039.326.326,0,0,0-.154.091.125.125,0,0,0-.009.039l.008.008m-.408-.071-.066-.064c-.019.038-.043.073-.06.106a.1.1,0,0,0,.126-.042m-.122,32.623c.055-.108.151-.2,0-.278l-.1.179.1.1m-.612-2.819.184-.1c-.085-.147-.175-.053-.285,0l.1.1m-.256-29.736a.17.17,0,0,0,.076-.128l-.1.093.02.035m.29-15.8c.188.07.552-.114.292-.273-.445-.138-1.094.278-.292.273M110.9,10.886c.054-.108.151-.195,0-.278l-.1.179.1.1m-5.138-9.448-.1.179.1.1c.054-.108.151-.195,0-.278m.1,45.754c.047-.23-.4-.249-.478-.087-.033.234.4.251.478.087M105.475.6c.055-.108.151-.195,0-.278l-.1.179.1.1m-.143.695c-.111-.053-.2-.147-.285,0,.111.053.2.147.285,0m-.755-.735.184-.1c-.085-.147-.175-.053-.285,0l.1.1m-.435,46.628c.047-.23-.4-.249-.478-.087-.033.234.4.251.478.087m-2.664-45.2c.054-.108.151-.2,0-.278l-.1.179.1.1M100.908.6c.054-.108.151-.195,0-.278l-.1.179.1.1m-.358,31.669c.066.007.143-.083.215-.13-.185-.21-.362-.095-.571,0a1.47,1.47,0,0,0,.356.13M100.48.744l-.184-.1-.1.1c.111.053.2.147.285,0m-.571,31.4-.1-.1-.184.1c.085.147.175.053.285,0m-.571,14.728-.1-.1-.184.1c.085.147.175.053.285,0m-.759.651a.412.412,0,0,0,.473-.095.373.373,0,0,0-.571,0l.1.095M97.2,44.787c.054-.108.151-.195,0-.278-.055.108-.151.2,0,.278m-.9,2.739.184-.1c-.085-.147-.174-.053-.285,0l.1.1m-.53.04c.055-.108.151-.2,0-.278l-.1.179.1.1m-2.284-2.779c-.055.108-.151.195,0,.278.055-.108.151-.2,0-.278m1.559,3.335c.205-.014.479.092.533-.183-.284-.225-.844-.041-1.217-.086-.377.388.456.25.684.27m-.355-.564c.087.093.265-.026.553-.312.5-.31-1.835-.261-1.884-.111.355.363.953-.055,1.331.423m-2.06-2.493c.055-.108.151-.2,0-.278-.055.108-.151.195,0,.278m-.285,2.5c-.115.167-.371.236-.379.466.348.35.735-.177.379-.466m-1.713-2.779c.054-.108.151-.195,0-.278l-.1.179.1.1M90.489,37.7c-.111-.053-.2-.147-.285,0,.111.053.2.147.285,0m-1.044.1c.24.032.257-.388.089-.466-.236-.046-.256.39-.089.466m-1.1-21.909-.1.1.1.179c.151-.083.054-.17,0-.278m.005,21.675c.239.045.522-.058.263-.27-.279-.015-.559-.011-.839,0-.332.314.379.291.576.274m-.862-21.4c.151-.083.054-.17,0-.278l-.1.1.1.179m-.285-2.5c.054-.108.151-.195,0-.278l-.1.179.1.1M85.779,44.787c.054-.108.151-.195,0-.278l-.1.179.1.1m-1.57-15.422-.184-.1-.1.1c.111.053.2.147.285,0m-.571-16.117-.1-.1-.184.1c.085.147.174.053.285,0m-.285,16.117-.184-.1-.1.1c.111.053.2.147.285,0m-.856,0c-.111-.053-.2-.147-.285,0,.111.053.2.147.285,0m-1.57,3.2c.151-.083.055-.17,0-.278l-.1.1.1.179m-.1-3.038c.415-.228-.043-.448-.272-.207-.062.148.14.129.272.207m-.082-16.235-.1-.179c-.151.083-.054.17,0,.278l.1-.1m.041-.874-.184-.1-.1.1c.111.053.2.147.285,0m-.428,24.592.1-.1-.1-.179c-.151.083-.054.17,0,.278M74.932,12.276c-.054.108-.151.195,0,.278.054-.108.151-.195,0-.278M77.5,29.226l-.1.179.1.1c.054-.108.151-.195,0-.278m2.467.3c.415-.228-.043-.448-.272-.207-.062.148.14.129.272.207m-.047-16c.128-.24-.122-.359-.3-.436l-.256.15c.137.119.388.573.554.285m-.612,15.885c.047-.23-.4-.249-.478-.087-.033.234.4.251.478.087m-.993.056.184-.1c-.085-.147-.174-.053-.285,0l.1.1M78.5,16.3l-.184-.1-.1.1c.111.053.2.147.285,0m.006-4.029.28-.139a.662.662,0,0,0-.857,0c.191.161.287.154.577.139m-1,25.843c.054-.108.151-.2,0-.278l-.1.179.1.1m-.673-25.546c.415-.228-.043-.448-.272-.207-.062.148.14.129.272.207m-1.176.126c.165-.112.408-.136.563-.286-.114-.07-.212-.17-.357-.137-.3-.052-.59.067-.494.4.083.137.164.131.288.019m-.523,31.443c.228.241.687.021.272-.207-.132.078-.334.059-.272.207m.184-27.88c-.079-.164-.511-.147-.478.087.077.162.525.143.478-.087m-.38-3.152c.151-.083.054-.17,0-.278l-.1.1.1.179M74.5,44.093c-.111-.053-.2-.147-.285,0,.111.053.2.147.285,0m-.428-31.539c.054-.108.151-.195,0-.278-.054.108-.151.195,0,.278M63.524,4.482c-.55-.4-.594-.253-1,.14.207.231.367.14.724.151.194,0,.368,0,.533-.01-.384-.008-.308-.019-.229-.036.158-.078.141-.216-.032-.246m1.662-1.058-.1.1c.111.053.2.147.285,0l-.184-.1m.79-.062-.321.161c.209.095.386.21.571,0l-.25-.161m3.777.618-.1.1c.111.053.2.147.285,0l-.184-.1m0,.834-.1.1c.111.053.2.147.285,0l-.184-.1m-.048.883c-.062.148.14.129.272.207.415-.228-.043-.448-.272-.207m.659.466-.1.179.1.1c.055-.108.151-.195,0-.278m.188,5.652c-.033.234.4.251.478.087.047-.23-.4-.249-.478-.087m-.045,1.572-.025-.014a.18.18,0,0,0,.017-.114.326.326,0,0,0-.322-.15c.052.063.092.117.126.167-.225-.111-.286-.082-.343-.052a1.051,1.051,0,0,0,.428.193c.194.4-.4.208-.738.248l-.007-.006c.057-.049-.058-.214-.159-.249a.8.8,0,0,0,.074.168c-.229-.206-.169-.026-.032.084a.164.164,0,0,0,.094.005c.428.514,1.5.134,2.188.25.484-.758-.874-.492-1.3-.53m1.427-.695.216.139.355-.139c-.209-.095-.386-.21-.571,0m.446.7c-.377.388.456.25.684.27.205-.014.479.092.533-.183-.284-.225-.844-.041-1.217-.087m.352,31.092c0,.013,0,.025,0,.038.381-.074.9.074,1.2-.154-.239-.245-.791.013-1.024-.2-.33-.233-.515-.282-.8.02-.212.221-.426-.149-.666-.165-.332.76.871.383,1.3.466m-2.185.041c.415-.228-.043-.448-.272-.207-.062.148.14.129.272.207m-.611-.158-.184-.1-.1.1c.111.053.2.147.285,0m-.469,1.766.184-.1c-.085-.147-.175-.053-.285,0l.1.1M69.22,3.943a2.459,2.459,0,0,1-.3.255c-.259-.4-.674-.218-1.028-.258-.468-.053-.8.4-1.308.294-.485.031-2.967-.27-2.924.256a3.568,3.568,0,0,0,.991-.012c.218-.061.33.069.444.178.68-.107.806-.238,1.036-.174.384.175,1.329-.293,1.244.408a.13.13,0,0,0,.08.1c.318.013.637.025.954.012.166-.119.042-.721.4-.354.236.3.776-.5.411-.7M66.647,5.051c.188.07.552-.114.292-.273-.445-.138-1.094.278-.292.273m2.148.695c.111.053.2.147.285,0l-.184-.1-.1.1m.285,7.781c-.239-.228-.339-.1-.7,0,.358.095.459.228.7,0m-.64,32.651.355-.139c-.209-.095-.386-.21-.571,0l.216.139m-.359-16.951.1-.179-.1-.1c-.054.108-.151.195,0,.278M68.064,13.39c-.061-.028-.1-.015-.118.018.112.4.392.116.118-.018M68.081,12c-.055.108-.151.2,0,.278.055-.108.151-.2,0-.278m-.143,1.513a.662.662,0,0,0,0-.1.144.144,0,0,0,0,.1M67.408,46.2c.415-.228-.043-.448-.272-.207-.062.148.14.129.272.207m.2-17.151c-.079-.164-.511-.147-.478.087.077.162.525.143.478-.087m-.634-15.315c-.365.223-.157.244.022.157.1-.081.124-.138.106-.174.335-.034.358.027.553-.326h.285c0,.006,0,.01,0,.015-.007-.3-.242-.331-.29-.015-.283-.044-.469-.008-.571.278l-.024.014c-.13-.054-.487.024-.522.149a3.472,3.472,0,0,1,.436-.1m-.689,15.5.181-.185c-.875-.376-1.728.309-.181.185M65.9,13.844l-.1-.179c-.151.083-.055.17,0,.278l.1-.1M64.656,29.226c.151-.083.054-.17,0-.278l-.1.1.1.179m-.151-15.283c.229.049.735-.045.436-.274-.28-.008-.56-.012-.839,0-.326.3.181.284.4.27m-1.276.278c.236.042.519-.05.274-.27-.279-.015-.56-.011-.839,0-.339.312.367.292.565.274M62.8,29.087l-.184-.1-.1.1c.111.053.2.147.285,0M65.368,6.168c.231,0,.293-.277.442-.25s.232.278.462.246c.093-.013.222.037.28-.008.637-.594,1.531.1,2.044-.558-.136-.117-.272-.277-.309-.258-.971.509-2.017.168-3.022.266-.38-.168-.5.367-.882.291-.51.037-1.845-.225-2.1.172a20.023,20.023,0,0,0,3.087.1m-4.138.272c.055-.108.151-.195,0-.278l-.1.179.1.1M59.518,38.118c.055-.108.151-.195,0-.278-.054.108-.151.195,0,.278m.133-23.769a.318.318,0,0,0-.569-.26c.169.112.377.522.569.26m-.561,3.9-.1-.1-.184.1c.085.147.174.053.285,0m-3.324,12.6.184-.1c-.085-.147-.174-.053-.285,0l.1.1m-.244,5.32.1-.1-.1-.179c-.151.083-.055.17,0,.278m0-17.784c.054-.108.151-.195,0-.278l-.1.179.1.1m-.287-3.335c.4-.038.858.153,1.159-.278l1.132-.006c.184-.317.385-.193.612-.046.812-.614-.041-.462-.568-.5-.364.4-.852.275-1.3.27-.3,0-.4.367-.736.3-.694-.206-1.594.327-.3.267m-2.282-.278-.1.179.1.1c.054-.108.151-.195,0-.278m.428.139c.085.147.175.053.285,0l-.1-.1-.184.1m.571-10.837-.1-.1-.184.1c.085.147.175.053.285,0m-.511,32.29c.182-.036.212-.069.219-.107.045-.225-.044-.368-.233-.358-.553.131-.312.305.014.465m-.756.089.286-.026c-.114,0-.041-.015.033-.033.386-.346-.385-.2-.585-.217-.317.192-.022.286.266.276m-.833,9.4.1-.1c-.111-.053-.2-.147-.285,0l.184.1m-.368-9.448.184-.1c-.085-.147-.174-.053-.285,0l.1.1m.184-19.273c-.111-.053-.2-.147-.285,0,.111.053.2.147.285,0m-.714,27.371.1-.1-.1-.179c-.151.083-.055.17,0,.278m0-8.059c.151-.083.054-.17,0-.278l-.1.1.1.179m-.143-19.313-.1-.1-.184.1c.085.147.175.053.285,0m-.285-12.5-.184-.1-.1.1c.111.053.2.147.285,0M50.1,44.509l.1-.1-.1-.179c-.151.083-.054.17,0,.278M49.52,4.773c.188.07.552-.114.292-.273-.445-.138-1.094.278-.292.273m-1.135.278c.055-.108.151-.2,0-.278l-.1.179.1.1M47.57,43.16l-.184.1c.085.147.174.053.285,0l-.1-.1m-.044,3.288c.3-.162-.171-.406-.293-.539a.308.308,0,0,0,.293.539M30.066,32.61l-.092.23c-.014.33.367.343.566.142a1.1,1.1,0,0,0-.474-.372m.494-1.592a1.376,1.376,0,0,0,1.027.151.767.767,0,0,0-1.027-.151m.271,1.265a.338.338,0,0,1,0,.035c.443.6.887-.159,0-.035m.524-.652c.047-.23-.4-.249-.478-.087-.033.234.4.251.478.087m-.69.4a1.519,1.519,0,0,0,.139.255c.091-.032-.031-.218-.139-.255m.042.252a.24.24,0,0,0,.048.007c-.224-.33-.214-.143-.048-.007m3.589-.254c.158-.01.264-.049.239-.152-.227-.265-.477-.111-.9-.147.139.07.255.129.354.18-.658-.234-1.051-.217-.694.091a8.836,8.836,0,0,1,.921.031c.317.175.316.207.323.235.017.45.5.089.5-.187-.147.012-.6-.234-.5.058-.084-.04-.166-.075-.246-.109m-.753.262c-.26.16.1.343.292.273.8,0,.154-.411-.292-.273m.469,4.621.1.1c.054-.108.151-.195,0-.278l-.1.179m-.558,5.19c-.062.148.14.129.272.207.415-.228-.043-.448-.272-.207m1.129.009.1.179c.151-.083.055-.17,0-.278l-.1.1m1.212-10.651c-.125.005-.469-.095-.395.117-.194-.19.033.01-.011-.255-.126-.241-.5-.121-.728-.12-.283.232.3.289.476.251.385.409,1.06.311.658.007m-.356,9.261.1.179c.151-.083.055-.17,0-.278l-.1.1m.533-8.083c.018-.171-.222-.033-.266.087.108-.04.193-.067.266-.087m-.007.046a.237.237,0,0,0,.007-.044c-.339.213-.146.2-.007.044m.136-.121c-.047.027-.086.051-.122.073.356-.094.338.014.536-.236-.28-.329-.848.2-.414.163m.483-1.206c.077.162.525.143.478-.087-.079-.164-.511-.147-.478.087m.1,8.987c.055-.108.151-.2,0-.278-.054.108-.151.195,0,.278m.178.256-.321.161c.209.095.386.21.571,0l-.25-.161m.964-9.148-.1.179.1.1c.055-.108.151-.2,0-.278m.428.139.184.1.1-.1c-.111-.053-.2-.147-.285,0m1.35,10.7c-.254-.387-.2-.028,0,0m-.089-.255c.055.1.1.187.14.254a.13.13,0,0,0,.022,0c.071-.114-.085-.189-.161-.251m.309-11.694-.1.179.1.1c.054-.108.151-.195,0-.278M39.8,42.29c-.072-.033-.114-.011-.126.037.1.169.15.213.165.2.172-.1.055-.177-.039-.242m.214-.747c-.062.149.14.129.272.207.415-.228-.043-.448-.272-.207m.374-27.322-.1.179.1.1c.054-.108.151-.195,0-.278m.428,27.371c.111.053.2.147.285,0-.111-.053-.2-.147-.285,0m1.293,1.519c.107.087.138,0,.153-.126a1.565,1.565,0,0,1,.262-.119c-.328-.468-.783-.222-.415.245m.275,0c-.144-.013-.193.007-.139.142.089.169.336.11.5.156a1.827,1.827,0,0,0-.083-.28c-.09,0-.184-.009-.277-.017m.858-28.894-.1.179.1.1c.054-.108.151-.195,0-.278m.143,1.806.184.1.1-.1c-.111-.053-.2-.147-.285,0m1.57-10.7c-.151.083-.055.17,0,.278l.1-.1-.1-.179m.285,8.336-.1.179.1.1c.054-.108.151-.2,0-.278m.1,1.485c-.079-.164-.511-.147-.478.087.077.162.525.143.478-.087m-.666,27.692c.151-.083.055-.17,0-.278l-.1.1.1.179m-.285.556.1-.1-.1-.179c-.151.083-.055.17,0,.278m.143-29.455v.124a.721.721,0,0,0,0-.113c.056.159.137.246.16.233.213-.115-.022-.278-.159-.245-.014-.292-.243-.311-.291,0l-.018.01c-.118-.072-.512.052-.528.153.2-.05.335-.083.445-.106-.469.274-.02.278.1.072a.1.1,0,0,0,.007-.095,1.242,1.242,0,0,1,.28-.034m-.464,28.89c.055,0,.148-.1.171-.174.055-.122-.071-.518-.219-.289-.177.338-.641.085-.856.287a.5.5,0,0,1-.136.366c.338.546.455-.125,1.04-.19M42.7,42.311c.043.113.083.212.121.3a.47.47,0,0,0-.121-.3m-.467,2.2c.205-.014.479.092.533-.183-.284-.226-.844-.041-1.217-.087-.377.388.456.25.684.27m-.7-30.011c.054-.108.151-.195,0-.278l-.1.179.1.1m-.172,30.732c-.031-.174-.451-.246-.531-.125.211.3.37.29.531.125m-.708-.421a2.594,2.594,0,0,0,.147.253c.077-.039-.041-.216-.147-.253m.042.252a.245.245,0,0,0,.049.007c-.225-.33-.214-.143-.049-.007m-1.017-.691c.183.2.528.092.8.152,1.635-.143-.465-.447-.8-.152m-.152.973c.2.017.912.041.58-.274-.375-.007-.749-.01-1.124,0-.357.343.322.27.544.27m-.181-.738c-.079-.164-.511-.147-.478.087.077.162.525.143.478-.087m-.809.6c-.239-.228-.339-.1-.7,0,.358.095.459.228.7,0m-4.424.139.1-.1-.1-.179c-.151.083-.054.17,0,.278m-.856-1.419a.558.558,0,0,0,.652-.062c.184-.22.422-.136.632-.2.256-.076.287.444.541.17.474-.417,1.107.128,1.561-.37,1.336-.18,2.846-.006,4.224-.066.522,0,.522,0,.524-.538.158-.484-.45-.885-.581-.294,0,.086.153.278-.131.283-.827-.172-.67.391-.977.17-.667-.564-1.016.4-1.625.046a1.087,1.087,0,0,0-1.373.017c-.122.092-.163-.316-.4-.157a.918.918,0,0,1-.344.187c-.227.033-.475.058-.626-.187-.062-.1-.126-.084-.2.03-.159.239-.423.12-.636.175-.164.042-.293.212-.456.254a.456.456,0,0,1-.356-.135.628.628,0,0,0-.843.026c.289.134.18.539.411.648m.666-12.572c-.438-.584-1.437-.464-2.135-.458.032.1.061.189.087.267a1.377,1.377,0,0,1,.157.01c.228,0,.2.39.514.289.414-.124,1.037.158,1.377-.108m-1.837.345c.342-.151.117-.4-.064-.123.044.111.059.125.064.123m.029,1.42.1-.1-.1-.179c-.151.083-.055.17,0,.278m.285-.556c.054-.108.151-.195,0-.278-.055.108-.151.195,0,.278m.1,11.211c-.079-.164-.511-.147-.478.087.077.162.525.143.478-.087m-.524-.513-.216-.139-.355.139c.209.095.386.21.571,0m-1.51,1.248c.556.093.185-.489.575-.484.288.089.813-.093.491-.339-.268-.048-.592.086-.76-.208-.409-.271.146.632-.835.484-.078,0-.154.077-.23.119.2.239.417.521.759.428m-.2-1.106c0-.381-.436-.335-.575-.081-.063.459.588.484.575.081m-2.145-6.394-.1.179.1.1c.055-.108.151-.2,0-.278m1.285-3.2-.184-.1-.1.1c.111.053.2.147.285,0m-.4-.973c.987-.1-.2-.476-.459-.139a.507.507,0,0,0,.459.139m-.887,11.949c.055-.108.151-.195,0-.278l-.1.179.1.1m.041-.6.1-.1c-.111-.053-.2-.147-.285,0l.184.1m.1-.933-.184-.1-.1.1c.111.053.2.147.285,0m-1-7.919c-.055.108-.151.195,0,.278.054-.108.151-.195,0-.278m.1,7.962c.047-.23-.4-.249-.478-.087-.033.234.4.251.478.087M19.27,37.563c-.055.108-.151.195,0,.278l.1-.179-.1-.1m3.14.278c-.054.108-.151.195,0,.278l.1-.179-.1-.1m-.1,5.656.1.179c.151-.083.055-.17,0-.278l-.1.1m1.386-8.574c.111.053.2.147.285,0-.111-.053-.2-.147-.285,0m.91-.883c-.062.148.14.129.272.207.415-.228-.043-.448-.272-.207m1.142,1.389c-.062.148.14.129.272.207.415-.228-.043-.448-.272-.207m.374-1.479-.1.179.1.1c.054-.108.151-.195,0-.278m.571,1.667c.151-.083.055-.169,0-.278l-.1.1.1.179m-.25,8.557c.075-.09.17-.356.019-.446-.394.135-.762.6-.019.446m-.822-.776c.145.033.244-.068.359-.139a.661.661,0,0,0-.856,0,.568.568,0,0,0,.5.139m-.926-7.781c.055-.108.151-.195,0-.278-.055.108-.151.195,0,.278m.316-.556c.987-.1-.2-.476-.459-.139.178.115.19.163.459.139m-.744.417-.184-.1-.1.1c.111.053.2.147.285,0m-.285,8.475v.124a.682.682,0,0,0,0-.113c.056.159.137.246.16.233.213-.115-.022-.278-.159-.245-.014-.291-.243-.311-.291,0l-.017.015c-.046-.041-.155-.021-.245.146.064-.029.117-.051.165-.071-.114.121-.084.161-.075.156.141-.062.184-.141.175-.194a.737.737,0,0,1,.283-.054m-.285.695-.184-.1-.1.1c.111.053.2.147.285,0m-.333.791c-.079-.164-.511-.147-.478.087.077.162.525.143.478-.087m-.381-.93c-.054.108-.151.2,0,.278.054-.108.151-.195,0-.278m.381-1.016c-.079-.164-.511-.147-.478.087.077.162.525.143.478-.087m-.521-9.143c.075.264.672-.181.853-.262-.113-.071-.211-.172-.356-.139-.3-.05-.592.063-.5.4m-.027,9.718c-.28-.329-.848.2-.414.163l-.115.05c.347-.043.312.028.529-.212m-.549.291a.119.119,0,0,0,.015-.077c-.6.27-.154.293-.015.077m.015-.078c-.034-.147-.542,0-.56.112a4.464,4.464,0,0,1,.56-.112M21.268,38.4c.151-.083.054-.17,0-.278l-.1.1.1.179m-.143,5.974c-.111-.053-.2-.147-.285,0,.111.053.2.147.285,0M20.7,38.118c.151-.083.054-.17,0-.278l-.1.1.1.179m.1-.652c.047-.23-.4-.249-.478-.087-.033.234.4.251.478.087m-.952,7.043c.054-.108.151-.195,0-.278l-.1.179.1.1m.143-6.808c-.111-.053-.2-.147-.285,0,.111.053.2.147.285,0m-.333.791c-.079-.164-.511-.147-.478.087.077.162.525.143.478-.087m-.952-.1c.151-.083.054-.17,0-.278l-.1.1.1.179m-4,6.391c.151-.083.055-.17,0-.278l-.1.1.1.179M9.279,37.007c.054-.108.151-.2,0-.278-.055.108-.151.195,0,.278M8.708,45.9c.054-.108.151-.195,0-.278-.055.108-.151.195,0,.278M6.76,45.118c-.152-.06-.132.136-.213.265.235.4.461-.042.213-.265" transform="translate(0 0)" fill="#ffc200"/>
    <path id="Path_2055" data-name="Path 2055" d="M0,0C.051.025.109.056.178.1A.1.1,0,0,1,.085.141,1.1,1.1,0,0,0,0,0" transform="translate(70.304 13.276)" fill="#ffc200"/>
    <path id="Path_2056" data-name="Path 2056" d="M.009,0a.378.378,0,0,0,0,.04C0,.027,0,.013.009,0" transform="translate(33.677 6.74)" fill="#ffc200"/>
    <path id="Path_2057" data-name="Path 2057" d="M.457.172C.311.155.16.134.008.113A.135.135,0,0,1,.018,0,.883.883,0,0,0,.253.007C.311.047.369.093.43.146A.156.156,0,0,1,.457.172" transform="translate(180.103 53.68)" fill="#ffc200"/>
    <path id="Path_2058" data-name="Path 2058" d="M0,0C.1.034.2.074.3.118l-.076,0C.165.087.089.047,0,0" transform="translate(33.993 31.908)" fill="#ffc200"/>
    <path id="Path_2059" data-name="Path 2059" d="M0,.012,0,0H.005S0,.008,0,.012" transform="translate(44.532 13.943)" fill="#ffc200"/>
    <path id="Path_2060" data-name="Path 2060" d="M0,.012A.114.114,0,0,1,0,0H.005S0,.008,0,.012" transform="translate(23.979 43.953)" fill="#ffc200"/>
    <path id="Path_2061" data-name="Path 2061" d="M.08,0A.063.063,0,0,1,.1.038C.07.049.037.061,0,.076.021.053.047.028.08,0" transform="translate(23.598 43.969)" fill="#ffc200"/>
    <path id="Path_2062" data-name="Path 2062" d="M0,0,.025,0l.031.1L0,0" transform="translate(20.871 17.37)" fill="#ffc200"/>
    <path id="Path_2063" data-name="Path 2063" d="M.129.034C.09.038.048.043,0,.05L.086,0A.075.075,0,0,1,.129.034" transform="translate(66.972 13.679)" fill="#ffc200"/>
    <path id="Path_2064" data-name="Path 2064" d="M0,0C.025.023.053.049.085.081A.072.072,0,0,1,.062.089.639.639,0,0,1,0,0" transform="translate(69.56 13.577)" fill="#ffc200"/>
    <path id="Path_2065" data-name="Path 2065" d="M.083,0A.066.066,0,0,1,.107.024L0,.046.083,0" transform="translate(44.145 13.953)" fill="#ffc200"/>
    <path id="Path_2066" data-name="Path 2066" d="M0,0C.025.023.054.05.087.083A.082.082,0,0,1,.031.095.969.969,0,0,0,0,0" transform="translate(18.748 17.188)" fill="#ffc200"/>
    <path id="Path_2067" data-name="Path 2067" d="M.222.088.183.09,0,0Q.108.04.222.088" transform="translate(186.227 54.445)" fill="#ffc200"/>
    <path id="Path_2068" data-name="Path 2068" d="M0,0,.082.035C.037.064,0,.05,0,0" transform="translate(39.664 46.42)" fill="#ffc200"/>
    <path id="Path_2069" data-name="Path 2069" d="M1.52.03a1.513,1.513,0,0,1,1,.278c.072.326.964.632,1.367.563.173,0,.527-.039.616.138A3.9,3.9,0,0,1,2.245,1C1.953.62,1.087,1.183,1.162.585c.26.012.358.039.48-.163A.362.362,0,0,0,1.1.457.213.213,0,0,0,1.08.551C.736.4.461.2.092.3.07.306-.006.227,0,.21.275-.192,1.056.124,1.52.03" transform="translate(38.583 45.869)" fill="#ffc200"/>
    <path id="Path_2070" data-name="Path 2070" d="M.194,0C.518.2.452.522.986.255c.152-.088.625.032.333.229-.355.249.239.3-.021.576-.09,0-.243.033-.265-.005C.86.748.482.81.236.613,0,.457-.127.047.194,0" transform="translate(119.023 49.285)" fill="#ffc200"/>
    <path id="Path_2071" data-name="Path 2071" d="M.65.02c.3.066.844-.179.945.188C1.208.432.561.239.091.29-.242-.063.428.024.65.02" transform="translate(81.133 46.991)" fill="#ffc200"/>
    <path id="Path_2072" data-name="Path 2072" d="M1.55.022c.14-.005.2.014.133.138-.2.264-.611.11-.9.146V.284C-1.093.237.912-.085,1.55.022" transform="translate(121.913 49.484)" fill="#ffc200"/>
    <path id="Path_2073" data-name="Path 2073" d="M.478,0a1.852,1.852,0,0,1,.539.067c.1.094.188.412-.077.459C.75.156.359.371.085.247-.209.048.341.019.478,0" transform="translate(193.837 55.611)" fill="#ffc200"/>
    <path id="Path_2074" data-name="Path 2074" d="M.383.008c.36.006.511-.066.742.139C.893.475-.722.152.383.008" transform="translate(57.394 46.169)" fill="#ffc200"/>
    <path id="Path_2075" data-name="Path 2075" d="M.672.028C.932.188.567.372.38.3c-.8,0-.153-.411.292-.274" transform="translate(47.999 47.265)" fill="#ffc200"/>
    <path id="Path_2076" data-name="Path 2076" d="M.386.006C.656-.018.667.03.846.145.586.482-.6.111.386.006" transform="translate(195.545 55.897)" fill="#ffc200"/>
    <path id="Path_2077" data-name="Path 2077" d="M0,.121.217.005a.327.327,0,0,1,.322.15C.576.49.124.206,0,.121" transform="translate(99.077 0.043)" fill="#ffc200"/>
    <path id="Path_2078" data-name="Path 2078" d="M.48.193C.4.357-.031.34,0,.106.079-.056.527-.037.48.193" transform="translate(35.441 45.888)" fill="#ffc200"/>
    <path id="Path_2079" data-name="Path 2079" d="M.546.185A.333.333,0,0,1,.007.144c-.077-.228.5-.163.539.041" transform="translate(56.516 46.158)" fill="#ffc200"/>
    <path id="Path_2080" data-name="Path 2080" d="M.283.312C.151.233-.05.253.012.1.24-.136.7.083.283.312" transform="translate(89.39 47.273)" fill="#ffc200"/>
    <path id="Path_2081" data-name="Path 2081" d="M.546.185A.333.333,0,0,1,.007.144c-.077-.228.5-.163.539.041" transform="translate(109.325 48.936)" fill="#ffc200"/>
    <path id="Path_2082" data-name="Path 2082" d="M.546.185A.333.333,0,0,1,.007.144C-.07-.084.51-.019.546.185" transform="translate(174.978 54.216)" fill="#ffc200"/>
    <path id="Path_2083" data-name="Path 2083" d="M.48.108C.527.338.079.357,0,.2-.031-.039.4-.055.48.108" transform="translate(203.571 56.447)" fill="#ffc200"/>
    <path id="Path_2084" data-name="Path 2084" d="M.48.108C.527.338.079.357,0,.2-.031-.039.4-.055.48.108" transform="translate(209.851 56.724)" fill="#ffc200"/>
    <path id="Path_2085" data-name="Path 2085" d="M.1.278,0,.179.1,0C.253.083.156.17.1.278" transform="translate(7.465 18.945)" fill="#ffc200"/>
    <path id="Path_2086" data-name="Path 2086" d="M.228,0V.282C-.083.261-.069-.037.228,0" transform="translate(9.764 29.778)" fill="#ffc200"/>
    <path id="Path_2087" data-name="Path 2087" d="M.135.231H.008c-.078-.319.464-.3.127,0" transform="translate(41.099 45.946)" fill="#ffc200"/>
    <path id="Path_2088" data-name="Path 2088" d="M.285.079C.2.226.111.132,0,.079c.085-.147.174-.053.285,0" transform="translate(33.399 45.959)" fill="#ffc200"/>
    <path id="Path_2089" data-name="Path 2089" d="M.1.278,0,.179.1,0C.253.083.156.17.1.278" transform="translate(65.125 46.177)" fill="#ffc200"/>
    <path id="Path_2090" data-name="Path 2090" d="M.1.278,0,.1.1,0C.156.108.253.2.1.278" transform="translate(75.402 46.733)" fill="#ffc200"/>
    <path id="Path_2091" data-name="Path 2091" d="M.182.1l-.1.179C-.07.195.027.108.081,0l.1.1" transform="translate(84.842 47.011)" fill="#ffc200"/>
    <path id="Path_2092" data-name="Path 2092" d="M.286.1C.2.246.111.152,0,.1L.1,0,.286.1" transform="translate(83.639 47.051)" fill="#ffc200"/>
    <path id="Path_2093" data-name="Path 2093" d="M.183.1l-.1.179C-.07.195.027.108.081,0l.1.1" transform="translate(75.993 47.011)" fill="#ffc200"/>
    <path id="Path_2094" data-name="Path 2094" d="M.286.079.1.178,0,.079c.111-.053.2-.147.285,0" transform="translate(47.386 47.349)" fill="#ffc200"/>
    <path id="Path_2095" data-name="Path 2095" d="M.286.1C.175.152.085.246,0,.1L.184,0l.1.1" transform="translate(88.776 47.606)" fill="#ffc200"/>
    <path id="Path_2096" data-name="Path 2096" d="M.1.278,0,.1.1,0C.156.108.253.2.1.278" transform="translate(90.816 47.844)" fill="#ffc200"/>
    <path id="Path_2097" data-name="Path 2097" d="M.286.079C.2.226.111.132,0,.079c.085-.147.174-.053.286,0" transform="translate(103.335 48.738)" fill="#ffc200"/>
    <path id="Path_2098" data-name="Path 2098" d="M.286.079C.2.226.111.132,0,.079c.085-.147.174-.053.286,0" transform="translate(121.032 49.572)" fill="#ffc200"/>
    <path id="Path_2099" data-name="Path 2099" d="M.259.129C.17.21.093.319,0,.17.048.04.33-.116.259.129" transform="translate(118.772 49.781)" fill="#ffc200"/>
    <path id="Path_2100" data-name="Path 2100" d="M.1.278,0,.1.1,0C.156.108.253.2.1.278" transform="translate(118.219 49.789)" fill="#ffc200"/>
    <path id="Path_2101" data-name="Path 2101" d="M.1.278,0,.179.1,0C.253.083.156.17.1.278" transform="translate(134.204 50.067)" fill="#ffc200"/>
    <path id="Path_2102" data-name="Path 2102" d="M.175.252C.152.265.066.174.01.131c-.089-.3.454-.017.165.121" transform="translate(152.993 52.283)" fill="#ffc200"/>
    <path id="Path_2103" data-name="Path 2103" d="M.259.129C.171.21.093.319,0,.17.048.04.33-.116.259.129" transform="translate(160.162 52.838)" fill="#ffc200"/>
    <path id="Path_2104" data-name="Path 2104" d="M.1.278,0,.179.1,0C.253.083.156.17.1.278" transform="translate(169.6 53.68)" fill="#ffc200"/>
    <path id="Path_2105" data-name="Path 2105" d="M.285.079C.2.226.111.132,0,.079c.086-.147.175-.053.285,0" transform="translate(168.702 53.74)" fill="#ffc200"/>
    <path id="Path_2106" data-name="Path 2106" d="M.081.278C-.07.2.027.108.081,0c.151.083.054.17,0,.278" transform="translate(184.178 54.513)" fill="#ffc200"/>
    <path id="Path_2107" data-name="Path 2107" d="M.1.278,0,.179.1,0C.253.083.156.17.1.278" transform="translate(183.587 55.069)" fill="#ffc200"/>
    <path id="Path_2108" data-name="Path 2108" d="M.259.129C.171.21.093.319,0,.17.048.04.33-.116.259.129" transform="translate(205.834 56.172)" fill="#ffc200"/>
    <path id="Path_2109" data-name="Path 2109" d="M.285.1C.2.246.111.152,0,.1L.1,0,.285.1" transform="translate(198.104 56.221)" fill="#ffc200"/>
    <path id="Path_2110" data-name="Path 2110" d="M.1.278,0,.1.1,0C.156.108.253.2.1.278" transform="translate(206.423 56.736)" fill="#ffc200"/>
    <path id="Path_2111" data-name="Path 2111" d="M.285.079l-.1.1L0,.079c.085-.147.174-.053.285,0" transform="translate(202.956 56.796)" fill="#ffc200"/>
    <path id="Path_2112" data-name="Path 2112" d="M.174.252C.152.265.066.174.01.131c-.089-.3.454-.017.164.121" transform="translate(40.811 42.835)" fill="#ffc200"/>
    <path id="Path_2113" data-name="Path 2113" d="M0,.079c.085-.147.174-.053.285,0l-.1.1L0,.079" transform="translate(67.653 4.555)" fill="#ffc200"/>
    <path id="Path_2114" data-name="Path 2114" d="M.259.084C.272.106.179.189.135.244-.17.33.117-.2.259.084" transform="translate(196.384 54.825)" fill="#ffc200"/>
    <path id="Path_2115" data-name="Path 2115" d="M.118.252C.035.166-.077.09.076,0,.21.047.37.321.118.252" transform="translate(17.172 17.856)" fill="#ffc200"/>
    <path id="Path_2116" data-name="Path 2116" d="M.095.526a.439.439,0,0,0,.2-.454c.236-.2.307.06.27.282C.652.651.376.85.1.713-.036.661-.028.6.095.526" transform="translate(243.867 51.119)" fill="#ffc200"/>
    <path id="Path_2117" data-name="Path 2117" d="M.563.107C.472.276.336.292.156.267-.271.3.286-.217.563.107" transform="translate(259.875 39.562)" fill="#ffc200"/>
    <path id="Path_2118" data-name="Path 2118" d="M.279.308C.149.23-.05.25.011.1c.225-.237.677-.021.268.2" transform="translate(260.786 39.267)" fill="#ffc200"/>
    <path id="Path_2119" data-name="Path 2119" d="M.146.517C-.085.591-.019.035.188,0A.31.31,0,0,1,.146.517" transform="translate(244.41 49.442)" fill="#ffc200"/>
    <path id="Path_2120" data-name="Path 2120" d="M.452.236C.259.329.031.3,0,.178.043.013.274.076.407.016c.21-.078.167.155.045.22" transform="translate(243.891 50.491)" fill="#ffc200"/>
    <path id="Path_2121" data-name="Path 2121" d="M.255.127C.168.207.091.314,0,.167.047.039.325-.114.255.127" transform="translate(221.669 56.525)" fill="#ffc200"/>
    <path id="Path_2122" data-name="Path 2122" d="M.08,0l.1.176-.1.1C.024.166-.068.08.08,0" transform="translate(240.552 52.973)" fill="#ffc200"/>
    <path id="Path_2123" data-name="Path 2123" d="M.255.082C.268.1.176.186.133.24-.167.325.115-.2.255.082" transform="translate(243.016 52.733)" fill="#ffc200"/>
    <path id="Path_2124" data-name="Path 2124" d="M.08.274C-.068.193.024.108.08,0,.227.08.135.166.08.274" transform="translate(243.365 50.235)" fill="#ffc200"/>
    <path id="Path_2125" data-name="Path 2125" d="M0,0C.307.021.293.314,0,.274Z" transform="translate(244.43 50.235)" fill="#ffc200"/>
    <path id="Path_2126" data-name="Path 2126" d="M.225,0V.278C-.082.257-.068-.036.225,0" transform="translate(244.204 49.957)" fill="#ffc200"/>
    <path id="Path_2127" data-name="Path 2127" d="M0,.078c.083-.143.17-.054.281,0C.2.221.111.132,0,.078" transform="translate(243.023 49.473)" fill="#ffc200"/>
    <path id="Path_2128" data-name="Path 2128" d="M.1.274,0,.1.1,0C.155.108.247.194.1.274" transform="translate(243.626 48.866)" fill="#ffc200"/>
    <path id="Path_2129" data-name="Path 2129" d="M.281.1C.2.241.111.151,0,.1L.1,0,.281.1" transform="translate(262.994 34.667)" fill="#ffc200"/>
    <path id="Path_2130" data-name="Path 2130" d="M.281.077C.2.221.111.132,0,.077c.083-.143.17-.054.281,0" transform="translate(262.431 34.413)" fill="#ffc200"/>
    <path id="Path_2131" data-name="Path 2131" d="M.172.248C.149.261.065.172.01.129-.078-.163.457.112.172.248" transform="translate(262.422 32.155)" fill="#ffc200"/>
    <path id="Path_2132" data-name="Path 2132" d="M.075,0C.206.046.364.317.116.248.034.164-.076.089.075,0" transform="translate(262.193 31.911)" fill="#ffc200"/>
    <path id="Path_2133" data-name="Path 2133" d="M.4.3C.113.308-.177.216.135.027.3.071.889-.124.8.148.747.293.474.27.4.3" transform="translate(226.188 52.954)" fill="#ffc200"/>
    <path id="Path_2134" data-name="Path 2134" d="M0,.192C-.031-.038.4-.055.473.107.519.333.078.352,0,.192" transform="translate(230.408 53.782)" fill="#ffc200"/>
    <path id="Path_2135" data-name="Path 2135" d="M0,.077c.111-.054.2-.143.281,0L.1.175,0,.077" transform="translate(229.24 54.128)" fill="#ffc200"/>
    <path id="Path_2136" data-name="Path 2136" d="M.08,0C.227.08.135.166.08.274-.068.193.024.108.08,0" transform="translate(234.083 53.794)" fill="#ffc200"/>
    <path id="Path_2137" data-name="Path 2137" d="M.563.016V.289H0C.1.007.284-.028.563.016" transform="translate(250.899 40.909)" fill="#ffc200"/>
    <path id="Path_2138" data-name="Path 2138" d="M0,0Q.293-.01.282.274-.011.285,0,0" transform="translate(251.18 40.377)" fill="#ffc200"/>
    <path id="Path_2139" data-name="Path 2139" d="M.452.236C.259.329.031.3,0,.178.042.013.273.076.407.016c.21-.078.167.155.045.22" transform="translate(236.859 53.229)" fill="#ffc200"/>
  </g>
</svg>
