<svg id="Group_930" data-name="Group 930" xmlns="http://www.w3.org/2000/svg" xmlns:xlink="http://www.w3.org/1999/xlink" width="192.037" height="347.334" viewBox="0 0 192.037 347.334">
  <defs>
    <clipPath id="clip-path">
      <rect id="Rectangle_484" data-name="Rectangle 484" width="192.037" height="347.334" fill="#ffc200"/>
    </clipPath>
  </defs>
  <g id="Group_929" data-name="Group 929" clip-path="url(#clip-path)">
    <path id="Path_1680" data-name="Path 1680" d="M58.709,339.984l0,0Z" fill="#ffc200"/>
    <path id="Path_1681" data-name="Path 1681" d="M48.714,346.817c-1.041.053,15.67-7.939,34.443-30.493,1.621-1.914.222-5.832-3.028-5.99C77,310.147,62.079,328.65,53.96,333.446c.947-.647-10.373,6.634-10.965,8.464-1.292,3.728,3.124,6.65,5.719,4.907" fill="#ffc200"/>
    <path id="Path_1682" data-name="Path 1682" d="M51.63,344.872c-.133.09-.166.115,0,0" fill="#ffc200"/>
    <path id="Path_1683" data-name="Path 1683" d="M57.849,340.575c.685-.466.539-.379,0,0" fill="#ffc200"/>
    <path id="Path_1684" data-name="Path 1684" d="M128.61,248.432c-6.19-4.048-5.335,7.768-30.21,35.323-3.081,3.414-.43,20.214,23.594-17.789,6.253-9.813,10.672-14.848,6.616-17.534" fill="#ffc200"/>
    <path id="Path_1685" data-name="Path 1685" d="M158.946,183.914c-4.181-1.392-3.609,1.146-15.319,25.964a3.688,3.688,0,0,0,2.322,4.685c4.624,1.507,5.721-4.715,10.431-14.612,4.212-8.82,7.136-14.513,2.566-16.037" fill="#ffc200"/>
    <path id="Path_1686" data-name="Path 1686" d="M176.749,110.377c.584-3.14,2.5-4.366,4.715-4.24,6.5.36,3.785,8.327,2.3,15.942-1.667,8.678-3.475,15.489-8.184,28.32.339-.017-2.037,4.338-6.03,3-7.626-2.568.226-7.515,7.2-43.026m-.253,1.338c.1-.531.086-.457,0,0" fill="#ffc200"/>
    <path id="Path_1687" data-name="Path 1687" d="M183.825,76.81c3.375.2,4.857-1.389,8.186-27.8.391-3.109-3.785-5.507-6.443-3.082-1.54,1.376-.478-.257-5.469,26.725a3.935,3.935,0,0,0,3.726,4.153" fill="#ffc200"/>
    <path id="Path_1688" data-name="Path 1688" d="M53.534,294.027c2.537-.557,16.971-19.563,17.5-20.275,2.658-3.555-2.919-8.515-6.28-4.138-14.24,18.567-16.542,18.069-15.791,21.491.854,3.846,5.225,2.889,4.57,2.922" fill="#ffc200"/>
    <path id="Path_1689" data-name="Path 1689" d="M110.838,189.9c-2.406.494-.991.422-14.12,23.68a3.3,3.3,0,0,0,2.968,5.1,3.206,3.206,0,0,0,2.545-1.472c3.682-6.555,12.9-22.868,12.477-24.835a3.261,3.261,0,0,0-3.87-2.472" fill="#ffc200"/>
    <path id="Path_1690" data-name="Path 1690" d="M131.615,148.859c2.939.99,4.838-2.253,4.5-2.236.813-2.763,11.856-39.63,10.556-42.162-1.481-2.911-5.747-2.162-6.4.48-9.406,38.258-13.976,42.133-8.652,43.918" fill="#ffc200"/>
    <path id="Path_1691" data-name="Path 1691" d="M162.865,27.033c.749-4.641-7.462-7.161-8.634-.466A173.12,173.12,0,0,1,144,63.424c-1.811,4.633,10.035,21.585,18.861-36.391" fill="#ffc200"/>
    <path id="Path_1692" data-name="Path 1692" d="M1.242,293.242c4.947,5.547,15.851-7.67,23.472-16.539,3.7-4.216,6.939-7.863,10.96-13.174,2.071-2.73-.529-7.406-4.486-6.529-2.4.519-11.91,13.6-21.3,22.36-6.662,6.2-12.522,9.582-8.642,13.882" fill="#ffc200"/>
    <path id="Path_1693" data-name="Path 1693" d="M72.247,201.375a3.408,3.408,0,0,1,.97,4.716c-2.445,4.525-11.792,22.079-16.993,22.345a3.687,3.687,0,0,1-2.672-6.418c10.393-9.358,13-24.4,18.7-20.643M56.838,218.76c.349-.392.285-.327,0,0" fill="#ffc200"/>
    <path id="Path_1694" data-name="Path 1694" d="M101.387,113.068c-9.645,34.66-14.608,37.787-8.412,39.868,3.459,1.163,5.539-2.634,5.257-2.619,1.56-4.117,12.31-34.053,10.383-37.81a3.946,3.946,0,0,0-7.228.561" fill="#ffc200"/>
    <path id="Path_1695" data-name="Path 1695" d="M114.182,56.817c7.287-31.584,5.934-33,8-34.852a4.054,4.054,0,0,1,5.727.308c1.412,1.56,1.926,2.526-3.653,28-2.1,9.423-1.886,10.469-4.159,11.621,1.55-.079-7.612,2.4-5.919-5.076m4.735-21.67v0" fill="#ffc200"/>
    <path id="Path_1696" data-name="Path 1696" d="M1.768,239.135c.18-3.353,2.59-3.753,12.546-15.1C24.262,212.2,25.739,204.072,31.694,208c8.417,5.567-13.9,27.767-21.2,35.3a4.515,4.515,0,0,1-3.07,1.33,5.263,5.263,0,0,1-5.652-5.5m11.914-14.356c.7-.82.563-.677,0,0" fill="#ffc200"/>
    <path id="Path_1697" data-name="Path 1697" d="M48.956,167.909c-.31-1.355.007-1.561,3.136-7.871,10.962-22.941,10.956-25.19,14.539-23.988,4.423,1.461,1.859,5.176-8.868,26.95,1.473-2.877-2.542,6.866-4.964,7.37.48-.025-3.182.739-3.843-2.461m2.813-7.2c.207-.438.161-.348,0,0" fill="#ffc200"/>
    <path id="Path_1698" data-name="Path 1698" d="M58.133,162.253h0" fill="#ffc200"/>
    <path id="Path_1699" data-name="Path 1699" d="M82.84,99.087c4.334-2.212,11.84-27.344,9.977-30.993-2.2-4.231-8.316-3.023-9.2.713C80.6,81.318,79.392,84.53,75.544,92.829c-1.722,3.759,2.911,8.528,7.3,6.258" fill="#ffc200"/>
    <path id="Path_1700" data-name="Path 1700" d="M90.941,33.325c3.684.2,4.718-1.431,7.974-29.191A3.928,3.928,0,0,0,92.393,1c-1.584,1.422-.841.724-5.272,28.069a4.021,4.021,0,0,0,3.82,4.251" fill="#ffc200"/>
  </g>
</svg>
