<svg xmlns="http://www.w3.org/2000/svg" xmlns:xlink="http://www.w3.org/1999/xlink" width="340.707" height="90.762" viewBox="0 0 340.707 90.762">
  <defs>
    <clipPath id="clip-path">
      <rect id="Rectangle_454" data-name="Rectangle 454" width="337.338" height="73.207" fill="#ffc200"/>
    </clipPath>
  </defs>
  <g id="Group_992" data-name="Group 992" transform="translate(0 17.655) rotate(-3)">
    <g id="Group_891" data-name="Group 891" transform="translate(0 0)" clip-path="url(#clip-path)">
      <path id="Path_1545" data-name="Path 1545" d="M.038.015l-.024,0C-.014-.012,0,0,.038.015" transform="translate(123.811 61.642)" fill="#ffc200"/>
      <path id="Path_1546" data-name="Path 1546" d="M.108.038C.13.084.137.133.1.158A.112.112,0,0,1,0,.174C0,.12,0,.062,0,0,.036.017.072.026.108.038" transform="translate(255.555 70.397)" fill="#ffc200"/>
      <path id="Path_1547" data-name="Path 1547" d="M0,.012C.041.007.082,0,.122,0,.094.045.038.029,0,.012" transform="translate(123.849 61.645)" fill="#ffc200"/>
      <path id="Path_1548" data-name="Path 1548" d="M0,0C.016,0,.032,0,.049,0A.039.039,0,0,1,0,0" transform="translate(69.162 59.879)" fill="#ffc200"/>
      <path id="Path_1549" data-name="Path 1549" d="M.353,49.943a1.513,1.513,0,0,1,.356-.936c.687-.939,1.956-1.021,2.706-1.858.251-.28.784.043,1.132-.367.218-.257.839.068,1.09-.4.392-.071.862.076,1.118-.377a5.167,5.167,0,0,0,2.4-.4c.677.009,1.459.333,2.04-.322a6.085,6.085,0,0,1,1.093.013c.427.079.551-.42.948-.377.936-.058,1.962.278,2.788-.33.117-.1.474-.025.679.062.184.078.283.37.527.065.814-1,2.466-.273,3.62-.511.346-.011.761.183,1.033-.126.607-.463,1.389-.13,2.1-.242,1.289-1,3.105.33,4.456-.692.78.006,6.885.041,3.3-.383-1.137-.666-2.462-.2-3.708-.329-1.105-1.028-3.4.3-4.458-.7a.376.376,0,0,0-.338.01c-.293.491-.565-.012-.806.015a1.322,1.322,0,0,1-1.225-.591c-.2-.225-.267-.009-.393.065-.653.481-1.147-.136-1.634-.542-.3.747-1.446-.754-2.117-.388-.341-.453-.844-.331-1.31-.36-.4-.025-.65-.519-1.131-.362-.6-.219-1.215-.608-1.807-.886-.025-.013,0-.113,0-.172.381.053.4-.329,0-.356-.283-.655-.561-1.4-1.4-1.538-.182-.354-.678-.154-.89-.5s-.665-.479-.666-.987c-.45-.921-1.663-.246-1.438-1.867.022-.24.051-.677-.186-.794-.805.186-.376-.794-.882-.876.559-.414.205-.633-.308-.559-.808.055-.265-1-.469-1.439-.125-.481.291-.724.409-1.092.207-.584.859-.915,1.4-1.185.6-.356.882-1.267,1.653-1.269.241-.6.96-.129,1.24-.492.344-.446,1.009.058,1.263-.49.46-.111,1.186,0,1.569-.14a1.047,1.047,0,0,1,1.157-.28c.56.146.847-.374,1.315-.377.608,0,1.217,0,1.825,0,.551-.643,1.362-.158,1.994-.454.183-.276,1.045-.67.6-.961-.883-.25-.839,1.344-1.855.417-.249.56-.96.035-1.246.5-.385.4-1.009-1.261-1.861-.933-.294.041-.656-.06-.876.075-.261.16-.492.386-.792.275-.555-.205-.836.38-1.313.369-.56.071-1.308-.219-1.734.209-.249.269-.578.159-.85.127s-.175-.375-.271-.566c-.4-.545.18-.674.393-1-.2-.2-.473-.727-.737-.349a1.259,1.259,0,0,1-1.73-.337,2.18,2.18,0,0,0,.206-.494c-.477,0-.757-.453-1.271-.47a.8.8,0,0,1-.83-.9c-.038-.66-.048-1.172.54-1.558.962.08.762-1.228,1.554-1.4.433-.055.614-.356.845-.6.323-.334.858.077,1.131-.365.158-.256.453-.071.666-.145.546-.312,1.2-.41,1.717-.664.4-.089.757-.261,1.128-.355.394-.1.617-.555,1.119-.414.405.114.634-.5,1.125-.35.373.114.511-.434.944-.366a1.036,1.036,0,0,0,1.007-.2c.318-.313.8-.074,1.209-.143.313-.49.794-.2,1.1-.392.474-.533,1.144-.109,1.626-.488.344-.372,1,.047,1.256-.494.42-.014.84-.04,1.26-.039s.636-.453,1.13-.387c.452.06,1.02.229,1.4-.091.446-.378.918-.15,1.365-.247.1-.022.189-.145.26-.238.263-.3.559.694,1.007.082.478-.792,1.432-.393,2.1-.636.524-.531,1.155-.163,1.724-.256.048-.008.13.131.178.212-.134.324-1.332-.126-.852.478.548.027,2.226.185,1.429-.735-.15-.155-.083-.324.091-.321.3.092,2.243-.18,1.819.29-.4.121-1.049-.045-1.319.253a1.817,1.817,0,0,0,2.1-.29c.107-.125.2-.312.438-.175.5.775,1.183-.254,0-.08.027-.434.476-.231.991-.372.361-.143.469.556.855.185a1.375,1.375,0,0,1,1.7-.417c.335.2.418.31.5-.162.2-.869.835.345,1.149-.184.172-.236.443-.074.665-.039.186.446.5.075.16-.076a.12.12,0,0,0-.159.024c0-.652,1.162-.417,1.553-.354.449.193.783-.762,1.177-.041.91-.94,2.4.256,3.347-.7.525-.059,1.1.168,1.573-.163.5-.351,1.046-.117,1.566-.19.119-.017.281.047.359-.01,1.01-.695,2.254-.175,3.315-.361.679-.593,1.49-.247,2.235-.344.661,0,.786-.6,1.49-.337.441.085.583-.344.947-.387.685-.081,1.461.31,2.043-.344a5.709,5.709,0,0,1,1.455.024c.622.17.953-.389,1.5-.4.748-.014,1.566.274,2.224-.338a10.111,10.111,0,0,1,1.641.019c1.031-.089,1.895-.617,2.957-.362A3,3,0,0,0,73.865,4,12.692,12.692,0,0,1,76.227,4c.513.153.631-.49,1.138-.4a12.912,12.912,0,0,0,1.822.029,1.235,1.235,0,0,0,1.139-.353.359.359,0,0,1,.337.021c.222.231.36.351.678.057.612-.366,1.191.4,1.807.279.746.231.947-1.135,1.418-.469.43.19.6-.022.9-.239.516-.1,1.085.152,1.568-.184.62-.42,1.462,0,2.073-.258C89.88,1.853,91,2.34,91.926,2.2c.816.207,1.3-.253,2.042-.366,1.026.084,2.083-.079,3.1.027,1.028-.1,1.9-.694,2.951-.346,2.019-.574,4.112-.35,6.251-.381,1.223.039,1.741-.6,2.828-.336.3.084.533.478.8-.016.837-.1,1.707.238,2.465-.236,3.265-.373,6.816.006,10.172-.131.594.271.939-.764,1.419-.189.308.392.495-.266.637-.077.239.319.679.182.906.486.248.335.323-.152.322-.3.066-.117.078-.4.318-.134.309.439,1.263,1.02,1.506.22a2.228,2.228,0,0,1,2.293-.091.323.323,0,0,0,.253-.08c.614-.545.139.673.643.433.831-.7.46-.773,1.305,0,.037.029.24-.05.24-.078-.019-1.114,2.738-.3,3.586-.55.643.167.483.512,1.161.015.672-.134.22.859.577,1.051.225-.089.129-.433.184-.626.06-1.127,1.155.38,1.668-.144.3-.193.448-.293.665.025a4.72,4.72,0,0,1,3.067-.2c.191.244.294.108.535.027A8.768,8.768,0,0,1,146.5.08c.463.576,1.116.322,1.683.327C151.368.5,154.7.3,157.833.473c.47.474,1.019.276,1.531.291,1.55.135,3.215-.286,4.6.365.231.017.273-.436.531-.25.693.768,2.807-.4,3.034.691.033.619.7-.261.954-.389.833.729,2.8.088,3.885.322.284.075.527.509.8,0,.868.7,3.353.238,4.589.325.536-.109.807.441,1.315.384.956-.107,1.971.1,2.918-.032.548-.116.869.32,1.316.364.543.053,1.095.013,1.643.013a9.561,9.561,0,0,0,1.822-.025c.609-.12.952.388,1.5.4.87.017,1.8-.258,2.589.339a7.852,7.852,0,0,1,3.318.383c.8.058,1.7-.4,2.426.31.007.007.243-.208.372-.32.462.578,1.115.258,1.683.337.176.025.438-.042.518.05.8.644,1.863.181,2.8.308.847.892,2.208-.2,3,.684a5.035,5.035,0,0,0,1.081.013c.436-.087.589.368.948.371a5.413,5.413,0,0,1,2.594.336c.988.12,2.028-.116,2.957.351.662.169,1.438-.2,2.034.382.636.034,1.322-.174,1.858.356.753.048,1.554-.187,2.223.356,1.5-.2,2.749.585,4.233.347.552-.042.9.625,1.5.372.1-.043.314-.048.349.006.455.715,1.468-.031,1.9.7.636.036,1.324-.182,1.858.356.641.012,1.311-.12,1.858.356a7.207,7.207,0,0,0,1.457-.02c.39-.082.661.151.964.3a2.777,2.777,0,0,1,2.011.359s.239-.205.367-.316c.8.743,2.088.191,3.1.344,1.2.731,2.665.2,3.993.353.173,0,.433-.037.506.055.666.611,1.6.174,2.406.294,1.077.946,2.633-.253,3.671.684.268-.4.471-.169.79-.012,1.088.163,2.229-.2,3.255.407.853.039,1.781-.333,2.553.324,1.008.136,2.318-.392,3,.558.231.3.338-.147.509-.2.337.032.7-.123.986.235s.623.785,1.127.18a3.015,3.015,0,0,1,2.333.281c.857.074,1.769-.238,2.552.351a5.277,5.277,0,0,1,2.556.333c.687.138,1.448-.192,2.1.157.782.41,1.644.076,2.416.239.66.717,1.807.071,2.528.385.729.741,1.808-.182,2.462.6a3.723,3.723,0,0,0,1.056.025c.5-.132.657.454,1.119.383.41-.063.851.048,1.255-.029.477-.091.731.293,1.115.366.459.088.984-.2,1.381.13.534.431,1.148.1,1.7.24.332.5.87.382,1.3.308.537-.092.778.5,1.3.384a2.58,2.58,0,0,1,1.918.553c.129.079.185.16.26.041.3-.474.473.121.639.077.6-.157.955.354,1.462.408.839,1.122,1.524-.806,1.935.355.154.543,1,.361,1.284-.023.04-.052.308.064.47.1-.727.891.5.469,1.01.6.322.054.616.246.935.33s.708-.126,1,.186c.36.38.614.1.877-.144a3.036,3.036,0,0,0,1.845.683c.259-.048.609-.155.834.125.338.419.429-.169.664-.141.5-.145.746.809,1.1.6.169-.249.3-.247.518-.014.281.3.825-.094,1.117.365.077.12.432.08.661.1.773-.214,1.17.527,1.826.337.5-.145.681.481,1.115.363.642-.175,1.059.352,1.609.462.431.361,1.027.1,1.366.595a1.627,1.627,0,0,1,1.129.324c.257.154.659-.021.964.291.155.159.65.006.8.166.263.276.66.2.9.465a.578.578,0,0,0,.464.145c.952-.179,1.505.826,2.408.724.468.014.619.814,1.134.675.5-.138.68.48,1.115.362.417-.112.613.389.929.335a10.755,10.755,0,0,1,4.16,2.1c.511-.066.666.413,1,.611,1.186.321,1.825,1.245,2.8,1.868,1.016.59,2.143,1.6,1.786,2.846-.125.475.418.679.372,1.085-.016.148-.09.262-.642-.172-.117-.218-.059-.524-.319-.683a7.006,7.006,0,0,1-.635-.587c-.072-.058-.22-.026.453.842h0c-.852-.808-.916-.738-.981-.668.432.543.716,1.525,1.523,1.559a1.813,1.813,0,0,1,.256.861c.322.3.616-.349.878-.513.351.262.129.633.191.951a2.584,2.584,0,0,1,.258,2.093c-.491.578.346.437-.016.753-.186.145-.423.3-.495.5-.029.646,1.278.817.987,1.8.205.378.862.05.708.727.4.331.377.944.879,1.228.446.274-.348.459-.148.812.55.5.136.477.011.936.118.608-.636.99-.394,1.6a19.333,19.333,0,0,1-1.429,2.226c.083.646-2.47,1.865-.721,1.8-.143.632-1.1.084-1.531.382-.811.329-1.816,1.085-2.624,1.028-.282.018-.617-.153-.84.127-.388.474-.837-.728-1.133.211-.033.413-.415.345-.36-.018-.08-.623-1.113-.231-1.568-.318-.1.03-.289.257-.069.321.283.048,1.546-.14,1.094.366-.589-.254-.936.359-1.473.377-.735.024-1.546-.293-2.19.331-1.075,0-2.149.011-3.223-.04-.254-.531-.907-.118-1.234-.491-.051-.058-.219-.109-.242-.084-.494.545-1.135.153-1.693.264a1.064,1.064,0,0,0-1.11-.347c-.728.114-1.543-.323-2.2.318a3.952,3.952,0,0,1-.367-.286c-.334.5-.856.3-1.306.308-1.253.014-.956-.05-1.007,1.063-.013.283.362.357.32.541-1.189,1.01,1.317,3.226.512,3.3-.617-.029-.441.4-.465.714-.376-.051-.394.324,0,.351V59.1c.393.027.376.4,0,.351a2.878,2.878,0,0,1,.214,2.469c-.073.033-.123.089-.019.089-.221.337.068.171.161.051.031-.074.026-.114.007-.138.984-.515.4-.286,1.036.487-.232.5-1.095-.05-1.388.376.139.238.536.088.689.37-.85.6.937.772-.081,1.482-.307.248-.278.335,0,.486.1.114.114.252-.038.241-.634-.05-.755.694-1.3.753q.013-.365-.36-.351c-.116-.6,1.163-.136.464-.8-.272-.409.673-.089.6-.5-.236-1.443-1.763.8-1.788,1.3-.361-.019-.5.5-.909.358-.418.685-.662-.319-1.231.146.848.8-.325.236-.383.9-.218-.037-.5,0-.639-.126-.221-.2-.347-.238-.509.017-.233.359-.323-.494-.622-.1-1.064,1.214-.309-.435-1.834.912-.662-.093-1.534.252-1.986-.347-.5.65-2.138.347-3.071.187-.051-.058-.112-.091-.1-.017l-.214-.035a.337.337,0,0,0,.245.217c.018.166-.009.272-.052.279-.843-.1-1.41.428-2.154.415-.73-.1-1.642.283-2.208-.307-.357-.182-.687.381-1.075.317-.323-.009-.581-.012-.571-.436a.27.27,0,0,0-.351-.274c-.042-.1-.083-.285-.126-.286a10.392,10.392,0,0,1-1.839-.023,4.016,4.016,0,0,0-.318.308c.3-.027.614-.06.779.12-.051.271-.267.253-.492.232a4.322,4.322,0,0,1-.6-.006,2.446,2.446,0,0,1-1.27.921c.214.111.436.2.66-.092.122-.127.174-.155.265-.006a2.438,2.438,0,0,0,2.162.071.637.637,0,0,1,.891.083c.933.942,1.941.719,3.074.8.583.145.9-.472,1.475-.385a12.213,12.213,0,0,0,1.794.019c.771-.163,4.269.51,3.8-.71-.519-.6,1.195-.044,1.278-1.044.842.343.5,1.551,2.11.928.245-.372.635-.172.959-.237.454-.539-.973-.292-1.266-.341.243-1.242,1.737-.215,1.8-1.053.331-.03.766.056.969-.116.692-.341,1.751-.2,1.554-1.287h.721q-.014.364.36.351l-.506,1.018c-.472-.021-.75.449-1.273.418-.78.129-1.75.757-.186.7.286.65-.755.684-1.154.732a.119.119,0,0,0,.005.237,3.674,3.674,0,0,0,2.922-.6c.458-.078.759-.567,1.273-.4.129-.361.363-.407.721-.351-.129.361-.363.407-.721.351.013.354-.3.546-.521.641-.54.12-.787.555-1.282.786-.781.48-1.672.585-2.413,1.089a1.9,1.9,0,0,1-1.116.745c-.318.493-1.09.007-1.363.6a2.4,2.4,0,0,0-1.491.32c-.323.228-.944-.176-1.294.313-1.044.221-2.407-.276-3.268.358-.008.01-.156-.092-.245-.129-.463-.205-.576.583-1.131-.032-.476-.49-.727.531-1.112-.049l-1.565-.038c-.337.494-.857.3-1.306.3-1.619-.188-4.538.444-5.8-.288-.511-.046-1.034-.212-1.473.245a.489.489,0,0,1-.46-.047c-.184-.186.151-.226.172-.36.015-.368-.4-.223-.639-.245a.445.445,0,0,0-.011-.112,1.257,1.257,0,0,1-.639,0c-.662-.012-.967.79-1.528.016-.778.929-2.37-.162-3.214.619-.025.027-.172-.033-.249-.077a1.587,1.587,0,0,0-1.78.162c-1.4.011-2.8.016-4.2,0-.329-.019-.187-.485-.406-.68-.352.317-.434,1.087-.858.543-.379-.4-1,.061-1.29-.473-.049-.09-.324-.087-.5-.089-1.039.122-2.272-.309-3.183.269-.148.124-.222-.116-.238-.286-.156-.754-.341.16-.642-.1-.4-.422-1.023-.178-1.546-.243-.015-.42.031-.853-.368-.525-.529.351-2.355,1.015-2.476.169.6-.3-.18-.471-.082,0h.082c-.591.217-1.065.686-1.656.1a.93.93,0,0,0-.974.069c.088.063.181.185.263.178.394-.01.614.319.791.576-.537.487-.731-.491-1.149.034-.323.284-1.1.179-.99-.372.115-.164.513-.244.7-.4-.088-.063-.2-.195-.262-.177-.594.159-.937-.42-1.46-.456-.024,0-.07-.09-.058-.118.14-.271.573.011.631-.383-.328-.271-.874-.064-1.4-.247-.04-.085-.132-.158-.108-.038h0c-.364-.242-.176.131,0,.174.049.9.667.818,1.157,1.277a.915.915,0,0,1-.99.023c-.08-.087-.172-.229-.262-.232-.848.068-1.964-.37-2.21.672a1.035,1.035,0,0,1-.147-.3c-.034-1.592-1.993-.1-2.85-1.1-.746.091-2.317-.237-2.7.237-.435.4-.09-.8-.875-.552-.281.137-.03.276.076.356.695.368-2.932.825-3.073.582-.284-.436-.43.018-.653.068-.693.126-1.965,0-.563-.487a.81.81,0,0,0-1.193.093l-2.322-.008c-.233-.388-.725-.146-.952-.316a2.961,2.961,0,0,1-1.365-1.535c-.217-.533-.6.574-1.111-.048a1.159,1.159,0,0,0-.473-.166c-.46.1.379.611-.064.686-1.776.772-.576,0-2.069.018-2.855.342-2.2-1.03-3.129-.621-.031.031-.07.107-.058.12,1.378,1.169-.068.791-.986.866-.714.111-.291-.658-.946-.709-.223-.09-1.282.122-.917-.309.251-.225.455-.579.791-.083.462.044,1.154.175,1.474-.33a5.6,5.6,0,0,1,1.632.145c.086.225.7.233.575.076.815.1,1.466.125,1.121-.179a.969.969,0,0,1-.75-.38.914.914,0,0,1-.632.346c-1.033-.734-1.62.03-2.654-.659-.341-.334-.561.289-.9.289-1.785-.839-1.888.023-3.512,0-.512-.632-1.219-.275-1.842-.338-.038,0-.1.071-.123.122-.014.029.021.116.039.117.467.032.748.507,1.262.465.626.021,1.376-.179,1.928.153-.283.431-1.005-.05-1.082.549h-1.27c-.27-.4-.818-.344-1.136-.684-.3.682-.982-.55-1.627.157a.389.389,0,0,1-.607.083c-.547-.562-1.439.044-1.874-.732-.406-.513-1-.238-1.375.1-1.075-.108-2.409.323-3.3-.328-.432-.126-.964.177-1.334-.282-2.037-.173-4.086-.066-6.129-.092-.454-.986-1,.492-1.726-.1-.208-.111-.325-.319-.524-.023-.5.309-1.331.04-1.945.126-.263-.41-.49-.247-.8-.02-1.438.339-.455-.848-1.1-1.037-.364.039-.94-.123-1.194.156.158.269.67.128.947.258.187.163.2.638-.161.642-.287.057-.4-.257-.6-.293-.16-.03-.358.215-.558.286-1.079.043.653-1.3-.587-1.035-.22.055-.139.543-.262.579-.426.114-.165-.278-.277-.394-.207-.238-.793-.325-.722.146a5.6,5.6,0,0,1-3.61.186c-.963-.393-2.019-.1-3.034-.186-1.242-.784-2.746-.129-4.04-.373-1.358-.836-2.914.151-4.236-.8-.068-1.174-2.657-.408-3.549-.6-.542.016-.885-.543-1.5-.386-1,.13-2.081-.031-3.1.023-.357,0-.319-.252-.342-.486-.056-.579-.063-.583-.6-.58-1.659-.1-.108.564-.794.709-1.116-.178-2.627.414-3.514-.333-.614.639-1.606.216-2.4.334-1.029-.156-2.29.393-3.131-.337l-.388.3c-.488-.806-2.033.272-1.991-.859a.4.4,0,0,0-.238-.079c-.527.672-.723-.039-1.2-.09a1.261,1.261,0,0,1,.346-.553c-1.285-.605-4.213.419-5.254-.485l-1.587.062c-.37.46-.89.2-1.343.265-.667-.754-1.73-.156-2.575-.371-.44-.1-.568.4-.944.373a1.239,1.239,0,0,0-.818.23,2.335,2.335,0,0,1-1.979-.2c-.609-.139-1.314.162-1.844-.384-.69.171-1.968-.31-2.289.356-.061,0-.152-.026-.178,0-.548.78-.953,0-1.638-.176-1.212-.843-2.385,1.143-3.573.4-.5-.531-1.567.209-1.571-.686,0-.08-.158-.251-.2-.238-.694.2-1.152-.508-1.868-.4-.539.078-1.214.3-1.7-.258-.3.1-.53.381-.921.3-.448-.09-.986.172-1.318-.345-.918.718-1.975.214-3.15.321a.224.224,0,0,0,.01-.152c-.162-.309-.642-.155-.933-.155-.359.337.4.356.777.322.783.716-5.98.29-6.666.29-.147-.081-.128-.154.024-.253,1.026-1.209-1.346-.38-1.541-.983.18-.414,2.574.28,1.922-.468-1.22-.18-2.638.382-3.7-.353-.047-.049-.306.089-.463.149-2.965-.368-6.577-.079-9.807-.163-.3,0-.715.123-.894-.022-.643-.524-1.368-.318-2.059-.325-2.493-.014-4.993-.027-7.484,0-.584.274.153.792-.944.7-1.085.076-1.313.738-2.832.356-.636-.057-1.339.2-1.857-.357-2.674.242-.67-.839-2.4-.712-.292-.083-.814.078-.975-.191.313-.39,1.139.135,1.4-.382-2.629-.341-5.594-.018-8.33-.145-.3,0-.383.263-.588.339a.879.879,0,0,1-.746-.319c-.275.508-.528.022-.8.008-.718.108-2.357-.327-2.661.334-.669.138-1.448-.325-2.019.349-.39-.529-.664-.262-.437.276.218.427.225.439-.189.44-.255-.009-.7.032-.566-.353.459-.182.076-.483-.078-.156a.117.117,0,0,0,.029.16c-.284.027-.518-.093-.718.115a.653.653,0,0,1-.441.222c-.4-.043-.647.254-.957.332a1.43,1.43,0,0,1-.926-.329c-.426-.284-.773.726-1.175.032-.213.075-.319.5-.526.217-.705-.621-1.763.169-2.49-.586-.052-.05-.254-.019-.333.041-.553.575-1.514.2-2.247.307a6.392,6.392,0,0,0-1.456.022c-.609.146-.935-.493-1.5-.391-.117.021-.267-.124-.4-.193.35-.391,4.938.181,3.637-.5-.7-.18-6.8.4-6.027-.351.317-.1,2.478.237,1.766-.356-2.251-.03-4.506,0-6.759-.011-.213,0-.334-.112-.325-.318.217-.592-1.448-.446-.975-.1.177.064.842.132.461.378-.646.255-1.074-.286-1.608-.439-.653-.362-.733.709-1.394.419-.3-.181.039-.268.119-.357.31-.357-.619-.419-.615-.063.327,1.272-6.952-.258-7.511.835-.647-.639-2.231-.446-3-.027-2.447.221-.533.381.5.45.466.495-2.012.132-2.339.2-.233-.06.192-.339.214-.492-.758-.55-1.343.692-2.11.088-.8-.622-.654.377-1.139-.045-.767-.471-1.807.034-2.662-.192-1.047-.167-1.639.822-2.625.739-.04,0-.131.088-.123.112.081.423.561.167.861.259.365.243-.348.441-.546.5.144.065.3.205.429.181.53-.1.794.468,1.28.452.6.418-3.762.43-3.751-.057a.715.715,0,0,0-.683-.008c-1.545.821-3.608.118-5.351.338-.49.136-1.057-.26-.841-.755.134-.122.17-.233-.006-.249-.538-.047-1.08-.042-1.62-.065-.449-.019-.89-.788-1.347-.011-.359-.6-1-.091-1.4-.59-.076-.123-.437-.074-.667-.111-.343-.054-.739.152-1.027-.157-.354-.38-.8-.117-1.2-.2-.695-.416-1.37-1.1-2.288-1.075-.08.007-.179-.142-.262-.226-.208-.21-.574-.063-.766-.369a1.061,1.061,0,0,0-.87-.523c-.049,0-.121-.186-.127-.289-.04-.567-.352-1.395-1.013-1.524-.021,0-.053-.113-.049-.116.571-.3-.058-.536-.031-.792.08-.866-.847-1.384-1.394-1.924-.636-.4-.289-1.213-.8-1.648-.081-.214.315-.544.342-.732M10.92,34.231c-.312-.018-.594-.425-.9-.3-.162.078-.146.139-.03.248.44.414.434.42,1.432.419.052,0,.284-.018.514-.048.462-.393-.816-.2-1.013-.321m6.342-11.622c-.079.191.179.165.348.266.531-.293-.056-.574-.348-.266m5.783-.649.13.127.236-.127c-.109-.188-.223-.068-.366,0m1.651.549c-.175-.135-.254-.414-.554-.371l-.009-.008c.073-.063-.075-.274-.2-.319a2.237,2.237,0,0,1,.093.213c-.292-.262-.214-.03-.039.11a.328.328,0,0,0,.079.012c.145.572-.64.094-.651.7h-.366c-.085-.692-.942-.052-1.223-.656-.446.138-.156.666-.245,1.009-.066.472.809.515.736,0a3.7,3.7,0,0,0,.731-.356c-.054.371.338.389.366,0,.343-.087,1.645.265,1.285-.341m.247-.968c-.079.191.179.165.348.266.531-.293-.056-.574-.348-.266m1.576-8.66-.13.229.13.127c.07-.138.194-.25,0-.356m1.463,8.189-.13.127.13.229c.194-.106.07-.217,0-.356m.183-2.67c.142.068.256.188.366,0-.142-.068-.257-.189-.366,0m-1.391,3.862a1.56,1.56,0,0,1-.116-.685c-.153-.269-.372.035-.322.205H26.5c.1.191.175.346.242.474a.563.563,0,0,1-.285-.162c-.279-.8-.4.133-1.053.074-.16.028-.175.158-.069.24.361.567,1.029.432,1.636.442-.065-.177-.115-.327-.156-.458.247.454.294.452.338.459a1.6,1.6,0,0,0,1.7-.937c-.7-.442-1.47.447-2.075.347M29.5,21.134c-.3.02-.235.432-.095.577.11.091.324.064.433.081,1.259-.23-.118-.284-.338-.657m1.433.47c.458.121.588.292.894,0-.307-.292-.435-.122-.894,0m302.386,16.57c-.1-.207-.646-.185-.6.11.1.2.663.181.6-.11M329.95,33.14l.128-.226-.128-.125c-.071.139-.189.248,0,.351m-2.575,15.387.232-.125c-.106-.184-.218-.069-.36,0l.128.125m-9.3,1.98c.452.119.58.287.881,0-.3-.287-.43-.119-.881,0m1.782-.526-.128.226.128.125c.071-.138.189-.248,0-.351m.18-20.174.128.125.232-.125c-.106-.184-.218-.069-.36,0m.35,21.021c.078-.157-.148-.262-.321.059.112-.023.218-.042.321-.059m-.207.167a.552.552,0,0,0,.14-.086c-.169.067-.148.09-.14.086m1.507-.63c-.409.038-.994-.206-1.282.153-.161.337.5.091.685.165-.143.036-.262.067-.364.1.806-.1,1.216-.062.961-.414m.22-.622c-.078.188.177.163.343.262.524-.289-.055-.566-.343-.262m.307.779c.644.73.415.441.9.223-.646-.359-.776-.294-.9-.223m.375-.215c.246.189.419.325.548.428a1.368,1.368,0,0,1,.143-.052c-.056-.4-.334-.323-.691-.376m.691.532-.041-.023c.184.147.232.185.249.176.366-.174-.32-.527-.208-.152m.2-.863a.3.3,0,0,0,.059.009c-.281-.417-.268-.18-.059-.009m-.053-.318c.069.132.128.237.178.322.112-.042-.041-.274-.178-.322m.367.326c-.09-.041-.143-.014-.159.047.129.214.189.27.209.258.217-.123.069-.224-.05-.3m-5.565,2.446c.627-.155.811.579,1.41.213-.044-.154-.521-.426-.211-.485.508.052,1.286-.186,1.666.111-.175.307-.807.029-.7.561.159.7.737-.037,1.075-.043-.081.5.817.46.721,0a3.431,3.431,0,0,1,.349.032.178.178,0,0,0,.014.142c.129.241.728.128.8.177l-.286-.214c.545.134.976.3,1.021.207a.293.293,0,0,0,.262-.367c.159-.787-.385-.678-.989-.593.023.082.02.189.074.242.389.382-.183.406-.539.383-.4-.3-.518-.367-.709-.36v-.351c.175,0,.431.072.511-.013.46-.552,1.173-.254,1.793-.348.1-.03.263-.268.054-.321-.742.163-2.39-.325-2.718.331-1.727-1.074-1.138.605-2.4-.282-.3.443-.766.194-1.144.294-1.082.3-1.661.827-.064.684m-1.5-.574c-.1-.207-.646-.186-.6.11.1.2.663.181.6-.11m-3.364-2.577c.189-.1.071-.212,0-.351l-.128.125.128.226m-1.262-.175-.232-.125-.128.125c.142.069.255.184.36,0m-2.532,9.471c.122-.362-.609-1.24-.718-.517.008.265.5.8.718.517m-.892-9.253c1.116-.241-.065-.595-.476-.275-.064.21.325.184.476.275m-1.8-.393c.189-.1.071-.213,0-.351l-.128.125.128.226m-.9-.176-.232-.125-.128.125c.142.069.254.183.36,0m-3.424-2.631c-.071.138-.189.248,0,.351l.128-.226Zm0,17.893c.189-.1.071-.212,0-.351l-.128.125.128.226m-5.59.351c.257-.02.607.12.657-.236.007-.025-.076-.109-.12-.11-.353-.009-.707-.014-1.06.005-.38.363.246.369.523.341m-.537,1.4c.071-.138.189-.248,0-.351l-.128.226.128.125m-.721,2.105c.071-.138.189-.248,0-.351l-.128.226.128.125M295.4,39.506l-.232.125c.106.183.218.069.36,0l-.128-.125m-.181,24.884c.524-.288-.055-.566-.343-.262-.078.188.177.163.343.262m-.54,2.732L294.81,67c-.142-.069-.255-.184-.36,0l.232.125m-1.494-12.931-.128.125.128.226c.189-.1.071-.213,0-.351m1.081,11.578c.071-.138.189-.248,0-.351-.071.138-.189.248,0,.351m-1.354,2.105c.184.042.309-.086.453-.176a.835.835,0,0,0-1.081,0,.717.717,0,0,0,.628.176m.273-3.508c.376-.084,1.07.227,1.191-.239-.612-.286-1.546-.032-2.259-.1-.44.549.759.285,1.069.341m-2.163,2.807c.189-.1.071-.212,0-.351l-.128.125.128.226m-.18-3.684c-.142-.069-.255-.184-.36,0,.142.069.255.184.36,0m10.993,5.789c.071-.138.189-.248,0-.351-.071.138-.189.248,0,.351m-.24,2.577c-.1-.207-.646-.186-.6.11.1.2.663.181.6-.11m-.249-.8c.524-.288-.055-.566-.343-.262-.078.188.177.163.343.262m-2.574.152-.273-.176c-.167.031-.349.017-.448.176.264.119.487.265.721,0m-2.826-.757c-.042.3.5.316.6.11.06-.29-.506-.314-.6-.11m.844.927c.328-.2-.132-.434-.369-.345-1.011-.006-.194.52.369.345m-2.883.006.128-.226-.128-.125c-.071.138-.189.248,0,.351m-.732-.7c.249.021,1.152.051.732-.346-.473-.008-.946-.012-1.419,0-.451.433.407.342.687.341m-1.07.7.128-.226-.128-.125c-.071.138-.189.248,0,.351m-1.333-.947-.3-.106c-.425-.015-.436.464-.169.7.183-.184.408-.333.47-.6m-.851,1.657c.128-.021.779-.022.451-.3-.424-.428-.451-.429-.865.006-.262.26.183.27.414.3m-1.168-.36.229-.234c-1.1-.475-2.182.39-.229.234m-1.874-19.121-.232-.125-.128.125c.142.069.255.184.36,0m-.9-.175c-.071.138-.189.248,0,.351l.128-.226-.128-.125m-.057,19.183a.729.729,0,0,0,.139.034c.129-.106,0-.194-.1-.267-.091-.042-.143-.014-.159.047a1.9,1.9,0,0,0,.125.186m-.156-.239a.217.217,0,0,0,.027,0,.153.153,0,0,0,.019-.047.367.367,0,0,0-.059.029l.012.022m-.027-45.73c.059-.29-.506-.314-.6-.11-.042.3.5.316.6.11m-2.395,41.711a1.409,1.409,0,0,1,.271.008c.19.042.177.134.105.241.266.142.426.239.043.67a1.059,1.059,0,0,1-.063.088.531.531,0,0,0,.292.041c.187-.309.514-.317.827-.348a.61.61,0,0,1,.107-.213c.392-.43.1-.625-.348-.685-.151.1-.223.1-.451-.011l-.015-.006a1.828,1.828,0,0,0-.809.175c.013.014.028.027.042.04m1.3-30.253c-.186-.192-1.236-.223-1.326.107.091.2.348.068.465.142.332.447.727.242.861-.249m-2.688.536c.515.237.71-.175.49-.576-.179.066-.828.419-.49.576m-.122-.821L281.6,36.7l-.128.125c.142.069.255.184.361,0m-1.391.55c.524-.289-.055-.566-.343-.262-.078.188.177.163.343.262m.036-19.411c1.185-.131,1.856.542,3.057.441.005-.031,1.084.068.706-.286-.228-.223-.431-.592-.77-.1a.351.351,0,0,1-.327.025c-.7-.823-1.9.175-2.579-.694-.317.079-1.969-.251-1.408.342.443.077.956-.182,1.321.269m-1.228,19.266c.059-.29-.507-.314-.6-.11-.042.3.5.316.6.11M278.359,17.3l.232-.125c-.106-.184-.218-.069-.36,0l.128.125M277.33,17c.071-.138.189-.248,0-.351l-.128.226.128.125m-1.622,19.121.128.125.232-.125c-.106-.183-.218-.069-.36,0m0,.7c.142.069.255.184.36,0-.142-.069-.255-.184-.36,0m.738,34.238a4.727,4.727,0,0,0-1.761.1.489.489,0,0,1-.148.086c.666.016,1.727.229,1.909-.184m-1.765,1.457-.236-.127-.13.127c.142.068.257.188.366,0m-1.5-1.662-.048-.025c-.071.069-.117.038-.22-.013l-.045-.023a.263.263,0,0,0-.048.061c.142.069.255.184.36,0m-1.373-35.023c.289.3.867.027.343-.262-.166.1-.421.074-.343.262m-1.554-5.528-.316.2c.234.265.457.12.721,0l-.4-.2m-.316,5.466.232.125.128-.125c-.142-.069-.254-.184-.36,0m1.442,0-.232-.125-.128.125c.142.069.254.184.36,0m-1.618,35.847c.361-.043.946.159,1.195-.111-.088-.4-.557-.189-.857-.235s-.669.075-.337.346m-.544-41.46-.232-.125-.128.125c.142.069.255.184.36,0m-2.586,41.293c-.234-.257-.676-.118-1.021-.2-.254.063-.632-.038-.808.2a2.684,2.684,0,0,0,1.829,0m-4.8-41.819c.071-.138.189-.248,0-.351-.071.138-.189.248,0,.351m-.721-2.807c.071-.138.189-.248,0-.351l-.128.226.128.125m-1.442.7c.071-.138.189-.248,0-.351l-.128.226Zm.18-1.228-.232-.125-.128.125c.142.069.254.184.36,0m-1.079,44.618c.07-.139.193-.25,0-.356-.07.138-.194.25,0,.356m-.549-.178a1.879,1.879,0,0,0-.455-.166c-.085-.009-.184.106-.276.166.237.268.464.121.731,0m-.937-2.675c-.038-.169-.084-.218-.352,0,.12,0,.237,0,.352,0m-.639,0c-.259-.23-.619-.149-.922-.148a1.972,1.972,0,0,0,.922.148m-2.082,2.672-.236-.127-.13.126c.142.068.256.189.366,0m-3.491.162c.177-.084.518-.667.577-.166.428.447,1.13-.369,1.714-.258.127-.045.039-.231-.048-.237-.681.179-1.141-.61-1.823-.392-.7-.16-.732.658-.42,1.052m-2.446-.571c.316.293.646.2.983.231,1.127.106.358-1.326-.349-.357-.5-.636-1.2-.265-1.817-.344-.035,0-.1.143-.128.228.294.342.989-.135,1.311.242m-3.082.175c.341-.23,1.386-.434.85-.949-.287.219-.965.275-.975.655.041.1.083.2.125.294m-1.039-.3c.07-.139.194-.25,0-.356-.07.138-.194.25,0,.356m-.732-.356.13-.127-.13-.229c-.194.107-.07.217,0,.356m-1.829.356c.07-.139.193-.25,0-.356-.07.138-.193.25,0,.356m-.593-.561c-.129-.214-.233-.068-.318.049a.114.114,0,0,0,0,.129c.281-.108.33-.16.319-.178m-.325.37a.152.152,0,0,0,.02-.1c-.768.349-.2.378-.02.1m-.058-.168c-.183-.053-.621.092-.639.211.286-.087.488-.155.639-.211m-2.735.664.236-.127c-.11-.189-.224-.068-.366,0l.13.127m-.624-.67c.211-.054.838.054,1.238.038a4.591,4.591,0,0,0,.564.285c.371-.177-.324-.535-.211-.155-.1-.048-.2-.092-.3-.133.2-.015.326-.065.3-.194-.291-.34-.612-.143-1.149-.188.225.1.412.193.568.269-.912-.338-1.482-.332-1,.078m-4.078-.7c.07-.139.194-.25,0-.356-.07.138-.194.25,0,.356M225.487,8.964c.194-.106.07-.217,0-.356l-.13.127.13.229m-4.12,56.974c-.06-.231.576-.169.81-.168a1.744,1.744,0,0,0,.487-.008c-.2-.391-.826-.069-1.2-.193-.636-.079-.633-.1-.758.032-.275.354.262.352.66.337m-1.053,2.079.236-.127c-.109-.188-.224-.068-.366,0l.13.127m-.682-2.441c.3.048.643-.049.37-.344a.6.6,0,0,1-.573-.211c-.081-.031-.16-.068-.239-.106a.307.307,0,0,0-.044.076.4.4,0,0,0,.486.586m-.24,2.259c-.1-.21-.655-.188-.613.111.1.207.673.183.613-.111m-.305-1.369-.13-.127-.236.127c.109.188.224.068.366,0m-.967,1.551.236-.127c-.109-.188-.223-.068-.366,0l.13.127m-1.723-.356.13-.126c-.142-.068-.256-.189-.366,0l.236.126m-1.881-2.441c.07-.138.194-.25,0-.356l-.13.229.13.127m-4.081,1.368a.529.529,0,0,0,.607-.122.478.478,0,0,0-.731,0l.125.122m-1.405.056c.07-.138.194-.25,0-.356l-.13.229.13.127m-1.472,0c.578.055,1.18.01.762-.691-.734.786-.426-.307-.874.1a.629.629,0,0,1-.612.239c-.42.4.469.372.723.35m-1.454,0c.07-.138.194-.25,0-.356l-.13.229.13.127m-1.211-.115c.293.309.88.027.348-.266-.169.1-.428.076-.348.266m-.862-.364c.06-.295-.514-.319-.613-.111-.043.3.511.321.613.111m-3.954.523c0,.1.1.194.153.291.9-1.658.822.32,1.991-.494.242-.23.578-.12.764-.365-.564-.408-1.415-.1-2.093-.188,0-.009,0-.018,0-.027-.588.115-1.443-.109-1.9.214.247.381,1.133-.118,1.087.57M198.6,66.11c-.142-.068-.256-.189-.366,0,.142.068.257.188.366,0m-3.288.378a.177.177,0,0,0-.013.05c.584-.072.194-.367.013-.05m-.01.192c-1.273.277-.069.522,0,0m-.274-.127c-.17-.149-.253-.385-.451-.023.178.017.326.023.451.023m-1,.091c.07-.138.194-.25,0-.356l-.13.229.13.127m-7.628-.407.13-.127c-.142-.068-.256-.189-.366,0l.236.127M175.928,64.33l-.236-.127-.13.127c.142.068.256.188.366,0m-1.28-43.26-.13.127.13.229c.194-.106.07-.217,0-.356M173.2,64.5c.6.016,1.2.013,1.8.005.481-.511-.8-.323-1.088-.351-.285.006-1.143-.106-.717.346m-.38-43.072.13-.127-.13-.229c-.194.107-.07.218,0,.356m-1.463,0,.13-.127-.13-.229c-.194.107-.07.218,0,.356m-1.429-.916-.121.118a.21.21,0,0,0,.168-.037c-.016-.026-.032-.053-.046-.081m.18,1.579.109.059c.064,0,.129,0,.194,0l.058-.056c-.142-.069-.255-.184-.361,0m.541-1.579-.119.116a.19.19,0,0,0,.168-.03c-.016-.028-.033-.056-.049-.086m-.579,43.642c.274.008.877.069.56-.345-.206-.432-.627.065-1.1-.006-.378.3.25.412.541.35m-.979-42.027c.107-.071.152-.14.153-.2a.418.418,0,0,0-.148.1.114.114,0,0,0,0,.1m-.125,41.862a1.4,1.4,0,0,0-.594-.49l-.127.3c-.032.452.48.425.72.194m-.953-41.9.236-.127a.283.283,0,0,0-.036-.05.418.418,0,0,0-.2.117.16.16,0,0,0-.012.05l.01.01M167.49,22l-.085-.083c-.025.049-.055.094-.077.136A.132.132,0,0,0,167.49,22m-.157,41.8c.07-.139.194-.25,0-.356l-.13.229.13.127m-.784-3.612.236-.127c-.109-.189-.224-.068-.366,0l.13.127m-.328-38.1a.217.217,0,0,0,.1-.164l-.122.12.025.045m.372-20.24c.241.09.707-.146.375-.35-.57-.177-1.4.356-.375.35M142.1,13.948c.07-.138.194-.25,0-.356l-.13.229.13.126M135.513,1.843l-.13.229.13.127c.07-.138.193-.25,0-.356m.122,58.625c.06-.295-.514-.319-.613-.111-.043.3.511.321.613.111M135.147.775c.07-.138.194-.25,0-.356l-.13.229.13.126m-.183.89c-.142-.068-.257-.189-.366,0,.142.068.256.188.366,0M134,.723,134.233.6c-.109-.188-.224-.068-.366,0l.13.127m-.557,59.745c.06-.295-.514-.319-.613-.111-.043.3.511.321.613.111M130.027,2.555c.07-.139.194-.25,0-.356l-.13.229.13.127M129.3.775c.07-.138.194-.25,0-.356l-.13.229.13.126m-.459,40.578c.085.009.184-.106.276-.166-.237-.269-.464-.121-.732,0a1.883,1.883,0,0,0,.456.166m-.09-40.4-.236-.127-.13.127c.142.068.257.188.366,0m-.732,40.234-.13-.126-.236.126c.109.189.224.068.366,0m-.731,18.871-.13-.127-.236.127c.11.188.224.068.366,0m-.972.834a.528.528,0,0,0,.607-.122.479.479,0,0,0-.731,0l.125.122m-1.77-3.5c.07-.138.193-.25,0-.356-.07.139-.194.25,0,.356M123.39,60.9l.236-.127c-.109-.188-.223-.068-.366,0l.13.127m-.679.052c.07-.139.194-.25,0-.356l-.13.229.13.127m-2.926-3.561c-.07.138-.193.25,0,.356.07-.139.194-.25,0-.356m2,4.273c.263-.018.613.118.683-.235-.364-.289-1.081-.052-1.559-.111-.484.5.584.32.877.346m-.455-.723c.112.119.34-.033.709-.4.639-.4-2.351-.334-2.414-.142.455.466,1.222-.071,1.706.543m-2.64-3.194c.07-.139.194-.25,0-.356-.07.138-.193.25,0,.356m-.366,3.2c-.147.214-.476.3-.485.6.446.449.942-.227.485-.6m-2.194-3.561c.07-.138.194-.25,0-.356l-.13.229.13.127m-.183-9.079c-.142-.068-.256-.188-.365,0,.142.068.256.189.365,0m-1.338.122c.308.041.33-.5.114-.6-.3-.059-.327.5-.114.6M113.2,20.357l-.13.127.13.229c.193-.107.07-.217,0-.356m.007,27.772c.307.057.668-.075.337-.346-.358-.02-.717-.014-1.076,0-.425.4.486.373.738.351m-1.1-27.416c.193-.107.07-.217,0-.356l-.13.127.13.229m-.366-3.2c.07-.138.194-.25,0-.356l-.13.229.13.127M109.91,57.387c.07-.138.193-.25,0-.356l-.13.229.13.127M107.9,37.626l-.236-.127-.13.127c.142.068.256.188.366,0m-.732-20.651-.13-.127-.236.127c.109.189.223.068.366,0M106.8,37.626l-.236-.127-.13.127c.142.068.256.188.366,0m-1.1,0c-.142-.068-.257-.189-.366,0,.142.068.256.188.366,0m-2.012,4.094c.194-.106.07-.217,0-.356l-.13.127.13.229m-.131-3.892c.531-.293-.056-.574-.348-.265-.079.19.179.165.348.265m-.1-20.8-.13-.229c-.193.106-.07.217,0,.356l.13-.126m.053-1.12-.236-.127-.13.127c.142.068.256.189.366,0m-.549,31.511.13-.127-.13-.229c-.194.107-.07.217,0,.356M96.012,15.729c-.07.138-.193.25,0,.356.07-.138.193-.25,0-.356M99.3,37.448l-.13.229.13.127c.07-.138.194-.25,0-.356m3.161.38c.531-.293-.056-.574-.348-.265-.079.19.179.165.348.265m-.06-20.5c.164-.308-.156-.46-.382-.558l-.328.193c.175.152.5.735.71.365m-.784,20.354c.06-.295-.514-.319-.613-.111-.043.3.511.321.613.111m-1.272.072.236-.127c-.109-.189-.223-.068-.366,0l.13.127m.236-16.861-.236-.127-.13.127c.142.068.257.189.366,0m.008-5.163.358-.178a.848.848,0,0,0-1.1,0c.245.206.368.2.739.178M99.3,48.842c.07-.139.194-.25,0-.356l-.13.229.13.127m-.863-32.733c.532-.293-.055-.574-.348-.265-.079.19.179.165.348.265m-1.507.162c.212-.143.523-.175.721-.367-.146-.089-.272-.218-.457-.175-.383-.066-.755.086-.633.518.106.175.21.168.369.025m-.67,40.289c.293.309.88.027.348-.266-.169.1-.428.075-.348.266M96.5,20.836c-.1-.21-.655-.188-.613.111.1.207.673.183.613-.111M96.012,16.8c.193-.107.07-.217,0-.356l-.13.127.13.229m-.549,39.7c-.142-.068-.257-.188-.366,0,.142.068.257.189.366,0m-.548-40.412c.07-.138.193-.25,0-.356-.07.138-.193.25,0,.356M81.394,5.742c-.7-.517-.761-.324-1.277.18.265.3.471.179.928.193.249,0,.472-.006.684-.012-.493-.01-.395-.024-.294-.046.2-.1.181-.277-.041-.315m2.129-1.356-.13.127c.142.068.257.189.366,0l-.236-.127m1.012-.08-.411.206c.268.121.494.269.731,0l-.32-.206m4.84.792-.13.126c.142.068.256.189.366,0L89.376,5.1m0,1.068-.13.126c.142.068.256.189.366,0l-.236-.126M89.315,7.3c-.079.19.179.165.348.266.531-.293-.056-.574-.348-.266m.845.6-.13.23.13.126c.07-.138.194-.25,0-.356m.241,7.243c-.043.3.511.321.613.111.06-.295-.514-.319-.613-.111m-.058,2.015-.032-.018a.231.231,0,0,0,.021-.146.418.418,0,0,0-.412-.192c.066.08.117.149.162.214-.289-.142-.366-.105-.44-.066a1.347,1.347,0,0,0,.548.247c.248.51-.511.266-.945.317l-.009-.008c.073-.063-.075-.274-.2-.319a1.022,1.022,0,0,0,.095.215c-.294-.264-.216-.033-.041.108a.211.211,0,0,0,.12.006c.548.659,1.92.172,2.8.321.62-.971-1.12-.63-1.668-.679m1.829-.89.277.178.454-.178c-.268-.121-.494-.269-.732,0m.572.9c-.483.5.584.32.877.346.263-.018.613.118.683-.235-.364-.289-1.081-.052-1.56-.111M93.194,57c0,.016,0,.032,0,.048.488-.095,1.151.095,1.536-.2-.306-.314-1.014.017-1.312-.263-.423-.3-.66-.361-1.031.026-.272.283-.546-.191-.854-.211-.425.974,1.116.491,1.659.6m-2.8.053c.531-.293-.055-.574-.348-.265-.079.19.179.165.348.265m-.783-.2-.236-.127-.13.127c.142.068.256.189.366,0m-.6,2.263.236-.127c-.109-.188-.224-.068-.366,0l.13.127M88.692,5.052a3.151,3.151,0,0,1-.387.327c-.331-.517-.863-.279-1.318-.331-.6-.068-1.023.51-1.676.377-.621.04-3.8-.346-3.747.328a4.572,4.572,0,0,0,1.269-.015c.28-.078.423.089.569.228.871-.137,1.033-.305,1.328-.223.492.224,1.7-.376,1.594.523a.167.167,0,0,0,.1.128c.408.017.816.031,1.223.016.213-.152.054-.924.516-.454.3.382.994-.643.527-.9m-3.3,1.42c.241.09.707-.146.374-.35-.57-.177-1.4.356-.374.35m2.752.89c.142.068.256.189.366,0l-.236-.126-.13.126m.366,9.97c-.306-.292-.435-.122-.895,0,.458.121.588.292.895,0m-.82,41.836.454-.178c-.268-.121-.494-.269-.731,0l.277.178m-.46-21.719.13-.229-.13-.127c-.07.138-.194.25,0,.356m-.023-20.291c-.079-.036-.128-.019-.152.024.144.512.5.148.152-.024m.023-1.784c-.07.138-.194.25,0,.356.07-.139.194-.25,0-.356m-.183,1.939a.848.848,0,0,0,.005-.123.184.184,0,0,0-.005.123m-.679,41.88c.531-.293-.056-.574-.348-.265-.079.19.179.165.348.265m.253-21.976c-.1-.21-.655-.188-.613.111.1.207.673.183.613-.111m-.812-19.624c-.468.286-.2.313.029.2.126-.1.158-.176.136-.223.429-.044.458.034.709-.417h.365c0,.007,0,.012.006.019-.009-.391-.309-.425-.371-.019-.362-.057-.6-.01-.732.356l-.031.018c-.166-.07-.624.031-.669.191a4.449,4.449,0,0,1,.559-.126m-.883,19.857.232-.238c-1.121-.482-2.214.4-.232.238m-.491-19.71-.13-.229c-.194.107-.07.217,0,.356l.13-.127m-1.593,19.71c.194-.107.07-.218,0-.356l-.13.127.13.229m-.193-19.583c.294.063.941-.058.559-.351-.358-.01-.718-.015-1.076,0-.418.387.232.364.517.346m-1.635.356c.3.054.666-.064.351-.345-.358-.02-.717-.015-1.076-.005-.434.4.47.374.724.351M80.467,37.27l-.236-.127-.13.127c.142.068.257.189.366,0M83.757,7.9c.3,0,.375-.356.566-.32s.3.356.592.315c.119-.017.284.047.358-.01.816-.761,1.961.123,2.618-.715-.175-.149-.349-.355-.4-.33-1.245.652-2.585.215-3.872.34-.487-.216-.643.47-1.13.373-.653.048-2.365-.289-2.692.221,1.166.32,2.679.006,3.955.126m-5.3.348c.07-.138.194-.25,0-.356l-.13.229.13.127m-2.194,40.59c.07-.138.194-.25,0-.356-.07.138-.193.25,0,.356m.17-30.455a.407.407,0,0,0-.729-.333c.217.144.483.669.729.333m-.719,5-.13-.127-.236.127c.109.188.223.068.366,0M71.454,39.533l.236-.127c-.109-.188-.223-.068-.365,0l.13.127m-.313,6.816.13-.127-.13-.229c-.194.107-.07.217,0,.356m0-22.787c.07-.138.194-.25,0-.356l-.13.229.13.127m-.368-4.273c.513-.048,1.1.2,1.485-.356l1.451-.007c.236-.406.493-.247.785-.058,1.04-.787-.053-.592-.727-.647-.466.516-1.092.353-1.666.345-.386,0-.509.47-.942.381-.889-.263-2.043.419-.384.342m-2.924-.356-.13.229.13.127c.07-.138.193-.25,0-.356m.548.178c.11.188.224.068.366,0l-.13-.127-.236.127m.732-13.886L69,5.1l-.236.127c.109.188.224.068.366,0M68.475,46.6c.234-.046.272-.089.281-.137.057-.288-.056-.471-.3-.459-.709.167-.4.391.018.6m-.969.113c.137-.011.258-.023.366-.034-.146,0-.052-.019.043-.043.5-.443-.494-.261-.749-.277-.406.246-.028.366.341.354M66.439,58.76l.13-.127c-.142-.068-.256-.188-.366,0l.236.127m-.471-12.106.236-.127c-.109-.188-.223-.068-.366,0l.13.127M66.2,21.96c-.142-.068-.256-.188-.366,0,.142.068.257.189.366,0m-.915,35.071.13-.127-.13-.229c-.194.106-.07.217,0,.356m0-10.326c.193-.106.07-.217,0-.356l-.13.127.13.229M65.106,21.96l-.13-.127-.236.127c.109.189.224.068.366,0M64.74,5.937,64.5,5.811l-.13.127c.142.068.257.188.366,0m-.549,51.093.13-.127-.13-.229c-.193.106-.07.217,0,.356m-.74-50.915c.241.09.707-.146.375-.35-.57-.177-1.4.356-.375.35M62,6.472c.07-.139.194-.25,0-.356l-.13.229.13.127M60.953,55.3l-.236.126c.109.189.223.068.366,0l-.13-.126M60.9,59.515c.379-.207-.219-.52-.375-.691a.394.394,0,0,0,.375.691M38.523,41.784l-.118.295c-.018.423.47.439.725.182a1.406,1.406,0,0,0-.607-.477m.633-2.04a1.764,1.764,0,0,0,1.316.194.982.982,0,0,0-1.316-.194m.347,1.62a.434.434,0,0,1,0,.045c.567.773,1.137-.2,0-.045m.671-.835c.06-.295-.514-.319-.613-.111-.043.3.511.321.613.111m-.884.508a1.946,1.946,0,0,0,.179.327c.116-.041-.04-.279-.179-.327m.054.322a.308.308,0,0,0,.062.009c-.288-.423-.274-.184-.062-.009m4.6-.325c.2-.013.338-.063.307-.194-.29-.34-.612-.143-1.148-.188.178.089.326.165.454.231-.844-.3-1.347-.277-.889.116a11.321,11.321,0,0,1,1.179.039c.406.224.4.265.414.3.021.577.635.113.642-.24-.188.016-.768-.3-.644.074-.108-.051-.212-.1-.315-.14m-.965.335c-.333.2.134.44.374.35,1.026.006.2-.527-.374-.35m.6,5.921.13.127c.07-.139.194-.25,0-.356l-.13.229m-.715,6.65c-.079.19.179.165.348.265.531-.293-.056-.574-.348-.265m1.446.012.13.229c.194-.106.07-.217,0-.356l-.13.126m1.553-13.647c-.161.006-.6-.121-.506.15-.249-.243.043.013-.014-.327-.162-.309-.642-.155-.933-.154-.362.3.382.37.61.322.493.524,1.358.4.843.009m-.456,11.867.13.229c.194-.107.07-.217,0-.356l-.13.127m.684-10.356c.024-.219-.284-.043-.341.111.138-.052.248-.086.341-.111m-.009.059a.3.3,0,0,0,.009-.056c-.434.274-.187.262-.009.056m.175-.155c-.061.035-.111.065-.156.094.456-.121.434.018.687-.3-.359-.421-1.087.252-.53.208m.619-1.546c.1.207.673.183.613-.111-.1-.21-.655-.188-.613.111M47,51.69c.07-.139.194-.25,0-.356-.07.138-.193.25,0,.356m.228.328-.411.206c.268.121.494.269.732,0l-.321-.206M48.464,40.3l-.13.229.13.127c.07-.139.194-.25,0-.356m.549.178.236.127.13-.127c-.142-.068-.257-.189-.366,0m1.73,13.707c-.325-.5-.252-.036,0,0m-.113-.326c.07.133.129.239.179.325a.167.167,0,0,0,.028,0c.091-.146-.109-.242-.207-.321m.4-14.983-.13.229.13.126c.07-.138.193-.25,0-.356M51,54.186c-.092-.042-.145-.014-.162.048.131.216.192.274.212.262.22-.125.07-.227-.05-.309m.275-.957c-.079.191.179.165.348.266.532-.293-.055-.574-.348-.266m.48-35.008-.13.229.13.127c.07-.138.193-.25,0-.356M52.3,53.292c.142.068.257.188.366,0-.142-.068-.256-.189-.366,0m1.657,1.946c.137.111.177.006.2-.162a2.006,2.006,0,0,1,.335-.152c-.42-.6-1-.284-.531.314m.353.006c-.184-.016-.247.009-.178.181.114.216.43.141.639.2a2.341,2.341,0,0,0-.107-.359c-.115,0-.236-.012-.355-.022m1.1-37.023-.13.229.13.127c.07-.138.194-.25,0-.356m.183,2.315.236.126.13-.127c-.142-.068-.256-.188-.366,0M57.608,6.827c-.194.107-.07.218,0,.356l.13-.127-.13-.229m.366,10.682-.13.229.13.127c.07-.139.194-.25,0-.356m.122,1.9c-.1-.21-.655-.188-.613.111.1.207.673.183.613-.111m-.854,35.482c.194-.106.07-.217,0-.356l-.13.126.13.229m-.366.712.13-.127-.13-.229c-.194.107-.07.217,0,.356m.183-37.741v.159a.924.924,0,0,0,.006-.145c.072.2.176.315.2.3.273-.147-.028-.356-.2-.314-.017-.374-.311-.4-.372,0l-.024.013c-.151-.092-.657.066-.677.2.25-.064.43-.106.57-.136-.6.351-.026.356.128.093a.123.123,0,0,0,.009-.122,1.591,1.591,0,0,1,.359-.043m-.6,37.017c.07.006.189-.131.219-.223.07-.157-.091-.664-.281-.37-.227.434-.821.109-1.1.368a.637.637,0,0,1-.175.469c.433.7.583-.16,1.333-.243m-1.747-.668c.056.145.107.272.155.386a.6.6,0,0,0-.155-.386m-.6,2.817c.263-.018.613.118.683-.235-.363-.289-1.081-.053-1.56-.111-.484.5.584.32.877.346m-.9-38.453c.07-.138.194-.25,0-.356l-.13.229.13.127M53,57.955c-.04-.222-.578-.315-.681-.16.27.383.474.371.681.16m-.907-.539a3.325,3.325,0,0,0,.188.324c.1-.051-.053-.277-.188-.324m.053.322a.314.314,0,0,0,.062.009c-.288-.422-.274-.184-.062-.009m-1.3-.886c.234.257.676.118,1.021.2,2.095-.183-.6-.573-1.021-.2M50.647,58.1c.253.022,1.169.052.743-.351-.48-.008-.96-.012-1.44,0-.457.439.413.346.7.346m-.232-.945c-.1-.21-.655-.188-.613.111.1.207.673.183.613-.111m-1.036.767c-.306-.292-.435-.122-.895,0,.458.121.588.292.895,0m-5.669.178.13-.127-.13-.229c-.194.106-.07.217,0,.356m-1.1-1.819a.714.714,0,0,0,.835-.079c.236-.282.54-.175.81-.255.328-.1.368.568.694.218.607-.534,1.418.164,2-.474,1.712-.23,3.646-.008,5.412-.084.669,0,.669-.006.672-.69.2-.621-.576-1.134-.745-.376,0,.111.2.357-.168.363-1.06-.221-.859.5-1.252.218-.854-.722-1.3.507-2.083.059a1.393,1.393,0,0,0-1.759.022c-.156.117-.209-.405-.507-.2a1.176,1.176,0,0,1-.441.239c-.291.042-.609.075-.8-.24-.08-.13-.161-.107-.258.039-.2.307-.542.154-.815.225-.21.054-.375.272-.585.326a.584.584,0,0,1-.456-.172.8.8,0,0,0-1.08.033c.37.172.231.691.527.83m.854-16.109c-.561-.748-1.841-.595-2.735-.587.042.13.078.242.111.342a1.764,1.764,0,0,1,.2.013c.292,0,.257.5.658.37.531-.159,1.328.2,1.765-.138m-2.354.442c.438-.194.15-.509-.082-.157.056.143.075.161.082.157m.037,1.819.13-.127-.13-.229c-.194.106-.07.217,0,.356m.366-.712c.07-.138.194-.25,0-.356-.07.138-.194.25,0,.356m.122,14.365c-.1-.21-.655-.188-.613.111.1.207.673.183.613-.111m-.671-.657-.277-.178-.454.178c.268.122.494.269.731,0m-1.935,1.6c.712.119.237-.627.737-.62.369.114,1.041-.119.629-.435-.343-.061-.759.111-.974-.266-.523-.348.187.809-1.07.62-.1,0-.2.1-.295.153.253.306.534.667.973.549m-.255-1.417c0-.488-.559-.429-.737-.1-.081.589.753.621.737.1m-2.748-8.193-.13.229.13.127c.07-.139.194-.25,0-.356m1.646-4.095-.236-.127-.13.127c.142.068.257.189.366,0m-.509-1.246c1.265-.133-.255-.61-.588-.178a.65.65,0,0,0,.588.178m-1.137,15.31c.07-.138.194-.25,0-.356l-.13.23.13.126m.053-.764.13-.127c-.142-.068-.257-.188-.366,0l.236.127m.13-1.195-.236-.126-.13.126c.142.068.256.189.366,0m-1.28-10.147c-.07.138-.194.25,0,.356.07-.138.193-.25,0-.356m.122,10.2c.06-.295-.514-.319-.613-.111-.042.3.511.321.613.111M24.69,48.129c-.07.138-.194.25,0,.356l.13-.229-.13-.127m4.023.356c-.07.138-.194.25,0,.356l.13-.229-.13-.126m-.13,7.248.13.229c.194-.106.07-.217,0-.356l-.13.127M30.36,44.747c.142.068.256.188.366,0-.142-.068-.257-.189-.366,0m1.166-1.131c-.079.19.179.165.348.265.531-.293-.056-.574-.348-.265m1.463,1.78c-.079.19.179.165.348.265.531-.293-.056-.574-.348-.265m.479-1.895-.13.229.13.127c.07-.138.193-.25,0-.356m.731,2.136c.194-.106.07-.217,0-.356l-.13.127.13.229M33.879,56.6c.1-.115.218-.456.024-.572-.5.173-.976.77-.024.572m-1.053-.995c.186.043.313-.088.46-.178a.848.848,0,0,0-1.1,0,.728.728,0,0,0,.638.178m-1.186-9.97c.07-.138.194-.25,0-.356-.07.138-.194.25,0,.356m.405-.712c1.265-.133-.255-.61-.588-.178.228.148.244.209.588.178m-.954.534-.236-.127-.13.127c.142.068.256.189.366,0m-.366,10.86v.159a.874.874,0,0,0,.006-.144c.072.2.176.315.2.3.273-.147-.028-.356-.2-.314-.018-.373-.312-.4-.372,0l-.022.019c-.059-.053-.2-.027-.314.188.082-.037.149-.065.212-.09-.146.155-.107.206-.1.2.181-.08.236-.181.224-.248a.944.944,0,0,1,.362-.069m-.366.89-.236-.127-.13.127c.142.068.256.188.366,0m-.427,1.013c-.1-.21-.655-.188-.613.111.1.207.673.183.613-.111m-.488-1.191c-.07.139-.193.25,0,.356.07-.138.194-.25,0-.356m.488-1.3c-.1-.21-.655-.188-.613.111.1.207.673.183.613-.111m-.667-11.715c.1.338.861-.232,1.094-.336-.145-.091-.271-.221-.456-.178-.381-.064-.758.081-.637.514m-.035,12.451c-.359-.421-1.087.252-.53.208-.055.022-.1.043-.147.064.445-.055.4.036.678-.272m-.7.373a.152.152,0,0,0,.02-.1c-.766.346-.2.376-.02.1m.02-.1c-.043-.188-.695,0-.717.144a5.72,5.72,0,0,1,.717-.144m-1.3-7.542c.194-.106.07-.217,0-.356l-.13.127.13.229m-.183,7.655c-.142-.068-.256-.189-.365,0,.142.068.256.189.365,0m-.548-8.011c.194-.106.07-.217,0-.356l-.13.127.13.229m.122-.835c.06-.295-.514-.319-.613-.111-.043.3.511.321.613.111m-1.219,9.024c.07-.138.194-.25,0-.356l-.13.229.13.126m.183-8.723c-.142-.068-.256-.188-.366,0,.142.068.257.189.366,0m-.426,1.013c-.1-.21-.655-.188-.613.111.1.207.673.183.613-.111M23.959,49.2c.193-.106.07-.217,0-.356l-.13.127.13.229m-5.121,8.189c.194-.106.07-.217,0-.356l-.13.127.13.229m-6.949-9.969c.07-.138.194-.25,0-.356-.07.138-.194.25,0,.356m-.731,11.394c.07-.139.194-.25,0-.356-.07.138-.194.25,0,.356m-2.5-1c-.2-.077-.17.175-.273.339.3.518.59-.054.273-.339" transform="translate(0 0)" fill="#ffc200"/>
      <path id="Path_1550" data-name="Path 1550" d="M0,0C.065.032.14.072.229.124A.126.126,0,0,1,.109.181,1.411,1.411,0,0,0,0,0" transform="translate(90.082 17.011)" fill="#ffc200"/>
      <path id="Path_1551" data-name="Path 1551" d="M.011,0a.484.484,0,0,0,0,.051C-.006.035,0,.017.011,0" transform="translate(43.151 8.636)" fill="#ffc200"/>
      <path id="Path_1552" data-name="Path 1552" d="M.586.221C.4.2.2.172.01.145A.172.172,0,0,1,.023,0a1.131,1.131,0,0,0,.3.008C.4.061.473.119.551.187A.2.2,0,0,1,.586.221" transform="translate(230.768 68.781)" fill="#ffc200"/>
      <path id="Path_1553" data-name="Path 1553" d="M0,0C.123.043.252.094.388.151c-.031,0-.063,0-.1,0C.211.111.114.06,0,0" transform="translate(43.555 40.884)" fill="#ffc200"/>
      <path id="Path_1554" data-name="Path 1554" d="M.006.015C0,.01,0,.006,0,0H.007s0,.01,0,.015" transform="translate(57.059 17.865)" fill="#ffc200"/>
      <path id="Path_1555" data-name="Path 1555" d="M.006.015A.146.146,0,0,1,0,0H.007s0,.011,0,.015" transform="translate(30.725 56.318)" fill="#ffc200"/>
      <path id="Path_1556" data-name="Path 1556" d="M.1,0A.08.08,0,0,1,.127.049C.09.062.047.078,0,.1.027.068.061.036.1,0" transform="translate(30.236 56.338)" fill="#ffc200"/>
      <path id="Path_1557" data-name="Path 1557" d="M0,0,.033.006l.04.13L0,0" transform="translate(26.742 22.257)" fill="#ffc200"/>
      <path id="Path_1558" data-name="Path 1558" d="M.165.043C.116.049.061.055,0,.064.033.044.07.023.111,0A.1.1,0,0,1,.165.043" transform="translate(85.812 17.527)" fill="#ffc200"/>
      <path id="Path_1559" data-name="Path 1559" d="M0,0C.032.029.068.062.109.1a.092.092,0,0,1-.03.01A.819.819,0,0,1,0,0" transform="translate(89.128 17.397)" fill="#ffc200"/>
      <path id="Path_1560" data-name="Path 1560" d="M.107,0a.084.084,0,0,1,.03.03L0,.059C.032.04.068.02.107,0" transform="translate(56.563 17.879)" fill="#ffc200"/>
      <path id="Path_1561" data-name="Path 1561" d="M0,0C.033.029.069.064.111.106A.1.1,0,0,1,.04.122,1.242,1.242,0,0,0,0,0" transform="translate(24.022 22.024)" fill="#ffc200"/>
      <path id="Path_1562" data-name="Path 1562" d="M.285.112l-.05,0L0,0Q.138.051.285.112" transform="translate(238.615 69.762)" fill="#ffc200"/>
      <path id="Path_1563" data-name="Path 1563" d="M0,0C.035.015.069.03.105.044.048.082,0,.064,0,0" transform="translate(50.822 59.479)" fill="#ffc200"/>
      <path id="Path_1564" data-name="Path 1564" d="M1.947.038A1.938,1.938,0,0,1,3.233.394c.092.417,1.235.81,1.752.721.222,0,.676-.05.79.177-.257.248-2.657.312-2.9-.014C2.5.795,1.392,1.516,1.489.75c.333.015.459.05.615-.208a.464.464,0,0,0-.7.044.274.274,0,0,0-.023.121C.943.517.59.255.118.384.09.392-.008.291,0,.269.353-.246,1.353.159,1.947.038" transform="translate(49.438 58.773)" fill="#ffc200"/>
      <path id="Path_1565" data-name="Path 1565" d="M.248,0C.664.262.58.669,1.264.326c.194-.113.8.041.427.294C1.235.939,2,1,1.664,1.358c-.116,0-.312.042-.339-.006C1.1.958.617,1.037.3.786-.006.585-.163.06.248,0" transform="translate(152.506 63.15)" fill="#ffc200"/>
      <path id="Path_1566" data-name="Path 1566" d="M.833.025C1.216.11,1.914-.2,2.044.266,1.547.553.718.306.116.371-.309-.081.549.031.833.025" transform="translate(103.956 60.21)" fill="#ffc200"/>
      <path id="Path_1567" data-name="Path 1567" d="M1.986.028c.18-.006.257.018.17.177C1.9.543,1.373.346,1,.392V.364C-1.4.3,1.169-.109,1.986.028" transform="translate(156.209 63.404)" fill="#ffc200"/>
      <path id="Path_1568" data-name="Path 1568" d="M.613,0A2.372,2.372,0,0,1,1.3.086c.125.121.241.528-.1.588C.961.2.46.475.109.316-.267.062.438.024.613,0" transform="translate(248.366 71.255)" fill="#ffc200"/>
      <path id="Path_1569" data-name="Path 1569" d="M.49.01c.461.007.655-.085.951.178C1.144.609-.925.2.49.01" transform="translate(73.54 59.157)" fill="#ffc200"/>
      <path id="Path_1570" data-name="Path 1570" d="M.861.036c.333.2-.134.44-.374.351C-.54.392.29-.141.861.036" transform="translate(61.502 60.561)" fill="#ffc200"/>
      <path id="Path_1571" data-name="Path 1571" d="M.495.008c.345-.031.36.03.589.178C.751.618-.771.142.495.008" transform="translate(250.555 71.621)" fill="#ffc200"/>
      <path id="Path_1572" data-name="Path 1572" d="M0,.155.277.007A.419.419,0,0,1,.69.2C.737.628.159.264,0,.155" transform="translate(126.949 0.056)" fill="#ffc200"/>
      <path id="Path_1573" data-name="Path 1573" d="M.615.247C.513.457-.04.436,0,.136.1-.071.675-.047.615.247" transform="translate(45.411 58.797)" fill="#ffc200"/>
      <path id="Path_1574" data-name="Path 1574" d="M.7.238A.427.427,0,0,1,.009.185C-.09-.108.653-.025.7.238" transform="translate(72.415 59.142)" fill="#ffc200"/>
      <path id="Path_1575" data-name="Path 1575" d="M.363.4C.194.3-.065.324.015.134.308-.174.895.107.363.4" transform="translate(114.537 60.572)" fill="#ffc200"/>
      <path id="Path_1576" data-name="Path 1576" d="M.7.238A.427.427,0,0,1,.009.185C-.09-.108.653-.025.7.238" transform="translate(140.079 62.703)" fill="#ffc200"/>
      <path id="Path_1577" data-name="Path 1577" d="M.7.237A.427.427,0,0,1,.009.185C-.09-.108.653-.024.7.237" transform="translate(224.201 69.468)" fill="#ffc200"/>
      <path id="Path_1578" data-name="Path 1578" d="M.615.139C.675.433.1.457,0,.25-.04-.05.513-.071.615.139" transform="translate(260.838 72.326)" fill="#ffc200"/>
      <path id="Path_1579" data-name="Path 1579" d="M.615.139C.675.433.1.457,0,.25-.04-.05.513-.071.615.139" transform="translate(268.885 72.682)" fill="#ffc200"/>
      <path id="Path_1580" data-name="Path 1580" d="M.13.356,0,.229.13,0C.324.107.2.217.13.356" transform="translate(9.565 24.274)" fill="#ffc200"/>
      <path id="Path_1581" data-name="Path 1581" d="M.293,0V.361C-.106.334-.089-.047.293,0" transform="translate(12.511 38.155)" fill="#ffc200"/>
      <path id="Path_1582" data-name="Path 1582" d="M.173.3H.01c-.1-.409.6-.381.163,0" transform="translate(52.66 58.871)" fill="#ffc200"/>
      <path id="Path_1583" data-name="Path 1583" d="M.366.1C.257.289.142.169,0,.1.109-.087.223.033.366.1" transform="translate(42.795 58.888)" fill="#ffc200"/>
      <path id="Path_1584" data-name="Path 1584" d="M.13.356,0,.229.13,0C.324.107.2.218.13.356" transform="translate(83.446 59.167)" fill="#ffc200"/>
      <path id="Path_1585" data-name="Path 1585" d="M.13.356,0,.127.13,0C.2.139.324.25.13.356" transform="translate(96.613 59.879)" fill="#ffc200"/>
      <path id="Path_1586" data-name="Path 1586" d="M.234.127.1.356C-.09.25.034.138.1,0l.13.127" transform="translate(108.71 60.235)" fill="#ffc200"/>
      <path id="Path_1587" data-name="Path 1587" d="M.366.127C.256.315.142.195,0,.127L.13,0,.366.127" transform="translate(107.167 60.287)" fill="#ffc200"/>
      <path id="Path_1588" data-name="Path 1588" d="M.234.127.1.356C-.09.25.034.139.1,0l.13.127" transform="translate(97.371 60.235)" fill="#ffc200"/>
      <path id="Path_1589" data-name="Path 1589" d="M.366.1.13.228,0,.1C.142.033.256-.088.366.1" transform="translate(60.717 60.669)" fill="#ffc200"/>
      <path id="Path_1590" data-name="Path 1590" d="M.366.127C.224.194.109.315,0,.127L.236,0l.13.127" transform="translate(113.75 60.999)" fill="#ffc200"/>
      <path id="Path_1591" data-name="Path 1591" d="M.13.356,0,.127.13,0C.2.139.324.25.13.356" transform="translate(116.364 61.303)" fill="#ffc200"/>
      <path id="Path_1592" data-name="Path 1592" d="M.366.1C.257.289.142.169,0,.1.109-.088.223.033.366.1" transform="translate(132.404 62.449)" fill="#ffc200"/>
      <path id="Path_1593" data-name="Path 1593" d="M.366.1C.256.289.142.169,0,.1.109-.087.223.033.366.1" transform="translate(155.08 63.517)" fill="#ffc200"/>
      <path id="Path_1594" data-name="Path 1594" d="M.331.166C.218.268.119.408,0,.218.061.051.423-.149.331.166" transform="translate(152.185 63.785)" fill="#ffc200"/>
      <path id="Path_1595" data-name="Path 1595" d="M.13.356,0,.127.13,0C.2.139.324.25.13.356" transform="translate(151.476 63.796)" fill="#ffc200"/>
      <path id="Path_1596" data-name="Path 1596" d="M.13.356,0,.229.13,0C.324.107.2.218.13.356" transform="translate(171.958 64.152)" fill="#ffc200"/>
      <path id="Path_1597" data-name="Path 1597" d="M.224.323C.194.34.085.223.013.168-.1-.212.6.146.224.323" transform="translate(196.032 66.991)" fill="#ffc200"/>
      <path id="Path_1598" data-name="Path 1598" d="M.331.166C.219.269.119.409,0,.218.062.051.423-.149.331.166" transform="translate(205.218 67.702)" fill="#ffc200"/>
      <path id="Path_1599" data-name="Path 1599" d="M.13.356,0,.229.13,0C.324.107.2.217.13.356" transform="translate(217.311 68.781)" fill="#ffc200"/>
      <path id="Path_1600" data-name="Path 1600" d="M.366.1C.257.289.142.169,0,.1.11-.087.224.033.366.1" transform="translate(216.161 68.858)" fill="#ffc200"/>
      <path id="Path_1601" data-name="Path 1601" d="M.1.356C-.09.25.034.139.1,0,.3.107.173.217.1.356" transform="translate(235.991 69.849)" fill="#ffc200"/>
      <path id="Path_1602" data-name="Path 1602" d="M.13.356,0,.229.13,0C.324.107.2.217.13.356" transform="translate(235.233 70.561)" fill="#ffc200"/>
      <path id="Path_1603" data-name="Path 1603" d="M.331.166C.219.269.119.409,0,.218.062.051.423-.149.331.166" transform="translate(263.738 71.974)" fill="#ffc200"/>
      <path id="Path_1604" data-name="Path 1604" d="M.366.127C.256.315.142.195,0,.127L.13,0,.366.127" transform="translate(253.833 72.037)" fill="#ffc200"/>
      <path id="Path_1605" data-name="Path 1605" d="M.13.356,0,.127.13,0C.2.139.324.25.13.356" transform="translate(264.493 72.697)" fill="#ffc200"/>
      <path id="Path_1606" data-name="Path 1606" d="M.366.1.236.228,0,.1C.109-.088.223.033.366.1" transform="translate(260.051 72.774)" fill="#ffc200"/>
      <path id="Path_1607" data-name="Path 1607" d="M.223.323C.194.339.085.223.013.168-.1-.212.595.146.223.323" transform="translate(52.292 54.885)" fill="#ffc200"/>
      <path id="Path_1608" data-name="Path 1608" d="M0,.1C.109-.087.223.033.366.1L.236.228,0,.1" transform="translate(86.685 5.837)" fill="#ffc200"/>
      <path id="Path_1609" data-name="Path 1609" d="M.332.107C.349.136.229.242.173.312-.218.423.15-.254.332.107" transform="translate(251.629 70.249)" fill="#ffc200"/>
      <path id="Path_1610" data-name="Path 1610" d="M.151.322C.045.213-.1.115.1,0,.268.06.473.412.151.322" transform="translate(22.003 22.879)" fill="#ffc200"/>
      <path id="Path_1611" data-name="Path 1611" d="M.121.674A.562.562,0,0,0,.373.092c.3-.257.393.076.346.361.115.381-.238.637-.6.46-.17-.066-.16-.146,0-.239" transform="translate(312.471 65.5)" fill="#ffc200"/>
      <path id="Path_1612" data-name="Path 1612" d="M.722.137C.6.354.431.374.2.343-.348.386.366-.278.722.137" transform="translate(332.982 50.692)" fill="#ffc200"/>
      <path id="Path_1613" data-name="Path 1613" d="M.358.394C.191.3-.063.32.014.132.3-.172.882.105.358.394" transform="translate(334.148 50.313)" fill="#ffc200"/>
      <path id="Path_1614" data-name="Path 1614" d="M.187.662C-.109.757-.025.045.24,0A.4.4,0,0,1,.187.662" transform="translate(313.166 63.35)" fill="#ffc200"/>
      <path id="Path_1615" data-name="Path 1615" d="M.579.3C.332.421.04.38,0,.228.055.016.35.1.522.02c.27-.1.214.2.057.282" transform="translate(312.501 64.695)" fill="#ffc200"/>
      <path id="Path_1616" data-name="Path 1616" d="M.326.163C.215.265.117.4,0,.215.061.05.417-.146.326.163" transform="translate(284.027 72.426)" fill="#ffc200"/>
      <path id="Path_1617" data-name="Path 1617" d="M.1,0,.23.226.1.351C.031.213-.087.1.1,0" transform="translate(308.223 67.875)" fill="#ffc200"/>
      <path id="Path_1618" data-name="Path 1618" d="M.327.106c.017.028-.1.133-.156.2C-.214.417.148-.25.327.106" transform="translate(311.379 67.567)" fill="#ffc200"/>
      <path id="Path_1619" data-name="Path 1619" d="M.1.351C-.087.248.031.138.1,0,.291.1.173.213.1.351" transform="translate(311.827 64.367)" fill="#ffc200"/>
      <path id="Path_1620" data-name="Path 1620" d="M0,0C.393.027.376.4,0,.351Z" transform="translate(313.191 64.367)" fill="#ffc200"/>
      <path id="Path_1621" data-name="Path 1621" d="M.289,0V.356C-.1.329-.087-.047.289,0" transform="translate(312.903 64.011)" fill="#ffc200"/>
      <path id="Path_1622" data-name="Path 1622" d="M0,.1C.106-.084.218.03.36.1.255.283.142.169,0,.1" transform="translate(311.389 63.39)" fill="#ffc200"/>
      <path id="Path_1623" data-name="Path 1623" d="M.128.351,0,.125.128,0C.2.138.317.248.128.351" transform="translate(312.162 62.612)" fill="#ffc200"/>
      <path id="Path_1624" data-name="Path 1624" d="M.36.125C.255.309.142.194,0,.125L.128,0,.36.125" transform="translate(336.978 44.419)" fill="#ffc200"/>
      <path id="Path_1625" data-name="Path 1625" d="M.36.1C.255.283.142.169,0,.1.106-.084.218.03.36.1" transform="translate(336.257 44.093)" fill="#ffc200"/>
      <path id="Path_1626" data-name="Path 1626" d="M.22.318C.191.335.084.22.013.166-.1-.209.586.144.22.318" transform="translate(336.245 41.201)" fill="#ffc200"/>
      <path id="Path_1627" data-name="Path 1627" d="M.1,0C.264.059.467.406.148.318.044.21-.1.114.1,0" transform="translate(335.952 40.888)" fill="#ffc200"/>
      <path id="Path_1628" data-name="Path 1628" d="M.509.383C.144.395-.227.276.173.034c.217.057.967-.193.851.156C.957.376.608.346.509.383" transform="translate(289.818 67.85)" fill="#ffc200"/>
      <path id="Path_1629" data-name="Path 1629" d="M0,.246c-.042-.3.5-.317.6-.11C.665.427.1.451,0,.246" transform="translate(295.225 68.912)" fill="#ffc200"/>
      <path id="Path_1630" data-name="Path 1630" d="M0,.1C.142.03.255-.084.36.1L.128.224,0,.1" transform="translate(293.729 69.355)" fill="#ffc200"/>
      <path id="Path_1631" data-name="Path 1631" d="M.1,0C.291.1.173.213.1.351-.087.248.031.138.1,0" transform="translate(299.934 68.928)" fill="#ffc200"/>
      <path id="Path_1632" data-name="Path 1632" d="M.721.02V.371H0C.129.01.364-.036.721.02" transform="translate(321.48 52.417)" fill="#ffc200"/>
      <path id="Path_1633" data-name="Path 1633" d="M0,0q.374-.014.36.351Q-.014.365,0,0" transform="translate(321.84 51.735)" fill="#ffc200"/>
      <path id="Path_1634" data-name="Path 1634" d="M.579.3C.331.421.04.38,0,.228.054.016.35.1.521.02c.27-.1.214.2.057.282" transform="translate(303.491 68.204)" fill="#ffc200"/>
    </g>
  </g>
</svg>
