<svg xmlns="http://www.w3.org/2000/svg" xmlns:xlink="http://www.w3.org/1999/xlink" width="262.051" height="92.296" viewBox="0 0 262.051 92.296">
  <defs>
    <clipPath id="clip-path">
      <rect id="Rectangle_454" data-name="Rectangle 454" width="258.276" height="78.887" fill="#ffc200"/>
    </clipPath>
  </defs>
  <g id="Group_892" data-name="Group 892" transform="translate(0 13.517) rotate(-3)">
    <g id="Group_891" data-name="Group 891" transform="translate(0 0)" clip-path="url(#clip-path)">
      <path id="Path_1545" data-name="Path 1545" d="M.029.016.01.019C-.011-.013,0,0,.029.016" transform="translate(94.793 66.425)" fill="#ffc200"/>
      <path id="Path_1546" data-name="Path 1546" d="M.083.041C.1.09.1.143.077.17A.066.066,0,0,1,0,.188C0,.129,0,.067,0,0A.735.735,0,0,0,.083.041" transform="translate(195.66 75.859)" fill="#ffc200"/>
      <path id="Path_1547" data-name="Path 1547" d="M0,.013C.031.008.062,0,.093,0,.072.048.029.031,0,.013" transform="translate(94.822 66.428)" fill="#ffc200"/>
      <path id="Path_1548" data-name="Path 1548" d="M0,0C.012,0,.024,0,.037,0A.023.023,0,0,1,0,0" transform="translate(52.953 64.525)" fill="#ffc200"/>
      <path id="Path_1549" data-name="Path 1549" d="M.27,53.818A2.059,2.059,0,0,1,.543,52.81c.526-1.012,1.5-1.1,2.072-2,.192-.3.6.046.866-.395.167-.277.642.073.835-.431.3-.076.66.082.856-.406a2.96,2.96,0,0,0,1.838-.434c.519.01,1.117.359,1.562-.347a3.317,3.317,0,0,1,.837.014c.327.086.422-.453.726-.406.717-.063,1.5.3,2.134-.355.089-.112.363-.027.52.067.141.085.217.4.4.071.623-1.076,1.888-.294,2.772-.551.265-.012.582.2.791-.135.465-.5,1.064-.14,1.6-.261.987-1.075,2.378.356,3.411-.745.6.007,5.271.044,2.524-.413-.87-.717-1.885-.215-2.839-.354-.846-1.108-2.6.324-3.413-.759-.03-.057-.234-.047-.259.01-.224.529-.433-.013-.617.016-.45.071-.7-.249-.938-.637-.151-.242-.2-.01-.3.07-.5.518-.879-.146-1.251-.584-.229.8-1.107-.813-1.621-.418-.261-.488-.646-.357-1-.388-.308-.027-.5-.56-.866-.39-.458-.236-.931-.655-1.383-.955-.019-.014,0-.122,0-.185.292.057.306-.354,0-.383-.217-.705-.429-1.508-1.07-1.657-.139-.381-.519-.166-.681-.536s-.509-.517-.51-1.064c-.344-.993-1.273-.265-1.1-2.012.017-.258.039-.73-.142-.856-.617.2-.288-.856-.675-.944.428-.446.157-.682-.235-.6-.619.059-.2-1.077-.359-1.551-.1-.518.223-.78.313-1.177a2.323,2.323,0,0,1,1.07-1.277c.459-.384.675-1.365,1.266-1.368.184-.649.735-.139.949-.53.263-.481.773.063.967-.528.352-.119.908,0,1.2-.151a.655.655,0,0,1,.886-.3c.429.157.648-.4,1.007-.406.466,0,.932,0,1.4,0,.422-.693,1.043-.17,1.527-.49.14-.3.8-.722.456-1.036-.676-.269-.642,1.448-1.42.45-.191.6-.735.038-.954.542-.295.427-.772-1.358-1.425-1.006-.225.044-.5-.065-.671.081-.2.173-.377.416-.607.3-.425-.221-.64.409-1.005.4-.429.076-1-.236-1.327.225-.191.29-.443.171-.651.137s-.134-.4-.207-.61c-.308-.587.138-.726.3-1.074-.15-.217-.362-.783-.564-.376a.808.808,0,0,1-1.324-.363,2.942,2.942,0,0,0,.157-.533c-.365-.005-.579-.488-.973-.506-.442-.021-.629-.413-.635-.97-.029-.711-.036-1.263.414-1.679.737.086.583-1.324,1.189-1.51.331-.059.47-.383.647-.641.247-.36.657.083.866-.394.121-.276.347-.076.51-.156.418-.336.919-.442,1.314-.716.308-.1.58-.281.864-.383.3-.108.472-.6.857-.446.31.123.486-.539.861-.378.285.123.391-.468.723-.394a.625.625,0,0,0,.771-.217c.244-.337.616-.08.926-.154.24-.528.608-.22.839-.423.363-.574.876-.117,1.245-.526.263-.4.765.051.962-.532.322-.015.643-.043.964-.042s.487-.488.865-.417c.346.065.781.247,1.07-.1.342-.407.7-.162,1.045-.266.077-.023.145-.156.2-.257.2-.323.428.747.771.088.366-.854,1.1-.423,1.606-.686.4-.572.884-.175,1.32-.276.037-.009.1.141.136.229-.1.349-1.02-.136-.652.515.42.029,1.7.2,1.094-.792-.115-.167-.063-.349.07-.345.231.1,1.718-.193,1.392.313-.306.13-.8-.049-1.01.273a1.1,1.1,0,0,0,1.61-.313c.082-.135.156-.336.335-.189.385.835.906-.274,0-.086.021-.468.365-.249.759-.4.277-.154.359.6.654.2a.88.88,0,0,1,1.3-.45c.257.217.32.334.38-.174.152-.937.639.372.88-.2.132-.254.339-.08.509-.042.143.481.38.08.123-.081a.075.075,0,0,0-.122.026c0-.7.89-.449,1.189-.381.344.208.6-.821.9-.045.7-1.013,1.835.276,2.563-.756.4-.064.841.181,1.2-.176.384-.378.8-.126,1.2-.2.091-.018.215.05.275-.011.774-.749,1.726-.188,2.538-.389.52-.639,1.141-.266,1.711-.371.506.005.6-.645,1.14-.363.337.091.447-.371.725-.417.524-.087,1.119.334,1.564-.371a3.119,3.119,0,0,1,1.114.026c.476.183.73-.419,1.148-.429.573-.015,1.2.295,1.7-.364a5.51,5.51,0,0,1,1.257.02c.789-.1,1.451-.665,2.264-.39.393.069.676-.229,1.011-.371a6.919,6.919,0,0,1,1.808-.006c.393.165.483-.528.871-.43a7.035,7.035,0,0,0,1.4.032.79.79,0,0,0,.872-.38c.032-.056.213-.044.258.023.17.249.276.378.519.061.469-.394.912.434,1.384.3.571.249.725-1.223,1.086-.505.329.2.462-.023.692-.258.4-.106.831.164,1.2-.2.475-.453,1.119,0,1.587-.278.588-.677,1.443-.153,2.155-.3.625.223.992-.273,1.564-.395.786.09,1.6-.086,2.376.029.787-.1,1.451-.748,2.259-.373,1.546-.618,3.149-.378,4.786-.41C82.3,1.262,82.7.574,83.531.858c.226.09.408.515.615-.017.641-.1,1.307.256,1.888-.255,2.5-.4,5.218.006,7.788-.141.455.292.719-.823,1.087-.2.236.423.379-.286.487-.083.183.344.52.2.693.524.19.361.247-.164.246-.324.051-.126.06-.429.244-.145.236.473.967,1.1,1.153.237a1.3,1.3,0,0,1,1.756-.1c.052.025.146-.028.193-.087.47-.587.106.725.492.467.636-.753.352-.833,1,0,.029.032.184-.054.184-.084-.015-1.2,2.1-.323,2.745-.593.492.18.369.552.889.016.514-.145.168.925.442,1.132.172-.1.1-.467.141-.675.046-1.215.884.409,1.277-.155.226-.208.343-.315.509.027a2.653,2.653,0,0,1,2.348-.221c.146.263.225.116.409.029a4.811,4.811,0,0,1,2.05-.126c.354.621.854.347,1.289.352,2.436.1,4.988-.113,7.385.071.36.511.78.3,1.172.314,1.187.146,2.461-.309,3.521.394.177.018.209-.47.406-.27.531.828,2.149-.428,2.323.745.025.667.539-.281.73-.419.638.786,2.14.095,2.974.347.218.08.4.548.616,0,.665.756,2.567.256,3.514.35.41-.118.618.475,1.007.414.732-.115,1.509.112,2.234-.034.419-.125.665.345,1.007.392a9.272,9.272,0,0,0,1.258.014,5.214,5.214,0,0,0,1.4-.027c.467-.13.729.418,1.147.429.666.019,1.375-.278,1.983.366a4.4,4.4,0,0,1,2.54.412c.615.062,1.3-.428,1.857.334.005.008.186-.225.285-.345.353.623.854.278,1.288.364.135.027.336-.045.4.054.61.694,1.427.2,2.145.332.648.961,1.69-.213,2.3.737a2.747,2.747,0,0,0,.828.014c.334-.093.451.4.726.4a3.058,3.058,0,0,1,1.986.362c.757.13,1.553-.125,2.264.379.507.182,1.1-.211,1.557.412.487.037,1.012-.188,1.423.383.577.051,1.19-.2,1.7.384,1.15-.218,2.1.63,3.241.374.423-.046.686.674,1.146.4.077-.046.241-.052.267.006.348.77,1.124-.034,1.457.754.487.039,1.013-.2,1.423.383.491.013,1-.129,1.423.384a3.932,3.932,0,0,0,1.116-.021c.3-.088.506.162.738.321a1.631,1.631,0,0,1,1.54.387c0,.005.183-.221.281-.34.613.8,1.6.206,2.37.37.916.788,2.04.218,3.057.38.133,0,.332-.039.387.059.51.658,1.223.188,1.842.316.824,1.019,2.016-.272,2.81.737.2-.431.361-.182.6-.013.833.175,1.707-.218,2.492.439.653.042,1.363-.359,1.955.35.772.147,1.775-.423,2.3.6.177.323.259-.159.39-.217.258.034.534-.133.755.253s.477.846.863.194a1.735,1.735,0,0,1,1.786.3c.656.079,1.355-.256,1.954.378a2.983,2.983,0,0,1,1.957.358c.526.148,1.109-.207,1.6.169.6.442,1.259.082,1.85.257.506.773,1.383.077,1.935.415.558.8,1.384-.2,1.885.644a2.037,2.037,0,0,0,.809.027c.381-.142.5.49.857.413.314-.068.651.052.961-.032.365-.1.559.315.853.395.351.094.753-.214,1.057.14.409.465.879.1,1.3.258.254.541.666.411.994.332.411-.1.6.535.993.413.556-.17,1.023.21,1.468.6.1.086.141.173.2.045.229-.511.362.13.489.083.456-.169.732.382,1.119.44.642,1.209,1.166-.869,1.482.382.118.585.767.389.983-.024.031-.056.236.068.36.11-.556.96.385.5.773.642a7.242,7.242,0,0,1,.716.356c.25.093.542-.136.768.2.276.409.47.112.671-.155.393.334.875.829,1.413.736.2-.052.466-.167.639.135.259.452.328-.182.509-.152.381-.156.571.872.841.647.129-.268.233-.266.4-.015.215.328.631-.1.855.393.059.13.331.087.506.105.592-.231.9.568,1.4.363.381-.156.521.518.854.391.492-.189.811.38,1.232.5.33.389.787.106,1.046.641a1.007,1.007,0,0,1,.864.349c.2.166.5-.023.738.314.119.171.5.007.614.178.2.3.505.215.692.5a.367.367,0,0,0,.355.156c.729-.193,1.152.89,1.844.78.359.015.474.877.868.728s.52.517.853.39.47.419.711.361a7.711,7.711,0,0,1,3.185,2.266c.391-.071.51.445.767.658.908.346,1.4,1.342,2.147,2.013a3.241,3.241,0,0,1,1.368,3.067c-.1.512.32.732.285,1.17-.012.159-.069.282-.491-.185-.089-.235-.045-.564-.244-.735a6.667,6.667,0,0,1-.486-.632c-.055-.062-.168-.028.347.908h0c-.652-.87-.7-.8-.751-.72.331.586.548,1.643,1.166,1.68a2.59,2.59,0,0,1,.2.928c.247.328.472-.376.672-.552.269.282.1.682.147,1.024a3.794,3.794,0,0,1,.2,2.256c-.376.622.265.47-.012.812a1.381,1.381,0,0,0-.379.535c-.022.7.979.88.755,1.941.157.407.66.054.542.783.31.357.289,1.017.673,1.324.341.3-.266.494-.113.876.421.542.1.514.008,1.009.09.655-.487,1.067-.3,1.729a23.189,23.189,0,0,1-1.094,2.4c.063.7-1.891,2.01-.552,1.936-.109.681-.845.09-1.172.412-.621.354-1.391,1.17-2.009,1.108-.216.019-.472-.164-.643.137-.3.511-.641-.784-.867.227-.025.445-.317.372-.275-.02-.061-.671-.852-.249-1.2-.342-.079.033-.221.277-.053.345.217.052,1.184-.151.838.394-.451-.274-.717.387-1.127.406-.563.026-1.184-.315-1.677.357-.823,0-1.645.012-2.467-.043-.194-.572-.694-.127-.945-.529-.039-.062-.168-.117-.185-.091-.378.587-.869.164-1.3.284a.69.69,0,0,0-.85-.374c-.557.123-1.181-.348-1.683.343a3.437,3.437,0,0,1-.281-.309c-.256.539-.656.326-1,.332-.959.015-.732-.053-.771,1.145-.01.3.277.384.245.583-.91,1.088,1.008,3.477.392,3.56-.473-.031-.337.429-.356.769-.288-.055-.3.35,0,.378v-.378c.3.029.288.434,0,.378a4.237,4.237,0,0,1,.164,2.66c-.056.036-.094.1-.015.1-.169.363.052.184.123.055a.2.2,0,0,0,.005-.148c.754-.555.307-.308.793.525-.178.536-.838-.053-1.062.405.106.256.41.1.528.4-.651.647.718.832-.062,1.6-.235.267-.213.361,0,.524.079.123.087.272-.029.259-.485-.054-.578.748-1,.812q.01-.393-.276-.378c-.089-.65.891-.146.355-.864-.208-.441.515-.1.462-.541-.181-1.555-1.349.858-1.369,1.4-.276-.021-.382.536-.7.386-.32.738-.507-.344-.943.157.649.861-.249.255-.293.969-.167-.039-.383,0-.489-.135-.169-.211-.266-.256-.39.018-.178.387-.248-.532-.476-.109-.815,1.308-.236-.469-1.4.982-.507-.1-1.175.271-1.521-.374-.381.7-1.637.374-2.351.2-.039-.063-.086-.1-.073-.018l-.164-.037a.31.31,0,0,0,.188.234c.014.179-.007.293-.04.3-.646-.107-1.079.461-1.649.447-.559-.11-1.257.3-1.691-.331-.273-.2-.526.41-.823.342-.247-.009-.445-.013-.437-.47,0-.191-.1-.339-.269-.3-.032-.107-.064-.307-.1-.308a5.665,5.665,0,0,1-1.408-.024,3.9,3.9,0,0,0-.244.331c.228-.029.47-.064.6.129-.039.292-.2.273-.376.25a2.353,2.353,0,0,1-.459-.006c-.284.451-.574.885-.972.993.164.12.334.215.506-.1.093-.137.134-.167.2-.006a1.4,1.4,0,0,0,1.655.076c.309-.227.446-.2.682.089.714,1.016,1.486.775,2.354.859.447.156.687-.509,1.13-.415a6.654,6.654,0,0,0,1.374.021c.591-.176,3.269.549,2.909-.765-.4-.641.915-.048.979-1.125.645.37.382,1.671,1.615,1,.187-.4.486-.186.734-.255.347-.58-.745-.314-.969-.368.186-1.339,1.33-.232,1.38-1.134.253-.032.587.061.742-.125.53-.367,1.341-.214,1.19-1.387h.552q-.011.392.276.378l-.387,1.1c-.361-.023-.575.483-.975.451-.6.139-1.34.815-.142.751.219.7-.578.737-.883.789a.141.141,0,0,0,0,.256,2.193,2.193,0,0,0,2.237-.644c.35-.085.581-.611.975-.432.1-.389.278-.438.552-.378-.1.389-.278.438-.552.378a.768.768,0,0,1-.4.691c-.414.13-.6.6-.982.847-.6.517-1.28.63-1.848,1.174a1.544,1.544,0,0,1-.855.8c-.244.532-.834.007-1.043.644a1.418,1.418,0,0,0-1.141.344c-.247.246-.723-.19-.991.338-.8.238-1.843-.3-2.5.386-.006.011-.12-.1-.188-.139-.354-.221-.441.628-.866-.035-.365-.528-.557.572-.851-.053l-1.2-.041c-.258.532-.656.321-1,.327-1.24-.2-3.474.479-4.443-.31-.391-.05-.792-.229-1.128.264-.052.076-.287.043-.352-.05-.141-.2.115-.243.132-.388.011-.4-.306-.241-.489-.264a.671.671,0,0,0-.008-.121.7.7,0,0,1-.49,0c-.507-.013-.74.851-1.17.017-.6,1-1.814-.175-2.461.667-.019.029-.132-.036-.19-.083-.467-.429-.937-.187-1.363.175-1.073.012-2.146.017-3.219,0-.252-.021-.143-.522-.311-.733-.269.341-.332,1.171-.657.586-.29-.436-.767.066-.988-.51-.037-.1-.248-.094-.379-.1-.8.131-1.74-.333-2.437.29-.113.134-.17-.125-.182-.308-.12-.813-.261.172-.491-.108-.31-.454-.783-.192-1.184-.262-.011-.453.024-.92-.282-.566-.405.379-1.8,1.093-1.9.182.458-.326-.138-.507-.063,0H200c-.452.234-.816.739-1.268.106a.545.545,0,0,0-.746.075c.067.068.139.2.2.192.3-.011.47.343.606.621-.411.525-.56-.529-.88.037a.435.435,0,0,1-.758-.4c.088-.176.393-.263.535-.427-.068-.067-.15-.21-.2-.191-.455.171-.718-.453-1.118-.492-.019,0-.054-.1-.045-.127.108-.292.439.012.483-.412-.251-.292-.669-.069-1.071-.266-.031-.091-.1-.17-.082-.041h0c-.279-.261-.135.141,0,.188.037.972.511.882.886,1.376-.225.164-.538.279-.758.024-.061-.094-.131-.247-.2-.25-.649.074-1.5-.4-1.692.724a1.341,1.341,0,0,1-.113-.318c-.026-1.715-1.526-.108-2.182-1.185-.572.1-1.774-.256-2.068.255-.333.436-.069-.861-.67-.595-.215.148-.023.3.058.384.532.4-2.245.889-2.353.627-.217-.47-.329.019-.5.073-.531.136-1.5,0-.431-.525-.284-.288-.694-.365-.913.1l-1.778-.008c-.178-.418-.555-.158-.729-.34a3.075,3.075,0,0,1-1.045-1.654c-.166-.574-.463.619-.851-.051a.741.741,0,0,0-.362-.179c-.352.1.29.659-.049.739-1.36.832-.441,0-1.584.019-2.186.369-1.681-1.11-2.4-.669a.245.245,0,0,0-.044.129c1.055,1.26-.052.852-.755.933-.547.12-.223-.709-.724-.764-.171-.1-.982.131-.7-.332.192-.242.348-.624.605-.089.354.048.884.189,1.128-.356.014-.1.622.033,1.249.156.066.242.539.251.44.081.624.107,1.122.135.858-.192-.253.021-.406-.182-.574-.409a.679.679,0,0,1-.484.373c-.791-.791-1.24.032-2.032-.71-.261-.36-.43.312-.689.312-1.367-.9-1.446.025-2.689.005-.392-.681-.933-.3-1.411-.365-.029,0-.075.077-.094.131a.19.19,0,0,0,.03.126c.358.035.573.547.966.5.48.023,1.054-.193,1.476.165-.216.465-.77-.054-.828.592h-.972c-.207-.427-.627-.371-.87-.737-.23.735-.752-.592-1.246.169-.13.227-.329.294-.465.09-.419-.606-1.1.047-1.435-.789-.311-.553-.768-.256-1.053.105-.823-.116-1.845.348-2.527-.354-.331-.136-.738.19-1.021-.3a46.327,46.327,0,0,0-4.693-.1c-.348-1.062-.766.53-1.321-.111-.159-.119-.249-.344-.4-.025-.385.333-1.019.043-1.489.136-.2-.442-.375-.266-.615-.022-1.1.365-.348-.914-.844-1.118-.279.042-.72-.133-.914.168.121.29.513.138.725.278.143.176.152.688-.123.692-.219.061-.308-.277-.456-.315-.123-.032-.274.231-.428.309-.826.046.5-1.4-.449-1.116-.169.059-.106.585-.2.624-.326.123-.126-.3-.212-.424-.158-.256-.607-.35-.553.157a3.136,3.136,0,0,1-2.764.2c-.737-.424-1.546-.109-2.323-.2-.951-.845-2.1-.139-3.093-.4-1.04-.9-2.231.162-3.243-.862-.052-1.266-2.034-.439-2.717-.648-.415.017-.677-.585-1.149-.416a22.676,22.676,0,0,1-2.374.024c-.274,0-.245-.271-.262-.524-.043-.624-.048-.628-.462-.625-1.27-.107-.083.608-.608.764-.855-.192-2.012.446-2.69-.359-.47.688-1.229.233-1.836.36-.788-.168-1.753.424-2.4-.363l-.3.319c-.374-.869-1.557.293-1.524-.926,0-.03-.168-.11-.182-.085-.4.725-.553-.042-.922-.1a1.518,1.518,0,0,1,.265-.6c-.984-.652-3.225.451-4.022-.523l-1.215.066c-.284.5-.681.219-1.028.286-.511-.813-1.324-.168-1.971-.4-.337-.1-.435.433-.723.4a.762.762,0,0,0-.627.248,1.347,1.347,0,0,1-1.515-.221c-.466-.15-1.006.175-1.412-.413-.528.184-1.507-.334-1.753.384-.047,0-.116-.028-.136,0-.42.84-.73,0-1.254-.19-.928-.909-1.826,1.232-2.736.427-.381-.572-1.2.226-1.2-.739,0-.086-.121-.27-.153-.257-.532.221-.882-.547-1.43-.435-.413.085-.93.327-1.3-.278-.233.11-.406.411-.7.327-.343-.1-.755.185-1.009-.372-.7.774-1.512.23-2.412.346a.333.333,0,0,0,.007-.164c-.124-.333-.491-.167-.714-.167-.275.363.3.383.595.347.6.771-4.579.313-5.1.312-.112-.088-.1-.166.018-.273.786-1.3-1.03-.409-1.18-1.059.138-.446,1.971.3,1.471-.5-.934-.194-2.02.412-2.831-.38-.036-.053-.234.1-.354.161-2.27-.4-5.035-.085-7.509-.176-.233,0-.547.133-.684-.024-.493-.565-1.047-.342-1.576-.35-1.909-.015-3.823-.029-5.73,0-.447.3.117.853-.723.759-.831.082-1.005.8-2.168.383-.487-.061-1.025.215-1.422-.385-2.048.261-.513-.9-1.84-.767-.223-.089-.623.084-.747-.206.239-.42.872.146,1.07-.412-2.013-.367-4.283-.02-6.378-.156-.228,0-.294.283-.45.366-.187.061-.445-.131-.571-.344-.211.547-.4.024-.612.009-.55.116-1.8-.352-2.038.36-.512.149-1.108-.35-1.546.376-.3-.57-.509-.283-.334.3.167.46.172.474-.144.474-.195-.009-.536.035-.433-.38.352-.2.058-.521-.059-.168a.16.16,0,0,0,.022.173c-.217.029-.4-.1-.55.124-.084.123-.231.256-.338.24-.307-.047-.5.274-.733.358-.2.072-.5-.16-.709-.354-.326-.306-.592.782-.9.035-.163.081-.244.541-.4.234-.54-.669-1.35.182-1.907-.631-.039-.053-.194-.021-.255.044-.424.62-1.159.22-1.72.331a3.489,3.489,0,0,0-1.115.024c-.466.157-.716-.531-1.149-.422-.09.023-.2-.134-.307-.208.268-.422,3.78.195,2.785-.539-.532-.194-5.207.433-4.614-.379.243-.111,1.9.255,1.352-.384-1.723-.033-3.45,0-5.175-.012-.163,0-.256-.12-.249-.343.166-.638-1.109-.481-.747-.107.135.069.644.142.353.408-.495.275-.822-.308-1.231-.473-.5-.39-.562.764-1.068.452-.231-.2.03-.288.091-.384.237-.385-.474-.451-.471-.067.25,1.37-5.322-.278-5.75.9-.5-.689-1.708-.48-2.3-.029-1.874.239-.408.411.386.485.357.533-1.541.142-1.791.214-.178-.064.147-.365.164-.53-.58-.593-1.028.746-1.616.095-.615-.671-.5.406-.872-.049-.587-.507-1.384.036-2.038-.207-.8-.18-1.255.886-2.01.8-.03,0-.1.095-.094.12.062.455.429.18.659.279.279.262-.266.475-.418.536.11.07.232.221.328.2.406-.107.608.5.98.488.458.45-2.88.464-2.872-.062a.412.412,0,0,0-.523-.009c-1.183.885-2.763.127-4.1.364-.375.146-.809-.28-.644-.813.1-.132.13-.251,0-.268-.412-.051-.827-.046-1.241-.07-.344-.02-.682-.849-1.031-.012-.275-.65-.762-.1-1.072-.636-.058-.132-.335-.08-.51-.119-.263-.059-.566.164-.787-.169-.271-.41-.614-.126-.915-.22C5.3,63.3,4.78,62.571,4.077,62.593c-.061.007-.137-.153-.2-.243-.159-.226-.439-.068-.586-.4a.828.828,0,0,0-.666-.564c-.038,0-.093-.2-.1-.312-.031-.611-.27-1.5-.776-1.642-.016,0-.041-.122-.037-.125.437-.318-.045-.578-.024-.853.061-.933-.648-1.492-1.067-2.073C.137,55.952.4,55.076.008,54.607c-.062-.23.241-.586.262-.789M8.36,36.887c-.239-.019-.455-.458-.691-.322-.124.084-.112.15-.023.268.337.447.332.453,1.1.452.04,0,.217-.019.393-.052.353-.423-.625-.219-.775-.345m4.856-12.524c-.061.205.137.178.267.286.407-.315-.043-.619-.267-.286m4.427-.7.1.137.18-.137c-.084-.2-.171-.073-.28,0m1.264.592c-.134-.146-.194-.446-.424-.4l-.007-.009c.056-.068-.057-.295-.156-.344.031.088.053.162.071.229-.223-.282-.164-.032-.03.119a.184.184,0,0,0,.061.013c.111.617-.49.1-.5.76h-.28c-.065-.745-.721-.056-.936-.707-.341.149-.12.718-.188,1.087-.05.508.619.555.564,0a2.61,2.61,0,0,0,.56-.383c-.041.4.259.419.28,0,.262-.094,1.26.285.984-.368m.189-1.043c-.061.205.137.178.267.286.407-.315-.043-.619-.267-.286M20.3,13.88l-.1.247.1.137c.053-.149.148-.269,0-.383m1.12,8.824-.1.137.1.247c.148-.115.054-.234,0-.384m.14-2.877c.109.073.2.2.28,0-.109-.073-.2-.2-.28,0M20.5,23.989a2.325,2.325,0,0,1-.089-.738c-.117-.29-.285.037-.247.221h.125c.073.206.134.373.185.511a.422.422,0,0,1-.218-.174c-.214-.867-.3.143-.806.079a.15.15,0,0,0-.053.259c.276.611.788.465,1.253.476-.049-.191-.088-.352-.12-.493.189.49.225.487.259.495.6.154,1.024-.338,1.3-1.01-.537-.476-1.125.481-1.589.374m2.084-1.215c-.233.022-.18.465-.073.621.084.1.248.069.331.087.964-.248-.09-.306-.259-.708m1.1.506c.351.131.45.314.685,0-.235-.315-.333-.131-.685,0M255.195,41.136a.241.241,0,0,0-.462.118c.075.22.508.195.462-.118m-2.576-5.424.1-.243-.1-.135c-.055.149-.145.267,0,.378m-1.971,16.581.178-.134c-.081-.2-.167-.075-.276,0l.1.134m-7.12,2.134c.346.129.444.31.675,0-.231-.31-.329-.129-.675,0m1.364-.567-.1.243.1.134c.055-.149.145-.267,0-.378m.138-21.74.1.135.178-.134c-.081-.2-.167-.075-.276,0m.268,22.652c.06-.169-.114-.282-.246.064.086-.025.167-.045.246-.064m-.158.18a.433.433,0,0,0,.107-.093c-.13.072-.113.1-.107.093m1.154-.679c-.313.041-.761-.222-.982.165-.123.364.381.1.524.177-.11.038-.2.073-.278.1.617-.11.931-.067.736-.446m.168-.67c-.06.2.135.175.263.282.4-.311-.042-.61-.263-.282m.235.84c.493.786.317.475.688.24-.494-.387-.594-.317-.688-.24m.287-.232c.189.2.321.35.419.461a.874.874,0,0,1,.11-.056c-.043-.431-.256-.348-.529-.4m.529.573-.032-.025c.141.158.178.2.191.189.28-.188-.245-.568-.159-.164m.156-.93a.171.171,0,0,0,.045.009c-.215-.449-.2-.194-.045-.009m-.04-.343c.053.142.1.256.136.347.086-.045-.032-.3-.136-.347m.281.351c-.069-.045-.11-.015-.122.051.1.23.144.291.16.278.166-.133.053-.241-.038-.329M243.65,56.5c.48-.167.621.624,1.08.229-.034-.166-.4-.459-.161-.522.389.056.984-.2,1.275.12-.134.331-.618.031-.533.6.122.749.565-.04.823-.046-.062.543.626.5.552,0a1.89,1.89,0,0,1,.268.034.264.264,0,0,0,.011.153c.1.26.557.138.614.191l-.219-.231c.417.145.747.328.782.224.142-.036.229-.172.2-.4.122-.848-.295-.73-.757-.639a.808.808,0,0,0,.057.261c.3.412-.14.437-.413.412-.306-.321-.4-.395-.542-.388v-.378c.134,0,.33.078.391-.014.352-.595.9-.273,1.373-.375.075-.033.2-.288.041-.346-.568.176-1.83-.351-2.081.357-1.322-1.158-.871.652-1.835-.3-.226.478-.587.209-.876.317-.828.323-1.272.891-.049.737m-1.149-.619a.241.241,0,0,0-.462.118c.075.22.508.195.462-.118M239.926,53.1c.144-.111.054-.229,0-.378l-.1.134.1.243m-.966-.189-.178-.134-.1.134c.109.074.195.2.276,0M237.021,63.12c.094-.39-.466-1.336-.55-.557.006.286.38.866.55.557m-.683-9.971c.855-.26-.05-.641-.364-.3-.049.227.249.2.364.3m-1.38-.424c.145-.111.055-.229,0-.378l-.1.134.1.244m-.69-.189-.178-.134-.1.135c.109.074.195.2.276,0M231.648,49.7c-.055.149-.144.267,0,.378l.1-.243Zm0,19.282c.144-.111.054-.229,0-.378l-.1.135.1.243m-4.28.378c.2-.021.464.129.5-.255.006-.027-.058-.117-.091-.118a7.147,7.147,0,0,0-.812.006c-.291.391.188.4.4.367m-.411,1.512c.054-.149.144-.267,0-.378l-.1.244.1.134m-.552,2.269c.054-.149.144-.267,0-.378l-.1.243.1.135m-.236-30.57-.178.135c.081.2.167.074.276,0l-.1-.135m-.139,26.815c.4-.311-.042-.61-.263-.282-.06.2.135.175.263.282m-.413,2.944.1-.134c-.109-.074-.195-.2-.276,0l.178.134M224.473,58.4l-.1.134.1.244c.144-.111.055-.229,0-.378m.828,12.476c.054-.149.144-.267,0-.378-.055.149-.144.267,0,.378m-1.037,2.269c.141.045.236-.093.347-.189a.507.507,0,0,0-.828,0,.449.449,0,0,0,.481.189m.209-3.781c.288-.091.819.245.912-.258-.468-.309-1.184-.035-1.73-.11-.337.591.581.307.818.367m-1.656,3.024c.144-.111.055-.229,0-.378l-.1.134.1.243m-.138-3.97c-.109-.074-.195-.2-.276,0,.109.075.195.2.276,0m8.416,6.238c.054-.149.144-.267,0-.378-.055.149-.144.267,0,.378m-.184,2.777a.241.241,0,0,0-.462.118c.075.22.508.195.462-.118m-.191-.861c.4-.311-.042-.61-.263-.282-.06.2.135.176.263.282m-1.971.163-.209-.19c-.128.034-.268.019-.343.19.2.129.373.285.552,0m-2.164-.816a.241.241,0,0,0,.462.118c.046-.313-.388-.338-.462-.118m.646,1c.251-.217-.1-.468-.282-.372-.774-.006-.149.56.282.372m-2.207.006.1-.244-.1-.134c-.054.149-.144.267,0,.378m-.561-.756c.191.023.882.055.561-.373-.362-.009-.725-.013-1.086.005-.345.466.311.368.526.367m-.819.756.1-.244-.1-.134c-.055.149-.145.267,0,.378m-1.02-1.02-.23-.115c-.326-.016-.334.5-.129.756a1.5,1.5,0,0,0,.36-.642m-.652,1.786c.1-.023.6-.023.345-.327-.325-.461-.346-.462-.662.006-.2.28.14.291.317.32m-.895-.388.175-.252c-.846-.512-1.67.42-.175.252M219.644,56.7l-.178-.134-.1.134c.109.074.195.2.276,0m-.69-.189c-.055.149-.145.267,0,.378l.1-.243-.1-.134m-.044,20.671a.43.43,0,0,0,.106.036c.1-.114,0-.209-.08-.287-.07-.045-.11-.015-.122.05.041.1.071.157.1.2m-.12-.257a.12.12,0,0,0,.021,0,.207.207,0,0,0,.015-.051.262.262,0,0,0-.045.032l.009.023m-.021-49.279c.045-.313-.388-.338-.462-.118a.241.241,0,0,0,.462.118m-1.834,44.947a.769.769,0,0,1,.208.009c.146.045.135.145.081.26.2.153.326.258.033.722-.014.028-.026.058-.048.095a.3.3,0,0,0,.223.044c.143-.334.394-.342.633-.375a.791.791,0,0,1,.082-.229c.3-.463.073-.674-.267-.738-.116.109-.171.113-.346-.012l-.011-.007a1.08,1.08,0,0,0-.619.188c.01.015.021.029.032.043m1-32.6c-.142-.206-.946-.241-1.015.115.069.22.267.074.356.153.254.481.557.261.659-.269m-2.058.578c.394.255.543-.189.375-.621-.137.071-.634.452-.375.621m-.093-.885-.178-.135-.1.135c.109.074.195.2.276,0m-1.065.593c.4-.311-.042-.61-.263-.282-.06.2.135.175.263.282m.028-20.918c.908-.141,1.421.584,2.34.476,0-.034.83.074.54-.308-.175-.24-.33-.638-.59-.105-.031.063-.216.081-.25.027-.538-.886-1.457.189-1.974-.747-.243.085-1.507-.27-1.078.368.339.083.732-.2,1.012.29m-.94,20.761c.045-.313-.388-.338-.462-.118a.241.241,0,0,0,.462.118m-.684-21.474.178-.134c-.081-.2-.167-.075-.276,0l.1.134m-.788-.324c.055-.149.144-.267,0-.378l-.1.243.1.134M211.09,38.925l.1.135.178-.135c-.081-.2-.167-.074-.276,0m0,.756c.109.074.195.2.276,0-.109-.075-.195-.2-.276,0m.565,36.894a2.605,2.605,0,0,0-1.349.105.372.372,0,0,1-.113.093c.51.017,1.322.247,1.462-.2m-1.351,1.57-.18-.137-.1.137c.109.073.2.2.28,0m-1.145-1.791-.037-.027c-.054.074-.09.041-.168-.014l-.035-.024a.291.291,0,0,0-.036.066c.109.074.195.2.276,0m-1.052-37.74c.221.328.664.029.263-.282-.127.107-.323.08-.263.282m-1.19-5.957-.242.219c.179.285.35.129.552,0l-.31-.219m-.242,5.89.178.134.1-.134c-.109-.074-.195-.2-.276,0m1.1,0-.178-.134-.1.134c.109.074.195.2.276,0M206.54,77.175c.276-.047.724.172.915-.119-.068-.432-.427-.2-.656-.254s-.512.081-.258.373M206.123,32.5l-.178-.134-.1.134c.109.074.195.2.276,0m-1.98,44.5c-.179-.277-.518-.127-.782-.21-.194.068-.484-.041-.618.21a1.5,1.5,0,0,0,1.4,0m-3.677-45.064c.055-.149.144-.267,0-.378-.055.149-.144.267,0,.378m-.552-3.025c.055-.149.145-.267,0-.378l-.1.243.1.134m-1.1.756c.055-.149.144-.267,0-.378l-.1.243Zm.138-1.324-.178-.134-.1.134c.109.075.195.2.276,0m-.826,48.08c.053-.149.148-.269,0-.384-.053.149-.148.269,0,.384m-.42-.192a1.2,1.2,0,0,0-.349-.178c-.065-.01-.141.115-.211.179.182.289.355.131.56,0m-.717-2.882c-.029-.182-.064-.235-.269,0,.091,0,.182,0,.269,0m-.489,0c-.2-.248-.474-.16-.706-.16a1.128,1.128,0,0,0,.706.16M194.9,76.228l-.18-.137-.1.136c.109.073.2.2.28,0m-2.673.175c.136-.09.4-.718.442-.178.328.482.865-.4,1.312-.278.1-.049.03-.249-.036-.256-.521.193-.873-.657-1.4-.422-.534-.173-.561.709-.321,1.134m-1.873-.616c.242.315.495.218.753.249.863.114.274-1.428-.267-.385-.381-.685-.922-.285-1.391-.371-.027,0-.079.154-.1.246.225.369.757-.146,1,.261M188,75.975c.261-.248,1.061-.468.651-1.023-.22.236-.739.3-.747.706.032.106.064.211.1.316m-.8-.323c.053-.149.148-.269,0-.384-.053.149-.148.269,0,.384m-.56-.384.1-.137-.1-.247c-.148.115-.053.234,0,.384m-1.4.384c.053-.149.148-.269,0-.384-.053.149-.148.269,0,.384m-.454-.6c-.1-.231-.178-.073-.243.053a.166.166,0,0,0,0,.139c.215-.117.253-.173.244-.192m-.249.4a.221.221,0,0,0,.015-.109c-.588.376-.151.408-.015.109m-.045-.181c-.14-.057-.475.1-.489.228.219-.094.374-.167.489-.228m-2.094.715.18-.137c-.084-.2-.171-.073-.28,0l.1.137m-.478-.722a8.46,8.46,0,0,1,.948.041c.367.258.416.32.432.307.284-.191-.248-.576-.161-.167-.08-.052-.157-.1-.232-.144.15-.016.249-.07.226-.209-.222-.366-.468-.154-.879-.2.172.112.315.208.435.29-.7-.364-1.134-.358-.768.084M178.8,74.5c.053-.149.148-.269,0-.384-.053.149-.148.269,0,.384M172.64,9.659c.148-.115.054-.234,0-.383l-.1.137.1.247m-3.154,61.395c-.046-.249.441-.182.62-.181a.953.953,0,0,0,.373-.009c-.154-.421-.633-.074-.918-.208-.487-.085-.485-.106-.58.035-.211.382.2.379.505.364m-.806,2.241.181-.137c-.084-.2-.171-.073-.28,0l.1.137m-.522-2.63c.231.052.492-.053.284-.371a.4.4,0,0,1-.439-.227c-.062-.034-.123-.074-.183-.115a.377.377,0,0,0-.034.082c-.14.383.07.753.372.631m-.184,2.435a.245.245,0,0,0-.469.12c.076.223.515.2.469-.12m-.234-1.475-.1-.137-.18.137c.084.2.171.073.28,0M167,73.294l.18-.137c-.084-.2-.171-.073-.28,0l.1.137m-1.319-.384.1-.136c-.109-.073-.2-.2-.28,0l.18.136m-1.44-2.63c.053-.149.148-.269,0-.383l-.1.247.1.137m-3.125,1.474a.328.328,0,0,0,.464-.131c-.156-.222-.417-.267-.56,0l.1.131m-1.076.061c.054-.149.148-.269,0-.384l-.1.247.1.137m-1.127,0c.442.059.9.011.584-.745-.562.847-.326-.33-.669.11a.426.426,0,0,1-.468.258c-.322.432.359.4.553.377m-1.113,0c.053-.149.148-.269,0-.384l-.1.247.1.137m-.927-.124c.224.332.674.029.267-.286-.129.108-.327.081-.267.286m-.66-.393c.046-.317-.393-.344-.469-.12a.245.245,0,0,0,.469.12m-3.027.564a.981.981,0,0,0,.117.314c.688-1.787.629.344,1.524-.533.185-.248.443-.129.585-.394-.432-.44-1.083-.1-1.6-.2,0-.01,0-.02,0-.029-.45.124-1.105-.117-1.455.23.189.411.867-.127.832.614m-1.126-.623c-.109-.073-.2-.2-.28,0,.109.073.2.2.28,0m-2.517.407a.256.256,0,0,0-.01.054c.447-.077.148-.4.01-.054m-.008.207c-.975.3-.053.563,0,0m-.21-.137c-.13-.161-.194-.415-.346-.024a2.546,2.546,0,0,0,.346.024m-.765.1c.054-.149.148-.269,0-.384l-.1.247.1.137m-5.84-.439.1-.137c-.109-.073-.2-.2-.28,0l.18.137M134.7,69.321l-.181-.137-.1.137c.109.073.2.2.28,0m-.98-46.617-.1.137.1.247c.148-.115.054-.234,0-.384m-1.109,46.8c.46.017.921.014,1.382.006.368-.551-.615-.348-.833-.379-.218.006-.875-.114-.549.373m-.291-46.414.1-.137-.1-.247c-.148.115-.054.235,0,.384m-1.12,0,.1-.137-.1-.247c-.148.115-.054.235,0,.384M130.1,22.1l-.093.127c.04.02.083,0,.128-.04-.012-.028-.024-.057-.035-.088m.138,1.7.084.064c.049,0,.1,0,.148,0l.044-.06c-.109-.074-.195-.2-.276,0m.414-1.7-.091.125c.04.025.083,0,.128-.033-.012-.03-.025-.06-.037-.092m-.443,47.028c.209.009.672.075.429-.371-.157-.466-.48.07-.844-.006-.289.32.191.444.415.378m-.75-45.288a.312.312,0,0,0,.117-.213.338.338,0,0,0-.114.108.168.168,0,0,0,0,.106m-.1,45.111a1.252,1.252,0,0,0-.455-.528l-.1.319c-.024.488.367.458.552.209m-.73-45.152.18-.137a.1.1,0,1,0-.179.072.233.233,0,0,0-.009.054l.008.01m-.4-.1-.065-.089c-.019.052-.042.1-.059.147.044.021.084.013.124-.058m-.12,45.043c.054-.149.148-.269,0-.384l-.1.247.1.137m-.6-3.892.18-.137c-.084-.2-.171-.073-.28,0l.1.137M127.263,23.8a.268.268,0,0,0,.074-.177l-.094.129.019.048m.285-21.811c.184.1.541-.157.287-.378-.436-.19-1.073.383-.287.378M108.793,15.031c.053-.149.148-.269,0-.383l-.1.247.1.136M103.752,1.986l-.1.247.1.137c.053-.149.148-.269,0-.384m.093,63.174c.046-.317-.393-.343-.469-.12a.245.245,0,0,0,.469.12M103.472.835c.054-.149.148-.269,0-.383l-.1.247.1.136m-.14.959c-.109-.073-.2-.2-.28,0,.109.073.2.2.28,0m-.74-1.015.18-.137c-.084-.2-.171-.073-.28,0l.1.137m-.426,64.38c.046-.317-.393-.343-.469-.12a.245.245,0,0,0,.469.12M99.552,2.753c.053-.149.148-.269,0-.384l-.1.247.1.137M98.992.835c.053-.149.148-.269,0-.383l-.1.247.1.136m-.351,43.726c.065.01.141-.115.211-.179-.182-.29-.355-.131-.56,0a1.208,1.208,0,0,0,.349.179M98.572,1.027,98.391.89l-.1.137c.109.073.2.2.28,0m-.56,43.355-.1-.136-.18.136c.084.2.171.073.28,0m-.56,20.335-.1-.137-.18.137c.084.2.171.073.28,0m-.745.9a.327.327,0,0,0,.464-.131c-.156-.221-.417-.267-.56,0l.1.131m-1.356-3.776c.053-.149.148-.269,0-.384-.054.149-.148.269,0,.384m-.881,3.781.18-.137c-.084-.2-.171-.073-.28,0l.1.137m-.52.056c.054-.149.148-.269,0-.384l-.1.247.1.137m-2.24-3.837c-.054.149-.148.269,0,.384.054-.149.148-.269,0-.384m1.529,4.6c.2-.02.47.127.523-.253-.278-.311-.828-.056-1.194-.119-.37.536.447.345.671.373m-.348-.779c.086.128.26-.035.542-.431.489-.428-1.8-.36-1.849-.153.349.5.935-.076,1.306.585m-2.021-3.442c.054-.149.148-.269,0-.384-.053.149-.148.269,0,.384m-.28,3.453c-.113.231-.364.326-.371.643.341.483.721-.244.371-.643m-1.68-3.837c.053-.149.148-.269,0-.384l-.1.247.1.137m-.14-9.784c-.109-.073-.2-.2-.28,0,.109.073.2.2.28,0m-1.024.131c.235.044.253-.536.088-.643-.232-.063-.251.539-.088.643m-1.076-30.25-.1.137.1.247c.148-.115.053-.234,0-.384m.005,29.927c.235.062.512-.08.258-.373a7.2,7.2,0,0,0-.823-.005c-.326.434.372.4.565.378m-.845-29.543c.148-.115.053-.234,0-.384l-.1.137.1.247m-.28-3.453c.053-.149.148-.269,0-.384l-.1.247.1.137m-1.4,42.972c.053-.149.148-.269,0-.384l-.1.247.1.137M82.61,40.545l-.18-.137-.1.137c.109.073.2.2.28,0m-.56-22.253-.1-.137-.18.137c.084.2.171.073.28,0m-.28,22.253-.18-.137-.1.137c.109.073.2.2.28,0m-.84,0c-.109-.073-.2-.2-.28,0,.109.073.2.2.28,0m-1.54,4.412c.148-.115.054-.234,0-.383l-.1.137.1.247m-.1-4.194c.407-.315-.043-.619-.267-.286-.061.2.137.178.267.286m-.08-22.416-.1-.247c-.148.115-.053.234,0,.383l.1-.136m.041-1.207L79.069,17l-.1.137c.109.073.2.2.28,0M78.83,51.1l.1-.137-.1-.247c-.148.115-.053.234,0,.384M73.509,16.949c-.053.149-.148.269,0,.383.053-.149.148-.269,0-.383m2.52,23.4-.1.247.1.137c.053-.149.148-.269,0-.383m2.42.41c.407-.315-.043-.619-.267-.286-.061.2.137.178.267.286M78.4,18.671c.125-.332-.119-.5-.292-.6l-.251.208c.134.164.38.792.543.394M77.8,40.6c.046-.318-.393-.344-.469-.12a.245.245,0,0,0,.469.12m-.974.077.18-.137c-.084-.2-.171-.073-.28,0l.1.137m.18-18.17-.18-.137-.1.137c.109.073.2.2.28,0m.006-5.563.274-.192a.515.515,0,0,0-.84,0c.188.222.282.213.566.192M76.03,52.631c.053-.149.148-.269,0-.384l-.1.247.1.137m-.66-35.272c.407-.315-.042-.618-.267-.286-.061.2.137.178.267.286m-1.154.175c.162-.154.4-.188.552-.4-.112-.1-.208-.235-.35-.189-.294-.072-.578.093-.485.558.081.189.161.181.283.027M73.7,60.949c.224.332.674.029.267-.286-.129.108-.327.081-.267.286m.18-38.5a.245.245,0,0,0-.469.12c.076.224.515.2.469-.12M73.509,18.1c.148-.115.053-.234,0-.384l-.1.137.1.247m-.42,42.78c-.109-.073-.2-.2-.28,0,.109.073.2.2.28,0m-.42-43.547c.053-.149.148-.269,0-.383-.053.149-.148.269,0,.383M62.318,6.188c-.539-.557-.583-.349-.978.194.2.319.361.193.711.208.19,0,.361-.006.523-.013-.377-.011-.3-.026-.225-.05.155-.108.138-.3-.032-.339m1.63-1.461-.1.137c.109.073.2.2.28,0l-.18-.137m.775-.086-.315.222c.2.131.378.29.56,0l-.245-.222m3.706.854-.1.136c.109.073.2.2.28,0l-.18-.137m0,1.151-.1.136c.109.073.2.2.28,0l-.18-.136m-.047,1.219c-.061.2.137.178.267.286.407-.315-.043-.619-.267-.286m.647.644-.1.248.1.136c.054-.149.148-.269,0-.384m.184,7.8a.245.245,0,0,0,.469.12c.046-.317-.393-.343-.469-.12m-.044,2.171-.024-.02a.339.339,0,0,0,.016-.157c-.034-.121-.2-.247-.315-.207.051.087.09.161.124.23-.221-.153-.28-.113-.337-.071.079.076.289.264.42.266.19.549-.392.287-.724.342l-.007-.009c.056-.068-.057-.3-.156-.344a1.362,1.362,0,0,0,.073.232c-.225-.285-.166-.035-.032.116a.117.117,0,0,0,.092.007c.419.71,1.47.185,2.147.345.474-1.046-.858-.679-1.277-.731m1.4-.959.212.192.348-.192c-.2-.131-.378-.29-.56,0m.438.97c-.37.536.447.345.671.373.2-.02.47.127.523-.253-.279-.311-.828-.056-1.194-.119m.345,42.93c0,.017,0,.035,0,.052.374-.1.882.1,1.176-.213-.234-.339-.776.019-1-.283-.324-.322-.505-.389-.789.028-.208.3-.418-.206-.654-.228-.326,1.049.854.529,1.27.644m-2.143.057c.407-.315-.042-.618-.267-.286-.061.2.137.178.267.286m-.6-.218-.18-.137-.1.137c.109.073.2.2.28,0m-.46,2.439.18-.137c-.084-.2-.171-.073-.28,0l.1.137M67.905,5.444a2.864,2.864,0,0,1-.3.352c-.254-.557-.661-.3-1.009-.357-.459-.073-.783.55-1.283.406-.475.043-2.911-.373-2.869.353a2.5,2.5,0,0,0,.972-.016c.214-.085.324.1.436.245.667-.147.791-.329,1.016-.241.377.242,1.3-.405,1.22.564,0,.044.049.136.078.138a8.382,8.382,0,0,0,.936.017c.163-.164.042-1,.395-.489.232.412.761-.693.4-.973m-2.524,1.53c.184.1.541-.158.287-.378-.436-.191-1.073.383-.287.378m2.107.959c.109.073.2.2.28,0L67.588,7.8l-.1.136m.28,10.743c-.235-.314-.333-.131-.685,0,.351.131.45.315.685,0m-.628,45.082.348-.192c-.2-.131-.378-.29-.56,0l.212.192m-.352-23.4.1-.247-.1-.137c-.053.149-.148.269,0,.384m-.017-21.866c-.06-.039-.1-.021-.116.025.11.551.385.16.116-.025m.017-1.922c-.054.149-.148.269,0,.384.054-.149.148-.269,0-.384m-.14,2.089a1.282,1.282,0,0,0,0-.133.274.274,0,0,0,0,.133m-.52,45.129c.407-.315-.043-.618-.267-.286-.061.2.137.178.267.286M66.322,40.1a.245.245,0,0,0-.469.12c.076.224.515.2.469-.12M65.7,18.956c-.358.308-.154.337.022.217.1-.112.121-.19.1-.24.328-.047.351.037.543-.45h.28c0,.008,0,.013,0,.021-.007-.421-.237-.457-.284-.021-.277-.061-.46-.011-.56.384l-.024.019c-.127-.075-.478.033-.512.205a2.593,2.593,0,0,1,.428-.136m-.676,21.4L65.2,40.1c-.858-.52-1.7.426-.178.256m-.376-21.239-.1-.247c-.148.115-.054.234,0,.384l.1-.137m-1.22,21.239c.148-.115.053-.235,0-.384l-.1.137.1.247m-.148-21.1c.225.068.721-.063.428-.378a7.041,7.041,0,0,0-.824.005c-.32.417.178.393.4.373m-1.252.383c.231.058.51-.069.269-.372a7.2,7.2,0,0,0-.823-.006c-.333.431.36.4.555.378m-.42,20.527-.18-.137-.1.137c.109.073.2.2.28,0M64.127,8.517c.227,0,.287-.383.433-.345s.227.384.453.34c.091-.018.218.051.274-.011.625-.82,1.5.132,2-.77-.134-.161-.267-.382-.3-.356-.953.7-1.979.232-2.965.367-.373-.233-.492.507-.865.4-.5.052-1.81-.311-2.061.238.893.345,2.051.007,3.028.136m-4.059.375c.054-.149.148-.269,0-.384l-.1.247.1.137m-1.68,43.739c.054-.149.148-.269,0-.383-.053.149-.148.269,0,.383m.13-32.818c.057-.51-.322-.722-.558-.359.166.155.37.721.558.359m-.55,5.386-.1-.137-.18.137c.084.2.171.073.28,0M54.707,42.6l.18-.137c-.084-.2-.171-.073-.28,0l.1.137m-.24,7.345.1-.137-.1-.247c-.148.115-.054.234,0,.384m0-24.555c.053-.149.148-.269,0-.384l-.1.247.1.137m-.282-4.6c.393-.052.842.211,1.137-.383l1.111-.008c.181-.438.378-.266.6-.063.8-.848-.041-.638-.557-.7-.357.556-.836.38-1.276.372-.3-.005-.39.506-.722.411-.681-.284-1.564.452-.294.368M51.947,20.4l-.1.247.1.137c.053-.149.148-.269,0-.383m.42.192c.084.2.171.073.28,0l-.1-.137-.18.137m.56-14.963-.1-.137-.18.137c.084.2.171.073.28,0m-.5,44.584c.179-.049.208-.1.215-.148.044-.31-.043-.507-.229-.494-.542.18-.306.421.014.642m-.742.122c.1-.012.2-.024.28-.036-.112,0-.04-.021.033-.046.379-.477-.378-.281-.574-.3-.311.265-.022.395.261.381m-.817,12.982.1-.137c-.109-.073-.2-.2-.28,0l.18.137m-.361-13.045.18-.137c-.084-.2-.171-.073-.28,0l.1.137m.18-26.61c-.109-.073-.2-.2-.28,0,.109.073.2.2.28,0m-.7,37.792.1-.137-.1-.247c-.148.115-.054.234,0,.383m0-11.127c.148-.115.053-.234,0-.383l-.1.137.1.247m-.14-26.665-.1-.137-.18.137c.084.2.171.073.28,0M49.567,6.4l-.18-.137-.1.137c.109.073.2.2.28,0m-.42,55.057.1-.137-.1-.247c-.148.115-.053.234,0,.383M48.58,6.59c.184.1.541-.157.287-.378-.436-.19-1.073.383-.287.378m-1.113.384c.054-.149.148-.269,0-.384l-.1.247.1.137m-.8,52.619-.18.136c.084.2.171.073.28,0l-.1-.136m-.044,4.54c.29-.223-.168-.56-.287-.744-.308.3-.05.967.287.744M29.495,45.026l-.09.317c-.013.456.36.473.555.2a1.23,1.23,0,0,0-.465-.514m.484-2.2c.26.318.641.246,1.007.209-.382-.485-.645-.477-1.007-.209m.266,1.746c0,.016,0,.032,0,.049.434.833.87-.22,0-.049m.514-.9c.046-.317-.394-.344-.469-.12a.245.245,0,0,0,.469.12m-.677.548a2.456,2.456,0,0,0,.137.353c.089-.045-.03-.3-.137-.353m.041.347a.173.173,0,0,0,.047.01c-.22-.455-.21-.2-.047-.01m3.521-.351c.155-.014.259-.068.235-.21-.222-.366-.468-.154-.879-.2.137.1.25.178.347.249-.646-.323-1.031-.3-.681.125a6.171,6.171,0,0,1,.9.042c.311.241.31.285.317.325.016.622.486.122.491-.258-.144.017-.588-.323-.493.08-.083-.055-.163-.1-.241-.151m-.739.361c-.255.22.1.474.287.378.786.006.151-.568-.287-.378m.46,6.38.1.137c.053-.149.148-.269,0-.384l-.1.247m-.547,7.166c-.061.2.137.178.267.286.407-.315-.043-.619-.267-.286m1.107.013.1.247c.148-.115.054-.234,0-.383l-.1.136m1.189-14.706c-.123.007-.46-.131-.387.162-.191-.262.033.014-.011-.353-.124-.333-.491-.167-.714-.166-.277.321.293.4.467.347.378.564,1.04.43.646.01m-.349,12.788.1.247c.148-.115.054-.234,0-.384l-.1.137m.523-11.16c.018-.236-.217-.046-.261.12a2.261,2.261,0,0,1,.261-.12m-.007.064a.452.452,0,0,0,.007-.06c-.332.295-.143.283-.007.06m.134-.167c-.046.037-.085.07-.12.1.349-.13.332.019.526-.325-.275-.454-.832.272-.406.225m.474-1.665c.076.223.515.2.469-.12a.245.245,0,0,0-.469.12m.1,12.409c.054-.149.148-.269,0-.384-.053.149-.148.269,0,.384m.175.353-.314.222c.2.131.378.29.56,0l-.246-.222m.946-12.631-.1.247.1.137c.054-.149.148-.269,0-.384m.42.192.18.137.1-.137c-.109-.073-.2-.2-.28,0M38.85,58.386c-.249-.534-.193-.038,0,0m-.087-.352c.054.143.1.258.137.35a.094.094,0,0,0,.021,0c.069-.157-.084-.261-.158-.346m.3-16.146-.1.247.1.136c.053-.149.148-.269,0-.383m-.017,16.5c-.071-.046-.111-.015-.124.051.1.233.147.295.162.282.169-.135.054-.244-.038-.334m.21-1.032c-.06.205.137.178.267.286.407-.315-.042-.619-.267-.286m.367-37.724-.1.247.1.137c.053-.149.148-.269,0-.384m.42,37.792c.109.073.2.2.28,0-.109-.073-.2-.2-.28,0m1.269,2.1c.105.12.135.007.15-.175a1.379,1.379,0,0,1,.257-.164c-.322-.646-.768-.306-.407.339m.27.006c-.141-.017-.189.01-.136.2.087.233.329.152.489.215a3.335,3.335,0,0,0-.082-.387,2.351,2.351,0,0,1-.272-.024m.841-39.9-.1.247.1.137c.053-.149.148-.269,0-.384m.14,2.494.18.136.1-.137c-.109-.073-.2-.2-.28,0m1.54-14.772c-.148.115-.054.235,0,.384l.1-.137-.1-.247m.28,11.51-.1.247.1.137c.053-.149.148-.269,0-.384m.094,2.051a.245.245,0,0,0-.469.12c.076.224.515.2.469-.12m-.654,38.235c.148-.115.054-.234,0-.383l-.1.136.1.247m-.28.768.1-.137-.1-.247c-.148.115-.054.234,0,.384m.14-40.67v.171a1.4,1.4,0,0,0,0-.156c.055.219.135.34.157.322.209-.159-.021-.384-.156-.338-.013-.4-.238-.43-.285,0l-.018.014c-.115-.1-.5.072-.518.211.191-.068.329-.114.436-.147-.46.378-.02.383.1.1a.18.18,0,0,0,.007-.131.883.883,0,0,1,.275-.046M43.231,59.14c.054.006.145-.141.168-.24.054-.169-.07-.716-.215-.4-.174.467-.629.117-.839.4a.855.855,0,0,1-.134.5c.332.754.446-.173,1.021-.262m-1.338-.72c.043.156.082.293.119.416a.819.819,0,0,0-.119-.416m-.458,3.035c.2-.02.47.127.523-.253-.278-.312-.828-.057-1.194-.12-.37.536.447.345.671.373m-.689-41.437c.053-.149.148-.269,0-.384l-.1.247.1.137m-.169,42.433c-.03-.24-.442-.339-.521-.172.207.412.363.4.521.172m-.694-.581c.051.141.1.252.144.349.076-.054-.04-.3-.144-.349m.041.347a.176.176,0,0,0,.048.01c-.22-.455-.21-.2-.048-.01m-1-.954c.179.277.518.127.782.21,1.6-.2-.456-.617-.782-.21m-.149,1.343c.193.024.895.057.569-.378-.367-.009-.735-.013-1.1.005-.35.473.316.373.534.373M38.6,61.588a.245.245,0,0,0-.469.12c.076.224.515.2.469-.12m-.793.827c-.235-.314-.333-.131-.685,0,.351.131.45.315.685,0m-4.34.192.1-.137-.1-.247c-.148.115-.053.234,0,.383m-.84-1.96a.429.429,0,0,0,.64-.086c.18-.3.414-.188.62-.274.251-.1.282.613.531.235.465-.576,1.086.177,1.532-.511a34.444,34.444,0,0,1,4.144-.091c.512,0,.512-.007.514-.743.155-.669-.441-1.222-.57-.405,0,.119.15.384-.129.391-.811-.238-.657.54-.958.235-.654-.778-1,.546-1.595.064a.841.841,0,0,0-1.347.024c-.12.126-.16-.437-.388-.217-.106.1-.218.234-.338.258-.223.045-.466.081-.615-.258-.061-.14-.123-.116-.2.042-.156.33-.415.166-.624.242-.161.059-.287.293-.448.351-.1.036-.269-.069-.349-.186a.494.494,0,0,0-.827.036c.284.185.177.745.4.894m.654-17.359c-.43-.806-1.409-.641-2.094-.632.032.14.06.261.085.368a.966.966,0,0,1,.154.014c.223,0,.2.539.5.4.406-.171,1.017.218,1.351-.149m-1.8.477c.335-.209.115-.549-.063-.169.043.154.058.173.063.169m.029,1.961.1-.137-.1-.247c-.148.115-.054.234,0,.384m.28-.768c.053-.149.148-.269,0-.383-.053.149-.148.269,0,.383m.094,15.48a.245.245,0,0,0-.469.12c.076.224.515.2.469-.12m-.514-.708-.212-.192-.348.192c.2.131.378.29.56,0m-1.481,1.723c.545.128.182-.675.564-.668.283.123.8-.128.481-.469-.262-.066-.581.119-.746-.287-.4-.375.143.872-.819.668-.077,0-.151.107-.225.164.193.329.409.719.745.591m-.2-1.527c0-.526-.428-.462-.564-.112-.062.634.577.669.564.112m-2.1-8.829-.1.247.1.137c.053-.149.148-.269,0-.384m1.26-4.412-.18-.137-.1.137c.109.073.2.2.28,0m-.39-1.343c.969-.143-.195-.657-.45-.192.175.159.187.226.45.192m-.871,16.5c.053-.149.148-.269,0-.384l-.1.248.1.136m.041-.823.1-.137c-.109-.073-.2-.2-.28,0l.18.137m.1-1.288-.18-.136-.1.136c.109.073.2.2.28,0m-.98-10.935c-.054.149-.148.269,0,.383.053-.149.148-.269,0-.383m.094,10.994c.046-.317-.394-.344-.469-.12a.245.245,0,0,0,.469.12M18.9,51.864c-.054.149-.148.269,0,.384L19,52l-.1-.137m3.08.384c-.053.149-.148.269,0,.383l.1-.247-.1-.136m-.1,7.81.1.247c.148-.115.053-.234,0-.383l-.1.137m1.36-11.839c.109.073.2.2.28,0-.109-.073-.2-.2-.28,0M24.137,47c-.061.205.137.178.267.286.407-.315-.043-.619-.267-.286m1.12,1.918c-.061.205.137.178.267.286.407-.315-.043-.618-.267-.286m.367-2.042-.1.247.1.137c.053-.149.148-.269,0-.383m.56,2.3c.148-.115.054-.234,0-.383l-.1.137.1.247m-.246,11.815c.073-.124.167-.491.018-.616-.386.186-.748.829-.018.616m-.806-1.072c.143.046.24-.094.352-.192a.515.515,0,0,0-.84,0,.455.455,0,0,0,.488.192m-.908-10.743c.054-.149.148-.269,0-.383-.054.149-.148.269,0,.383m.31-.767c.969-.143-.195-.657-.45-.192.175.159.187.226.45.192m-.73.576-.18-.137-.1.137c.109.073.2.2.28,0m-.28,11.7v.171a1.323,1.323,0,0,0,0-.155c.055.219.135.339.157.322.209-.159-.021-.384-.156-.338-.013-.4-.239-.43-.285,0l-.017.021c-.045-.057-.152-.029-.241.2.062-.04.114-.071.162-.1-.112.167-.082.222-.074.216a.3.3,0,0,0,.171-.268.54.54,0,0,1,.277-.074m-.28.959-.18-.137-.1.137c.109.073.2.2.28,0m-.327,1.092a.245.245,0,0,0-.469.12c.076.224.515.2.469-.12m-.374-1.284c-.053.149-.148.269,0,.384.053-.149.148-.269,0-.384m.374-1.4a.245.245,0,0,0-.469.12c.076.224.515.2.469-.12M22.407,47.43c.074.365.659-.25.837-.362-.111-.1-.207-.238-.349-.192-.292-.069-.581.087-.488.554M22.38,60.848c-.275-.454-.832.272-.406.225-.042.024-.078.047-.113.068.341-.059.307.039.519-.293m-.538.4a.222.222,0,0,0,.015-.106c-.587.373-.151.405-.015.106m.015-.108c-.033-.2-.532,0-.549.155a3.286,3.286,0,0,1,.549-.155m-.993-8.127c.148-.115.053-.234,0-.384l-.1.137.1.247m-.14,8.249c-.109-.073-.2-.2-.28,0,.109.073.2.2.28,0m-.42-8.633c.148-.115.053-.234,0-.383l-.1.137.1.247m.094-.9c.046-.317-.394-.343-.469-.12a.245.245,0,0,0,.469.12m-.934,9.725c.053-.149.148-.269,0-.383l-.1.247.1.136m.14-9.4c-.109-.073-.2-.2-.28,0,.109.073.2.2.28,0m-.326,1.092a.245.245,0,0,0-.469.12c.076.223.515.2.469-.12m-.934-.133c.148-.115.053-.234,0-.384l-.1.137.1.247m-3.921,8.825c.148-.115.054-.234,0-.384l-.1.137.1.247M9.1,51.1c.053-.149.148-.269,0-.384-.053.149-.148.269,0,.384m-.56,12.278c.053-.149.148-.269,0-.384-.054.149-.148.269,0,.384M6.632,62.3c-.15-.083-.13.188-.209.365.23.558.452-.058.209-.365" transform="translate(0 0)" fill="#ffc200"/>
      <path id="Path_1550" data-name="Path 1550" d="M0,0C.05.034.107.078.175.134A.091.091,0,0,1,.084.2,1.733,1.733,0,0,0,0,0" transform="translate(68.969 18.331)" fill="#ffc200"/>
      <path id="Path_1551" data-name="Path 1551" d="M.009,0c0,.019,0,.035,0,.055A.05.05,0,0,1,.009,0" transform="translate(33.037 9.307)" fill="#ffc200"/>
      <path id="Path_1552" data-name="Path 1552" d="M.448.238C.305.213.157.185.008.156A.255.255,0,0,1,.018,0,.619.619,0,0,0,.249.009C.3.065.362.129.422.2A.2.2,0,0,1,.448.238" transform="translate(176.683 74.118)" fill="#ffc200"/>
      <path id="Path_1553" data-name="Path 1553" d="M0,0C.094.047.193.1.3.163c-.024,0-.048,0-.074,0C.161.12.088.064,0,0" transform="translate(33.347 44.056)" fill="#ffc200"/>
      <path id="Path_1554" data-name="Path 1554" d="M0,.016C0,.01,0,.006,0,0H.005S0,.011,0,.016" transform="translate(43.686 19.251)" fill="#ffc200"/>
      <path id="Path_1555" data-name="Path 1555" d="M0,.016C0,.011,0,.007,0,0H.005c0,.005,0,.012,0,.016" transform="translate(23.524 60.688)" fill="#ffc200"/>
      <path id="Path_1556" data-name="Path 1556" d="M.078,0A.1.1,0,0,1,.1.053C.069.067.036.084,0,.1.021.074.046.039.078,0" transform="translate(23.149 60.71)" fill="#ffc200"/>
      <path id="Path_1557" data-name="Path 1557" d="M0,0,.025.006l.031.14L0,0" transform="translate(20.474 23.983)" fill="#ffc200"/>
      <path id="Path_1558" data-name="Path 1558" d="M.126.047C.089.052.047.059,0,.07.026.048.053.024.085,0A.086.086,0,0,1,.126.047" transform="translate(65.7 18.887)" fill="#ffc200"/>
      <path id="Path_1559" data-name="Path 1559" d="M0,0C.025.031.052.067.083.112.078.118.068.12.06.123A.956.956,0,0,1,0,0" transform="translate(68.239 18.747)" fill="#ffc200"/>
      <path id="Path_1560" data-name="Path 1560" d="M.082,0A.083.083,0,0,1,.1.032L0,.063C.024.043.052.022.082,0" transform="translate(43.306 19.266)" fill="#ffc200"/>
      <path id="Path_1561" data-name="Path 1561" d="M0,0C.025.032.053.068.085.115A.063.063,0,0,1,.031.131C.024.093.013.048,0,0" transform="translate(18.392 23.732)" fill="#ffc200"/>
      <path id="Path_1562" data-name="Path 1562" d="M.218.121.18.124,0,0Q.106.055.218.121" transform="translate(182.69 75.175)" fill="#ffc200"/>
      <path id="Path_1563" data-name="Path 1563" d="M0,0C.027.016.053.033.081.048.037.088,0,.068,0,0" transform="translate(38.91 64.094)" fill="#ffc200"/>
      <path id="Path_1564" data-name="Path 1564" d="M1.491.041c.453,0,.453,0,.984.383.071.45.945.872,1.341.777.17,0,.517-.054.6.191-.2.267-2.034.336-2.219-.015C1.916.856,1.066,1.633,1.14.808c.255.016.351.054.471-.225C1.458.4,1.189.36,1.077.631a.4.4,0,0,0-.017.13C.722.557.452.275.09.414.069.422-.006.314,0,.29.27-.265,1.036.172,1.491.041" transform="translate(37.851 63.333)" fill="#ffc200"/>
      <path id="Path_1565" data-name="Path 1565" d="M.19,0C.508.282.444.721.967.352,1.116.23,1.58.4,1.294.668c-.348.344.235.413-.02.8-.089,0-.239.045-.26-.007C.844,1.032.473,1.118.231.847,0,.63-.124.065.19,0" transform="translate(116.763 68.05)" fill="#ffc200"/>
      <path id="Path_1566" data-name="Path 1566" d="M.638.027c.293.091.828-.247.927.259C1.185.6.55.329.089.4-.237-.087.42.033.638.027" transform="translate(79.592 64.882)" fill="#ffc200"/>
      <path id="Path_1567" data-name="Path 1567" d="M1.521.03c.138-.007.2.02.13.191-.2.364-.6.152-.885.2V.392C-1.072.327.9-.118,1.521.03" transform="translate(119.598 68.324)" fill="#ffc200"/>
      <path id="Path_1568" data-name="Path 1568" d="M.469,0A1.327,1.327,0,0,1,1,.093c.1.13.185.569-.075.634C.736.215.352.512.083.34-.2.066.335.026.469,0" transform="translate(190.156 76.784)" fill="#ffc200"/>
      <path id="Path_1569" data-name="Path 1569" d="M.375.011C.728.018.877-.08,1.1.2.876.656-.708.21.375.011" transform="translate(56.304 63.747)" fill="#ffc200"/>
      <path id="Path_1570" data-name="Path 1570" d="M.659.039c.255.22-.1.475-.287.378C-.413.422.222-.151.659.039" transform="translate(47.088 65.26)" fill="#ffc200"/>
      <path id="Path_1571" data-name="Path 1571" d="M.379.009C.643-.025.654.041.83.2.575.666-.59.153.379.009" transform="translate(191.832 77.178)" fill="#ffc200"/>
      <path id="Path_1572" data-name="Path 1572" d="M0,.167.212.007C.325-.032.494.093.528.214.565.677.122.284,0,.167" transform="translate(97.196 0.06)" fill="#ffc200"/>
      <path id="Path_1573" data-name="Path 1573" d="M.471.267A.245.245,0,0,1,0,.147c.076-.224.515-.2.469.12" transform="translate(34.768 63.359)" fill="#ffc200"/>
      <path id="Path_1574" data-name="Path 1574" d="M.536.256A.28.28,0,0,1,.007.2C-.069-.116.5-.027.536.256" transform="translate(55.443 63.731)" fill="#ffc200"/>
      <path id="Path_1575" data-name="Path 1575" d="M.278.431C.149.322-.049.35.011.145.236-.188.685.115.278.431" transform="translate(87.693 65.272)" fill="#ffc200"/>
      <path id="Path_1576" data-name="Path 1576" d="M.536.256A.281.281,0,0,1,.007.2C-.069-.116.5-.027.536.256" transform="translate(107.249 67.568)" fill="#ffc200"/>
      <path id="Path_1577" data-name="Path 1577" d="M.536.256A.281.281,0,0,1,.007.2C-.069-.116.5-.026.536.256" transform="translate(171.655 74.858)" fill="#ffc200"/>
      <path id="Path_1578" data-name="Path 1578" d="M.471.149C.517.467.077.493,0,.269A.245.245,0,0,1,.471.149" transform="translate(199.705 77.938)" fill="#ffc200"/>
      <path id="Path_1579" data-name="Path 1579" d="M.471.149C.517.467.077.493,0,.269A.245.245,0,0,1,.471.149" transform="translate(205.866 78.321)" fill="#ffc200"/>
      <path id="Path_1580" data-name="Path 1580" d="M.1.384,0,.247.1,0C.248.115.153.234.1.384" transform="translate(7.323 26.158)" fill="#ffc200"/>
      <path id="Path_1581" data-name="Path 1581" d="M.224.005V.389C-.081.36-.068-.051.224.005" transform="translate(9.579 41.116)" fill="#ffc200"/>
      <path id="Path_1582" data-name="Path 1582" d="M.133.32H.008c-.076-.441.456-.411.125,0" transform="translate(40.318 63.439)" fill="#ffc200"/>
      <path id="Path_1583" data-name="Path 1583" d="M.28.109C.2.312.109.182,0,.109c.084-.2.171-.073.28,0" transform="translate(32.765 63.457)" fill="#ffc200"/>
      <path id="Path_1584" data-name="Path 1584" d="M.1.384,0,.247.1,0C.248.115.153.235.1.384" transform="translate(63.889 63.758)" fill="#ffc200"/>
      <path id="Path_1585" data-name="Path 1585" d="M.1.384,0,.137.1,0C.153.149.248.269.1.384" transform="translate(73.97 64.525)" fill="#ffc200"/>
      <path id="Path_1586" data-name="Path 1586" d="M.179.137l-.1.247C-.069.269.026.149.079,0l.1.137" transform="translate(83.231 64.909)" fill="#ffc200"/>
      <path id="Path_1587" data-name="Path 1587" d="M.28.137C.2.34.109.21,0,.137L.1,0,.28.137" transform="translate(82.05 64.964)" fill="#ffc200"/>
      <path id="Path_1588" data-name="Path 1588" d="M.179.137.08.384C-.069.269.026.149.08,0l.1.137" transform="translate(74.55 64.909)" fill="#ffc200"/>
      <path id="Path_1589" data-name="Path 1589" d="M.28.109.1.245,0,.109c.109-.073.2-.2.28,0" transform="translate(46.487 65.376)" fill="#ffc200"/>
      <path id="Path_1590" data-name="Path 1590" d="M.28.137c-.109.073-.2.2-.28,0L.18,0l.1.137" transform="translate(87.091 65.732)" fill="#ffc200"/>
      <path id="Path_1591" data-name="Path 1591" d="M.1.384,0,.137.1,0C.153.149.248.269.1.384" transform="translate(89.091 66.06)" fill="#ffc200"/>
      <path id="Path_1592" data-name="Path 1592" d="M.28.109C.2.312.109.182,0,.109c.084-.2.171-.073.28,0" transform="translate(101.372 67.294)" fill="#ffc200"/>
      <path id="Path_1593" data-name="Path 1593" d="M.28.109C.2.312.109.182,0,.109c.084-.2.171-.073.28,0" transform="translate(118.734 68.445)" fill="#ffc200"/>
      <path id="Path_1594" data-name="Path 1594" d="M.254.179C.167.289.091.44,0,.235.047.055.324-.16.254.179" transform="translate(116.517 68.734)" fill="#ffc200"/>
      <path id="Path_1595" data-name="Path 1595" d="M.1.384,0,.137.1,0C.153.149.248.269.1.384" transform="translate(115.974 68.746)" fill="#ffc200"/>
      <path id="Path_1596" data-name="Path 1596" d="M.1.384,0,.247.1,0C.248.115.153.235.1.384" transform="translate(131.656 69.13)" fill="#ffc200"/>
      <path id="Path_1597" data-name="Path 1597" d="M.171.348C.149.366.065.24.01.181-.077-.228.456.157.171.348" transform="translate(150.087 72.189)" fill="#ffc200"/>
      <path id="Path_1598" data-name="Path 1598" d="M.254.179C.167.29.091.44,0,.235.047.055.324-.16.254.179" transform="translate(157.121 72.955)" fill="#ffc200"/>
      <path id="Path_1599" data-name="Path 1599" d="M.1.384,0,.247.1,0C.248.115.153.234.1.384" transform="translate(166.379 74.117)" fill="#ffc200"/>
      <path id="Path_1600" data-name="Path 1600" d="M.28.109C.2.312.109.182,0,.109c.084-.2.171-.073.28,0" transform="translate(165.499 74.201)" fill="#ffc200"/>
      <path id="Path_1601" data-name="Path 1601" d="M.079.384C-.069.269.026.15.079,0c.148.115.053.234,0,.384" transform="translate(180.681 75.268)" fill="#ffc200"/>
      <path id="Path_1602" data-name="Path 1602" d="M.1.384,0,.247.1,0C.248.115.153.234.1.384" transform="translate(180.101 76.035)" fill="#ffc200"/>
      <path id="Path_1603" data-name="Path 1603" d="M.254.179C.167.29.091.44,0,.234.047.055.324-.16.254.179" transform="translate(201.926 77.559)" fill="#ffc200"/>
      <path id="Path_1604" data-name="Path 1604" d="M.28.137C.2.339.109.21,0,.137L.1,0,.28.137" transform="translate(194.342 77.626)" fill="#ffc200"/>
      <path id="Path_1605" data-name="Path 1605" d="M.1.384,0,.137.1,0C.153.149.248.269.1.384" transform="translate(202.503 78.338)" fill="#ffc200"/>
      <path id="Path_1606" data-name="Path 1606" d="M.28.109.18.245,0,.109c.084-.2.171-.073.28,0" transform="translate(199.102 78.421)" fill="#ffc200"/>
      <path id="Path_1607" data-name="Path 1607" d="M.171.348C.149.366.065.24.01.181-.077-.228.455.157.171.348" transform="translate(40.036 59.144)" fill="#ffc200"/>
      <path id="Path_1608" data-name="Path 1608" d="M0,.109c.084-.2.171-.073.28,0L.18.245,0,.109" transform="translate(66.369 6.289)" fill="#ffc200"/>
      <path id="Path_1609" data-name="Path 1609" d="M.254.116C.267.146.175.261.132.337-.167.456.115-.274.254.116" transform="translate(192.654 75.699)" fill="#ffc200"/>
      <path id="Path_1610" data-name="Path 1610" d="M.115.347C.034.229-.075.124.074,0,.206.064.363.444.115.347" transform="translate(16.846 24.654)" fill="#ffc200"/>
      <path id="Path_1611" data-name="Path 1611" d="M.093.726A.725.725,0,0,0,.286.1c.232-.277.3.082.265.389C.64.9.369,1.174.1.984-.035.913-.027.827.093.726" transform="translate(239.237 70.582)" fill="#ffc200"/>
      <path id="Path_1612" data-name="Path 1612" d="M.553.148a.3.3,0,0,1-.4.221C-.266.416.28-.3.553.148" transform="translate(254.94 54.625)" fill="#ffc200"/>
      <path id="Path_1613" data-name="Path 1613" d="M.274.425C.147.318-.049.345.011.142.232-.185.675.113.274.425" transform="translate(255.834 54.217)" fill="#ffc200"/>
      <path id="Path_1614" data-name="Path 1614" d="M.143.714C-.084.816-.019.048.184,0A.533.533,0,0,1,.143.714" transform="translate(239.768 68.266)" fill="#ffc200"/>
      <path id="Path_1615" data-name="Path 1615" d="M.443.326C.254.454.03.41,0,.245.042.018.268.105.4.022c.206-.108.164.214.044.3" transform="translate(239.26 69.715)" fill="#ffc200"/>
      <path id="Path_1616" data-name="Path 1616" d="M.25.176C.165.285.089.433,0,.231.046.054.319-.158.25.176" transform="translate(217.459 78.045)" fill="#ffc200"/>
      <path id="Path_1617" data-name="Path 1617" d="M.078,0l.1.243-.1.135C.024.229-.066.111.078,0" transform="translate(235.984 73.141)" fill="#ffc200"/>
      <path id="Path_1618" data-name="Path 1618" d="M.25.114C.263.144.173.257.13.332-.164.449.113-.27.25.114" transform="translate(238.401 72.81)" fill="#ffc200"/>
      <path id="Path_1619" data-name="Path 1619" d="M.078.378C-.066.267.024.149.078,0c.144.111.055.229,0,.378" transform="translate(238.744 69.361)" fill="#ffc200"/>
      <path id="Path_1620" data-name="Path 1620" d="M0,0C.3.029.288.433,0,.378Z" transform="translate(239.788 69.361)" fill="#ffc200"/>
      <path id="Path_1621" data-name="Path 1621" d="M.221.005V.383C-.08.354-.067-.05.221.005" transform="translate(239.567 68.978)" fill="#ffc200"/>
      <path id="Path_1622" data-name="Path 1622" d="M0,.107c.081-.2.167-.075.276,0C.195.305.109.182,0,.107" transform="translate(238.408 68.309)" fill="#ffc200"/>
      <path id="Path_1623" data-name="Path 1623" d="M.1.378,0,.135.1,0C.152.149.243.267.1.378" transform="translate(239 67.47)" fill="#ffc200"/>
      <path id="Path_1624" data-name="Path 1624" d="M.276.134C.195.332.109.209,0,.134L.1,0,.276.134" transform="translate(258 47.865)" fill="#ffc200"/>
      <path id="Path_1625" data-name="Path 1625" d="M.276.107C.195.3.109.182,0,.107c.081-.2.167-.074.276,0" transform="translate(257.448 47.514)" fill="#ffc200"/>
      <path id="Path_1626" data-name="Path 1626" d="M.169.343C.146.361.064.237.01.179c-.086-.4.439-.024.159.164" transform="translate(257.438 44.398)" fill="#ffc200"/>
      <path id="Path_1627" data-name="Path 1627" d="M.073,0C.2.063.357.438.114.342.034.226-.074.123.073,0" transform="translate(257.214 44.061)" fill="#ffc200"/>
      <path id="Path_1628" data-name="Path 1628" d="M.389.412C.111.425-.174.3.132.037.3.1.872-.171.784.2.733.4.465.373.389.412" transform="translate(221.893 73.115)" fill="#ffc200"/>
      <path id="Path_1629" data-name="Path 1629" d="M0,.266A.241.241,0,0,1,.464.147C.509.46.076.486,0,.266" transform="translate(226.033 74.259)" fill="#ffc200"/>
      <path id="Path_1630" data-name="Path 1630" d="M0,.107c.109-.074.195-.2.276,0L.1.241,0,.107" transform="translate(224.887 74.736)" fill="#ffc200"/>
      <path id="Path_1631" data-name="Path 1631" d="M.078,0c.144.111.055.229,0,.378C-.066.267.024.149.078,0" transform="translate(229.638 74.276)" fill="#ffc200"/>
      <path id="Path_1632" data-name="Path 1632" d="M.552.021V.4H0C.1.01.278-.039.552.021" transform="translate(246.135 56.485)" fill="#ffc200"/>
      <path id="Path_1633" data-name="Path 1633" d="M0,0Q.287-.014.276.379-.01.393,0,0" transform="translate(246.41 55.75)" fill="#ffc200"/>
      <path id="Path_1634" data-name="Path 1634" d="M.443.326C.254.454.03.41,0,.245.042.018.268.105.4.022c.206-.108.164.214.044.3" transform="translate(232.361 73.495)" fill="#ffc200"/>
    </g>
  </g>
</svg>
