<?xml version="1.0" encoding="UTF-8"?> <svg xmlns="http://www.w3.org/2000/svg" xmlns:xlink="http://www.w3.org/1999/xlink" width="455.054" height="147.459" viewBox="0 0 455.054 147.459"><defs><clipPath id="clip-path"><rect id="Rectangle_287" data-name="Rectangle 287" width="455.054" height="147.459" fill="none"></rect></clipPath><clipPath id="clip-path-3"><path id="Path_59" data-name="Path 59" d="M15.8,14.4l.155.9.07.411.192,1.1h0l.069.4.192,1.112.069.4.192,1.112.069.4L17,21.345l.069.4.193,1.114.069.4.193,1.116.069.4.193,1.117.069.4.193,1.118.069.4.194,1.118.069.4.193,1.119.07.4.193,1.121.069.4.182,1.052.071.42.193,1.117.069.4.194,1.125.069.4.194,1.126.07.4.194,1.127.069.4.2,1.128.069.406.2,1.13.07.406.2,1.131h0l.069.407.2,1.132.069.407.2,1.133.07.408.085.495,33.582-4.57-.089-.488-.074-.4-.2-1.116-.074-.4-.2-1.114-.074-.4-.2-1.114-.074-.4L54,37.03l-.074-.4-.2-1.11-.073-.4-.2-1.111-.073-.4-.2-1.109-.073-.4L52.891,31l-.072-.4-.2-1.1-.075-.412-.192-1.037-.073-.4-.2-1.105-.073-.4-.2-1.1-.073-.4-.2-1.1-.072-.4-.2-1.1-.073-.4-.2-1.1-.072-.394-.2-1.1-.073-.4-.2-1.1-.071-.393-.2-1.1-.073-.394-.2-1.1L49.8,14.2,49.6,13.1l-.072-.393-.2-1.087-.074-.406-.163-.884Z" transform="translate(-15.802 -10.335)" fill="none"></path></clipPath><clipPath id="clip-path-4"><rect id="Rectangle_253" data-name="Rectangle 253" width="40.09" height="36.397" fill="none"></rect></clipPath><clipPath id="clip-path-6"><path id="Path_151" data-name="Path 151" d="M30.032,86.295l33.731,4.1,5.623-33.33L36.058,53.458Z" transform="translate(-30.032 -53.458)" fill="none"></path></clipPath><clipPath id="clip-path-7"><rect id="Rectangle_256" data-name="Rectangle 256" width="34.489" height="4.597" fill="none"></rect></clipPath><clipPath id="clip-path-32"><path id="Path_180" data-name="Path 180" d="M23.649,113.679l4.339,33.9,32.539-6.093-3.908-33.433Z" transform="translate(-23.649 -108.051)" fill="none"></path></clipPath><clipPath id="clip-path-33"><rect id="Rectangle_281" data-name="Rectangle 281" width="39.584" height="37.657" fill="none"></rect></clipPath></defs><g id="Group_424" data-name="Group 424" clip-path="url(#clip-path)"><g id="Group_333" data-name="Group 333"><g id="Group_332" data-name="Group 332" clip-path="url(#clip-path)"><path id="Path_14" data-name="Path 14" d="M108.578,49.013a7.206,7.206,0,0,0,2.685-2.217,13.54,13.54,0,0,0,1.312-2.466L129.123,3.99h.811l17.61,39.777q.313.625.625,1.312t.718,1.4a6.768,6.768,0,0,0,1,1.343,7.2,7.2,0,0,0,1.53,1.186v.438H134.43v-.438a8.244,8.244,0,0,0,1.655-.874,3.689,3.689,0,0,0,1.124-1.217,3.625,3.625,0,0,0,.438-1.687,4.751,4.751,0,0,0-.531-2.154l-3.31-7.806h-16.3l-2.873,7.056a5.9,5.9,0,0,0-.406,2.217,4.283,4.283,0,0,0,.469,1.873,5.609,5.609,0,0,0,1.124,1.5,7.622,7.622,0,0,0,1.436,1.092v.438h-8.68Zm24.728-14.862L125.5,15.792l-7.493,18.359Z" transform="translate(-6.613 -0.243)" fill="#002e54"></path><path id="Path_15" data-name="Path 15" d="M153.595,20.538l11.428-3.684h.312l.125,5.37a14.069,14.069,0,0,1,4.745-4.278,13.128,13.128,0,0,1,6.558-1.655,11.227,11.227,0,0,1,4.153.686,10.054,10.054,0,0,1,2.841,1.656,8.5,8.5,0,0,1,1.749,2,10.366,10.366,0,0,1,.874,1.717,14.667,14.667,0,0,1,4.746-4.34,12.625,12.625,0,0,1,6.495-1.718,9.039,9.039,0,0,1,5.026,1.249,9.153,9.153,0,0,1,3,3.184,12.745,12.745,0,0,1,1.467,4.341,30.869,30.869,0,0,1,.376,4.777V44.829a9.319,9.319,0,0,0,.5,3.029,3.047,3.047,0,0,0,1.686,1.967V50.2H196.058v-.373a3.043,3.043,0,0,0,1.687-1.905,9.18,9.18,0,0,0,.5-3.091V27.969q0-4.37-1.592-6.276a4.846,4.846,0,0,0-3.841-1.9,6.639,6.639,0,0,0-3.5.905,11.953,11.953,0,0,0-2.685,2.217V44.829a9.319,9.319,0,0,0,.5,3.029,3.051,3.051,0,0,0,1.687,1.967V50.2H175.2v-.373a3.044,3.044,0,0,0,1.686-1.905,9.18,9.18,0,0,0,.5-3.091V27.969q0-4.37-1.593-6.276a4.9,4.9,0,0,0-3.9-1.9,7.512,7.512,0,0,0-3.465.78,9.111,9.111,0,0,0-2.654,2.029V44.829a9.319,9.319,0,0,0,.5,3.029,3.047,3.047,0,0,0,1.686,1.967V50.2H154.344v-.373a3.039,3.039,0,0,0,1.686-1.905,9.18,9.18,0,0,0,.5-3.091V26.782a6.851,6.851,0,0,0-.749-3.465,9.462,9.462,0,0,0-2.185-2.466Z" transform="translate(-9.354 -0.992)" fill="#002e54"></path><path id="Path_16" data-name="Path 16" d="M232.785,16.291a18.162,18.162,0,0,1,6.651,1.093,11.9,11.9,0,0,1,7.214,7.43,16.664,16.664,0,0,1,.873,5.465v.811H226.1a22.507,22.507,0,0,0,.718,5.776,14.971,14.971,0,0,0,2.123,4.746,10.5,10.5,0,0,0,3.5,3.215,9.51,9.51,0,0,0,4.778,1.187,15.116,15.116,0,0,0,4.807-.812,10.352,10.352,0,0,0,4.622-3.5l.187.312a29.427,29.427,0,0,1-2.061,3.31,12.36,12.36,0,0,1-6.464,4.62,16.836,16.836,0,0,1-5.088.686,19.189,19.189,0,0,1-6.869-1.186,14.724,14.724,0,0,1-5.34-3.434,15.94,15.94,0,0,1-3.465-5.4,19.078,19.078,0,0,1-1.249-7.087,18.918,18.918,0,0,1,1.186-6.714,16.685,16.685,0,0,1,3.341-5.495,15.477,15.477,0,0,1,5.183-3.685,16.553,16.553,0,0,1,6.774-1.342M239.218,30.4v-.062q0-6.807-1.467-10.023a4.907,4.907,0,0,0-4.714-3.216,5.419,5.419,0,0,0-5.152,3.5q-1.657,3.5-1.781,9.742Z" transform="translate(-13.173 -0.992)" fill="#002e54"></path><path id="Path_17" data-name="Path 17" d="M273.365,16.291a8.971,8.971,0,0,1,2.873.5,6.821,6.821,0,0,1,1.935,1.124L275.8,24.16h-.126a10.969,10.969,0,0,0-3.465-2.654,8.624,8.624,0,0,0-3.467-.718,4.771,4.771,0,0,0-1.685.281,5.588,5.588,0,0,0-1.312.686,4.74,4.74,0,0,0-.937.875c-.249.312-.459.572-.624.78V44.829a9.267,9.267,0,0,0,.5,3.029,3.046,3.046,0,0,0,1.686,1.966V50.2H252.758v-.375a3.043,3.043,0,0,0,1.686-1.9,9.182,9.182,0,0,0,.5-3.091V26.658a6.6,6.6,0,0,0-.749-3.31,9.264,9.264,0,0,0-2.186-2.5v-.312l11.49-3.684h.375v5.994a16.025,16.025,0,0,1,4.215-4.683,8.746,8.746,0,0,1,5.278-1.873" transform="translate(-15.348 -0.992)" fill="#002e54"></path><path id="Path_18" data-name="Path 18" d="M281.28,49.207v-.375a3.051,3.051,0,0,0,1.686-1.966,9.351,9.351,0,0,0,.5-3.029V25.478a6.489,6.489,0,0,0-.78-3.4,10.1,10.1,0,0,0-2.216-2.467V19.3q.937-.311,2.434-.749t3.185-.968l3.372-1.061q1.686-.53,2.935-.906h.25V43.837a8.828,8.828,0,0,0,.531,3.029,3.141,3.141,0,0,0,1.718,1.966v.375Zm6.682-38.217a5.354,5.354,0,0,1-3.934-1.624A5.353,5.353,0,0,1,282.4,5.433a5.182,5.182,0,0,1,1.625-3.841A5.41,5.41,0,0,1,287.962,0a5.05,5.05,0,0,1,2.092.437,5.668,5.668,0,0,1,1.685,1.155A5.556,5.556,0,0,1,292.9,3.309a5.264,5.264,0,0,1,.438,2.123,5.482,5.482,0,0,1-.438,2.154,5.853,5.853,0,0,1-1.156,1.78,5.368,5.368,0,0,1-1.685,1.187,5.035,5.035,0,0,1-2.092.437" transform="translate(-17.081 0)" fill="#002e54"></path><path id="Path_19" data-name="Path 19" d="M299.153,33.526a18.482,18.482,0,0,1,1.218-6.713,15.663,15.663,0,0,1,3.559-5.5,16.7,16.7,0,0,1,5.714-3.684,20.631,20.631,0,0,1,7.681-1.343,16.589,16.589,0,0,1,10.428,3.747L325.13,26.72h-.25q-.186-.5-.717-2.06a19.972,19.972,0,0,0-1.468-3.247,12.121,12.121,0,0,0-2.342-3,4.727,4.727,0,0,0-3.34-1.311,5.781,5.781,0,0,0-3.5,1.092,8.827,8.827,0,0,0-2.529,3,15.649,15.649,0,0,0-1.53,4.4,26.937,26.937,0,0,0-.5,5.308,24.231,24.231,0,0,0,.718,6.088,14.92,14.92,0,0,0,2.092,4.777,9.527,9.527,0,0,0,8.242,4.247,13.539,13.539,0,0,0,4.4-.78,9.013,9.013,0,0,0,4.153-3.216l.251.313A15.565,15.565,0,0,1,327,45.391a12.069,12.069,0,0,1-2.779,2.654,14.724,14.724,0,0,1-3.809,1.874,15.5,15.5,0,0,1-4.9.718,17.337,17.337,0,0,1-6.432-1.186,14.653,14.653,0,0,1-5.183-3.435,16.591,16.591,0,0,1-3.466-5.4,18.687,18.687,0,0,1-1.28-7.087" transform="translate(-18.219 -0.992)" fill="#002e54"></path><path id="Path_20" data-name="Path 20" d="M342.1,33.9l8.742-3.184V28.342a15.4,15.4,0,0,0-.313-3.091,7.375,7.375,0,0,0-1.123-2.717,5.811,5.811,0,0,0-2.249-1.9,8.241,8.241,0,0,0-3.683-.718,8.978,8.978,0,0,0-3.684.749,9.682,9.682,0,0,0-2.936,2A9.047,9.047,0,0,0,334.92,25.5a8.031,8.031,0,0,0-.688,3.215h-.375a12.042,12.042,0,0,1,.905-4.589,12.453,12.453,0,0,1,2.592-3.965,12.775,12.775,0,0,1,4.091-2.811,13.243,13.243,0,0,1,5.4-1.061,15.272,15.272,0,0,1,5.9,1.03,10.589,10.589,0,0,1,4.059,2.9,11.927,11.927,0,0,1,2.341,4.433,19.716,19.716,0,0,1,.749,5.558V42.893q0,2.623.78,3.528a2.363,2.363,0,0,0,1.842.905,3.294,3.294,0,0,0,1.53-.406,3.9,3.9,0,0,0,1.467-1.655h.064l.187.25a10.447,10.447,0,0,1-3.029,3.872,7.3,7.3,0,0,1-4.4,1.248A8.055,8.055,0,0,1,354,49.325a7.218,7.218,0,0,1-2.967-4.372l-.063-.125a17.2,17.2,0,0,1-5,4.247,12.762,12.762,0,0,1-6.308,1.561,8.612,8.612,0,0,1-5.745-1.842,6.154,6.154,0,0,1-2.185-4.965,7.664,7.664,0,0,1,2.341-5.433q2.343-2.434,8.025-4.5m-2.436,8.119a6.609,6.609,0,0,0,1.124,3.747,3.97,3.97,0,0,0,3.559,1.686,7.436,7.436,0,0,0,3.685-.905,11.681,11.681,0,0,0,2.81-2.154V31.215l-4,1.812a18.8,18.8,0,0,0-3.527,2.091,10.681,10.681,0,0,0-2.217,2.248,7.326,7.326,0,0,0-1.124,2.342,9,9,0,0,0-.313,2.31" transform="translate(-20.203 -0.992)" fill="#002e54"></path><path id="Path_21" data-name="Path 21" d="M400.543,44.828a9.318,9.318,0,0,0,.5,3.029,3.052,3.052,0,0,0,1.686,1.967V50.2H389.115v-.375a3.044,3.044,0,0,0,1.687-1.9,9.189,9.189,0,0,0,.5-3.092V27.968q0-4.37-1.593-6.276a4.908,4.908,0,0,0-3.9-1.9,7.522,7.522,0,0,0-3.467.781,9.086,9.086,0,0,0-2.653,2.029v22.23a9.322,9.322,0,0,0,.5,3.029,3.051,3.051,0,0,0,1.687,1.967V50.2H368.258v-.375a3.04,3.04,0,0,0,1.686-1.9,9.189,9.189,0,0,0,.5-3.092V26.782a6.843,6.843,0,0,0-.749-3.466,9.5,9.5,0,0,0-2.185-2.466v-.313L379,16.853h.374v5.371a14.043,14.043,0,0,1,4.746-4.278,13.12,13.12,0,0,1,6.557-1.656,9.044,9.044,0,0,1,5.027,1.249,9.153,9.153,0,0,1,3,3.185,12.785,12.785,0,0,1,1.469,4.34,31.115,31.115,0,0,1,.374,4.777Z" transform="translate(-22.382 -0.992)" fill="#002e54"></path><path id="Path_22" data-name="Path 22" d="M133.5,84.748q6.745.813,10.678,4.028t3.872,9.024q0,6.683-4.965,9.866t-13.644,3.184H111.7v-.437a3.77,3.77,0,0,0,1.874-1.812,7.25,7.25,0,0,0,.686-3.371V71.01a7.257,7.257,0,0,0-.686-3.372,3.768,3.768,0,0,0-1.874-1.811V65.39h20.421q6.868,0,10.334,2.5a8.441,8.441,0,0,1,3.466,7.306,7.9,7.9,0,0,1-3.092,6.432q-3.091,2.5-9.336,3.122m-9.8-18.546V84.248h5.246a6.584,6.584,0,0,0,5.246-2.154q1.872-2.155,1.873-6.838a12.825,12.825,0,0,0-.718-4.715,6.671,6.671,0,0,0-1.9-2.747,6.21,6.21,0,0,0-2.748-1.281,16.9,16.9,0,0,0-3.308-.312Zm0,43.837h4.558a11.652,11.652,0,0,0,3.716-.593,7.558,7.558,0,0,0,3.153-2.06,10.728,10.728,0,0,0,2.216-4,20.533,20.533,0,0,0,.843-6.4,16.834,16.834,0,0,0-.749-5.308A10.4,10.4,0,0,0,135.4,88a8.3,8.3,0,0,0-2.966-2.154,8.858,8.858,0,0,0-3.5-.718h-5.246Z" transform="translate(-6.803 -3.982)" fill="#002e54"></path><path id="Path_23" data-name="Path 23" d="M163.363,95.3l8.742-3.184V89.742a15.409,15.409,0,0,0-.313-3.091,7.39,7.39,0,0,0-1.123-2.717,5.811,5.811,0,0,0-2.249-1.9,8.244,8.244,0,0,0-3.683-.718,8.983,8.983,0,0,0-3.685.749,9.689,9.689,0,0,0-2.935,2,9.067,9.067,0,0,0-1.936,2.842,8.046,8.046,0,0,0-.686,3.215h-.375a12.025,12.025,0,0,1,.905-4.589,12.453,12.453,0,0,1,2.592-3.965,12.763,12.763,0,0,1,4.091-2.811,13.242,13.242,0,0,1,5.4-1.061,15.263,15.263,0,0,1,5.9,1.03,10.573,10.573,0,0,1,4.059,2.9,11.914,11.914,0,0,1,2.342,4.433,19.717,19.717,0,0,1,.749,5.558v12.677q0,2.623.78,3.528a2.362,2.362,0,0,0,1.843.905,3.294,3.294,0,0,0,1.53-.406,3.9,3.9,0,0,0,1.467-1.655h.063l.188.25a10.457,10.457,0,0,1-3.03,3.872,7.3,7.3,0,0,1-4.4,1.248,8.059,8.059,0,0,1-4.341-1.311,7.22,7.22,0,0,1-2.966-4.371l-.063-.125a17.2,17.2,0,0,1-5,4.247,12.756,12.756,0,0,1-6.307,1.561,8.612,8.612,0,0,1-5.744-1.842A6.152,6.152,0,0,1,153,105.229a7.664,7.664,0,0,1,2.341-5.433q2.341-2.434,8.025-4.5m-2.436,8.118a6.609,6.609,0,0,0,1.124,3.747,3.969,3.969,0,0,0,3.559,1.686,7.436,7.436,0,0,0,3.685-.905,11.68,11.68,0,0,0,2.81-2.154V92.615l-4,1.812a18.8,18.8,0,0,0-3.527,2.091,10.708,10.708,0,0,0-2.218,2.248,7.323,7.323,0,0,0-1.123,2.342,9,9,0,0,0-.313,2.31" transform="translate(-9.318 -4.732)" fill="#002e54"></path><path id="Path_24" data-name="Path 24" d="M188.172,65.616l2.5-.78q1.5-.469,3.185-.968t3.309-1.03q1.624-.531,2.873-.906h.25V82.976a13.862,13.862,0,0,1,4.433-4.5,11.5,11.5,0,0,1,6.245-1.686,12.2,12.2,0,0,1,5.09,1.061,10.677,10.677,0,0,1,4.027,3.215,16.222,16.222,0,0,1,2.654,5.371,26.22,26.22,0,0,1,.968,7.525,19.552,19.552,0,0,1-1.218,7.087,15.578,15.578,0,0,1-3.434,5.4,14.919,14.919,0,0,1-5.246,3.434,17.908,17.908,0,0,1-6.588,1.186,15.063,15.063,0,0,1-5.277-.936,16.471,16.471,0,0,1-5.214-3.371l-5.309,3.871h-.312V71.86a6.7,6.7,0,0,0-.749-3.4,9.479,9.479,0,0,0-2.185-2.466Zm12.176,18.047v22.98a6.83,6.83,0,0,0,2.623,2.654,6.621,6.621,0,0,0,3.185.843,5.956,5.956,0,0,0,3-.78,6.442,6.442,0,0,0,2.373-2.591,16.246,16.246,0,0,0,1.561-4.715,37.926,37.926,0,0,0,.563-7.087q0-7.181-1.843-10.928t-5.026-3.747a7.434,7.434,0,0,0-3.685.906,8.419,8.419,0,0,0-2.748,2.466" transform="translate(-11.46 -3.772)" fill="#002e54"></path><path id="Path_25" data-name="Path 25" d="M225.676,79.33v-.375h15.612v.375a4.584,4.584,0,0,0-2.342,2q-.718,1.311.407,3.871l7.618,17.236,6.682-17.173a3.92,3.92,0,0,0-.219-3.434,5.818,5.818,0,0,0-2.842-2.56v-.313h9.181v.313a6.787,6.787,0,0,0-3.03,2.279,13.248,13.248,0,0,0-1.779,2.966l-11.616,29.349-1,2.686a17.783,17.783,0,0,1-4.371,6.9,8.072,8.072,0,0,1-5.434,2.278,7.2,7.2,0,0,1-2.654-.531,7.474,7.474,0,0,1-2.529-1.716l1.749-4.684h.312a8.245,8.245,0,0,0,2.623,2.03,6.939,6.939,0,0,0,3.122.78,6.62,6.62,0,0,0,3.435-1.125,7.729,7.729,0,0,0,2.685-3.433l1.061-2.373-12.489-29.6a25.48,25.48,0,0,0-1.687-3.372,6.872,6.872,0,0,0-2.5-2.373" transform="translate(-13.744 -4.809)" fill="#002e54"></path><path id="Path_26" data-name="Path 26" d="M329.678,88.033a24.787,24.787,0,0,1,1.624-9.055,22.331,22.331,0,0,1,4.558-7.306,21.044,21.044,0,0,1,7.024-4.9,22.386,22.386,0,0,1,9.024-1.78,22.1,22.1,0,0,1,7.713,1.374,21.622,21.622,0,0,1,6.463,3.684l-3.5,7.369h-.438q-.437-1.124-1.28-3.029a22.334,22.334,0,0,0-2.154-3.778,14.456,14.456,0,0,0-3.122-3.247,6.832,6.832,0,0,0-4.248-1.374,8.119,8.119,0,0,0-4.682,1.4,11.563,11.563,0,0,0-3.5,3.934,21.171,21.171,0,0,0-2.185,6,35.982,35.982,0,0,0-.749,7.587,29.945,29.945,0,0,0,1.031,8.025,21.627,21.627,0,0,0,2.9,6.463,13.894,13.894,0,0,0,4.589,4.309,11.989,11.989,0,0,0,6.089,1.562,14.824,14.824,0,0,0,2.591-.25,12.351,12.351,0,0,0,2.873-.905,14.793,14.793,0,0,0,2.9-1.749,14.42,14.42,0,0,0,2.685-2.717l.312.375a28.3,28.3,0,0,1-2.5,4.278,17.021,17.021,0,0,1-3.434,3.591,15.933,15.933,0,0,1-4.59,2.466,17.833,17.833,0,0,1-5.9.905,18.327,18.327,0,0,1-7.649-1.655,19.641,19.641,0,0,1-6.432-4.683,22.416,22.416,0,0,1-4.4-7.306,26.8,26.8,0,0,1-1.624-9.585" transform="translate(-20.078 -3.958)" fill="#002e54"></path><path id="Path_27" data-name="Path 27" d="M403.341,105.27a8.824,8.824,0,0,0,.53,3.029,3.149,3.149,0,0,0,1.719,1.967v.375H391.975v-.375a3.037,3.037,0,0,0,1.685-1.9,9.164,9.164,0,0,0,.5-3.091V88.409q0-4.37-1.624-6.276a4.938,4.938,0,0,0-3.872-1.9,7.71,7.71,0,0,0-3.5.781,8.964,8.964,0,0,0-2.685,2.029v22.23a8.848,8.848,0,0,0,.531,3.029,3.145,3.145,0,0,0,1.718,1.967v.375H371.117v-.375a3.042,3.042,0,0,0,1.687-1.9,9.169,9.169,0,0,0,.5-3.091V71.861a6.5,6.5,0,0,0-.781-3.4,10.07,10.07,0,0,0-2.217-2.467v-.375q1-.311,2.436-.78t3.029-.967q1.592-.5,3.185-1.031t2.842-.905h.686V82.227a13.835,13.835,0,0,1,4.683-3.965,13.2,13.2,0,0,1,6.307-1.531,9.206,9.206,0,0,1,5.059,1.249,8.8,8.8,0,0,1,3,3.185,13.187,13.187,0,0,1,1.437,4.34,31.1,31.1,0,0,1,.375,4.777Z" transform="translate(-22.552 -3.772)" fill="#002e54"></path><path id="Path_28" data-name="Path 28" d="M411.347,110.607v-.375a3.051,3.051,0,0,0,1.686-1.966,9.349,9.349,0,0,0,.5-3.029V86.878a6.49,6.49,0,0,0-.78-3.4,10.1,10.1,0,0,0-2.216-2.467V80.7q.937-.311,2.434-.749t3.185-.968l3.372-1.061q1.686-.53,2.935-.906h.25v28.226a8.83,8.83,0,0,0,.531,3.029,3.142,3.142,0,0,0,1.718,1.966v.375Zm6.682-38.217a5.545,5.545,0,0,1-5.559-5.558,5.181,5.181,0,0,1,1.625-3.841,5.41,5.41,0,0,1,3.934-1.592,5.05,5.05,0,0,1,2.092.437,5.67,5.67,0,0,1,1.685,1.155,5.556,5.556,0,0,1,1.156,1.718,5.262,5.262,0,0,1,.438,2.123,5.481,5.481,0,0,1-.438,2.154,5.854,5.854,0,0,1-1.156,1.78,5.371,5.371,0,0,1-1.685,1.187,5.035,5.035,0,0,1-2.092.437" transform="translate(-25.002 -3.739)" fill="#002e54"></path><path id="Path_29" data-name="Path 29" d="M429.3,110.639v-.375a3.054,3.054,0,0,0,1.687-1.967,9.344,9.344,0,0,0,.5-3.029V71.86a6.491,6.491,0,0,0-.781-3.4,10.062,10.062,0,0,0-2.216-2.466v-.375l2.5-.78q1.5-.469,3.185-.968t3.309-1.03q1.623-.531,2.874-.906h.312v43.338a8.83,8.83,0,0,0,.531,3.029,3.142,3.142,0,0,0,1.717,1.967v.375Z" transform="translate(-26.096 -3.772)" fill="#002e54"></path><path id="Path_30" data-name="Path 30" d="M479.715,61.932V105.27a9.3,9.3,0,0,0,.5,3.029,3.041,3.041,0,0,0,1.686,1.966v.375H470.973l-.438-5.807a13.464,13.464,0,0,1-4.4,4.527,11.6,11.6,0,0,1-6.338,1.718,12.788,12.788,0,0,1-4.9-.936,10.356,10.356,0,0,1-3.965-2.9,14.237,14.237,0,0,1-2.654-4.964,23.213,23.213,0,0,1-.968-7.118,21.245,21.245,0,0,1,1.249-7.432,19.241,19.241,0,0,1,3.309-5.807,14.834,14.834,0,0,1,4.777-3.778,12.976,12.976,0,0,1,10.179-.562,9.766,9.766,0,0,1,3.654,2.4V71.86a6.71,6.71,0,0,0-.75-3.4,9.5,9.5,0,0,0-2.184-2.466v-.375q.872-.311,2.372-.749T473.1,63.9l3.371-1.061q1.688-.531,2.935-.905ZM464.043,107.58a7.286,7.286,0,0,0,3.652-.937,8.655,8.655,0,0,0,2.78-2.5V80.853a6.541,6.541,0,0,0-2.343-1.406,8.39,8.39,0,0,0-2.779-.468,6.663,6.663,0,0,0-6.119,3.871q-2.124,3.874-2.123,11.3,0,6.87,1.873,10.147t5.06,3.278" transform="translate(-27.242 -3.772)" fill="#002e54"></path><path id="Path_31" data-name="Path 31" d="M288.212,78.62l14.73,18.512q.961-1.583,1.961-3.313t1.8-3.385a27.781,27.781,0,0,0,1.321-3.206,9,9,0,0,0,.52-2.845q0-3.891-6.164-4.61h17.292a13.76,13.76,0,0,0-3.162.576,8.512,8.512,0,0,0-2.6,1.441,10.6,10.6,0,0,0-1.762,1.909q-.882,1.189-1.8,2.629t-1.761,3.026q-.841,1.585-1.642,3.1Q305.9,94.468,303.662,98q1.121,1.3,2.642,2.917t3.2,3.205q1.682,1.586,3.4,2.918a17.843,17.843,0,0,0,3.243,2.053,6.993,6.993,0,0,0,5.4.72,6.5,6.5,0,0,0,3.723-3.817q-1.362,4.826-5.043,6.338t-8.726-.071a18.938,18.938,0,0,1-6.324-3.314,46.245,46.245,0,0,1-5.364-5.042,44.181,44.181,0,0,1-4.083,4.682,15.672,15.672,0,0,1-5.123,3.169,20.4,20.4,0,0,1-7.845,1.368,18.967,18.967,0,0,1-7.686-1.693,15.042,15.042,0,0,1-5.845-4.718,12.363,12.363,0,0,1-2.32-7.634,15.384,15.384,0,0,1,1.921-7.671,20.238,20.238,0,0,1,5.523-6.159,30.115,30.115,0,0,1,3-2.016q1.48-.865,3.562-2.162a54.5,54.5,0,0,1-3.282-4.465,25.058,25.058,0,0,1-2.442-4.646,13.409,13.409,0,0,1-.961-4.718,9.579,9.579,0,0,1,1.24-4.754,10.418,10.418,0,0,1,4.763-4.647,16.372,16.372,0,0,1,7-1.4,15.4,15.4,0,0,1,7.206,1.513,10.409,10.409,0,0,1,4.243,3.782,8.34,8.34,0,0,1,1.2,4.9,8.84,8.84,0,0,1-1.841,4.862,10.794,10.794,0,0,1-2.122,2.2,29.91,29.91,0,0,1-2.561,1.8q-1.321.828-2.643,1.621t-2.521,1.512m-6.325,3.53a13.763,13.763,0,0,0-5.044,4.5,16.044,16.044,0,0,0-2.441,5.942,18.039,18.039,0,0,0-.08,6.339,15.269,15.269,0,0,0,2.161,5.762,12.969,12.969,0,0,0,4.324,4.214,11.909,11.909,0,0,0,6.284,1.621,12.459,12.459,0,0,0,3.963-.577,11.012,11.012,0,0,0,3.081-1.584,17.363,17.363,0,0,0,2.563-2.341,31.658,31.658,0,0,0,2.321-2.917Zm5.524-4.394a26.96,26.96,0,0,0,2.922-2.448,12.6,12.6,0,0,0,2.041-2.81,14.749,14.749,0,0,0,1.441-4.9,11.593,11.593,0,0,0-.4-4.934,8.008,8.008,0,0,0-2.522-3.782,8.423,8.423,0,0,0-8.606-.612,6.11,6.11,0,0,0-3.121,5.474,8.712,8.712,0,0,0,.8,3.566,18.515,18.515,0,0,0,1.361,2.448q.881,1.369,1.921,2.773t2.161,2.774q1.121,1.368,2,2.448" transform="translate(-16.256 -3.437)" fill="#38a6e0"></path><path id="Path_32" data-name="Path 32" d="M9.013,9.173l7.654,44.858L61.256,47.86,53.082,3.892Zm39.82,1.6.075.406.2,1.087.072.393.2,1.094.072.393.2,1.1.072.393.2,1.1.072.393.2,1.1.073.394.2,1.1.072.394.2,1.1.072.4.2,1.1.073.4.2,1.1.072.4.2,1.1.072.4.2,1.1.073.4.191,1.037.075.412.2,1.1.073.4.2,1.107.073.4.2,1.109.073.4.2,1.111.073.4.2,1.112.073.4.2,1.112.074.4.2,1.113.073.4.206,1.114.073.4.206,1.116.073.4.09.487L21.205,47.7,21.12,47.2l-.07-.408-.2-1.133-.07-.408-.2-1.132-.069-.406-.2-1.131-.07-.406-.194-1.13-.069-.406-.2-1.128-.069-.4-.194-1.127-.069-.4-.194-1.126-.07-.4L19,34.926l-.069-.4-.193-1.117-.072-.419-.182-1.053-.069-.4-.193-1.121-.069-.4-.193-1.12-.069-.4L17.7,27.367l-.069-.4-.193-1.118-.069-.4-.193-1.117-.069-.4h0l-.193-1.116-.069-.4L16.651,21.3l-.069-.4-.193-1.114-.069-.4-.192-1.113-.069-.4-.192-1.111-.069-.4h0l-.191-1.1-.07-.412-.155-.9L48.67,9.886Z" transform="translate(-0.549 -0.237)" fill="#38a6e0"></path><path id="Path_33" data-name="Path 33" d="M16.561,56.883l-9.27,9.985,40.794-5.79L61.151,50.711Z" transform="translate(-0.444 -3.088)" fill="#338ab8"></path><path id="Path_34" data-name="Path 34" d="M16.117,54.374,8.464,9.516,0,23.348l6.847,41.01Z" transform="translate(0 -0.58)" fill="#3796c9"></path><path id="Path_35" data-name="Path 35" d="M15.8,14.338l5.821,33.747L55.2,43.515l-6.117-33.24Z" transform="translate(-0.962 -0.626)" fill="#fff"></path></g></g><g id="Group_338" data-name="Group 338" transform="translate(14.84 9.706)"><g id="Group_337" data-name="Group 337" clip-path="url(#clip-path-3)"><g id="Group_336" data-name="Group 336" transform="translate(0 0.488)" opacity="0.11"><g id="Group_335" data-name="Group 335"><g id="Group_334" data-name="Group 334" clip-path="url(#clip-path-4)"><path id="Path_36" data-name="Path 36" d="M51.6,10.855,15.821,15.5l-.019.453,35.782-4.639.008-.285Z" transform="translate(-15.802 -10.855)" fill="#8fd8f9"></path><path id="Path_37" data-name="Path 37" d="M51.8,12.37,16.029,17.014l-.019.453,35.782-4.639.008-.285Z" transform="translate(-15.815 -10.947)" fill="#8fd8f9"></path><path id="Path_38" data-name="Path 38" d="M52.011,13.885,16.236,18.529l-.019.453L52,14.343l.008-.285Z" transform="translate(-15.828 -11.04)" fill="#8fd8f9"></path><path id="Path_39" data-name="Path 39" d="M52.219,15.4,16.444,20.044l-.019.453,35.782-4.639.008-.285Z" transform="translate(-15.84 -11.132)" fill="#8fd8f9"></path><path id="Path_40" data-name="Path 40" d="M52.427,16.915,16.652,21.559l-.019.453,35.782-4.639.008-.285Z" transform="translate(-15.853 -11.224)" fill="#8fd8f9"></path><path id="Path_41" data-name="Path 41" d="M52.635,18.43,16.86,23.074l-.019.453,35.782-4.639.008-.285Z" transform="translate(-15.866 -11.316)" fill="#8fd8f9"></path><path id="Path_42" data-name="Path 42" d="M52.843,19.945,17.068,24.589l-.019.453L52.831,20.4l.008-.285Z" transform="translate(-15.878 -11.409)" fill="#8fd8f9"></path><path id="Path_43" data-name="Path 43" d="M53.051,21.46,17.276,26.1l-.019.453,35.782-4.639.008-.285Z" transform="translate(-15.891 -11.501)" fill="#8fd8f9"></path><path id="Path_44" data-name="Path 44" d="M53.259,22.975,17.484,27.619l-.019.453,35.782-4.639.008-.285Z" transform="translate(-15.903 -11.593)" fill="#8fd8f9"></path><path id="Path_45" data-name="Path 45" d="M53.467,24.49,17.692,29.134l-.019.453,35.782-4.639.008-.285Z" transform="translate(-15.916 -11.685)" fill="#8fd8f9"></path><path id="Path_46" data-name="Path 46" d="M53.675,26.005,17.9,30.649l-.019.453,35.782-4.639.008-.285Z" transform="translate(-15.929 -11.778)" fill="#8fd8f9"></path><path id="Path_47" data-name="Path 47" d="M53.883,27.52,18.108,32.164l-.019.453,35.782-4.639.008-.285Z" transform="translate(-15.941 -11.87)" fill="#8fd8f9"></path><path id="Path_48" data-name="Path 48" d="M54.091,29.035,18.316,33.679l-.019.453,35.782-4.639.008-.285Z" transform="translate(-15.954 -11.962)" fill="#8fd8f9"></path><path id="Path_49" data-name="Path 49" d="M54.3,30.55,18.524,35.194l-.019.453,35.782-4.639.008-.285Z" transform="translate(-15.967 -12.054)" fill="#8fd8f9"></path><path id="Path_50" data-name="Path 50" d="M54.507,32.065,18.732,36.709l-.019.453,35.782-4.639.008-.285Z" transform="translate(-15.979 -12.147)" fill="#8fd8f9"></path><path id="Path_51" data-name="Path 51" d="M54.715,33.58,18.94,38.224l-.019.453L54.7,34.038l.008-.285Z" transform="translate(-15.992 -12.239)" fill="#8fd8f9"></path><path id="Path_52" data-name="Path 52" d="M54.923,35.1,19.148,39.739l-.019.453,35.782-4.639.008-.285Z" transform="translate(-16.005 -12.331)" fill="#8fd8f9"></path><path id="Path_53" data-name="Path 53" d="M55.131,36.61,19.356,41.254l-.019.453,35.782-4.639.008-.285Z" transform="translate(-16.017 -12.424)" fill="#8fd8f9"></path><path id="Path_54" data-name="Path 54" d="M55.339,38.125,19.564,42.769l-.019.453,35.782-4.639.007-.285Z" transform="translate(-16.03 -12.516)" fill="#8fd8f9"></path><path id="Path_55" data-name="Path 55" d="M55.547,39.64,19.772,44.284l-.019.453L55.535,40.1l.008-.285Z" transform="translate(-16.043 -12.608)" fill="#8fd8f9"></path><path id="Path_56" data-name="Path 56" d="M55.755,41.155,19.98,45.8l-.019.453,35.782-4.639.008-.285Z" transform="translate(-16.055 -12.7)" fill="#8fd8f9"></path><path id="Path_57" data-name="Path 57" d="M55.963,42.67,20.188,47.314l-.019.453L55.95,43.128l.007-.285Z" transform="translate(-16.068 -12.793)" fill="#8fd8f9"></path><path id="Path_58" data-name="Path 58" d="M56.171,44.185,20.4,48.829l-.019.453,35.782-4.639.007-.285Z" transform="translate(-16.081 -12.885)" fill="#8fd8f9"></path></g></g></g></g></g><g id="Group_340" data-name="Group 340"><g id="Group_339" data-name="Group 339" clip-path="url(#clip-path)"><path id="Path_60" data-name="Path 60" d="M26.183,17.714l.04.2.113.558.113.559.08.4.224,1.117.011.056.069.342.225,1.115.08.4.175.871.022.108,2.192-.271-.01.045-.023.1-.1.42L29.118,24.9l-.1.42-.277,1.174-.1.419-.276,1.174-.071.3-.028.117-.066.28-.21.893-.1.419-.232.983-.044.19-.02.08-.079.338-.259,1.1-.1.435-.274,1.163-.1.421-.276,1.171-.1.419-.276,1.171-.013.056-.085.362L26,38.12l-.021.089-2.522.331.182.895.081.394.113.552.112.553.081.394.224,1.1.08.394.225,1.1.08.394.069.338.035.169,11.764-1.582-.1-.5-.078-.392-.219-1.1-.078-.392-.22-1.1-.078-.393-.219-1.1-.079-.393-.177-.889-2.132.28.006-.041.027-.18.019-.128.042-.284.172-1.153.061-.412.145-.97,6.122-.794.933-.121.452.888.192.378.536,1.056.191.378.1.2-2.157.283.176.887.077.393.217,1.1.078.391.217,1.1.077.392.216,1.094.078.391.1.5,11.518-1.55-.1-.5-.075-.389-.211-1.088-.075-.39-.211-1.089-.076-.39-.211-1.091-.075-.39-.172-.883-2.193.288-.117-.2-.22-.372-.614-1.041L48.3,33.4l-.143-.243-.251-.424-.365-.62-.222-.375L46.7,30.7l-.229-.388-.579-.981-.221-.374-.305-.517-.314-.532-.221-.375-.62-1.05-.18-.3-.041-.071-.144-.243-.477-.808-.2-.332-.025-.044-.311-.527-.312-.527-.222-.376-.352-.6-.27-.458-.112-.189-.111-.188-.27-.459-.353-.6-.224-.378-.208-.352-.417-.706-.224-.378-.464-.787-.162-.273-.059-.1-.164-.278-.372-.631-.254-.43-.224-.379-.085-.145-.161-.27-11.766,1.42.088.437Zm10.663,8.72L37,26.7l.054.1c.035.059.069.119.1.179l.054.093.054.094.054.095c.019.032.038.064.055.1l.148.255.151.261.156.267.159.271.034.057.034.057.034.058c.011.019.023.039.035.057l-3.919.5.008-.063c0-.022.007-.043.009-.064l.008-.063c0-.021.007-.042.009-.063.014-.1.028-.2.042-.3s.027-.2.04-.292.027-.192.04-.285.025-.188.039-.28l.014-.1c0-.031.008-.063.013-.094v-.009c0-.016,0-.032.007-.048s0-.037.008-.055l0-.027c0-.024.007-.05.01-.074.008-.058.015-.115.023-.172,0-.032.008-.066.013-.1l0-.031,0-.026c.012-.09.024-.179.036-.267.008-.066.017-.131.026-.2l.011-.088c.012-.093.024-.186.037-.276,0-.036.008-.07.013-.105s.008-.069.013-.1.009-.069.013-.1.008-.068.013-.1c.009-.077.019-.152.028-.227,0-.025.008-.053.01-.079.012-.1.024-.2.037-.294s.023-.191.034-.283.022-.183.032-.271c0-.035.008-.069.012-.1h0v0l0-.019c0-.028.007-.055.009-.084l.011-.1.011-.1c.012-.11.023-.216.035-.318s.021-.2.031-.3.018-.188.026-.277.016-.175.023-.256l0-.03v0l0-.032,0-.032,0-.031.014.029c0,.01.009.02.013.03l.014.03.014.03c.037.078.076.159.116.242s.083.17.128.259.09.181.139.276.1.192.15.292c.016.031.032.062.049.093l.049.094.051.1.052.1.066.123.069.129.142.261c.048.088.1.178.147.27l.155.28c.017.031.034.062.052.093s.035.063.053.095l.053.095.054.1c.047.084.095.169.144.254l.147.261" transform="translate(-1.429 -0.954)" fill="#38a6e0"></path><path id="Path_61" data-name="Path 61" d="M71.779,58.231h0l.037-.216Z" transform="translate(-4.371 -3.533)" fill="#e7dfcc"></path><path id="Path_62" data-name="Path 62" d="M71.777,58.245l-.025.153Z" transform="translate(-4.37 -3.547)" fill="#c6bea3"></path><path id="Path_63" data-name="Path 63" d="M71.511,59.822h0l.03-.177Z" transform="translate(-4.355 -3.632)" fill="#e7dfcc"></path><path id="Path_64" data-name="Path 64" d="M76.3,67.39h0l-.173,1.04Z" transform="translate(-4.636 -4.104)" fill="#e7dfcc"></path><path id="Path_65" data-name="Path 65" d="M76.124,68.5h0l-.063.377Z" transform="translate(-4.632 -4.172)" fill="#c6bea3"></path><path id="Path_66" data-name="Path 66" d="M71.493,59.932l.017-.1Z" transform="translate(-4.354 -3.644)" fill="#c6bea3"></path><path id="Path_67" data-name="Path 67" d="M76.051,68.9h0l-.175,1.049Z" transform="translate(-4.621 -4.196)" fill="#e7dfcc"></path><path id="Path_68" data-name="Path 68" d="M71.244,61.4l.042-.252Z" transform="translate(-4.339 -3.724)" fill="#e7dfcc"></path><path id="Path_69" data-name="Path 69" d="M75.872,70.015h0l-.063.377Z" transform="translate(-4.617 -4.264)" fill="#c6bea3"></path><path id="Path_70" data-name="Path 70" d="M71.173,61.811h0l.067-.393Z" transform="translate(-4.335 -3.74)" fill="#c6bea3"></path><path id="Path_71" data-name="Path 71" d="M71.091,62.292l.077-.455Z" transform="translate(-4.33 -3.766)" fill="#e7dfcc"></path><path id="Path_72" data-name="Path 72" d="M75.8,70.416h0l-.175,1.05Z" transform="translate(-4.606 -4.288)" fill="#e7dfcc"></path><path id="Path_73" data-name="Path 73" d="M75.62,71.534h0l-.063.378Z" transform="translate(-4.602 -4.357)" fill="#c6bea3"></path><path id="Path_74" data-name="Path 74" d="M75.546,71.936h0l-.175,1.051Z" transform="translate(-4.59 -4.381)" fill="#e7dfcc"></path><path id="Path_75" data-name="Path 75" d="M75.367,73.056h0l-.063.378Z" transform="translate(-4.586 -4.449)" fill="#c6bea3"></path><path id="Path_76" data-name="Path 76" d="M75.292,73.458h0l-.176,1.054Z" transform="translate(-4.575 -4.474)" fill="#e7dfcc"></path><path id="Path_77" data-name="Path 77" d="M75.113,74.58h0l-.063.377Z" transform="translate(-4.571 -4.542)" fill="#c6bea3"></path><path id="Path_78" data-name="Path 78" d="M75.039,74.982h0l-.176,1.056Z" transform="translate(-4.559 -4.567)" fill="#e7dfcc"></path><path id="Path_79" data-name="Path 79" d="M74.86,76.106h0l-.063.378Z" transform="translate(-4.555 -4.635)" fill="#c6bea3"></path><path id="Path_80" data-name="Path 80" d="M74.786,76.507h0l-.176,1.056Z" transform="translate(-4.544 -4.659)" fill="#e7dfcc"></path><path id="Path_81" data-name="Path 81" d="M74.606,77.633h0l-.063.377Z" transform="translate(-4.54 -4.728)" fill="#c6bea3"></path><path id="Path_82" data-name="Path 82" d="M74.532,78.035h0l-.176,1.058Z" transform="translate(-4.528 -4.752)" fill="#e7dfcc"></path><path id="Path_83" data-name="Path 83" d="M74.352,79.162h0l-.063.378Z" transform="translate(-4.524 -4.821)" fill="#c6bea3"></path><path id="Path_84" data-name="Path 84" d="M74.277,79.564h0L74.1,80.624Z" transform="translate(-4.513 -4.846)" fill="#e7dfcc"></path><path id="Path_85" data-name="Path 85" d="M74.1,80.693h0l-.063.378Z" transform="translate(-4.509 -4.914)" fill="#c6bea3"></path><path id="Path_86" data-name="Path 86" d="M74.023,81.1h0l-.177,1.061Z" transform="translate(-4.497 -4.939)" fill="#e7dfcc"></path><path id="Path_87" data-name="Path 87" d="M73.843,82.225h0l-.063.378Z" transform="translate(-4.493 -5.008)" fill="#c6bea3"></path><path id="Path_88" data-name="Path 88" d="M73.768,82.629h0l-.177,1.062Z" transform="translate(-4.482 -5.032)" fill="#e7dfcc"></path><path id="Path_89" data-name="Path 89" d="M73.587,83.76h0l-.063.379Z" transform="translate(-4.478 -5.101)" fill="#c6bea3"></path><path id="Path_90" data-name="Path 90" d="M73.514,84.164h0l-.166,1Z" transform="translate(-4.467 -5.126)" fill="#e7dfcc"></path><path id="Path_91" data-name="Path 91" d="M73.344,85.226h0l-.066.394Z" transform="translate(-4.463 -5.19)" fill="#c6bea3"></path><path id="Path_92" data-name="Path 92" d="M73.267,85.646h0L73.091,86.7Z" transform="translate(-4.451 -5.216)" fill="#e7dfcc"></path><path id="Path_93" data-name="Path 93" d="M73.087,86.771h0l-.064.382Z" transform="translate(-4.447 -5.285)" fill="#c6bea3"></path><path id="Path_94" data-name="Path 94" d="M73.012,87.178h0l-.177,1.064Z" transform="translate(-4.436 -5.309)" fill="#e7dfcc"></path><path id="Path_95" data-name="Path 95" d="M72.831,88.311h0l-.064.382Z" transform="translate(-4.432 -5.378)" fill="#c6bea3"></path><path id="Path_96" data-name="Path 96" d="M72.756,88.719h0l-.177,1.066Z" transform="translate(-4.42 -5.403)" fill="#e7dfcc"></path><path id="Path_97" data-name="Path 97" d="M72.575,89.854h0l-.064.383Z" transform="translate(-4.416 -5.472)" fill="#c6bea3"></path><path id="Path_98" data-name="Path 98" d="M72.5,90.261h0l-.177,1.067Z" transform="translate(-4.405 -5.497)" fill="#e7dfcc"></path><path id="Path_99" data-name="Path 99" d="M67.46,83.84l.016-.093h0Z" transform="translate(-4.108 -5.1)" fill="#c6bea3"></path><path id="Path_100" data-name="Path 100" d="M72.318,91.4h0l-.064.383Z" transform="translate(-4.4 -5.566)" fill="#c6bea3"></path><path id="Path_101" data-name="Path 101" d="M67.2,85.331h0l.083-.487Z" transform="translate(-4.093 -5.167)" fill="#e7dfcc"></path><path id="Path_102" data-name="Path 102" d="M72.243,91.806h0l-.178,1.07Z" transform="translate(-4.389 -5.591)" fill="#e7dfcc"></path><path id="Path_103" data-name="Path 103" d="M72.061,92.945h0L72,93.328Z" transform="translate(-4.385 -5.661)" fill="#c6bea3"></path><path id="Path_104" data-name="Path 104" d="M67.179,85.5l.023-.138Z" transform="translate(-4.091 -5.199)" fill="#c6bea3"></path><path id="Path_105" data-name="Path 105" d="M71.986,93.353h0l-.177,1.07Z" transform="translate(-4.373 -5.685)" fill="#e7dfcc"></path><path id="Path_106" data-name="Path 106" d="M66.932,86.954h0L67,86.575Z" transform="translate(-4.076 -5.273)" fill="#e7dfcc"></path><path id="Path_107" data-name="Path 107" d="M71.8,94.492h0l-.064.384Z" transform="translate(-4.369 -5.755)" fill="#c6bea3"></path><path id="Path_108" data-name="Path 108" d="M66.86,87.38h0l.068-.4Z" transform="translate(-4.072 -5.297)" fill="#c6bea3"></path><path id="Path_109" data-name="Path 109" d="M71.728,94.9h0l-.178,1.072Z" transform="translate(-4.358 -5.78)" fill="#e7dfcc"></path><path id="Path_110" data-name="Path 110" d="M66.775,87.874l.079-.468Z" transform="translate(-4.067 -5.323)" fill="#e7dfcc"></path><path id="Path_111" data-name="Path 111" d="M71.546,96.042h0l-.064.385Z" transform="translate(-4.353 -5.849)" fill="#c6bea3"></path><path id="Path_112" data-name="Path 112" d="M71.292,97.6Z" transform="translate(-4.342 -5.944)" fill="#898579"></path><path id="Path_113" data-name="Path 113" d="M66.385,90.221" transform="translate(-4.043 -5.495)" fill="#898579"></path><path id="Path_114" data-name="Path 114" d="M71.47,96.452h0l-.178,1.074Z" transform="translate(-4.342 -5.874)" fill="#e7dfcc"></path><path id="Path_115" data-name="Path 115" d="M71.288,97.6h0l-.064.384Z" transform="translate(-4.338 -5.944)" fill="#c6bea3"></path><path id="Path_116" data-name="Path 116" d="M66.381,90.221l-.068.4Z" transform="translate(-4.039 -5.495)" fill="#c6bea3"></path><path id="Path_117" data-name="Path 117" d="M71.212,98h0l-.178,1.075Z" transform="translate(-4.326 -5.969)" fill="#e7dfcc"></path><rect id="Rectangle_254" data-name="Rectangle 254" height="1.14" transform="translate(62.179 85.12)" fill="#e7dfcc"></rect><path id="Path_118" data-name="Path 118" d="M66.107,91.845l-.065.381Z" transform="translate(-4.022 -5.594)" fill="#c6bea3"></path><path id="Path_119" data-name="Path 119" d="M70.98,99.408l.043-.258-.043.258-.116-.014Z" transform="translate(-4.316 -6.038)" fill="#c6bea3"></path><path id="Path_120" data-name="Path 120" d="M70.865,99.409" transform="translate(-4.316 -6.054)" fill="#777162"></path><path id="Path_121" data-name="Path 121" d="M70.837,99.406h0l-.434-.054Z" transform="translate(-4.288 -6.051)" fill="#e7dfcc"></path><path id="Path_122" data-name="Path 122" d="M70.308,99.34h0l-1.468-.182Z" transform="translate(-4.192 -6.039)" fill="#898479"></path><path id="Path_123" data-name="Path 123" d="M23.264,90.694h0l42.8,5.3,1.468.181.434.054.116.015.043-.259.178-1.075.064-.384.178-1.073.064-.385L68.788,92l.064-.384.177-1.07.064-.382.177-1.071.064-.383.177-1.067.064-.383.177-1.066.064-.382.177-1.065.064-.382.176-1.056.066-.394.165-1,.064-.379.177-1.062.063-.378.176-1.061L71,78.657l.177-1.059.063-.378.176-1.058.063-.378.176-1.056.063-.378.176-1.056.062-.377.176-1.055.063-.378.175-1.052.063-.377.175-1.05.062-.378.175-1.049.062-.376.173-1.04.066-.391.14-.847,2.159-12.986L31.337,47.256ZM35.646,53.08l33.328,3.611-.113.669-.037.216-.026.152-.042.255-.153.907-.03.177-.017.1-.05.295-.142.843-.042.252-.067.393-.077.455-.108.64L68,62.438h0l-.154.913-.031.184-.015.092-.052.3-.185,1.1-.067.393-.186,1.1-.056.332-.01.062-.158.935-.028.168-.067.393h0l-.186,1.1-.067.394-.187,1.106-.067.4L66.3,72.527l-.038.226-.029.17-.053.314-.134.8-.067.4-.177,1.041-.069.411-.145.859-.041.245-.021.124-.046.275-.133.789L65.3,78.5l-.01.064-.057.336-.188,1.113-.068.4-.141.838-.047.277h0l-.016.093-.052.307-.106.63-.083.487h0l-.023.137-.045.262-.124.739-.064.378-.068.4-.079.467-.11.652-.069.4L63.759,87.6h0l-.068.4-.19,1.123-.065.382,0,.02-.084.49-33.731-4.1.089-.483.072-.4.2-1.106.072-.4.2-1.105.073-.4.2-1.1.073-.4.2-1.1.072-.393.2-1.1.072-.394.2-1.1.073-.394.2-1.1.072-.394.2-1.1.072-.393.2-1.087.074-.406.189-1.026.071-.391.2-1.092.071-.39.2-1.092.071-.389.2-1.09.071-.389.383-2.089.087-.475.071-.385v-.006l.2-1.083.071-.388Z" transform="translate(-1.417 -2.878)" fill="#e971a9"></path><path id="Path_124" data-name="Path 124" d="M68.081,99.064l-.116-.014L67.532,99l-1.468-.182-42.8-5.3,12.4,13.01,41.017,5.269Z" transform="translate(-1.417 -5.695)" fill="#d2669a"></path><path id="Path_125" data-name="Path 125" d="M76.053,66.078l-.065.391-.173,1.04-.063.376-.174,1.049-.063.377-.175,1.051-.063.377L75.1,71.788l-.063.377-.175,1.055L74.8,73.6l-.176,1.056-.062.378-.177,1.057-.062.378-.177,1.058-.063.378-.176,1.059-.063.378L73.672,80.4l-.063.378-.177,1.062-.063.379-.166,1-.065.394-.176,1.056-.064.382-.177,1.065-.063.382-.177,1.066-.064.383-.177,1.067-.064.383L72,90.467l-.063.382-.178,1.07-.064.384-.177,1.071-.064.385-.179,1.074-.063.383-.179,1.075-.043.259,8.6,12.726,6.569-40.639-7.8-16.394L76.194,65.231Z" transform="translate(-4.323 -3.182)" fill="#d5739e"></path><path id="Path_126" data-name="Path 126" d="M36.058,53.458l33.328,3.611L63.763,90.4l-33.731-4.1Z" transform="translate(-1.829 -3.256)" fill="#fff"></path></g></g><g id="Group_414" data-name="Group 414" transform="translate(28.203 50.202)"><g id="Group_413" data-name="Group 413" clip-path="url(#clip-path-6)"><g id="Group_343" data-name="Group 343" transform="translate(5.561 0.812)" opacity="0.17"><g id="Group_342" data-name="Group 342"><g id="Group_341" data-name="Group 341" clip-path="url(#clip-path-7)"><path id="Path_127" data-name="Path 127" d="M70.442,58.505,36.1,54.322l-.15.408L70.3,58.92l.092-.259Z" transform="translate(-35.953 -54.323)" fill="#ef9bbe"></path></g></g></g><g id="Group_346" data-name="Group 346" transform="translate(5.321 2.157)" opacity="0.17"><g id="Group_345" data-name="Group 345"><g id="Group_344" data-name="Group 344" clip-path="url(#clip-path-7)"><path id="Path_128" data-name="Path 128" d="M70.187,59.937,35.848,55.755l-.15.409L70.04,60.352l.092-.259Z" transform="translate(-35.698 -55.755)" fill="#ef9bbe"></path></g></g></g><g id="Group_349" data-name="Group 349" transform="translate(5.081 3.502)" opacity="0.17"><g id="Group_348" data-name="Group 348"><g id="Group_347" data-name="Group 347" clip-path="url(#clip-path-7)"><path id="Path_129" data-name="Path 129" d="M69.932,61.369,35.592,57.187l-.15.409,34.343,4.189.092-.259Z" transform="translate(-35.442 -57.187)" fill="#ef9bbe"></path></g></g></g><g id="Group_352" data-name="Group 352" transform="translate(4.841 4.847)" opacity="0.17"><g id="Group_351" data-name="Group 351"><g id="Group_350" data-name="Group 350" clip-path="url(#clip-path-7)"><path id="Path_130" data-name="Path 130" d="M69.676,62.8,35.337,58.619l-.15.409L69.53,63.217l.092-.259Z" transform="translate(-35.187 -58.619)" fill="#ef9bbe"></path></g></g></g><g id="Group_355" data-name="Group 355" transform="translate(4.601 6.192)" opacity="0.17"><g id="Group_354" data-name="Group 354"><g id="Group_353" data-name="Group 353" clip-path="url(#clip-path-7)"><path id="Path_131" data-name="Path 131" d="M69.421,64.234,35.082,60.051l-.15.409,34.343,4.189.092-.259Z" transform="translate(-34.931 -60.051)" fill="#ef9bbe"></path></g></g></g><g id="Group_358" data-name="Group 358" transform="translate(4.361 7.537)" opacity="0.17"><g id="Group_357" data-name="Group 357"><g id="Group_356" data-name="Group 356" clip-path="url(#clip-path-7)"><path id="Path_132" data-name="Path 132" d="M69.165,65.666,34.826,61.483l-.15.409,34.343,4.189.092-.259Z" transform="translate(-34.676 -61.483)" fill="#ef9bbe"></path></g></g></g><g id="Group_361" data-name="Group 361" transform="translate(4.121 8.881)" opacity="0.17"><g id="Group_360" data-name="Group 360"><g id="Group_359" data-name="Group 359" clip-path="url(#clip-path-7)"><path id="Path_133" data-name="Path 133" d="M68.91,67.1,34.571,62.915l-.15.409,34.343,4.189.092-.259Z" transform="translate(-34.421 -62.915)" fill="#ef9bbe"></path></g></g></g><g id="Group_364" data-name="Group 364" transform="translate(3.882 10.226)" opacity="0.17"><g id="Group_363" data-name="Group 363"><g id="Group_362" data-name="Group 362" clip-path="url(#clip-path-7)"><path id="Path_134" data-name="Path 134" d="M68.654,68.53,34.315,64.347l-.15.409,34.343,4.189.092-.259Z" transform="translate(-34.165 -64.348)" fill="#ef9bbe"></path></g></g></g><g id="Group_367" data-name="Group 367" transform="translate(3.642 11.571)" opacity="0.17"><g id="Group_366" data-name="Group 366"><g id="Group_365" data-name="Group 365" clip-path="url(#clip-path-7)"><path id="Path_135" data-name="Path 135" d="M68.4,69.962,34.06,65.779l-.15.409,34.343,4.189.092-.259Z" transform="translate(-33.91 -65.78)" fill="#ef9bbe"></path></g></g></g><g id="Group_370" data-name="Group 370" transform="translate(3.402 12.916)" opacity="0.17"><g id="Group_369" data-name="Group 369"><g id="Group_368" data-name="Group 368" clip-path="url(#clip-path-7)"><path id="Path_136" data-name="Path 136" d="M68.144,71.394,33.8,67.212l-.15.409L68,71.809l.092-.259Z" transform="translate(-33.654 -67.212)" fill="#ef9bbe"></path></g></g></g><g id="Group_373" data-name="Group 373" transform="translate(3.162 14.261)" opacity="0.17"><g id="Group_372" data-name="Group 372"><g id="Group_371" data-name="Group 371" clip-path="url(#clip-path-7)"><path id="Path_137" data-name="Path 137" d="M67.888,72.826,33.549,68.644l-.15.409,34.343,4.189.092-.259Z" transform="translate(-33.399 -68.644)" fill="#ef9bbe"></path></g></g></g><g id="Group_376" data-name="Group 376" transform="translate(2.922 15.606)" opacity="0.17"><g id="Group_375" data-name="Group 375"><g id="Group_374" data-name="Group 374" clip-path="url(#clip-path-7)"><path id="Path_138" data-name="Path 138" d="M67.633,74.258,33.294,70.076l-.15.408,34.343,4.189.092-.259Z" transform="translate(-33.144 -70.076)" fill="#ef9bbe"></path></g></g></g><g id="Group_379" data-name="Group 379" transform="translate(2.682 16.951)" opacity="0.17"><g id="Group_378" data-name="Group 378"><g id="Group_377" data-name="Group 377" clip-path="url(#clip-path-7)"><path id="Path_139" data-name="Path 139" d="M67.377,75.691,33.038,71.508l-.15.409,34.343,4.189.092-.259Z" transform="translate(-32.888 -71.508)" fill="#ef9bbe"></path></g></g></g><g id="Group_382" data-name="Group 382" transform="translate(2.442 18.296)" opacity="0.17"><g id="Group_381" data-name="Group 381"><g id="Group_380" data-name="Group 380" clip-path="url(#clip-path-7)"><path id="Path_140" data-name="Path 140" d="M67.122,77.123,32.783,72.94l-.15.408,34.343,4.189.092-.259Z" transform="translate(-32.633 -72.94)" fill="#ef9bbe"></path></g></g></g><g id="Group_385" data-name="Group 385" transform="translate(2.203 19.641)" opacity="0.17"><g id="Group_384" data-name="Group 384"><g id="Group_383" data-name="Group 383" clip-path="url(#clip-path-7)"><path id="Path_141" data-name="Path 141" d="M66.867,78.555,32.527,74.372l-.15.409L66.72,78.97l.092-.259Z" transform="translate(-32.377 -74.372)" fill="#ef9bbe"></path></g></g></g><g id="Group_388" data-name="Group 388" transform="translate(1.963 20.986)" opacity="0.17"><g id="Group_387" data-name="Group 387"><g id="Group_386" data-name="Group 386" clip-path="url(#clip-path-7)"><path id="Path_142" data-name="Path 142" d="M66.611,79.987,32.272,75.8l-.15.408L66.465,80.4l.092-.259Z" transform="translate(-32.122 -75.805)" fill="#ef9bbe"></path></g></g></g><g id="Group_391" data-name="Group 391" transform="translate(1.723 22.331)" opacity="0.17"><g id="Group_390" data-name="Group 390"><g id="Group_389" data-name="Group 389" clip-path="url(#clip-path-7)"><path id="Path_143" data-name="Path 143" d="M66.356,81.419,32.017,77.236l-.15.409,34.343,4.189.092-.259Z" transform="translate(-31.866 -77.237)" fill="#ef9bbe"></path></g></g></g><g id="Group_394" data-name="Group 394" transform="translate(1.483 23.675)" opacity="0.17"><g id="Group_393" data-name="Group 393"><g id="Group_392" data-name="Group 392" clip-path="url(#clip-path-7)"><path id="Path_144" data-name="Path 144" d="M66.1,82.851,31.761,78.669l-.15.408,34.343,4.189.092-.259Z" transform="translate(-31.611 -78.669)" fill="#ef9bbe"></path></g></g></g><g id="Group_397" data-name="Group 397" transform="translate(1.243 25.02)" opacity="0.17"><g id="Group_396" data-name="Group 396"><g id="Group_395" data-name="Group 395" clip-path="url(#clip-path-7)"><path id="Path_145" data-name="Path 145" d="M65.845,84.283,31.506,80.1l-.15.409L65.7,84.7l.092-.259Z" transform="translate(-31.356 -80.101)" fill="#ef9bbe"></path></g></g></g><g id="Group_400" data-name="Group 400" transform="translate(1.003 26.365)" opacity="0.17"><g id="Group_399" data-name="Group 399"><g id="Group_398" data-name="Group 398" clip-path="url(#clip-path-7)"><path id="Path_146" data-name="Path 146" d="M65.589,85.715,31.25,81.533l-.15.409,34.343,4.189.092-.259Z" transform="translate(-31.1 -81.533)" fill="#ef9bbe"></path></g></g></g><g id="Group_403" data-name="Group 403" transform="translate(0.763 27.71)" opacity="0.17"><g id="Group_402" data-name="Group 402"><g id="Group_401" data-name="Group 401" clip-path="url(#clip-path-7)"><path id="Path_147" data-name="Path 147" d="M65.334,87.148,30.995,82.965l-.15.409,34.343,4.189.092-.259Z" transform="translate(-30.845 -82.965)" fill="#ef9bbe"></path></g></g></g><g id="Group_406" data-name="Group 406" transform="translate(0.523 29.055)" opacity="0.17"><g id="Group_405" data-name="Group 405"><g id="Group_404" data-name="Group 404" clip-path="url(#clip-path-7)"><path id="Path_148" data-name="Path 148" d="M65.079,88.58,30.74,84.4l-.15.408,34.343,4.189.092-.259Z" transform="translate(-30.589 -84.397)" fill="#ef9bbe"></path></g></g></g><g id="Group_409" data-name="Group 409" transform="translate(0.284 30.4)" opacity="0.17"><g id="Group_408" data-name="Group 408"><g id="Group_407" data-name="Group 407" clip-path="url(#clip-path-7)"><path id="Path_149" data-name="Path 149" d="M64.823,90.012,30.484,85.829l-.15.408,34.343,4.189.092-.259Z" transform="translate(-30.334 -85.829)" fill="#ef9bbe"></path></g></g></g><g id="Group_412" data-name="Group 412" transform="translate(0.044 31.745)" opacity="0.17"><g id="Group_411" data-name="Group 411"><g id="Group_410" data-name="Group 410" clip-path="url(#clip-path-7)"><path id="Path_150" data-name="Path 150" d="M64.568,91.444,30.229,87.261l-.15.409,34.343,4.189.092-.259Z" transform="translate(-30.079 -87.262)" fill="#ef9bbe"></path></g></g></g></g></g><g id="Group_416" data-name="Group 416"><g id="Group_415" data-name="Group 415" clip-path="url(#clip-path)"><path id="Path_152" data-name="Path 152" d="M59.146,60.411a4.474,4.474,0,0,0-.618-.338,4.864,4.864,0,0,0-.676-.246,5.6,5.6,0,0,0-.733-.152l-16.1-2.232-.159.793-.075.375-.21,1.048-.075.375-.21,1.05-.075.375-.21,1.051-.075.376-.1.5,2.661.362-.11.552-.075.376L42.1,65.723l-.075.377-.21,1.052-.074.377-.21,1.054-.075.377-.21,1.055-.075.378-.21,1.056-.075.378-.2.991-.078.393-.209,1.05-.076.379L40.111,75.7l-.075.378-.211,1.06-.046.232-2.357-.3-.3-.039-.029.146-.213,1.063-.076.379-.213,1.064-.076.379L36.3,81.12l-.076.38-.214,1.066-.076.381-.02.1,16.8,2.122q.149.018.3.031c.1.008.2.014.294.018s.2.006.292.006.193,0,.289-.008q.173-.008.344-.025c.115-.012.228-.027.342-.045s.225-.038.337-.063.224-.052.334-.082.2-.063.3-.1c.044-.014.087-.026.131-.041l.049-.015c.025-.009.051-.022.077-.031.106-.04.212-.083.317-.129.026-.011.053-.02.078-.032l.044-.022c.141-.065.282-.133.421-.208h0c.153-.083.305-.173.455-.269l.12-.078.118-.08.118-.083.117-.085.039-.03.04-.029c.013-.01.025-.021.039-.03l.039-.03h0q.124-.1.242-.2t.234-.2c.075-.069.149-.138.223-.209s.143-.142.212-.215l.068-.072.012-.013c.026-.028.053-.056.078-.085l.077-.087.075-.087c.067-.079.131-.158.193-.239.014-.017.026-.035.039-.052.048-.064.1-.127.143-.192.058-.083.116-.166.17-.251s.109-.17.161-.257c.018-.029.035-.058.052-.088l.051-.089c.017-.03.034-.06.05-.09l.026-.05c.007-.014.015-.027.022-.041.043-.082.084-.164.123-.248s.078-.167.115-.253.071-.171.105-.258.066-.175.1-.263l.031-.091,0-.014c.009-.026.018-.052.026-.078h0l.006-.018.023-.074,0-.008c.008-.028.017-.055.024-.084v0c.018-.059.034-.119.051-.179l0-.01a.189.189,0,0,0,.007-.024c.015-.055.029-.111.042-.167s.031-.13.045-.194.027-.131.039-.2c0-.023.008-.046.013-.069s.008-.046.012-.069v0l0-.021c0-.015.006-.029.008-.044h0v-.008c0-.019.007-.038.009-.056v0l.014-.093c0-.032.008-.064.013-.095s.008-.063.012-.094.008-.063.01-.095c.01-.091.019-.181.025-.271s.012-.18.016-.27.006-.177.006-.266,0-.177,0-.264c0-.033,0-.065,0-.1l-.006-.1c0-.032,0-.065-.008-.1v-.019c0-.025,0-.052-.007-.078-.009-.093-.02-.186-.033-.278s-.026-.184-.043-.275c0-.026-.011-.053-.016-.078-.012-.065-.024-.13-.039-.193-.021-.09-.042-.18-.067-.269-.009-.035-.02-.07-.03-.105s-.02-.069-.031-.1-.022-.069-.033-.1-.023-.069-.035-.1c-.033-.091-.067-.182-.1-.273s-.075-.18-.116-.27c-.014-.031-.03-.062-.045-.093-.027-.058-.054-.116-.084-.174-.044-.087-.091-.176-.141-.262l-.01-.019c-.016-.028-.032-.056-.049-.085l0,0-.007-.011-.058-.1L59.72,74l-.038-.057-.02-.031c-.008-.011-.015-.023-.023-.035h0c-.066-.1-.133-.193-.2-.287-.009-.012-.017-.024-.025-.037-.078-.1-.158-.206-.24-.3-.039-.046-.08-.089-.12-.135s-.086-.1-.131-.147c-.086-.09-.175-.178-.264-.262l-.135-.122c-.046-.039-.092-.079-.138-.116l-.141-.113-.144-.107c-.1-.069-.2-.135-.3-.2s-.2-.121-.3-.177a5.52,5.52,0,0,0-.646-.3,5.742,5.742,0,0,0-.694-.219c-.119-.03-.241-.057-.364-.081s-.25-.043-.377-.061l-.53-.07h0c.178.024.357.039.532.046.087,0,.174,0,.261,0h0c.088,0,.175,0,.261-.008.173-.01.344-.03.514-.057a4.866,4.866,0,0,0,.5-.108c.067-.018.132-.037.2-.057l.049-.016c.05-.016.1-.032.148-.05.065-.023.131-.048.2-.073s.13-.054.194-.083l.032-.015h0c.046-.021.091-.043.136-.066h0l.136-.066.023-.012.012-.007c.1-.051.192-.105.286-.162L58.4,70.4c.008,0,.014-.009.021-.013.1-.059.191-.12.285-.185l.015-.01.009-.007q.155-.107.307-.225h0l.022-.016.009-.008.032-.024.032-.025.031-.024.1-.081c.033-.027.066-.054.1-.083l.1-.084.093-.085c.08-.074.158-.149.233-.226s.147-.155.218-.236.138-.161.2-.243.129-.167.19-.253l.06-.086.058-.087c.02-.029.038-.059.057-.088l.054-.089c.049-.08.095-.16.139-.241.032-.058.061-.117.091-.177.011-.023.024-.047.037-.071.04-.084.079-.168.116-.255.007-.014.011-.029.018-.043.03-.072.06-.145.087-.218l.028-.078,0-.012.007-.017.025-.074.031-.092c.009-.03.02-.061.029-.092q.027-.087.051-.175c.016-.059.032-.118.047-.177s.029-.12.042-.18.025-.122.038-.183c0-.027.01-.054.015-.081l.014-.081c0-.027.008-.054.013-.081s.008-.053.012-.079h0l.011-.084,0-.011.011-.094c0-.032.007-.063.01-.094l.008-.094c.008-.091.013-.182.017-.272s.006-.179,0-.269c0-.019,0-.037,0-.054,0-.07,0-.142-.006-.211q-.007-.132-.02-.262c0-.033-.007-.066-.01-.1s-.008-.065-.013-.1l-.014-.1h0l0-.012-.014-.084c-.017-.1-.036-.191-.058-.285s-.046-.188-.073-.281-.057-.184-.089-.275-.068-.182-.105-.272c-.014-.034-.029-.069-.044-.1s-.031-.069-.046-.1l-.049-.1c-.017-.034-.034-.068-.052-.1-.025-.049-.051-.1-.078-.145s-.054-.1-.083-.144-.057-.1-.087-.143-.061-.095-.092-.141-.063-.093-.095-.139l-.014-.022-.113-.154c-.039-.051-.077-.1-.116-.148s-.079-.1-.119-.142-.069-.079-.105-.117-.063-.067-.095-.1l-.012-.013c-.037-.038-.073-.073-.11-.109s-.074-.069-.113-.1a4.48,4.48,0,0,0-.562-.431M52.839,75.087a1.739,1.739,0,0,1,.27.305c.025.033.05.067.072.1s.044.07.065.107.039.076.056.116.034.08.049.121.022.062.031.095.018.064.026.1.016.068.023.1.013.07.019.105c.008.059.015.12.02.182s.008.128.009.193,0,.133,0,.2-.008.141-.014.214c0,.023-.008.048-.012.071s-.008.047-.013.07l-.014.07c0,.023-.01.046-.015.07s-.016.064-.023.095-.017.063-.026.094-.018.062-.027.092-.02.061-.03.091c-.033.094-.069.186-.108.274s-.084.176-.131.26-.1.165-.151.244-.112.155-.174.229l-.023.026-.023.026-.023.026-.023.025-.061.064-.062.061-.062.057-.06.052,0,0c-.055.046-.113.089-.17.129l-.015.01c-.019.013-.039.023-.057.036-.039.024-.077.05-.116.071a1.921,1.921,0,0,1-.189.09,1.844,1.844,0,0,1-.194.069,1.9,1.9,0,0,1-.407.073,2.216,2.216,0,0,1-.43-.014l-5.075-.654.129-.654L45.91,78l.037-.189.208-1.057.038-.188.037-.189.069-.352.139-.7.05-.253.024-.126.2-1.007,4.886.641a2.944,2.944,0,0,1,.486.1,2.219,2.219,0,0,1,.414.169c.044.023.085.051.125.077a1.762,1.762,0,0,1,.218.161m.842-9.865a1.561,1.561,0,0,1,.208.3l.03.058c.009.02.018.04.026.06s.017.04.024.061.016.042.023.063.02.062.028.094.017.065.023.1.013.066.019.1.009.069.013.1,0,.041,0,.062c0,.04.007.08.008.121,0,.063,0,.127,0,.193s-.01.132-.019.2-.021.139-.035.21l-.014.07L54,67.079c-.006.023-.012.045-.019.068s-.013.044-.021.066-.022.064-.034.095-.024.061-.038.091l-.042.089-.014.026-.033.061c-.026.046-.054.092-.085.136s-.063.088-.1.131-.069.084-.108.124c-.018.02-.038.038-.056.056s-.04.041-.062.061a1.866,1.866,0,0,1-.152.126l-.02.017a1.617,1.617,0,0,1-.179.116,1.485,1.485,0,0,1-.187.09c-.038.016-.077.026-.116.039s-.052.019-.078.025c-.041.01-.084.019-.126.025-.011,0-.022.006-.033.007a1.566,1.566,0,0,1-.162.017c-.055,0-.112,0-.168,0s-.115-.008-.173-.016l-4.112-.551.012-.06.011-.06.208-1.049.073-.376.207-1.048.055-.281.018-.094.04-.2.122-.616,4.1.558a1.79,1.79,0,0,1,.37.088,1.458,1.458,0,0,1,.316.158,1.373,1.373,0,0,1,.262.227" transform="translate(-2.187 -3.498)" fill="#e971a9"></path><path id="Path_153" data-name="Path 153" d="M17.117,108.577l5.848,45.047,43.053-8.176-5.09-44.232-15.214,2.556ZM59.852,138.7h0l.046.393.014.117.115.984.012.1.034.289.008.077.048.4L27.59,147.16l-.062-.486-.051-.4-.144-1.116-.051-.4-.143-1.118-.051-.4-.144-1.118-.052-.4-.143-1.119-.052-.4-.143-1.121-.052-.4-.144-1.12-.052-.4-.144-1.121-.051-.4-.144-1.122-.053-.4-.143-1.117-.054-.417-.135-1.056-.051-.4-.145-1.128-.052-.4-.145-1.129-.052-.4L25,126.924l-.052-.4-.145-1.132-.052-.4-.145-1.133-.053-.4-.145-1.133-.052-.4-.146-1.134-.052-.406-.146-1.135-.052-.406-.146-1.137-.053-.408-.146-1.136-.052-.408-.145-1.129-.054-.424-.118-.921,32.97-5.629.106.909.015.127.034.291h0l.131,1.113.047.4.09.771.041.349.047.4.131,1.12h0l.047.4.131,1.119.047.4.131,1.118.047.4.074.638.056.48.014.122.033.277.131,1.117.046.4.131,1.116.043.372,0,.026.01.095.119,1.02.047.4.13,1.113.047.4.13,1.112.047.4.118,1.012,0,.029.049.412.092.789.037.313.046.4.13,1.107.046.4.021.168.109.937.046.4.112.949.018.157.046.4.13,1.105.046.394.129,1.1.047.394.129,1.1.019.163.027.23.109.937Z" transform="translate(-1.042 -6.164)" fill="#f4b400"></path><path id="Path_154" data-name="Path 154" d="M16.228,108.21l28.6-4.8L60.04,100.85,42.747,95.207,2.518,101.8Z" transform="translate(-0.153 -5.798)" fill="#eeba2d"></path><path id="Path_155" data-name="Path 155" d="M22.076,153.685h0l-5.848-45.047-13.71-6.41L8.036,143.39Z" transform="translate(-0.153 -6.226)" fill="#ffc200"></path><path id="Path_156" data-name="Path 156" d="M23.65,113.679l32.97-5.629,3.907,33.434-32.538,6.092Z" transform="translate(-1.44 -6.58)" fill="#fff"></path></g></g><g id="Group_421" data-name="Group 421" transform="translate(22.209 101.47)"><g id="Group_420" data-name="Group 420" clip-path="url(#clip-path-32)"><path id="Path_157" data-name="Path 157" d="M23.65,113.679l32.97-5.629,3.907,33.434-32.538,6.092Z" transform="translate(-23.649 -108.051)" fill="#fff"></path><g id="Group_419" data-name="Group 419" transform="translate(-1.31 0.838)" opacity="0.09"><g id="Group_418" data-name="Group 418"><g id="Group_417" data-name="Group 417" clip-path="url(#clip-path-33)"><path id="Path_158" data-name="Path 158" d="M56.735,108.943l-34.481,6.037,0,.473,34.487-6.032-.006-.3Z" transform="translate(-22.254 -108.943)" fill="#bca4ce"></path><path id="Path_159" data-name="Path 159" d="M57.005,110.523,22.525,116.56l0,.473L57.015,111l-.006-.3Z" transform="translate(-22.271 -109.039)" fill="#bca4ce"></path><path id="Path_160" data-name="Path 160" d="M57.043,112.126,22.795,118.14l0,.474,34.255-6.009-.006-.3Z" transform="translate(-22.287 -109.137)" fill="#bca4ce"></path><path id="Path_161" data-name="Path 161" d="M57.313,113.706,23.065,119.72l0,.474,34.255-6.009-.006-.3Z" transform="translate(-22.304 -109.233)" fill="#bca4ce"></path><path id="Path_162" data-name="Path 162" d="M57.583,115.285,23.335,121.3l0,.474,34.255-6.009-.006-.3Z" transform="translate(-22.32 -109.33)" fill="#bca4ce"></path><path id="Path_163" data-name="Path 163" d="M57.853,116.864l-34.248,6.014,0,.474,34.255-6.009-.006-.3Z" transform="translate(-22.336 -109.426)" fill="#bca4ce"></path><path id="Path_164" data-name="Path 164" d="M58.123,118.444l-34.248,6.014,0,.474,34.255-6.009-.006-.3Z" transform="translate(-22.353 -109.522)" fill="#bca4ce"></path><path id="Path_165" data-name="Path 165" d="M58.393,120.023l-34.248,6.014,0,.474L58.4,120.5l-.006-.3Z" transform="translate(-22.369 -109.618)" fill="#bca4ce"></path><path id="Path_166" data-name="Path 166" d="M58.663,121.6l-34.248,6.014,0,.474,34.255-6.009-.006-.3Z" transform="translate(-22.386 -109.714)" fill="#bca4ce"></path><path id="Path_167" data-name="Path 167" d="M58.934,123.182,24.686,129.2l0,.474,34.255-6.009-.006-.3Z" transform="translate(-22.402 -109.81)" fill="#bca4ce"></path><path id="Path_168" data-name="Path 168" d="M59.2,124.761l-34.248,6.014,0,.474,34.255-6.009-.006-.3Z" transform="translate(-22.419 -109.907)" fill="#bca4ce"></path><path id="Path_169" data-name="Path 169" d="M59.474,126.34l-34.248,6.014,0,.474,34.255-6.009-.006-.3Z" transform="translate(-22.435 -110.003)" fill="#bca4ce"></path><path id="Path_170" data-name="Path 170" d="M59.744,127.919,25.5,133.933l0,.474L59.753,128.4l-.006-.3Z" transform="translate(-22.452 -110.099)" fill="#bca4ce"></path><path id="Path_171" data-name="Path 171" d="M60.014,129.5l-34.248,6.014,0,.474,34.255-6.009-.006-.3Z" transform="translate(-22.468 -110.195)" fill="#bca4ce"></path><path id="Path_172" data-name="Path 172" d="M60.284,131.078l-34.248,6.014,0,.474,34.255-6.009-.006-.3Z" transform="translate(-22.485 -110.291)" fill="#bca4ce"></path><path id="Path_173" data-name="Path 173" d="M60.554,132.657l-34.248,6.014,0,.474,34.255-6.009-.006-.3Z" transform="translate(-22.501 -110.388)" fill="#bca4ce"></path><path id="Path_174" data-name="Path 174" d="M60.824,134.237l-34.248,6.014,0,.474,34.255-6.009-.006-.3Z" transform="translate(-22.517 -110.484)" fill="#bca4ce"></path><path id="Path_175" data-name="Path 175" d="M61.094,135.816,26.846,141.83l0,.474L61.1,136.295,61.1,136Z" transform="translate(-22.534 -110.58)" fill="#bca4ce"></path><path id="Path_176" data-name="Path 176" d="M61.365,137.4l-34.248,6.014,0,.474,34.255-6.009-.006-.3Z" transform="translate(-22.55 -110.676)" fill="#bca4ce"></path><path id="Path_177" data-name="Path 177" d="M61.635,138.975l-34.248,6.014,0,.474,34.255-6.009-.006-.3Z" transform="translate(-22.567 -110.772)" fill="#bca4ce"></path><path id="Path_178" data-name="Path 178" d="M61.9,140.554l-34.248,6.014,0,.474,34.255-6.009-.006-.3Z" transform="translate(-22.583 -110.868)" fill="#bca4ce"></path><path id="Path_179" data-name="Path 179" d="M62.175,142.133l-34.248,6.014,0,.474,34.255-6.009-.006-.3Z" transform="translate(-22.6 -110.965)" fill="#bca4ce"></path></g></g></g></g></g><g id="Group_423" data-name="Group 423"><g id="Group_422" data-name="Group 422" clip-path="url(#clip-path)"><path id="Path_181" data-name="Path 181" d="M48.518,140.52a11.367,11.367,0,0,0,1.1-.628c.06-.038.12-.079.18-.119s.119-.082.178-.123l.177-.127.071-.053.1-.078.128-.1.085-.069.041-.032.057-.046.068-.056.03-.024.07-.058.024-.021.052-.045h0l.088-.077c.026-.022.054-.045.079-.069l.039-.033c.085-.076.168-.153.251-.23l.007-.007c.047-.044.093-.09.139-.134l.074-.072a.293.293,0,0,0,.024-.023l.03-.03.134-.137c.024-.024.049-.049.072-.074l.017-.017.009-.011.082-.085.068-.074.038-.041.044-.049.06-.067c.03-.034.06-.068.089-.1l.014-.015h0c.054-.063.106-.127.16-.191.031-.038.064-.075.095-.114l.013-.016c.079-.1.156-.2.232-.3.053-.07.1-.142.156-.213l.007-.008c.023-.034.049-.067.073-.1l0-.006c.075-.106.149-.213.222-.322l.054-.084.018-.026.011-.019c.014-.021.027-.042.04-.063l.009-.015.009-.014.022-.035c.017-.025.033-.051.049-.077l.062-.1.007-.01v0c.046-.076.091-.153.135-.23l.039-.066a.158.158,0,0,1,.012-.022l.013-.025.086-.156.056-.1q.08-.151.158-.3l0,0,0-.007,0-.008c.034-.068.066-.136.1-.2l.048-.1c.016-.036.033-.071.05-.107s.033-.071.049-.108.033-.071.049-.108.032-.072.047-.109l.028-.065c.011-.028.023-.056.036-.085,0-.01.008-.022.013-.033l.009-.023.034-.081,0-.008,0-.007c.01-.023.019-.047.028-.07s.02-.047.029-.071l0-.009.021-.054c.013-.033.025-.065.038-.1l-.924-.44h0l-.661-.316h0l-1.85-.882h0l-.646-.309-.013-.006-.347-.165-1.081-.516c-.047.079-.094.157-.141.233l-.011.019-.02.032c-.045.071-.089.143-.133.211s-.1.159-.153.236-.1.153-.153.227l-.08.116-.079.113-.016.022-.064.089-.08.108h0q-.139.187-.279.361c-.085.105-.168.206-.253.3l-.009.011-.017.02-.023.025c-.018.02-.036.038-.053.058-.069.076-.136.152-.2.223-.093.1-.186.192-.279.28l-.009.008-.121.113-.009.009,0,0-.095.084-.04.036-.135.113,0,0,0,0-.009.007c-.043.034-.085.068-.128.1s-.061.046-.092.068l-.046.035-.138.095-.1.065-.037.023-.026.015-.112.067a5.015,5.015,0,0,1-.458.263c-.069.034-.137.066-.206.1-.01,0-.02.009-.03.014h0c-.078.034-.157.066-.236.1-.118.044-.238.081-.358.115-.044.013-.087.026-.131.038-.068.017-.135.031-.2.044l-.079.016c-.074.014-.148.026-.224.037-.128.017-.259.027-.392.034l-.029,0h-.028c-.133,0-.27,0-.408,0-.04,0-.082-.008-.122-.012-.109-.008-.218-.016-.33-.031-.153-.022-.308-.049-.466-.084l-.013,0c-.076-.015-.151-.032-.225-.05l-.013,0-.069-.019-.151-.041-.023-.007c-.023-.007-.046-.015-.069-.023l-.133-.043-.035-.011-.061-.023c-.056-.021-.112-.041-.166-.064h0l0,0c-.051-.021-.1-.043-.151-.066l-.008,0-.01,0-.133-.064-.016-.007-.013-.007c-.045-.023-.088-.046-.132-.07l-.01-.006-.018-.009c-.044-.025-.089-.051-.133-.078h0c-.1-.058-.19-.121-.281-.187l-.025-.016,0,0-.006,0c-.1-.071-.193-.146-.285-.224l0,0-.007-.007c-.09-.077-.177-.159-.262-.243l-.007-.006,0-.006-.009-.01c-.083-.085-.164-.172-.242-.264h0l-.073-.088-.071-.09c-.023-.03-.047-.061-.069-.092s-.046-.063-.069-.094l-.029-.042-.03-.042-.028-.043c-.01-.014-.02-.029-.029-.043-.047-.069-.093-.139-.139-.209l-.009-.014c-.041-.066-.084-.132-.124-.2s-.086-.146-.128-.22-.083-.148-.123-.224l-.048-.093-.048-.093-.026-.054-.02-.04c-.016-.032-.031-.064-.046-.1-.039-.084-.078-.169-.116-.254s-.074-.174-.11-.262-.069-.177-.1-.267-.066-.181-.1-.273l-.007-.018c-.008-.027-.018-.054-.027-.081s-.022-.067-.032-.1-.022-.067-.032-.1l-.031-.1c-.024-.082-.048-.163-.07-.247l0-.011c-.023-.08-.043-.16-.064-.24-.016-.062-.031-.125-.046-.188,0-.024-.011-.045-.016-.069-.02-.085-.039-.173-.057-.26l-.02-.1-.02-.1c-.006-.033-.012-.066-.019-.1s-.012-.066-.018-.1-.01-.057-.015-.086-.009-.057-.015-.086l-.014-.086c0-.029-.009-.058-.013-.086-.01-.064-.02-.128-.028-.191l0-.018c-.008-.057-.016-.115-.023-.172s-.016-.125-.023-.187-.014-.122-.02-.182v-.007l0-.043v0l-.006-.052-.008-.1c0-.033-.006-.067-.008-.1s-.006-.066-.008-.1c-.007-.095-.012-.19-.016-.284s-.008-.188-.009-.281,0-.185,0-.277,0-.183,0-.273c0-.034,0-.068,0-.1l0-.063c0-.013,0-.026,0-.039v-.025c0-.024,0-.049,0-.073v0c0-.033,0-.067.007-.1.007-.1.015-.2.024-.291l0-.039c.009-.083.018-.166.029-.249s.025-.189.04-.282.032-.186.05-.278c.007-.035.013-.07.021-.1s.014-.069.022-.1.016-.069.023-.1.017-.069.024-.1l.031-.121,0-.006c.01-.039.02-.076.03-.114l.011-.039.015-.051.008-.029,0-.013c.01-.035.021-.07.032-.105v0c.016-.054.033-.108.05-.161l0-.015,0-.009c.017-.051.035-.1.054-.153l0-.013.006-.015c0-.013.01-.025.015-.038.015-.04.03-.08.046-.119.008-.018.016-.035.023-.053.016-.039.032-.076.05-.114h0l.051-.107,0,0v0c.01-.021.02-.039.03-.058l.02-.039,0-.009h0l0,0,.051-.095,0-.008.006-.01.008-.015.046-.08c.038-.063.082-.122.122-.183s.075-.12.117-.177c.074-.1.155-.2.239-.29l.015-.02.009-.01.01-.013.008-.008c.092-.1.189-.2.291-.291l.008-.007.011-.009c.029-.026.062-.05.092-.075.077-.067.154-.133.237-.2.051-.038.1-.073.153-.109l.011-.008c.056-.038.113-.075.171-.112s.117-.071.178-.106.122-.069.185-.1l.043-.022.043-.022.017-.008.018-.009.008,0,.043-.021c.123-.058.247-.112.371-.161l.056-.02c.105-.04.21-.078.316-.111s.2-.054.3-.079c.025-.006.052-.015.077-.021.085-.019.17-.032.255-.046.039-.008.08-.017.119-.023.057-.008.116-.011.173-.017s.138-.017.208-.022h0c.052,0,.1,0,.154,0,.078,0,.155-.007.233,0,.129,0,.258.009.387.023s.259.03.389.054l.126.023.125.027.126.03.126.033.115.035.114.036.113.039.112.04q.208.079.409.175c.134.064.266.133.4.209s.258.155.384.241.251.178.373.275l.089.073.012.009,0,0,.1.083.1.087c.033.03.066.06.1.091.078.072.156.148.232.226s.151.158.225.241.148.168.221.255.145.178.215.271l.068.089.069.094.071.1.058.083.017.025,2.973-.43,2.983-.432-.064-.394-.134-.829-.044-.269L53,120.991l-.052-.321-.007-.037-.082-.5-.09-.56-.063-.392-.081-.5-.085-.519-.012-.078-.047-.285-.017-.107-.177-1.1-.063-.392-.177-1.094-.063-.391-.177-1.094-.064-.39-.043-.272-3.354.485-.027.282-.039.4-.109,1.133-.039.394c-.048-.026-.1-.053-.147-.078l-.147-.077c-.05-.025-.1-.051-.149-.075l-.149-.073-.129-.062-.13-.059c-.043-.021-.086-.039-.131-.059l-.131-.057c-.134-.058-.269-.113-.4-.165s-.27-.1-.4-.15-.271-.092-.407-.134-.272-.083-.408-.12c-.077-.022-.154-.041-.232-.061l-.037-.009-.158-.038-.112-.026c-.089-.021-.179-.039-.27-.057s-.18-.036-.27-.051q-.456-.08-.917-.124t-.925-.049q-.463-.007-.932.024t-.938.1c-.162.024-.324.05-.484.079l-.011,0c-.156.029-.31.06-.463.094-.313.07-.619.15-.918.243s-.594.194-.88.309c-.2.078-.386.163-.576.252-.088.041-.177.082-.264.125l-.076.039-.165.085c-.08.042-.159.085-.238.131s-.156.089-.234.136-.155.093-.231.142q-.206.131-.407.272l-.048.032c-.022.015-.042.032-.064.048q-.158.113-.313.232c-.021.017-.043.032-.065.048l-.026.023c-.118.093-.234.19-.349.287l-.044.037-.007.006-.008.008c-.137.119-.272.241-.4.368l-.053.051-.064.062-.116.115c-.023.023-.046.046-.069.07l-.045.046-.113.118c-.058.062-.115.126-.173.19-.032.036-.066.071-.1.108-.089.1-.177.2-.264.309s-.155.191-.231.288l0,.006-.022.026,0,0-.024.032c-.075.1-.149.2-.224.3-.016.022-.032.043-.047.066l-.02.026-.009.013,0,0-.01.014-.069.1c-.028.039-.056.081-.085.123l-.041.061-.023.034-.027.041c-.028.041-.054.083-.082.124l-.057.087c-.017.027-.035.053-.052.079-.062.1-.123.2-.182.293s-.118.2-.175.295-.113.2-.166.3c-.019.034-.037.068-.054.1l0,.006-.006.01c-.015.026-.028.054-.042.08l-.009.017-.006.012-.047.09,0,0h0l0,0-.045.087-.008.015c-.048.1-.1.194-.142.293s-.091.2-.135.3-.085.2-.127.3-.081.2-.12.3c-.011.031-.023.062-.035.092l0,.012h0l-.024.065-.014.039-.038.1-.037.105c-.033.1-.065.192-.1.288s-.061.192-.089.289-.057.193-.084.291-.052.2-.076.293c-.008.035-.017.069-.024.1s-.017.069-.024.1-.016.069-.023.1l-.023.1c-.02.094-.038.188-.057.282s-.035.189-.051.285-.031.19-.045.285-.027.191-.038.287c0,.034-.008.068-.012.1s-.008.067-.012.1-.007.068-.01.1-.007.068-.01.1c-.008.092-.017.185-.023.278s-.013.186-.018.28-.009.188-.013.282-.006.188-.008.283c0,.033,0,.067,0,.1s0,.067,0,.1,0,.067,0,.1v.1c0,.091,0,.183.006.275s.007.183.01.276.009.184.016.277.013.186.021.279l.008.1.008.1c0,.034.007.067.01.1s.007.066.009.1c.008.063.014.125.022.187l.023.188.025.188c.009.063.018.126.028.189,0,.029.008.057.013.086s.008.057.013.086l.014.085c0,.028.01.057.015.085l.017.1c.006.033.012.065.018.1s.012.065.018.1.013.065.019.1c.017.085.035.172.053.257s.037.17.056.255.039.169.06.254.041.167.063.25c.009.034.019.068.027.1s.019.067.027.1l.028.1c.01.034.02.067.029.1.026.09.054.18.082.27s.056.179.086.268.059.177.09.264.063.175.095.262l.037.1.037.095c.012.032.025.063.038.095l.039.095c.037.09.074.179.113.269s.078.178.117.266.082.175.123.262.085.174.129.259l.048.094c.016.032.033.063.049.094l.05.093.051.094c.048.088.1.177.148.265s.1.175.154.261.105.172.16.257.11.17.166.255l.062.092c.021.031.042.062.064.092l.063.092.065.091c.063.087.127.174.192.26s.131.172.2.256.134.168.2.252.139.166.21.248l.079.091.08.09.082.089.082.089c.079.085.16.17.242.255s.165.167.249.25.171.164.257.245.176.162.265.241l.1.088.023.02,0,0,.079.069h0l0,0c.035.029.07.06.109.091s.054.045.081.069l.011.009.027.023.006,0c.1.085.2.167.3.248s.2.16.306.238.206.152.309.226.207.146.311.215l.13.086.13.085.131.083.131.081q.217.132.436.255t.44.234c.148.075.3.146.446.214s.3.132.45.193l.2.08c.068.026.136.052.2.076s.136.049.2.072l.206.068a11.293,11.293,0,0,0,1.168.3l.062.014c.046.008.092.014.137.023.3.055.594.1.894.129.078.008.154.019.232.025s.158.008.237.013c.349.022.7.032,1.058.023a12.867,12.867,0,0,0,1.327-.106,12.009,12.009,0,0,0,1.261-.236c.206-.05.409-.106.61-.167l.016,0c.2-.06.389-.124.58-.194s.391-.149.582-.232.382-.171.569-.265" transform="translate(-1.836 -6.879)" fill="#f4b400"></path><path id="Path_182" data-name="Path 182" d="M114.9,151.377V140.865h1.934v8.819h4.5v1.693Z" transform="translate(-6.998 -8.579)" fill="#002e54"></path><path id="Path_183" data-name="Path 183" d="M125,151.377l3.626-10.512h2.483l3.627,10.512h-2.089l-.748-2.244h-4.064l-.762,2.244Zm3.385-3.951h2.95l-1.736-5.221h.536Z" transform="translate(-7.613 -8.579)" fill="#002e54"></path><path id="Path_184" data-name="Path 184" d="M140.758,151.377l-2.822-10.512H140l2.216,8.96h-.536l2.3-8.96h2l2.3,8.96h-.536l2.215-8.96h2.06L149.2,151.377H147l-2.329-8.706h.621l-2.327,8.706Z" transform="translate(-8.401 -8.579)" fill="#002e54"></path><path id="Path_185" data-name="Path 185" d="M167.451,151.535a5.258,5.258,0,0,1-2.089-.409,5,5,0,0,1-1.665-1.143,5.386,5.386,0,0,1-1.108-1.721,5.678,5.678,0,0,1-.4-2.159,5.8,5.8,0,0,1,.394-2.166,5.143,5.143,0,0,1,1.107-1.721,5.067,5.067,0,0,1,1.666-1.129,5.318,5.318,0,0,1,2.1-.4,5.138,5.138,0,0,1,2.025.381,4.684,4.684,0,0,1,1.517,1.009,3.763,3.763,0,0,1,.889,1.376l-1.721.819a2.782,2.782,0,0,0-2.709-1.834,3.252,3.252,0,0,0-1.742.465,3.152,3.152,0,0,0-1.172,1.285,4.186,4.186,0,0,0-.416,1.919,4.229,4.229,0,0,0,.416,1.926,3.135,3.135,0,0,0,1.172,1.291,3.244,3.244,0,0,0,1.742.466,2.8,2.8,0,0,0,2.709-1.82l1.721.8a3.755,3.755,0,0,1-.889,1.376,4.669,4.669,0,0,1-1.517,1.009,5.12,5.12,0,0,1-2.025.381" transform="translate(-9.878 -8.568)" fill="#002e54"></path><path id="Path_186" data-name="Path 186" d="M176.988,151.377V140.865h7v1.693h-5.065v2.7H183.7v1.707h-4.783v2.723h5.065v1.693Z" transform="translate(-10.779 -8.579)" fill="#002e54"></path><path id="Path_187" data-name="Path 187" d="M188.768,151.377V140.865h1.509l5.772,7.789-.763.155v-7.944h1.92v10.512h-1.524L190,143.532l.706-.156v8Z" transform="translate(-11.496 -8.579)" fill="#002e54"></path><path id="Path_188" data-name="Path 188" d="M204.564,151.377v-8.819h-2.723v-1.693h7.337v1.693H206.5v8.819Z" transform="translate(-12.292 -8.579)" fill="#002e54"></path><path id="Path_189" data-name="Path 189" d="M213.726,151.377V140.865h7v1.693H215.66v2.7h4.783v1.707H215.66v2.723h5.065v1.693Z" transform="translate(-13.016 -8.579)" fill="#002e54"></path><path id="Path_190" data-name="Path 190" d="M225.505,151.377V140.865h3.923a4.409,4.409,0,0,1,1.9.388,2.989,2.989,0,0,1,1.291,1.129,3.348,3.348,0,0,1,.466,1.813,3.238,3.238,0,0,1-.516,1.842,3.054,3.054,0,0,1-1.391,1.136l2.414,4.2h-2.174l-2.6-4.615,1.257.734h-2.64v3.88Zm1.933-5.574h2.019a1.886,1.886,0,0,0,.9-.2,1.473,1.473,0,0,0,.593-.572,1.815,1.815,0,0,0,0-1.7,1.486,1.486,0,0,0-.593-.564,1.886,1.886,0,0,0-.9-.2h-2.019Z" transform="translate(-13.734 -8.579)" fill="#002e54"></path><path id="Path_191" data-name="Path 191" d="M242,151.535a4.609,4.609,0,0,1-1.842-.367,4.311,4.311,0,0,1-1.467-1.023,4.164,4.164,0,0,1-.91-1.531l1.609-.692a3.245,3.245,0,0,0,1.1,1.419,2.72,2.72,0,0,0,1.622.515,2.211,2.211,0,0,0,.883-.162,1.365,1.365,0,0,0,.578-.444,1.13,1.13,0,0,0,.2-.677,1.078,1.078,0,0,0-.275-.763,1.964,1.964,0,0,0-.825-.48l-2.018-.649a3.8,3.8,0,0,1-1.856-1.135,2.723,2.723,0,0,1-.627-1.8,2.847,2.847,0,0,1,.451-1.595,3.047,3.047,0,0,1,1.249-1.08,4.129,4.129,0,0,1,1.827-.388,4.451,4.451,0,0,1,1.735.332,4.084,4.084,0,0,1,1.361.917,3.745,3.745,0,0,1,.855,1.376l-1.595.705a2.547,2.547,0,0,0-.924-1.213,2.448,2.448,0,0,0-1.432-.438,2.081,2.081,0,0,0-.847.162,1.311,1.311,0,0,0-.571.459,1.2,1.2,0,0,0,.077,1.446,1.821,1.821,0,0,0,.861.515l1.933.607a4.14,4.14,0,0,1,1.884,1.129,2.608,2.608,0,0,1,.628,1.779,2.787,2.787,0,0,1-.466,1.594,3.17,3.17,0,0,1-1.284,1.087,4.378,4.378,0,0,1-1.919.394" transform="translate(-14.481 -8.568)" fill="#002e54"></path><rect id="Rectangle_282" data-name="Rectangle 282" width="1.128" height="14.605" transform="translate(246.245 129.592)" fill="#818386"></rect><path id="Path_192" data-name="Path 192" d="M280.019,151.376V140.864h3.613a3.872,3.872,0,0,1,1.8.4,2.957,2.957,0,0,1,1.208,1.129,3.255,3.255,0,0,1,.43,1.687,3.034,3.034,0,0,1-2.173,3.02l2.455,4.275H286.03l-2.568-4.529.762.438h-3.076v4.092Zm1.129-5.15h2.539a2.564,2.564,0,0,0,1.186-.261,1.908,1.908,0,0,0,.791-.748,2.258,2.258,0,0,0,.281-1.15,2.218,2.218,0,0,0-.281-1.143,1.923,1.923,0,0,0-.791-.741,2.564,2.564,0,0,0-1.186-.261h-2.539Z" transform="translate(-17.054 -8.579)" fill="#002e54"></path><path id="Path_193" data-name="Path 193" d="M292.49,151.377V140.865h6.774v1.058h-5.645v3.654h5.362v1.058h-5.362v3.683h5.645v1.058Z" transform="translate(-17.813 -8.579)" fill="#002e54"></path><rect id="Rectangle_283" data-name="Rectangle 283" width="1.129" height="10.512" transform="translate(285.98 132.285)" fill="#002e54"></rect><path id="Path_194" data-name="Path 194" d="M312.962,151.377v-9.454h-2.907v-1.058h6.916v1.058h-2.879v9.454Z" transform="translate(-18.883 -8.579)" fill="#002e54"></path><path id="Path_195" data-name="Path 195" d="M321.746,151.377V140.865h6.774v1.058h-5.645v3.654h5.362v1.058h-5.362v3.683h5.645v1.058Z" transform="translate(-19.595 -8.579)" fill="#002e54"></path><path id="Path_196" data-name="Path 196" d="M333.781,151.376V140.864h3.613a3.872,3.872,0,0,1,1.805.4,2.957,2.957,0,0,1,1.208,1.129,3.255,3.255,0,0,1,.43,1.687,3.034,3.034,0,0,1-2.173,3.02l2.455,4.275h-1.326l-2.568-4.529.762.438H334.91v4.092Zm1.129-5.15h2.539a2.564,2.564,0,0,0,1.186-.261,1.909,1.909,0,0,0,.791-.748,2.257,2.257,0,0,0,.281-1.15,2.217,2.217,0,0,0-.281-1.143,1.924,1.924,0,0,0-.791-.741,2.564,2.564,0,0,0-1.186-.261H334.91Z" transform="translate(-20.328 -8.579)" fill="#002e54"></path><path id="Path_197" data-name="Path 197" d="M354.1,151.535a3.379,3.379,0,0,1-1.51-.325,2.524,2.524,0,0,1-1.044-.917,2.494,2.494,0,0,1-.38-1.382,2.7,2.7,0,0,1,.254-1.2,3.469,3.469,0,0,1,.625-.91,5.141,5.141,0,0,1,.763-.656c.257-.178.477-.324.655-.438l.734-.452a7.777,7.777,0,0,0,.783-.543,2.839,2.839,0,0,0,.649-.705,1.616,1.616,0,0,0,.261-.9,1.4,1.4,0,0,0-2.378-.988,1.372,1.372,0,0,0-.388,1,1.72,1.72,0,0,0,.191.776,3.784,3.784,0,0,0,.48.727c.193.231.392.454.6.671l5.787,6.068h-1.511l-5.164-5.334c-.225-.235-.454-.5-.684-.783a4.542,4.542,0,0,1-.585-.946,2.63,2.63,0,0,1-.241-1.135A2.4,2.4,0,0,1,353.247,141a2.654,2.654,0,0,1,2.5-.007,2.415,2.415,0,0,1,.9.86,2.352,2.352,0,0,1,.338,1.257,2.415,2.415,0,0,1-.346,1.3,3.705,3.705,0,0,1-.839.953,10.242,10.242,0,0,1-.917.663l-.705.438a9.7,9.7,0,0,0-.806.571,3.342,3.342,0,0,0-.718.777,1.869,1.869,0,0,0-.3,1.065,1.479,1.479,0,0,0,.495,1.186,1.884,1.884,0,0,0,1.271.423,2.275,2.275,0,0,0,.9-.169,2.6,2.6,0,0,0,.705-.445,3.917,3.917,0,0,0,.564-.621q.254-.345.479-.684l1.624-2.413h1.284l-1.89,2.878q-.227.354-.55.783a5.58,5.58,0,0,1-.762.819,3.8,3.8,0,0,1-1.023.641,3.382,3.382,0,0,1-1.361.255" transform="translate(-21.387 -8.568)" fill="#002e54"></path><path id="Path_198" data-name="Path 198" d="M372.773,151.377l-3.02-10.512H370.9l2.61,9.412h-.24l2.682-9.412h1.2l2.667,9.412h-.253l2.624-9.412h1.143l-3.02,10.512h-1.2l-2.694-9.454h.254l-2.7,9.454Z" transform="translate(-22.519 -8.579)" fill="#002e54"></path><path id="Path_199" data-name="Path 199" d="M386.777,151.377l3.838-10.513h1.214l3.838,10.513h-1.186l-.9-2.568h-4.7l-.917,2.568Zm2.47-3.627h3.937l-2.131-6.039h.339Z" transform="translate(-23.556 -8.579)" fill="#002e54"></path><path id="Path_200" data-name="Path 200" d="M400.571,151.377V140.865H401.7v9.454h4.656v1.058Z" transform="translate(-24.395 -8.579)" fill="#002e54"></path><path id="Path_201" data-name="Path 201" d="M414.9,151.535a4.252,4.252,0,0,1-1.82-.381,4.119,4.119,0,0,1-1.383-1.023,3.863,3.863,0,0,1-.8-1.418l1.016-.381a3.215,3.215,0,0,0,1.143,1.63,3.083,3.083,0,0,0,1.849.557,3.04,3.04,0,0,0,1.193-.218,1.833,1.833,0,0,0,.8-.614,1.54,1.54,0,0,0,.282-.917,1.624,1.624,0,0,0-.423-1.2,2.759,2.759,0,0,0-1.214-.649l-1.89-.564a3.269,3.269,0,0,1-1.715-1.087,2.73,2.73,0,0,1-.6-1.736,2.69,2.69,0,0,1,.409-1.474,2.856,2.856,0,0,1,1.122-1.009,3.483,3.483,0,0,1,1.615-.367,4.036,4.036,0,0,1,1.7.346,3.965,3.965,0,0,1,1.278.911,3.391,3.391,0,0,1,.747,1.256l-.988.4a2.776,2.776,0,0,0-1.051-1.411,2.929,2.929,0,0,0-1.673-.48,2.52,2.52,0,0,0-1.065.211,1.651,1.651,0,0,0-.713.607,1.683,1.683,0,0,0-.255.932,1.826,1.826,0,0,0,.409,1.165,2.442,2.442,0,0,0,1.257.769l1.664.494a4.038,4.038,0,0,1,1.877,1.058,2.466,2.466,0,0,1,.635,1.735,2.6,2.6,0,0,1-.43,1.488,2.914,2.914,0,0,1-1.2,1.009,4.061,4.061,0,0,1-1.771.367" transform="translate(-25.024 -8.568)" fill="#002e54"></path><path id="Path_202" data-name="Path 202" d="M423.936,151.377V140.865h1.129v4.726h5.645v-4.726h1.128v10.512H430.71v-4.727h-5.645v4.727Z" transform="translate(-25.819 -8.579)" fill="#002e54"></path><path id="Path_203" data-name="Path 203" d="M437.714,153.792V153.3a.984.984,0,0,0,.621-.438,1.737,1.737,0,0,0,.2-.9H438v-1.552h1.129v1.185a2.733,2.733,0,0,1-.353,1.475,1.652,1.652,0,0,1-1.058.726" transform="translate(-26.658 -9.16)" fill="#002e54"></path><path id="Path_204" data-name="Path 204" d="M450.126,151.376V140.864h3.613a3.871,3.871,0,0,1,1.8.4,2.958,2.958,0,0,1,1.208,1.129,3.256,3.256,0,0,1,.43,1.687,3.214,3.214,0,0,1-.43,1.679,2.978,2.978,0,0,1-1.2,1.122,3.865,3.865,0,0,1-1.812.4h-2.484v4.092Zm1.129-5.15h2.539a2.564,2.564,0,0,0,1.186-.261,1.909,1.909,0,0,0,.791-.748,2.258,2.258,0,0,0,.281-1.15,2.218,2.218,0,0,0-.281-1.143,1.924,1.924,0,0,0-.791-.741,2.564,2.564,0,0,0-1.186-.261h-2.539Z" transform="translate(-27.414 -8.579)" fill="#002e54"></path><rect id="Rectangle_284" data-name="Rectangle 284" width="1.129" height="1.552" transform="translate(433.536 141.246)" fill="#002e54"></rect><path id="Path_205" data-name="Path 205" d="M473.339,151.535a5.116,5.116,0,0,1-2.046-.4A4.8,4.8,0,0,1,469.678,150a5.169,5.169,0,0,1-1.066-1.715,6.4,6.4,0,0,1,0-4.346,5.257,5.257,0,0,1,1.066-1.721,4.748,4.748,0,0,1,1.614-1.135,5.1,5.1,0,0,1,2.046-.4,4.69,4.69,0,0,1,1.927.381,4.643,4.643,0,0,1,1.439.98,3.746,3.746,0,0,1,.84,1.263l-1.058.466a3.376,3.376,0,0,0-1.208-1.474,3.339,3.339,0,0,0-1.94-.558,3.881,3.881,0,0,0-2.06.55,3.791,3.791,0,0,0-1.411,1.532,5.412,5.412,0,0,0,0,4.579,3.736,3.736,0,0,0,1.411,1.531,3.911,3.911,0,0,0,2.06.543,3.37,3.37,0,0,0,1.94-.55,3.33,3.33,0,0,0,1.208-1.467l1.058.465a3.771,3.771,0,0,1-.84,1.249,4.611,4.611,0,0,1-1.439.98,4.674,4.674,0,0,1-1.927.381" transform="translate(-28.516 -8.568)" fill="#002e54"></path><rect id="Rectangle_285" data-name="Rectangle 285" width="1.129" height="1.552" transform="translate(453.925 141.246)" fill="#002e54"></rect></g></g></g></svg> 